<svg width="69" height="89" viewBox="0 0 69 89" fill="none" xmlns="http://www.w3.org/2000/svg">
<path fill-rule="evenodd" clip-rule="evenodd" d="M68.5477 51.1825C68.8689 51.4833 68.8956 51.9869 68.6033 52.3202L37.8307 87.4009L38.0412 87.6409C38.3394 87.9809 38.3056 88.4984 37.9655 88.7967C37.6255 89.095 37.108 89.0611 36.8098 88.7211L35.1699 86.8516L33.4714 88.73C33.1681 89.0656 32.6501 89.0916 32.3146 88.7883C31.9791 88.4849 31.953 87.967 32.2564 87.6315L34.0824 85.6119L4.73994 52.1615L1.80047 52.1615C1.34814 52.1615 0.981445 51.7948 0.981445 51.3425C0.981445 50.8901 1.34814 50.5234 1.80047 50.5234H3.36541C3.24056 50.2103 3.31843 49.8393 3.5863 49.6043C3.92635 49.306 4.44382 49.3399 4.7421 49.6799L5.48201 50.5234H6.52979C6.53455 50.5061 6.53989 50.4889 6.54578 50.4719H6.20218C5.74985 50.4719 5.38316 50.1052 5.38316 49.6528C5.38316 49.2005 5.74985 48.8338 6.20218 48.8338H22.0221L20.4326 4.51056H19.3126C18.8602 4.51056 18.4935 4.14388 18.4935 3.69154C18.4935 3.23921 18.8602 2.87252 19.3126 2.87252H20.3739L20.3695 2.751C20.3615 2.52678 20.4444 2.32038 20.5851 2.16732C20.5043 2.04037 20.4574 1.88967 20.4574 1.72803C20.4574 1.27569 20.8241 0.909007 21.2765 0.909007L24.0003 0.909007C24.1318 0.65498 24.3927 0.477263 24.6989 0.466283C25.026 0.454552 25.3152 0.636334 25.4562 0.909007L47.0539 0.909008L47.0696 0.742335C47.112 0.291993 47.5114 -0.0387238 47.9618 0.00365871C48.4121 0.0460413 48.7428 0.445473 48.7005 0.895815L48.5144 2.87253L51.3932 2.87253C51.8455 2.87253 52.2122 3.23921 52.2122 3.69154C52.2122 4.14388 51.8455 4.51056 51.3932 4.51056H48.3603L46.8513 20.5449C46.9308 20.6263 46.9899 20.7203 47.0287 20.8203L48.4565 5.64888C48.4989 5.19854 48.8983 4.86782 49.3486 4.91021C49.799 4.95259 50.1297 5.35202 50.0873 5.80236L46.1423 47.7209C46.1266 47.8874 46.0621 48.0375 45.9644 48.1585H67.1023C67.5546 48.1585 67.9213 48.5252 67.9213 48.9775C67.9213 49.4299 67.5546 49.7965 67.1023 49.7965H53.7048L53.7563 49.8481H67.9111C68.3635 49.8481 68.7302 50.2148 68.7302 50.6671C68.7302 50.8624 68.6618 51.0418 68.5477 51.1825ZM67.1559 51.4861H65.1259C65.0948 51.5948 65.0406 51.6988 64.9627 51.7905L63.4593 53.5615C63.6441 53.569 63.8275 53.6387 63.9754 53.7724C64.3109 54.0758 64.3369 54.5937 64.0336 54.9292L36.2759 85.6284L36.7412 86.1589L67.1559 51.4861ZM35.1884 84.3887L35.2574 84.3124C35.2145 84.3183 35.1712 84.3208 35.128 84.3199L35.1884 84.3887ZM35.9633 83.5318L36.1761 83.2964C36.206 83.1802 36.262 83.0688 36.3449 82.9712L38.0671 80.9425C37.9737 80.9026 37.8862 80.8446 37.8099 80.7683L9.33164 52.2901C10.1212 53.3065 11.0222 54.253 11.9569 55.224C12.0058 55.2748 12.0547 55.3256 12.1038 55.3765C13.5374 56.8649 15.043 58.4279 16.1417 60.3245C16.1776 60.3865 16.2142 60.4484 16.2513 60.5103L35.7631 82.9639C35.9051 83.1273 35.9708 83.3312 35.9633 83.5318ZM11.5196 52.1615L38.9682 79.6101C39.0113 79.6532 39.0486 79.6999 39.0801 79.7492L40.4017 78.1923L14.3709 52.1615H11.5196ZM16.6875 52.1615L41.4653 76.9394L43.2288 74.862L20.5443 52.1774C20.539 52.1722 20.5338 52.1668 20.5288 52.1615H16.6875ZM22.8449 52.1615L44.2924 73.609L48.202 69.0036C48.1831 68.9878 48.1648 68.9711 48.1471 68.9534L27.2241 48.0304L27.3135 50.5234H27.3899C27.8423 50.5234 28.209 50.8901 28.209 51.3425C28.209 51.6193 28.0716 51.8641 27.8613 52.0123L45.8594 70.0104C46.1793 70.3303 46.1793 70.8488 45.8594 71.1687C45.5396 71.4885 45.021 71.4885 44.7012 71.1687L25.995 52.4625C25.9069 52.3744 25.8431 52.2713 25.8035 52.1615H22.8449ZM25.6744 50.5234L25.6726 50.4719H23.2822C23.2479 50.4915 23.2121 50.5088 23.1749 50.5234H25.6744ZM22.575 50.5234H15.0494L14.9979 50.4719H22.4677C22.502 50.4916 22.5378 50.5088 22.575 50.5234ZM12.7708 50.4719C12.7779 50.4893 12.7857 50.5065 12.794 50.5234H9.88157L9.82999 50.4719H12.7708ZM8.21542 50.4719H8.10778C8.11753 50.4891 8.12732 50.5063 8.13714 50.5234H8.1968C8.20242 50.5061 8.20863 50.4889 8.21542 50.4719ZM23.6612 48.8338H23.819L22.2295 4.51056H22.0717L23.6612 48.8338ZM22.013 2.87252L23.9656 2.87252L23.954 2.54705L21.9884 2.54705C21.9985 2.59403 22.0047 2.64257 22.0065 2.6923L22.013 2.87252ZM25.5931 2.54705L25.6047 2.87252H26.8823C26.8141 2.77294 26.7704 2.66165 26.7511 2.54705H25.5931ZM28.8535 2.54705L29.179 2.87252H33.386C33.3902 2.76083 33.417 2.64983 33.4667 2.54705H28.8535ZM35.0066 2.54705L35.3321 2.87252H39.1748C39.1625 2.76367 39.172 2.65282 39.2033 2.54705H35.0066ZM40.9139 2.54705L41.2394 2.87252L46.8692 2.87253L46.8998 2.54705L40.9139 2.54705ZM46.715 4.51056H42.8774L46.1058 7.73891C46.4256 8.05876 46.4256 8.57733 46.1058 8.89718C45.7859 9.21702 45.2673 9.21702 44.9475 8.89718L40.5609 4.51056H36.9701L45.8768 13.4172L46.715 4.51056ZM45.7259 15.0199C45.456 15.0873 45.1585 15.0155 44.9475 14.8045L34.6536 4.51056L30.817 4.51056L45.3475 19.041L45.7259 15.0199ZM45.1482 21.1583L28.5005 4.51056H25.6635L25.6732 4.7822L44.8817 23.9907L45.1482 21.1583ZM44.7048 25.8703C44.5238 25.8519 44.3478 25.7733 44.2092 25.6347L25.7594 7.1849L25.8838 10.6534L44.3948 29.1644L44.7048 25.8703ZM44.2018 31.2151C44.1152 31.1756 44.0341 31.1203 43.9628 31.049L25.9699 13.0561L26.131 17.5464L43.8231 35.2386L44.2018 31.2151ZM43.6268 37.3251C43.5712 37.2916 43.5188 37.2508 43.4708 37.2029L26.2171 19.9491L26.2447 20.7186C26.3517 20.7583 26.4521 20.8212 26.5381 20.9072L43.5691 37.9381L43.6268 37.3251ZM43.4388 39.3218C43.1309 39.4796 42.744 39.4296 42.4862 39.1718L26.327 23.0126L26.5429 29.0341L42.8704 45.3616L43.4388 39.3218ZM42.6753 47.4352C42.6074 47.3984 42.5436 47.3513 42.4862 47.2939L26.6291 31.4368L26.6528 32.0983L42.6163 48.0618L42.6753 47.4352ZM42.4354 49.9839C42.2736 49.9566 42.1184 49.8804 41.9936 49.7556L26.739 34.501L26.9 38.9908L52.2014 64.2922L54.6412 61.4182L43.8663 50.6432C43.699 50.8367 43.4437 50.9491 43.1696 50.9233C42.7193 50.8809 42.3886 50.4815 42.431 50.0312L42.4354 49.9839ZM45.3361 49.7965L45.4557 49.9161C45.556 49.8724 45.6667 49.8481 45.783 49.8481H52.1538C52.161 49.8307 52.1688 49.8135 52.1773 49.7965H45.3361ZM53.0778 51.4861H47.0258L55.7048 60.1652L58.7057 56.6302C58.4541 56.6716 58.187 56.5953 57.9929 56.4012L53.0778 51.4861ZM59.3911 55.8228L63.0725 51.4861H55.3944L59.1512 55.243C59.3113 55.4031 59.3913 55.613 59.3911 55.8228ZM51.1389 65.5439C51.126 65.5326 51.1134 65.5207 51.101 65.5084L26.9861 41.3935L27.138 45.6277L49.2635 67.7532L51.1389 65.5439ZM25.4925 45.4486L25.0389 32.8009L24.8773 32.6393L25.4562 48.7819C25.4568 48.7993 25.4569 48.8166 25.4564 48.8338H25.6139L25.5232 46.3072C25.3511 46.0494 25.3408 45.7155 25.4925 45.4486ZM24.8104 30.7752C24.8616 30.7649 24.9136 30.7594 24.9657 30.7589L24.929 29.7367L24.7674 29.5751L24.8104 30.7752ZM24.6813 27.1726C24.6849 27.1761 24.6885 27.1797 24.6921 27.1833L24.8429 27.334L24.5171 18.2491L24.3555 18.0875L24.6813 27.1726ZM24.3097 16.811C24.357 16.7692 24.4081 16.7337 24.4617 16.7047L24.2699 11.356L24.1083 11.1944L24.3097 16.811ZM24.0376 9.22516C24.0895 9.22041 24.1417 9.22058 24.1935 9.22567L24.0593 5.48484L23.8977 5.32324L24.0376 9.22516ZM44.2525 48.1585H44.6895C44.56 47.9981 44.4906 47.7889 44.5114 47.5674L46.9599 21.5504C46.9276 21.6021 46.889 21.6509 46.8441 21.6959C46.8096 21.7303 46.7728 21.7611 46.7342 21.7881L44.2525 48.1585ZM7.05569 52.1615H6.91889L7.08974 52.3562C7.07043 52.2926 7.05912 52.2271 7.05569 52.1615Z" fill="white"/>
</svg>
