<svg width="146" height="112" viewBox="0 0 146 112" fill="none" xmlns="http://www.w3.org/2000/svg">
<path fill-rule="evenodd" clip-rule="evenodd" d="M83.7772 0.423795C84.2695 -0.10202 85.0939 -0.145673 85.6394 0.332809L143.061 50.7024L143.453 50.3579C144.01 49.8697 144.857 49.9251 145.345 50.4817C145.834 51.0383 145.778 51.8853 145.222 52.3735L142.162 55.0577L145.236 57.8378C145.785 58.3344 145.828 59.1821 145.332 59.7313C144.835 60.2805 143.987 60.3231 143.438 59.8266L140.132 56.8377L85.3796 104.866V109.678C85.3796 110.418 84.7794 111.018 84.039 111.018C83.2986 111.018 82.6984 110.418 82.6984 109.678V107.116C82.1859 107.321 81.5786 107.193 81.194 106.755C80.7057 106.198 80.7612 105.351 81.3178 104.863L82.6984 103.652V101.937C82.67 101.929 82.6419 101.92 82.614 101.911V102.473C82.614 103.213 82.0138 103.814 81.2734 103.814C80.533 103.814 79.9328 103.213 79.9328 102.473V76.5784L7.38304 79.1801V81.0135C7.38304 81.7539 6.78283 82.3541 6.04244 82.3541C5.30205 82.3541 4.70184 81.7539 4.70184 81.0135V79.2763L4.50294 79.2834C4.13592 79.2966 3.79808 79.1609 3.54754 78.9305C3.33975 79.0629 3.09308 79.1395 2.82849 79.1395C2.0881 79.1395 1.48789 78.5393 1.48789 77.7989V73.3404C1.07209 73.1252 0.781202 72.6982 0.763228 72.197C0.744026 71.6615 1.04157 71.1882 1.48789 70.9574V35.6055L1.21508 35.5798C0.477943 35.5104 -0.0633844 34.8566 0.00598869 34.1195C0.0753619 33.3824 0.729165 32.841 1.4663 32.9104L4.70184 33.2149V28.5028C4.70184 27.7624 5.30205 27.1622 6.04244 27.1622C6.78283 27.1622 7.38304 27.7624 7.38304 28.5028V33.4672L33.6285 35.9373C33.7619 35.8071 33.9156 35.7103 34.0794 35.6469L9.24628 33.3098C8.50914 33.2404 7.96781 32.5866 8.03719 31.8495C8.10656 31.1123 8.76036 30.571 9.4975 30.6404L78.1112 37.0977C78.3837 37.1234 78.6294 37.2289 78.8274 37.389V2.78968C78.8274 2.04929 79.4276 1.44908 80.168 1.44908C80.9084 1.44908 81.5086 2.04929 81.5086 2.78968V24.7192L81.593 24.6348V1.46574C81.593 0.725348 82.1932 0.125142 82.9336 0.125142C83.2533 0.125142 83.5468 0.237037 83.7772 0.423795ZM84.2742 2.70188V6.02471C84.4521 6.07556 84.6222 6.16425 84.7724 6.29176L87.6713 8.7526C87.6834 8.45014 87.7976 8.15003 88.0164 7.90794C88.513 7.35876 89.3608 7.3161 89.9099 7.81266L140.159 53.2474L141.028 52.4857L84.2742 2.70188ZM138.13 55.0274L138.005 54.9144C138.015 54.9847 138.019 55.0555 138.018 55.1262L138.13 55.0274ZM136.728 53.759L136.342 53.4107C136.152 53.3617 135.97 53.27 135.81 53.1344L132.489 50.3155C132.424 50.4684 132.329 50.6116 132.204 50.7364L85.5901 97.3506C87.2538 96.0583 88.8032 94.5834 90.3924 93.0535C90.4755 92.9735 90.5588 92.8933 90.6422 92.813C93.0783 90.4664 95.6367 88.0021 98.7412 86.2036C98.8426 86.1448 98.9439 86.0851 99.0453 86.0243L135.798 54.0868C136.066 53.8542 136.399 53.7467 136.728 53.759ZM85.3796 93.7693L130.308 48.8405C130.379 48.77 130.455 48.7089 130.536 48.6574L127.988 46.494L85.3796 89.1021V93.7693ZM85.3796 85.3103L125.937 44.7531L122.537 41.8666L85.4057 78.9974C85.3971 79.006 85.3884 79.0145 85.3796 79.0228V85.3103ZM85.3796 75.2317L120.486 40.1256L112.947 33.7263C112.922 33.7572 112.894 33.7872 112.865 33.8162L78.6177 68.0636L82.6984 67.9172V67.7922C82.6984 67.0518 83.2986 66.4516 84.039 66.4516C84.4922 66.4516 84.8928 66.6764 85.1355 67.0206L114.595 37.5607C115.119 37.0372 115.968 37.0372 116.491 37.5607C117.015 38.0842 117.015 38.933 116.491 39.4566L85.8723 70.0755C85.7282 70.2196 85.5594 70.3241 85.3796 70.3888V75.2317ZM82.6984 70.6001L82.614 70.6032V74.5159C82.6462 74.572 82.6745 74.6306 82.6984 74.6915V70.6001ZM82.6984 75.6735V87.9915L82.614 88.0759V75.849C82.6462 75.7929 82.6745 75.7343 82.6984 75.6735ZM82.614 91.7213C82.6425 91.7096 82.6706 91.6969 82.6984 91.6832V96.4505L82.614 96.5349V91.7213ZM82.614 99.1777V99.3538C82.6422 99.3379 82.6703 99.3219 82.6984 99.3058V99.2081C82.67 99.1989 82.6419 99.1888 82.614 99.1777ZM79.9328 73.8955V73.6373L7.38304 76.239V76.4972L79.9328 73.8955ZM4.70184 76.5934V73.3972L4.16909 73.4163V76.6337C4.24599 76.617 4.32544 76.6069 4.40685 76.604L4.70184 76.5934ZM4.16909 70.7334L4.70184 70.7143V68.6231C4.53885 68.7347 4.35668 68.8063 4.16909 68.8378V70.7334ZM4.16909 65.3965L4.70184 64.8638V57.9776C4.51902 57.9708 4.33733 57.9268 4.16909 57.8456V65.3965ZM4.16909 55.325L4.70184 54.7922V48.5023C4.52367 48.5225 4.34223 48.5069 4.16909 48.4557V55.325ZM4.16909 45.6557L4.70184 45.123V35.908L4.16909 35.8578V45.6557ZM7.38304 36.1603V42.4418L12.6673 37.1575C13.1908 36.634 14.0397 36.634 14.5632 37.1575C15.0867 37.681 15.0867 38.5299 14.5632 39.0534L7.38304 46.2336V52.1111L21.9618 37.5323L7.38304 36.1603ZM24.585 37.7792C24.6954 38.221 24.5779 38.708 24.2325 39.0534L7.38304 55.9028V62.1826L31.167 38.3986L24.585 37.7792ZM34.6326 38.7248L7.38304 65.9744V70.6181L7.82766 70.6022L39.2687 39.1611L34.6326 38.7248ZM42.3454 39.4507C42.3152 39.7469 42.1867 40.035 41.9597 40.2619L11.7605 70.4611L17.4378 70.2575L47.7373 39.9581L42.3454 39.4507ZM51.094 40.274C51.0293 40.4157 50.9387 40.5485 50.822 40.6651L21.3706 70.1165L28.7206 69.8529L57.6797 40.8938L51.094 40.274ZM61.095 41.2152C61.0401 41.3061 60.9733 41.3919 60.8949 41.4704L32.6534 69.7119L33.9128 69.6667C33.9779 69.4915 34.0808 69.3272 34.2216 69.1864L62.0984 41.3097L61.095 41.2152ZM64.3632 41.5228C64.6216 42.0268 64.5397 42.6601 64.1177 43.0821L37.6678 69.5321L47.5239 69.1786L74.2493 42.4532L64.3632 41.5228ZM77.6435 42.7726C77.5832 42.8838 77.5061 42.9882 77.4122 43.0821L51.4567 69.0376L52.5395 68.9987L78.6691 42.8692L77.6435 42.7726ZM81.8153 43.1653C81.7706 43.4301 81.646 43.6841 81.4416 43.8885L56.4723 68.8577L63.8214 68.5942L105.236 27.1799L100.531 23.1864L82.8945 40.8231C83.2112 41.097 83.3952 41.5148 83.353 41.9634C83.2836 42.7006 82.6298 43.2419 81.8927 43.1725L81.8153 43.1653ZM81.5086 38.4172L81.7043 38.2215C81.6327 38.0574 81.593 37.8762 81.593 37.6858V27.2578C81.5645 27.246 81.5364 27.2333 81.5086 27.2195V38.4172ZM84.2742 25.7454V35.6516L98.4804 21.4454L92.6942 16.5335C92.7619 16.9453 92.637 17.3826 92.3194 17.7002L84.2742 25.7454ZM91.3727 15.4117L84.2742 9.38582V21.9536L90.4235 15.8043C90.6856 15.5422 91.0292 15.4114 91.3727 15.4117ZM107.284 28.9191C107.266 28.9402 107.246 28.9609 107.226 28.9811L67.7542 68.4531L74.6849 68.2046L110.901 31.9889L107.284 28.9191ZM74.3918 70.898L53.6896 71.6404L53.4251 71.9049L79.8479 70.9574C79.8764 70.9564 79.9047 70.9562 79.9328 70.957V70.6993L75.7971 70.8476C75.3751 71.1294 74.8286 71.1462 74.3918 70.898ZM50.3739 72.0144C50.3569 71.9306 50.348 71.8455 50.3471 71.7603L48.674 71.8203L48.4095 72.0848L50.3739 72.0144ZM44.477 72.2258C44.4828 72.2198 44.4886 72.2139 44.4945 72.208L44.7412 71.9613L29.8707 72.4946L29.6062 72.7591L44.477 72.2258ZM27.5169 72.834C27.4484 72.7565 27.3903 72.673 27.3428 72.5853L18.5879 72.8992L18.3234 73.1637L27.5169 72.834ZM15.1 73.2793C15.0923 73.1945 15.0925 73.1091 15.1009 73.0243L8.97777 73.2438L8.71326 73.5084L15.1 73.2793ZM78.8274 40.191V39.4757C78.5648 39.6877 78.2224 39.8013 77.8599 39.7671L35.2744 35.7593C35.359 35.8122 35.439 35.8754 35.5125 35.949C35.5689 36.0054 35.6193 36.0656 35.6635 36.1288L78.8274 40.191ZM85.3796 101.076V101.3L85.6984 101.02C85.5942 101.052 85.4871 101.07 85.3796 101.076Z" fill="#BC0909"/>
</svg>
