<svg width="707" height="588" viewBox="0 0 707 588" fill="none" xmlns="http://www.w3.org/2000/svg">
<path fill-rule="evenodd" clip-rule="evenodd" d="M683.944 346.57C704.125 223.978 620.054 102.658 492.354 42.9347C373.066 -12.8548 237.269 16.5363 143.398 93.8297C42.6226 176.808 -24.4962 300.876 39.2511 415.794C105.196 534.673 262.36 582.612 406.171 567.132C545.516 552.134 663.689 469.621 683.944 346.57ZM493.409 41.0117C621.693 101.009 706.542 223.074 686.171 346.825C665.703 471.161 546.372 554.183 406.345 569.255C262.002 584.792 103.756 536.735 37.2485 416.841C-27.2271 300.611 40.864 175.477 141.956 92.2381C236.431 14.4467 373.206 -15.2054 493.409 41.0117Z" fill="#BC0909"/>
<path fill-rule="evenodd" clip-rule="evenodd" d="M671.93 361.733C692.11 239.141 608.04 117.821 480.34 58.0973C361.051 2.30781 225.254 31.6989 131.383 108.992C30.608 191.971 -36.5108 316.039 27.2364 430.957C93.181 549.835 250.345 597.774 394.156 582.295C533.501 567.296 651.674 484.783 671.93 361.733ZM481.394 56.1744C609.679 116.171 694.527 238.236 674.156 361.988C653.689 486.324 534.358 569.346 394.331 584.418C249.987 599.954 91.7416 551.898 25.2338 432.004C-39.2418 315.773 28.8493 190.64 129.941 107.401C224.417 29.6093 361.191 -0.0428352 481.394 56.1744Z" fill="#BC0909"/>
<path fill-rule="evenodd" clip-rule="evenodd" d="M701.422 335.446C721.603 212.854 637.532 91.5336 509.832 31.8102C390.544 -23.9793 254.747 5.41178 160.876 82.7052C60.1006 165.684 -7.01823 289.752 56.729 404.67C122.674 523.548 279.838 571.487 423.649 556.008C562.994 541.009 681.167 458.496 701.422 335.446ZM510.887 29.8872C639.171 89.884 724.02 211.949 703.649 335.701C683.181 460.037 563.85 543.059 423.823 558.131C279.48 573.667 121.234 525.611 54.7265 405.717C-9.74916 289.486 58.3419 164.353 159.434 81.1136C253.909 3.32217 390.684 -26.33 510.887 29.8872Z" fill="#BC0909"/>
</svg>
