<?xml version="1.0" encoding="UTF-8"?>
<svg width="51px" height="38px" viewBox="0 0 51 38" version="1.1" xmlns="http://www.w3.org/2000/svg" xmlns:xlink="http://www.w3.org/1999/xlink">
    <!-- Generator: Sketch 63 (92445) - https://sketch.com -->
    <title>Group 40 Copy</title>
    <desc>Created with Sketch.</desc>
    <defs>
        <linearGradient x1="50%" y1="0%" x2="50%" y2="100%" id="linearGradient-1">
            <stop stop-color="#85EFD8" offset="0%"></stop>
            <stop stop-color="#AFD981" offset="100%"></stop>
        </linearGradient>
    </defs>
    <g id="Page-1" stroke="none" stroke-width="1" fill="none" fill-rule="evenodd">
        <g id="Desktop-HD" transform="translate(-379.000000, -1170.000000)" fill="url(#linearGradient-1)" fill-rule="nonzero">
            <g id="Group-40-Copy" transform="translate(379.000000, 1170.000000)">
                <path d="M11.525066,38 C14.1477573,38 16.3825858,37.049049 18.2295515,35.1471471 C20.0765172,33.2452452 21,31.039039 21,28.5285285 C21,26.1701702 20.1965699,24.1161161 18.5897098,22.3663664 C16.9828496,20.6166166 15.0897098,19.7417417 12.9102902,19.7417417 C11.3218997,19.7417417 9.99208443,20.0650651 8.92084433,20.7117117 C8.47757256,20.977978 8.14511873,21.1111111 7.92348285,21.1111111 C7.66490765,21.1111111 7.40633245,20.9399399 7.14775726,20.5975976 C6.88918206,20.2932933 6.75989446,19.8178178 6.75989446,19.1711712 C6.75989446,16.014014 7.72955145,12.9234234 9.66886544,9.8993994 C11.6081794,6.87537538 14.7203166,4.41241241 19.005277,2.51051051 L19.005277,0 C12.7255937,1.97797798 7.98812665,5.07807808 4.79287599,9.3003003 C1.59762533,13.5225225 0,18.3533534 0,23.7927928 C0,28.2052052 1.12664908,31.6761762 3.37994723,34.2057057 C5.63324538,36.7352352 8.34828496,38 11.525066,38 Z" id="‘"></path>
                <path d="M41.525066,38 C44.1477573,38 46.3825858,37.049049 48.2295515,35.1471471 C50.0765172,33.2452452 51,31.039039 51,28.5285285 C51,26.1701702 50.1965699,24.1161161 48.5897098,22.3663664 C46.9828496,20.6166166 45.0897098,19.7417417 42.9102902,19.7417417 C41.3218997,19.7417417 39.9920844,20.0650651 38.9208443,20.7117117 C38.4775726,20.977978 38.1451187,21.1111111 37.9234828,21.1111111 C37.6649077,21.1111111 37.4063325,20.9399399 37.1477573,20.5975976 C36.8891821,20.2932933 36.7598945,19.8178178 36.7598945,19.1711712 C36.7598945,16.014014 37.7295515,12.9234234 39.6688654,9.8993994 C41.6081794,6.87537538 44.7203166,4.41241241 49.005277,2.51051051 L49.005277,2.51051051 L49.005277,0 C42.7255937,1.97797798 37.9881266,5.07807808 34.792876,9.3003003 C31.5976253,13.5225225 30,18.3533534 30,23.7927928 C30,28.2052052 31.1266491,31.6761762 33.3799472,34.2057057 C35.6332454,36.7352352 38.348285,38 41.525066,38 Z" id="‘-copy"></path>
            </g>
        </g>
    </g>
</svg>