<svg width="146" height="815" viewBox="0 0 146 815" fill="none" xmlns="http://www.w3.org/2000/svg">
<path d="M143.645 815L9.02688 815L9.02688 785.75L143.645 785.75L143.645 815Z" fill="#505050" fill-opacity="0.07"/>
<path d="M143.645 758.31L40.4247 758.31L40.4247 735.735L54.5538 733.575L54.5538 732.201C51.1523 729.845 48.2088 727.032 45.7231 723.76C43.2375 720.357 41.3405 716.562 40.0323 712.374C38.724 708.186 38.0699 703.605 38.0699 698.632C38.0699 691.827 39.3127 685.872 41.7984 680.768C44.2841 675.664 48.2088 671.738 53.5726 668.99C58.9364 666.111 65.9355 664.671 74.5699 664.671L143.645 664.671L143.645 691.958L78.8871 691.958C75.6165 691.958 72.8692 692.35 70.6452 693.136C68.2903 693.921 66.3934 695.099 64.9543 696.669C63.3844 698.109 62.2724 699.941 61.6183 702.166C60.9642 704.391 60.6371 706.877 60.6371 709.626C60.6371 713.683 61.6183 717.347 63.5807 720.619C65.543 723.891 68.2249 726.443 71.6264 728.275C75.0278 730.107 78.9525 731.023 83.4005 731.023L143.645 731.023L143.645 758.31Z" fill="#505050" fill-opacity="0.07"/>
<path d="M146 609.398C146 615.942 144.823 621.242 142.468 625.299C140.113 629.356 136.973 632.301 133.048 634.133C128.993 635.965 124.545 636.881 119.704 636.881L61.422 636.881L61.422 649.641L40.4247 649.641L40.4247 635.9L10.9892 630.796L10.9892 609.594L40.4247 609.594L40.4247 590.749L61.422 590.749L61.422 609.594L115.191 609.594C118.331 609.594 120.751 608.875 122.452 607.435C124.022 605.995 124.806 603.64 124.806 600.368L124.806 590.749L142.86 590.749C143.384 592.319 143.841 594.152 144.234 596.245C144.757 598.339 145.15 600.564 145.411 602.92C145.804 605.276 146 607.435 146 609.398Z" fill="#505050" fill-opacity="0.07"/>
<path d="M146 526.203C146 537.589 144.103 547.143 140.309 554.864C136.384 562.586 130.432 568.41 122.452 572.336C114.471 576.262 104.332 578.225 92.035 578.225C79.6066 578.225 69.4677 576.262 61.6183 572.336C53.638 568.41 47.7509 562.651 43.957 555.061C40.0323 547.339 38.0699 537.916 38.0699 526.792C38.0699 516.323 39.9668 507.489 43.7608 500.291C47.4238 493.093 53.1801 487.662 61.0296 483.997C68.7482 480.333 78.7563 478.501 91.0538 478.501L98.1183 478.501L98.1183 550.546C104.136 550.284 109.238 549.368 113.425 547.797C117.611 546.096 120.751 543.544 122.844 540.141C124.806 536.608 125.788 531.962 125.788 526.203C125.788 523.062 125.395 520.249 124.61 517.762C123.825 515.145 122.648 512.92 121.078 511.088C119.508 509.255 117.546 507.816 115.191 506.769C112.836 505.722 110.154 505.198 107.145 505.198L107.145 478.501C113.686 478.501 119.377 479.678 124.218 482.034C129.058 484.39 133.114 487.662 136.384 491.849C139.524 496.037 141.944 501.076 143.645 506.965C145.215 512.724 146 519.136 146 526.203ZM80.8495 550.153L80.8495 506.573C76.9247 506.573 73.5233 507.096 70.6452 508.143C67.767 509.059 65.4122 510.368 63.5806 512.069C61.7491 513.771 60.4409 515.865 59.6559 518.351C58.7401 520.707 58.2823 523.39 58.2823 526.4C58.2823 531.373 59.1326 535.561 60.8333 538.963C62.4032 542.235 64.8889 544.787 68.2903 546.619C71.5609 548.321 75.7473 549.499 80.8495 550.153Z" fill="#505050" fill-opacity="0.07"/>
<path d="M143.645 458.48L40.4247 458.48L40.4247 435.905L56.5161 433.745L56.5161 432.371C53.1147 431.063 50.0403 429.361 47.293 427.267C44.4149 425.173 42.1254 422.556 40.4247 419.415C38.724 416.274 37.8736 412.61 37.8736 408.422C37.8736 406.197 38.1353 404.168 38.6586 402.336C39.0511 400.504 39.4435 399.13 39.836 398.214L64.5618 398.214L64.5618 406.655C64.5618 410.712 65.1505 414.311 66.328 417.452C67.3746 420.462 69.0753 423.014 71.4301 425.108C73.7849 427.202 76.6631 428.772 80.0645 429.819C83.4659 430.735 87.4561 431.193 92.035 431.193L143.645 431.193L143.645 458.48Z" fill="#505050" fill-opacity="0.07"/>
<path d="M143.645 379.195L61.422 379.195L61.422 393.918L40.4247 393.918L40.4247 379.195L29.043 379.195C23.4175 379.195 18.4462 378.279 14.129 376.446C9.68099 374.483 6.21415 371.408 3.72848 367.22C1.24281 363.032 -1.99993e-05 357.47 -2.03025e-05 350.534C-2.03883e-05 348.571 0.130806 346.542 0.392459 344.448C0.654104 342.224 1.04658 340.13 1.56988 338.166C1.96235 336.073 2.42024 334.306 2.94354 332.866L20.9973 332.866L20.9973 342.682C20.9973 345.822 21.7822 348.178 23.3521 349.749C24.922 351.188 27.2115 351.908 30.2204 351.908L40.4247 351.908L40.4247 332.866L61.422 332.866L61.422 351.908L143.645 351.908L143.645 379.195Z" fill="#505050" fill-opacity="0.07"/>
<path d="M146 293.74C146 297.142 145.608 300.807 144.823 304.733C144.038 308.528 142.664 312.127 140.702 315.53C138.608 318.932 135.665 321.746 131.871 323.971C127.946 326.065 122.975 327.112 116.957 327.112C109.762 327.112 103.809 325.541 99.0995 322.4C94.3898 319.26 90.7267 314.81 88.1102 309.052C85.3629 303.162 83.466 296.161 82.4194 288.047C81.3728 279.933 80.8495 270.968 80.8495 261.152L73.1962 261.152C70.1873 261.152 67.5708 261.676 65.3468 262.723C63.1228 263.639 61.3566 265.34 60.0484 267.827C58.7401 270.183 58.086 273.52 58.086 277.839C58.086 282.157 58.6093 285.691 59.6559 288.439C60.7025 291.057 62.0762 292.954 63.7769 294.132C65.3468 295.179 67.1129 295.703 69.0753 295.703L71.4301 295.703L71.4301 322.204C70.776 322.335 70.1873 322.4 69.664 322.4C69.0098 322.4 68.2249 322.4 67.3091 322.4C61.2912 322.4 56.1236 320.568 51.8064 316.904C47.3584 313.239 43.957 308.07 41.6021 301.396C39.2473 294.721 38.0699 286.934 38.0699 278.035C38.0699 268.481 39.3127 260.498 41.7984 254.085C44.284 247.542 47.9471 242.569 52.7876 239.166C57.6281 235.632 63.7115 233.866 71.0376 233.866L117.938 233.866C120.293 233.866 122.059 233.211 123.237 231.903C124.283 230.463 124.806 228.892 124.806 227.191L124.806 220.713L142.664 220.713C143.318 222.022 143.972 224.05 144.626 226.798C145.411 229.547 145.804 232.884 145.804 236.81C145.804 240.605 145.215 244.008 144.038 247.018C142.991 249.897 141.487 252.319 139.524 254.282C137.431 256.245 134.945 257.619 132.067 258.404L132.067 259.778C134.815 262.003 137.235 264.751 139.328 268.023C141.421 271.164 143.056 274.894 144.234 279.213C145.411 283.401 146 288.243 146 293.74ZM125.395 284.513C125.395 280.849 124.872 277.577 123.825 274.698C122.648 271.818 121.143 269.397 119.312 267.434C117.349 265.471 114.995 263.966 112.247 262.919C109.5 261.741 106.556 261.152 103.417 261.152L97.7258 261.152C97.7258 268.481 98.2491 275.025 99.2957 280.783C100.211 286.542 101.847 291.122 104.202 294.525C106.556 297.797 109.827 299.432 114.013 299.432C116.368 299.432 118.396 298.844 120.097 297.666C121.797 296.488 123.106 294.787 124.022 292.562C124.937 290.337 125.395 287.654 125.395 284.513Z" fill="#505050" fill-opacity="0.07"/>
<path d="M146 161.805C146 172.798 144.103 182.025 140.309 189.485C136.384 196.944 130.432 202.637 122.452 206.563C114.341 210.359 104.202 212.256 92.0349 212.256C79.6066 212.256 69.4677 210.359 61.6183 206.563C53.638 202.637 47.6855 196.944 43.7607 189.485C39.836 181.894 37.8736 172.668 37.8736 161.805C37.8736 154.738 38.724 148.391 40.4247 142.763C42.1254 137.005 44.7419 132.032 48.2742 127.844C51.8064 123.656 56.189 120.515 61.422 118.421C66.5242 116.196 72.6075 115.084 79.672 115.084L79.672 142.371C74.9624 142.371 71.103 143.091 68.0941 144.53C65.0851 145.97 62.7957 148.195 61.2258 151.205C59.6559 154.084 58.8709 157.748 58.8709 162.198C58.8709 167.433 60.0484 171.686 62.4032 174.958C64.758 178.23 68.2249 180.651 72.8037 182.221C77.3826 183.792 83.0735 184.577 89.8763 184.577L94.3898 184.577C101.062 184.577 106.687 183.792 111.266 182.221C115.845 180.52 119.312 177.968 121.667 174.565C123.891 171.163 125.003 166.713 125.003 161.216C125.003 156.767 124.218 153.102 122.648 150.223C121.078 147.213 118.723 144.923 115.583 143.352C112.444 141.782 108.65 140.997 104.202 140.997L104.202 115.084C110.874 115.084 116.826 116.196 122.059 118.421C127.292 120.515 131.675 123.656 135.207 127.844C138.739 131.901 141.421 136.809 143.253 142.567C145.084 148.325 146 154.738 146 161.805Z" fill="#505050" fill-opacity="0.07"/>
<path d="M146 47.7028C146 59.0887 144.103 68.6423 140.309 76.3638C136.384 84.0852 130.432 89.909 122.452 93.8352C114.471 97.7613 104.332 99.7244 92.0349 99.7244C79.6066 99.7244 69.4677 97.7613 61.6183 93.8352C53.638 89.909 47.7509 84.1507 43.957 76.5601C40.0322 68.8386 38.0699 59.4159 38.0699 48.2917C38.0699 37.822 39.9668 28.9881 43.7607 21.7901C47.4238 14.5922 53.1801 9.161 61.0296 5.49659C68.7482 1.83217 78.7563 -1.21777e-05 91.0538 -1.27152e-05L98.1183 -1.3024e-05L98.1183 72.045C104.136 71.7832 109.238 70.8671 113.425 69.2967C117.611 67.5953 120.751 65.0433 122.844 61.6407C124.806 58.1071 125.788 53.4612 125.788 47.7028C125.788 44.5619 125.395 41.7481 124.61 39.2615C123.825 36.6441 122.648 34.4193 121.078 32.5871C119.508 30.7549 117.546 29.3153 115.191 28.2683C112.836 27.2213 110.154 26.6978 107.145 26.6978L107.145 -1.34186e-05C113.686 -1.37045e-05 119.377 1.17783 124.218 3.53353C129.058 5.88922 133.114 9.16101 136.384 13.3489C139.524 17.5368 141.944 22.5754 143.645 28.4646C145.215 34.223 146 40.6357 146 47.7028ZM80.8494 71.6524L80.8494 28.072C76.9247 28.072 73.5233 28.5955 70.6451 29.6425C67.767 30.5586 65.4122 31.8673 63.5806 33.5686C61.7491 35.27 60.4408 37.3639 59.6559 39.8505C58.7401 42.2062 58.2822 44.8891 58.2822 47.8991C58.2822 52.8722 59.1326 57.0601 60.8333 60.4628C62.4032 63.7346 64.8889 66.2866 68.2903 68.1188C71.5609 69.8202 75.7473 70.998 80.8494 71.6524Z" fill="#505050" fill-opacity="0.07"/>
</svg>
