<svg width="552" height="140" viewBox="0 0 552 140" fill="none" xmlns="http://www.w3.org/2000/svg">
<path d="M0 111.109V5.68606H22.8789V47.4863H69.558V5.68606H92.4369V111.109H69.558V66.8496H22.8789V111.109H0Z" fill="white" fill-opacity="0.08"/>
<path d="M150.618 112.953C141.712 112.953 134.239 111.467 128.2 108.496C122.16 105.423 117.605 100.761 114.534 94.5115C111.463 88.262 109.927 80.322 109.927 70.6916C109.927 60.9587 111.463 53.0187 114.534 46.8716C117.605 40.622 122.109 36.0117 128.046 33.0406C134.086 29.9671 141.456 28.4303 150.157 28.4303C158.346 28.4303 165.256 29.9158 170.886 32.8869C176.516 35.7556 180.765 40.2635 183.631 46.4105C186.497 52.4552 187.93 60.2927 187.93 69.9232V75.4555H131.578C131.782 80.1683 132.499 84.1639 133.727 87.4424C135.058 90.7208 137.054 93.1797 139.716 94.8189C142.48 96.3557 146.114 97.124 150.618 97.124C153.075 97.124 155.275 96.8167 157.22 96.202C159.268 95.5873 161.008 94.6652 162.441 93.4358C163.874 92.2064 165 90.6696 165.819 88.8255C166.638 86.9813 167.048 84.8811 167.048 82.5247H187.93C187.93 87.6473 187.009 92.1039 185.166 95.8946C183.324 99.6853 180.765 102.861 177.489 105.423C174.213 107.881 170.272 109.777 165.666 111.109C161.161 112.338 156.146 112.953 150.618 112.953ZM131.885 61.9319H165.973C165.973 58.8584 165.563 56.1947 164.744 53.9407C164.028 51.6868 163.004 49.8427 161.673 48.4083C160.343 46.974 158.705 45.9495 156.76 45.3348C154.917 44.6176 152.819 44.2591 150.464 44.2591C146.574 44.2591 143.299 44.925 140.637 46.2569C138.078 47.4863 136.082 49.4329 134.649 52.0966C133.318 54.6579 132.397 57.9363 131.885 61.9319Z" fill="white" fill-opacity="0.08"/>
<path d="M224.933 112.953C222.272 112.953 219.406 112.645 216.335 112.031C213.366 111.416 210.551 110.34 207.889 108.804C205.228 107.164 203.027 104.859 201.287 101.888C199.649 98.8145 198.83 94.9213 198.83 90.2086C198.83 84.5737 200.058 79.9122 202.515 76.2239C204.972 72.5357 208.452 69.667 212.956 67.618C217.563 65.4665 223.04 63.981 229.386 63.1614C235.733 62.3418 242.745 61.9319 250.423 61.9319V55.9385C250.423 53.5821 250.013 51.5331 249.194 49.7914C248.478 48.0498 247.147 46.6667 245.202 45.6422C243.359 44.6176 240.749 44.1054 237.371 44.1054C233.993 44.1054 231.229 44.5152 229.079 45.3348C227.032 46.1544 225.548 47.2302 224.626 48.562C223.807 49.7914 223.398 51.1745 223.398 52.7113V54.5554H202.669C202.566 54.0432 202.515 53.5821 202.515 53.1723C202.515 52.6601 202.515 52.0454 202.515 51.3282C202.515 46.6154 203.948 42.5686 206.814 39.1877C209.681 35.7044 213.724 33.0406 218.945 31.1965C224.166 29.3524 230.256 28.4303 237.217 28.4303C244.69 28.4303 250.934 29.4036 255.95 31.3502C261.069 33.2967 264.959 36.1654 267.62 39.9561C270.384 43.7468 271.766 48.5108 271.766 54.2481V90.9769C271.766 92.8211 272.278 94.2042 273.301 95.1262C274.428 95.9458 275.656 96.3556 276.987 96.3556H282.054V110.34C281.03 110.853 279.443 111.365 277.294 111.877C275.144 112.492 272.534 112.799 269.463 112.799C266.494 112.799 263.833 112.338 261.478 111.416C259.226 110.596 257.332 109.418 255.797 107.881C254.261 106.242 253.187 104.296 252.572 102.042H251.497C249.757 104.193 247.608 106.089 245.048 107.728C242.592 109.367 239.674 110.648 236.296 111.57C233.02 112.492 229.233 112.953 224.933 112.953ZM232.15 96.8167C235.016 96.8167 237.576 96.4069 239.828 95.5873C242.08 94.6652 243.974 93.487 245.509 92.0527C247.044 90.5159 248.222 88.6718 249.041 86.5203C249.962 84.3688 250.423 82.0637 250.423 79.6048V75.1482C244.69 75.1482 239.572 75.558 235.068 76.3776C230.564 77.0948 226.981 78.3754 224.319 80.2195C221.76 82.0637 220.48 84.625 220.48 87.9034C220.48 89.7475 220.941 91.3355 221.862 92.6674C222.784 93.9993 224.114 95.0238 225.855 95.7409C227.595 96.4581 229.693 96.8167 232.15 96.8167Z" fill="white" fill-opacity="0.08"/>
<path d="M292.661 111.109V0H314.004V111.109H292.661Z" fill="white" fill-opacity="0.08"/>
<path d="M357.705 112.953C352.586 112.953 348.44 112.031 345.267 110.187C342.094 108.342 339.79 105.884 338.357 102.81C336.924 99.6341 336.208 96.1507 336.208 92.36V46.7179H326.227V30.2744H336.975L340.968 7.22283H357.551V30.2744H372.292V46.7179H357.551V88.8255C357.551 91.2843 358.114 93.1797 359.24 94.5115C360.366 95.7409 362.209 96.3556 364.768 96.3556H372.292V110.494C371.063 110.904 369.63 111.262 367.992 111.57C366.355 111.98 364.614 112.287 362.772 112.492C360.929 112.799 359.24 112.953 357.705 112.953Z" fill="white" fill-opacity="0.08"/>
<path d="M386.08 111.109V0H407.423V39.1877H408.498C410.239 37.0362 412.286 35.1921 414.64 33.6553C417.097 32.0161 419.81 30.7355 422.778 29.8134C425.849 28.8913 429.176 28.4303 432.759 28.4303C438.082 28.4303 442.74 29.4036 446.732 31.3502C450.724 33.2967 453.795 36.3703 455.945 40.5708C458.197 44.7713 459.323 50.2525 459.323 57.0143V111.109H437.98V60.3952C437.98 57.8339 437.673 55.6824 437.059 53.9407C436.444 52.0966 435.523 50.611 434.295 49.4841C433.169 48.2547 431.735 47.3838 429.995 46.8716C428.255 46.3593 426.31 46.1032 424.16 46.1032C420.987 46.1032 418.121 46.8716 415.562 48.4083C413.002 49.9451 411.006 52.0454 409.573 54.7091C408.14 57.3729 407.423 60.4464 407.423 63.9297V111.109H386.08Z" fill="white" fill-opacity="0.08"/>
<path d="M490.12 140C486.332 140 483.159 139.693 480.599 139.078C478.143 138.566 476.556 138.207 475.839 138.002V123.557H485.206C487.765 123.557 490.068 122.942 492.116 121.712C494.163 120.585 495.954 119.049 497.49 117.102C499.025 115.258 500.151 113.26 500.868 111.109L469.237 30.2744H491.809L505.628 67.618C506.242 69.3597 506.908 71.5624 507.624 74.2261C508.443 76.7874 509.262 79.5024 510.081 82.371C510.9 85.1372 511.565 87.596 512.077 89.7475H512.845C513.254 88.3132 513.715 86.6228 514.227 84.6762C514.739 82.7296 515.25 80.7318 515.762 78.6828C516.377 76.6337 516.94 74.6872 517.451 72.843C518.066 70.8965 518.577 69.206 518.987 67.7717L530.503 30.2744H552L524.515 107.267C522.979 111.775 521.188 115.975 519.14 119.868C517.195 123.864 514.892 127.347 512.231 130.318C509.569 133.392 506.396 135.748 502.711 137.387C499.128 139.129 494.931 140 490.12 140Z" fill="white" fill-opacity="0.08"/>
</svg>
