<svg width="1440" height="218" viewBox="0 0 1440 218" fill="none" xmlns="http://www.w3.org/2000/svg">
<path d="M0 214.446V11.2554H44.1308V91.8206H134.17V11.2554H178.3V214.446H134.17V129.141H44.1308V214.446H0Z" fill="#505050" fill-opacity="0.07"/>
<path d="M260.907 218C255.773 218 250.244 217.408 244.321 216.223C238.595 215.038 233.165 212.965 228.031 210.003C222.897 206.843 218.652 202.4 215.295 196.674C212.136 190.75 210.556 183.246 210.556 174.163C210.556 163.303 212.926 154.318 217.665 147.209C222.404 140.101 229.117 134.572 237.805 130.622C246.69 126.476 257.254 123.612 269.496 122.033C281.738 120.453 295.264 119.663 310.073 119.663V108.111C310.073 103.57 309.283 99.6205 307.703 96.2636C306.321 92.9067 303.754 90.2409 300.003 88.2663C296.449 86.2917 291.413 85.3044 284.898 85.3044C278.382 85.3044 273.05 86.0942 268.904 87.6739C264.955 89.2536 262.092 91.327 260.315 93.894C258.735 96.2636 257.945 98.9294 257.945 101.891V105.446H217.961C217.763 104.458 217.665 103.57 217.665 102.78C217.665 101.793 217.665 100.608 217.665 99.2255C217.665 90.1422 220.429 82.3424 225.958 75.8261C231.486 69.1123 239.286 63.9783 249.356 60.4239C259.426 56.8696 271.174 55.0924 284.601 55.0924C299.015 55.0924 311.06 56.9683 320.735 60.7201C330.608 64.4719 338.111 70.0009 343.245 77.3071C348.576 84.6132 351.242 93.7953 351.242 104.853V175.644C351.242 179.198 352.229 181.864 354.204 183.641C356.376 185.221 358.745 186.011 361.312 186.011H371.086V212.965C369.111 213.952 366.051 214.939 361.904 215.927C357.758 217.111 352.723 217.704 346.799 217.704C341.073 217.704 335.939 216.815 331.398 215.038C327.054 213.458 323.401 211.188 320.439 208.226C317.477 205.066 315.404 201.314 314.219 196.97H312.146C308.789 201.117 304.643 204.77 299.707 207.929C294.968 211.089 289.34 213.557 282.824 215.334C276.506 217.111 269.2 218 260.907 218ZM274.827 186.899C280.356 186.899 285.292 186.11 289.636 184.53C293.98 182.753 297.633 180.482 300.595 177.717C303.557 174.755 305.828 171.201 307.407 167.054C309.184 162.908 310.073 158.465 310.073 153.726V145.136C299.015 145.136 289.143 145.926 280.455 147.505C271.767 148.888 264.856 151.356 259.722 154.91C254.786 158.465 252.318 163.401 252.318 169.72C252.318 173.274 253.206 176.335 254.983 178.902C256.76 181.469 259.327 183.444 262.684 184.826C266.041 186.208 270.089 186.899 274.827 186.899Z" fill="#505050" fill-opacity="0.07"/>
<path d="M391.546 214.446V58.6467H425.606L428.864 79.9728H430.937C434.492 74.8388 438.737 70.3958 443.673 66.644C448.807 62.8922 454.533 60.029 460.852 58.0544C467.17 56.0797 474.081 55.0924 481.584 55.0924C491.852 55.0924 500.836 56.9683 508.537 60.7201C516.237 64.4719 522.161 70.3958 526.307 78.4919C530.651 86.5879 532.823 97.1522 532.823 110.185V214.446H491.654V116.701C491.654 111.764 491.062 107.618 489.877 104.261C488.693 100.707 486.915 97.8433 484.546 95.6712C482.374 93.3016 479.61 91.6232 476.253 90.6359C472.896 89.6486 469.145 89.1549 464.998 89.1549C458.877 89.1549 453.348 90.6359 448.412 93.5978C443.476 96.5598 439.625 100.608 436.861 105.742C434.097 110.876 432.715 116.8 432.715 123.514V214.446H391.546Z" fill="#505050" fill-opacity="0.07"/>
<path d="M624.806 218C611.971 218 600.815 215.137 591.338 209.41C582.057 203.486 574.85 194.502 569.716 182.457C564.583 170.411 562.016 155.009 562.016 136.25C562.016 117.491 564.583 102.188 569.716 90.3397C575.048 78.2944 582.255 69.4085 591.338 63.6821C600.618 57.9556 611.28 55.0924 623.325 55.0924C630.038 55.0924 636.258 55.8822 641.984 57.462C647.908 58.8442 653.042 61.115 657.386 64.2745C661.927 67.4339 665.777 71.2844 668.937 75.8261H670.714V0.29619H711.883V214.446H678.118L674.86 193.416H672.787C667.653 201.709 660.94 207.929 652.647 212.076C644.354 216.025 635.073 218 624.806 218ZM637.838 184.234C645.538 184.234 651.758 182.457 656.497 178.902C661.433 175.348 665.086 170.214 667.456 163.5C669.825 156.786 671.01 148.789 671.01 139.508V134.177C671.01 127.265 670.319 120.947 668.937 115.22C667.752 109.494 665.777 104.755 663.013 101.003C660.249 97.0534 656.793 94.0915 652.647 92.1169C648.5 89.9448 643.564 88.8587 637.838 88.8587C629.545 88.8587 622.93 90.5371 617.994 93.894C613.057 97.0534 609.503 101.99 607.331 108.704C605.159 115.22 604.073 123.415 604.073 133.288V140.101C604.073 149.974 605.159 158.168 607.331 164.685C609.503 171.201 613.057 176.138 617.994 179.495C622.93 182.654 629.545 184.234 637.838 184.234Z" fill="#505050" fill-opacity="0.07"/>
<path d="M836.989 218C826.919 218 817.638 216.025 809.148 212.076C800.855 207.929 794.141 201.709 789.008 193.416H786.934L783.676 214.446H749.912V0.29619H791.081V75.8261H792.858C796.017 71.2844 799.868 67.4339 804.409 64.2745C808.95 61.115 814.084 58.8442 819.81 57.462C825.536 55.8822 831.756 55.0924 838.47 55.0924C850.712 55.0924 861.374 57.9556 870.457 63.6821C879.737 69.4085 886.945 78.2944 892.078 90.3397C897.212 102.188 899.779 117.491 899.779 136.25C899.779 155.009 897.212 170.411 892.078 182.457C887.142 194.502 879.935 203.486 870.457 209.41C861.177 215.137 850.021 218 836.989 218ZM824.253 184.234C832.546 184.234 839.062 182.654 843.801 179.495C848.737 176.138 852.291 171.201 854.463 164.685C856.635 158.168 857.721 149.974 857.721 140.101V133.288C857.721 123.415 856.635 115.22 854.463 108.704C852.291 101.99 848.737 97.0534 843.801 93.894C839.062 90.5371 832.546 88.8587 824.253 88.8587C818.329 88.8587 813.294 89.9448 809.148 92.1169C805.001 94.0915 801.546 97.0534 798.782 101.003C796.215 104.755 794.24 109.494 792.858 115.22C791.476 120.947 790.785 127.265 790.785 134.177V139.508C790.785 148.789 791.969 156.786 794.339 163.5C796.708 170.214 800.361 175.348 805.298 178.902C810.234 182.457 816.552 184.234 824.253 184.234Z" fill="#505050" fill-opacity="0.07"/>
<path d="M1001.78 218C984.802 218 970.388 215.137 958.541 209.41C946.693 203.486 937.709 194.502 931.588 182.457C925.467 170.214 922.407 154.91 922.407 136.546C922.407 117.787 925.467 102.484 931.588 90.6359C937.709 78.5906 946.693 69.7047 958.541 63.9783C970.388 58.0543 984.802 55.0924 1001.78 55.0924C1019.16 55.0924 1033.67 58.0543 1045.32 63.9783C1057.17 69.7047 1066.15 78.5906 1072.27 90.6359C1078.39 102.484 1081.46 117.787 1081.46 136.546C1081.46 154.91 1078.39 170.214 1072.27 182.457C1066.15 194.502 1057.17 203.486 1045.32 209.41C1033.67 215.137 1019.16 218 1001.78 218ZM1001.78 186.011C1010.87 186.011 1018.07 184.332 1023.4 180.976C1028.93 177.619 1032.98 172.485 1035.55 165.573C1038.11 158.662 1039.4 150.171 1039.4 140.101V132.992C1039.4 122.921 1038.11 114.43 1035.55 107.519C1032.98 100.608 1028.93 95.4737 1023.4 92.1169C1018.07 88.5625 1010.87 86.7853 1001.78 86.7853C992.898 86.7853 985.69 88.5625 980.162 92.1169C974.831 95.4737 970.881 100.608 968.315 107.519C965.748 114.43 964.464 122.921 964.464 132.992V140.101C964.464 150.171 965.748 158.662 968.315 165.573C970.881 172.485 974.831 177.619 980.162 180.976C985.69 184.332 992.898 186.011 1001.78 186.011Z" fill="#505050" fill-opacity="0.07"/>
<path d="M1183.42 218C1166.44 218 1152.03 215.137 1140.18 209.41C1128.34 203.486 1119.35 194.502 1113.23 182.457C1107.11 170.214 1104.05 154.91 1104.05 136.546C1104.05 117.787 1107.11 102.484 1113.23 90.6359C1119.35 78.5906 1128.34 69.7047 1140.18 63.9783C1152.03 58.0543 1166.44 55.0924 1183.42 55.0924C1200.8 55.0924 1215.31 58.0543 1226.96 63.9783C1238.81 69.7047 1247.79 78.5906 1253.92 90.6359C1260.04 102.484 1263.1 117.787 1263.1 136.546C1263.1 154.91 1260.04 170.214 1253.92 182.457C1247.79 194.502 1238.81 203.486 1226.96 209.41C1215.31 215.137 1200.8 218 1183.42 218ZM1183.42 186.011C1192.51 186.011 1199.71 184.332 1205.05 180.976C1210.57 177.619 1214.62 172.485 1217.19 165.573C1219.76 158.662 1221.04 150.171 1221.04 140.101V132.992C1221.04 122.921 1219.76 114.43 1217.19 107.519C1214.62 100.608 1210.57 95.4737 1205.05 92.1169C1199.71 88.5625 1192.51 86.7853 1183.42 86.7853C1174.54 86.7853 1167.33 88.5625 1161.8 92.1169C1156.47 95.4737 1152.52 100.608 1149.96 107.519C1147.39 114.43 1146.11 122.921 1146.11 132.992V140.101C1146.11 150.171 1147.39 158.662 1149.96 165.573C1152.52 172.485 1156.47 177.619 1161.8 180.976C1167.33 184.332 1174.54 186.011 1183.42 186.011Z" fill="#505050" fill-opacity="0.07"/>
<path d="M1293.39 214.446V0H1334.56V123.514L1389.06 58.6467H1437.33L1384.02 119.663L1440 214.446H1392.91L1357.07 148.69L1334.56 170.609V214.446H1293.39Z" fill="#505050" fill-opacity="0.07"/>
</svg>
