<svg width="611" height="173" viewBox="0 0 611 173" fill="none" xmlns="http://www.w3.org/2000/svg">
<path d="M0 137.299V7.02634H53.1646C66.7089 7.02634 78.2279 9.36846 87.7216 14.0527C97.2153 18.7369 104.494 25.8899 109.557 35.5115C114.747 45.0066 117.342 57.2236 117.342 72.1625C117.342 86.9748 114.747 99.1917 109.557 108.813C104.494 118.435 97.2153 125.588 87.7216 130.272C78.2279 134.956 66.7089 137.299 53.1646 137.299H0ZM28.2912 113.941H52.9747C58.671 113.941 63.7343 113.118 68.1646 111.472C72.595 109.826 76.2659 107.421 79.1773 104.256C82.0887 100.964 84.3039 96.9129 85.8229 92.1021C87.3419 87.1647 88.1014 81.4676 88.1014 75.011V69.3139C88.1014 62.8573 87.3419 57.2236 85.8229 52.4127C84.3039 47.4753 82.0887 43.4241 79.1773 40.2591C76.2659 36.9674 72.595 34.4987 68.1646 32.8529C63.7343 31.0805 58.671 30.1943 52.9747 30.1943H28.2912V113.941Z" fill="#505050" fill-opacity="0.07"/>
<path d="M183.467 139.577C172.454 139.577 163.214 137.742 155.745 134.07C148.277 130.272 142.644 124.512 138.847 116.789C135.049 109.067 133.15 99.255 133.15 87.3546C133.15 75.3275 135.049 65.5159 138.847 57.9199C142.644 50.1972 148.214 44.5002 155.555 40.8288C163.024 37.0307 172.138 35.1317 182.897 35.1317C193.024 35.1317 201.568 36.9674 208.53 40.6389C215.492 44.1837 220.745 49.7541 224.29 57.3502C227.834 64.8196 229.606 74.5046 229.606 86.4051V93.2415H159.923C160.176 99.0651 161.062 104.003 162.581 108.054C164.226 112.105 166.695 115.143 169.986 117.169C173.404 119.068 177.897 120.018 183.467 120.018C186.505 120.018 189.226 119.638 191.631 118.878C194.163 118.119 196.315 116.979 198.087 115.46C199.859 113.941 201.252 112.042 202.264 109.763C203.277 107.484 203.783 104.889 203.783 101.977H229.606C229.606 108.307 228.467 113.814 226.188 118.498C223.91 123.183 220.745 127.107 216.695 130.272C212.644 133.311 207.771 135.653 202.074 137.299C196.505 138.818 190.302 139.577 183.467 139.577ZM160.302 76.5302H202.454C202.454 72.7322 201.948 69.4405 200.935 66.6553C200.049 63.8701 198.783 61.5913 197.138 59.8189C195.492 58.0465 193.467 56.7805 191.062 56.0209C188.783 55.1347 186.188 54.6915 183.277 54.6915C178.467 54.6915 174.416 55.5145 171.125 57.1603C167.961 58.6795 165.492 61.0849 163.72 64.3765C162.074 67.5415 160.935 71.5928 160.302 76.5302Z" fill="#505050" fill-opacity="0.07"/>
<path d="M289.413 139.577C282.451 139.577 276.186 138.818 270.616 137.299C265.046 135.779 260.299 133.69 256.375 131.032C252.451 128.247 249.413 124.955 247.261 121.157C245.236 117.359 244.223 113.055 244.223 108.244C244.223 107.737 244.223 107.231 244.223 106.724C244.223 106.218 244.287 105.838 244.413 105.585H269.856C269.856 105.838 269.856 106.091 269.856 106.345C269.856 106.598 269.856 106.851 269.856 107.104C269.983 110.269 270.996 112.865 272.894 114.89C274.793 116.789 277.261 118.182 280.299 119.068C283.464 119.954 286.755 120.397 290.173 120.397C293.211 120.397 296.122 120.144 298.907 119.638C301.818 119.005 304.224 117.929 306.122 116.409C308.148 114.89 309.16 112.928 309.16 110.523C309.16 107.484 307.894 105.142 305.363 103.496C302.958 101.85 299.73 100.521 295.679 99.5082C291.755 98.4954 287.451 97.356 282.768 96.09C278.464 95.0772 274.16 93.9378 269.856 92.6718C265.553 91.2792 261.629 89.5068 258.084 87.3546C254.667 85.2024 251.882 82.4171 249.73 78.9989C247.578 75.4541 246.502 71.0231 246.502 65.7058C246.502 60.5152 247.641 56.0209 249.92 52.2228C252.198 48.2982 255.299 45.0699 259.224 42.5379C263.274 40.0059 267.958 38.1701 273.274 37.0307C278.717 35.7647 284.54 35.1317 290.742 35.1317C296.565 35.1317 302.008 35.7647 307.072 37.0307C312.135 38.1701 316.565 39.9426 320.363 42.348C324.16 44.6268 327.135 47.5386 329.287 51.0834C331.439 54.5017 332.515 58.363 332.515 62.6674C332.515 63.5536 332.515 64.3765 332.515 65.1361C332.515 65.8957 332.451 66.4021 332.325 66.6553H307.072V65.1361C307.072 62.8573 306.375 60.9583 304.983 59.4391C303.591 57.7933 301.565 56.5273 298.907 55.6411C296.375 54.7549 293.274 54.3118 289.603 54.3118C287.072 54.3118 284.73 54.5017 282.578 54.8815C280.553 55.2613 278.78 55.831 277.261 56.5906C275.742 57.3502 274.54 58.2997 273.654 59.4391C272.894 60.4519 272.515 61.7179 272.515 63.2371C272.515 65.3893 273.401 67.1617 275.173 68.5543C277.072 69.8204 279.54 70.8965 282.578 71.7827C285.616 72.6689 288.97 73.6184 292.641 74.6312C297.198 75.8972 301.945 77.1632 306.882 78.4292C311.945 79.5686 316.629 81.1511 320.932 83.1767C325.236 85.2023 328.717 88.1142 331.375 91.9122C334.034 95.5836 335.363 100.584 335.363 106.914C335.363 112.991 334.16 118.119 331.755 122.296C329.477 126.474 326.249 129.829 322.072 132.361C317.894 134.893 313.021 136.729 307.451 137.868C301.882 139.008 295.869 139.577 289.413 139.577Z" fill="#505050" fill-opacity="0.07"/>
<path d="M354.476 22.7881V0H380.869V22.7881H354.476ZM354.476 137.299V37.4105H380.869V137.299H354.476Z" fill="#505050" fill-opacity="0.07"/>
<path d="M421.426 173C416.996 173 412.818 172.05 408.894 170.151C404.97 168.379 401.806 165.72 399.401 162.176C396.996 158.631 395.793 154.39 395.793 149.452C395.793 143.882 397.375 139.451 400.54 136.159C403.831 132.741 407.502 130.209 411.553 128.563C408.641 126.917 406.236 124.765 404.337 122.106C402.565 119.448 401.679 116.346 401.679 112.801C401.679 107.864 403.451 103.876 406.996 100.838C410.666 97.6725 414.844 95.6469 419.527 94.7607C414.844 91.8489 411.173 88.1775 408.515 83.7464C405.983 79.1888 404.717 74.1248 404.717 68.5543C404.717 61.3381 406.489 55.2613 410.034 50.3238C413.704 45.3864 418.894 41.6517 425.603 39.1197C432.439 36.461 440.477 35.1317 449.717 35.1317C453.388 35.1317 456.806 35.3216 459.97 35.7014C463.261 36.0812 466.236 36.7142 468.894 37.6004C473.578 34.8152 476.743 31.7768 478.388 28.4852C480.16 25.067 481.11 22.345 481.236 20.3194H505.73C505.73 25.0037 504.844 29.0549 503.072 32.4731C501.426 35.8913 499.021 38.7398 495.856 41.0187C492.692 43.1709 488.894 44.7534 484.464 45.7662C487.755 48.5514 490.287 51.9063 492.059 55.831C493.831 59.7556 494.717 63.9967 494.717 68.5543C494.717 75.644 493.008 81.7208 489.591 86.7849C486.173 91.7223 481.299 95.5203 474.97 98.1789C468.768 100.838 461.299 102.167 452.565 102.167H437.375C434.337 102.167 432.059 102.737 430.54 103.876C429.021 104.889 428.261 106.408 428.261 108.434C428.261 110.079 428.894 111.535 430.16 112.801C431.553 113.941 433.768 114.51 436.806 114.51H478.388C486.743 114.51 493.388 117.106 498.325 122.296C503.388 127.36 505.92 133.88 505.92 141.856C505.92 147.933 504.337 153.314 501.173 157.998C498.008 162.682 493.641 166.353 488.072 169.012C482.502 171.671 476.11 173 468.894 173H421.426ZM432.439 155.339H467.565C469.844 155.339 471.869 154.896 473.641 154.01C475.413 153.25 476.806 152.111 477.818 150.592C478.831 149.199 479.337 147.553 479.337 145.654C479.337 142.363 478.325 139.894 476.299 138.248C474.274 136.602 471.743 135.779 468.705 135.779H432.439C429.401 135.779 426.869 136.666 424.844 138.438C422.945 140.21 421.996 142.553 421.996 145.464C421.996 148.376 422.945 150.718 424.844 152.491C426.869 154.39 429.401 155.339 432.439 155.339ZM449.717 85.0758C455.92 85.0758 460.603 83.6831 463.768 80.8979C467.059 77.9861 468.705 73.8716 468.705 68.5543C468.705 63.2371 467.059 59.1859 463.768 56.4007C460.603 53.4888 455.92 52.0329 449.717 52.0329C443.641 52.0329 438.958 53.4888 435.666 56.4007C432.502 59.1859 430.92 63.2371 430.92 68.5543C430.92 71.9726 431.616 74.9477 433.008 77.4797C434.401 80.0117 436.489 81.9107 439.274 83.1767C442.059 84.4427 445.54 85.0758 449.717 85.0758Z" fill="#505050" fill-opacity="0.07"/>
<path d="M520.43 137.299V37.4105H542.266L544.354 51.0834H545.683C547.962 47.7918 550.683 44.9433 553.848 42.5379C557.139 40.1325 560.81 38.2968 564.861 37.0307C568.911 35.7647 573.342 35.1317 578.152 35.1317C584.734 35.1317 590.494 36.3344 595.43 38.7398C600.367 41.1453 604.165 44.9433 606.823 50.1339C609.608 55.3246 611 62.0977 611 70.4533V137.299H584.608V74.6312C584.608 71.4661 584.228 68.8075 583.468 66.6553C582.709 64.3765 581.57 62.5408 580.051 61.1482C578.658 59.629 576.886 58.5529 574.734 57.9199C572.582 57.2869 570.177 56.9704 567.519 56.9704C563.595 56.9704 560.051 57.9199 556.886 59.8189C553.721 61.7179 551.253 64.3132 549.481 67.6048C547.709 70.8965 546.823 74.6945 546.823 78.9989V137.299H520.43Z" fill="#505050" fill-opacity="0.07"/>
</svg>
