<svg width="859" height="195" viewBox="0 0 859 195" fill="none" xmlns="http://www.w3.org/2000/svg">
<path d="M0 154.803V8.125H76.177C86.7038 8.125 95.4524 10.1206 102.423 14.1118C109.536 17.9605 114.87 23.4485 118.426 30.5757C122.125 37.5603 123.974 45.8991 123.974 55.5921C123.974 65.2851 122.054 73.7664 118.213 81.0362C114.514 88.1634 109.038 93.7226 101.783 97.7138C94.5278 101.705 85.6369 103.701 75.1101 103.701H31.7938V154.803H0ZM31.7938 77.6151H70.8425C77.5284 77.6151 82.6496 75.6908 86.2059 71.8421C89.9045 67.9934 91.7538 62.648 91.7538 55.8059C91.7538 51.102 90.9714 47.182 89.4066 44.0461C87.8418 40.9101 85.4946 38.4868 82.365 36.7763C79.3777 35.0658 75.5369 34.2105 70.8425 34.2105H31.7938V77.6151Z" fill="white" fill-opacity="0.07"/>
<path d="M169.84 157.368C166.141 157.368 162.158 156.941 157.89 156.086C153.765 155.23 149.853 153.734 146.154 151.595C142.456 149.315 139.397 146.107 136.979 141.974C134.703 137.697 133.565 132.281 133.565 125.724C133.565 117.884 135.272 111.398 138.686 106.266C142.1 101.135 146.937 97.1436 153.196 94.2928C159.597 91.2993 167.208 89.2325 176.028 88.0921C184.847 86.9518 194.592 86.3816 205.261 86.3816V78.0428C205.261 74.7643 204.692 71.9134 203.554 69.4901C202.558 67.0669 200.709 65.1425 198.006 63.7171C195.445 62.2917 191.818 61.5789 187.123 61.5789C182.429 61.5789 178.588 62.1491 175.601 63.2895C172.756 64.4298 170.693 65.9265 169.413 67.7796C168.275 69.4901 167.706 71.4145 167.706 73.5526V76.1184H138.899C138.757 75.4057 138.686 74.7643 138.686 74.1941C138.686 73.4814 138.686 72.6261 138.686 71.6283C138.686 65.0713 140.678 59.4408 144.661 54.7368C148.644 49.8903 154.263 46.1842 161.518 43.6184C168.773 41.0526 177.237 39.7697 186.91 39.7697C197.295 39.7697 205.972 41.1239 212.943 43.8322C220.055 46.5406 225.461 50.5318 229.159 55.8059C233 61.08 234.921 67.7083 234.921 75.6908V126.793C234.921 129.359 235.632 131.283 237.055 132.566C238.619 133.706 240.326 134.276 242.176 134.276H249.217V153.734C247.795 154.446 245.59 155.159 242.602 155.872C239.615 156.727 235.988 157.155 231.72 157.155C227.595 157.155 223.896 156.513 220.624 155.23C217.495 154.09 214.863 152.451 212.729 150.312C210.595 148.032 209.102 145.323 208.248 142.187H206.754C204.336 145.181 201.349 147.818 197.792 150.099C194.378 152.379 190.324 154.161 185.63 155.444C181.078 156.727 175.814 157.368 169.84 157.368ZM179.868 134.918C183.852 134.918 187.408 134.348 190.538 133.207C193.667 131.924 196.299 130.285 198.433 128.289C200.566 126.151 202.202 123.586 203.34 120.592C204.621 117.599 205.261 114.391 205.261 110.97V104.77C197.295 104.77 190.182 105.34 183.923 106.48C177.664 107.478 172.685 109.26 168.986 111.826C165.43 114.391 163.652 117.955 163.652 122.516C163.652 125.082 164.292 127.292 165.572 129.145C166.852 130.998 168.702 132.423 171.12 133.421C173.538 134.419 176.454 134.918 179.868 134.918Z" fill="white" fill-opacity="0.07"/>
<path d="M313.248 157.368C301.299 157.368 291.27 155.302 283.162 151.168C275.053 146.891 268.865 140.406 264.597 131.711C260.472 122.873 258.409 111.826 258.409 98.5691C258.409 85.0274 260.472 73.9803 264.597 65.4276C268.865 56.7325 275.053 50.2467 283.162 45.9704C291.412 41.6941 301.441 39.5559 313.248 39.5559C320.93 39.5559 327.829 40.4825 333.946 42.3355C340.205 44.1886 345.611 47.0395 350.163 50.8882C354.715 54.7368 358.129 59.5121 360.405 65.2138C362.824 70.773 364.033 77.4013 364.033 85.0987H334.373C334.373 79.9671 333.591 75.7621 332.026 72.4836C330.461 69.205 328.043 66.7105 324.771 65C321.641 63.2895 317.658 62.4342 312.821 62.4342C307.131 62.4342 302.508 63.7171 298.952 66.2829C295.395 68.8487 292.764 72.6261 291.057 77.6151C289.35 82.6042 288.496 88.8048 288.496 96.2171V101.135C288.496 108.405 289.35 114.534 291.057 119.523C292.906 124.512 295.68 128.289 299.378 130.855C303.077 133.279 307.914 134.49 313.888 134.49C318.725 134.49 322.708 133.635 325.838 131.924C329.11 130.214 331.599 127.648 333.306 124.227C335.013 120.806 335.867 116.672 335.867 111.826H364.033C364.033 119.095 362.824 125.581 360.405 131.283C358.129 136.985 354.715 141.76 350.163 145.609C345.753 149.457 340.419 152.379 334.16 154.375C327.9 156.371 320.93 157.368 313.248 157.368Z" fill="white" fill-opacity="0.07"/>
<path d="M386.276 154.803V0H415.936V89.1612L455.198 42.3355H489.979L451.571 86.3816L491.9 154.803H457.972L432.153 107.336L415.936 123.158V154.803H386.276Z" fill="white" fill-opacity="0.07"/>
<path d="M532.42 157.368C528.722 157.368 524.739 156.941 520.471 156.086C516.346 155.23 512.434 153.734 508.735 151.595C505.037 149.315 501.978 146.107 499.56 141.974C497.284 137.697 496.146 132.281 496.146 125.724C496.146 117.884 497.853 111.398 501.267 106.266C504.681 101.135 509.518 97.1436 515.777 94.2928C522.178 91.2993 529.789 89.2325 538.609 88.0921C547.428 86.9518 557.173 86.3816 567.842 86.3816V78.0428C567.842 74.7643 567.273 71.9134 566.135 69.4901C565.139 67.0669 563.29 65.1425 560.587 63.7171C558.026 62.2917 554.399 61.5789 549.704 61.5789C545.01 61.5789 541.169 62.1491 538.182 63.2895C535.337 64.4298 533.274 65.9265 531.994 67.7796C530.856 69.4901 530.287 71.4145 530.287 73.5526V76.1184H501.48C501.338 75.4057 501.267 74.7643 501.267 74.1941C501.267 73.4814 501.267 72.6261 501.267 71.6283C501.267 65.0713 503.258 59.4408 507.241 54.7368C511.225 49.8903 516.844 46.1842 524.099 43.6184C531.354 41.0526 539.818 39.7697 549.491 39.7697C559.875 39.7697 568.553 41.1239 575.523 43.8322C582.636 46.5406 588.042 50.5318 591.74 55.8059C595.581 61.08 597.502 67.7083 597.502 75.6908V126.793C597.502 129.359 598.213 131.283 599.635 132.566C601.2 133.706 602.907 134.276 604.757 134.276H611.798V153.734C610.376 154.446 608.171 155.159 605.183 155.872C602.196 156.727 598.569 157.155 594.301 157.155C590.176 157.155 586.477 156.513 583.205 155.23C580.076 154.09 577.444 152.451 575.31 150.312C573.176 148.032 571.683 145.323 570.829 142.187H569.335C566.917 145.181 563.93 147.818 560.373 150.099C556.959 152.379 552.905 154.161 548.211 155.444C543.659 156.727 538.395 157.368 532.42 157.368ZM542.449 134.918C546.432 134.918 549.989 134.348 553.118 133.207C556.248 131.924 558.88 130.285 561.013 128.289C563.147 126.151 564.783 123.586 565.921 120.592C567.202 117.599 567.842 114.391 567.842 110.97V104.77C559.875 104.77 552.763 105.34 546.504 106.48C540.244 107.478 535.266 109.26 531.567 111.826C528.011 114.391 526.232 117.955 526.232 122.516C526.232 125.082 526.873 127.292 528.153 129.145C529.433 130.998 531.282 132.423 533.701 133.421C536.119 134.419 539.035 134.918 542.449 134.918Z" fill="white" fill-opacity="0.07"/>
<path d="M644.889 195C639.91 195 635.216 193.931 630.806 191.793C626.396 189.797 622.84 186.804 620.137 182.812C617.434 178.821 616.082 174.046 616.082 168.487C616.082 162.215 617.861 157.226 621.417 153.52C625.116 149.671 629.241 146.82 633.793 144.967C630.521 143.114 627.818 140.691 625.685 137.697C623.693 134.704 622.697 131.212 622.697 127.22C622.697 121.661 624.689 117.171 628.672 113.75C632.797 110.186 637.492 107.906 642.755 106.908C637.492 103.629 633.366 99.4956 630.379 94.5066C627.534 89.375 626.111 83.6732 626.111 77.4013C626.111 69.2763 628.103 62.4342 632.086 56.875C636.211 51.3158 642.044 47.1107 649.583 44.2599C657.265 41.2664 666.298 39.7697 676.683 39.7697C680.808 39.7697 684.649 39.9835 688.205 40.4112C691.904 40.8388 695.247 41.5515 698.234 42.5493C703.498 39.4134 707.054 35.9923 708.903 32.2862C710.895 28.4375 711.962 25.3728 712.104 23.0921H739.63C739.63 28.3662 738.634 32.9276 736.643 36.7763C734.793 40.625 732.091 43.8322 728.534 46.398C724.978 48.8213 720.71 50.6031 715.731 51.7434C719.43 54.8794 722.275 58.6568 724.267 63.0757C726.258 67.4945 727.254 72.2697 727.254 77.4013C727.254 85.3838 725.334 92.2259 721.493 97.9276C717.652 103.487 712.175 107.763 705.062 110.757C698.092 113.75 689.699 115.247 679.883 115.247H662.813C659.399 115.247 656.838 115.888 655.131 117.171C653.424 118.311 652.571 120.022 652.571 122.303C652.571 124.156 653.282 125.795 654.704 127.22C656.269 128.503 658.759 129.145 662.173 129.145H708.903C718.292 129.145 725.76 132.067 731.308 137.911C736.998 143.613 739.843 150.954 739.843 159.934C739.843 166.776 738.065 172.834 734.509 178.109C730.953 183.383 726.045 187.516 719.786 190.51C713.526 193.503 706.343 195 698.234 195H644.889ZM657.265 175.115H696.74C699.301 175.115 701.577 174.616 703.569 173.618C705.56 172.763 707.125 171.48 708.263 169.77C709.401 168.202 709.97 166.349 709.97 164.211C709.97 160.504 708.832 157.725 706.556 155.872C704.28 154.019 701.435 153.092 698.021 153.092H657.265C653.851 153.092 651.006 154.09 648.73 156.086C646.596 158.081 645.529 160.718 645.529 163.997C645.529 167.275 646.596 169.912 648.73 171.908C651.006 174.046 653.851 175.115 657.265 175.115ZM676.683 96.0033C683.653 96.0033 688.916 94.4353 692.473 91.2993C696.171 88.0208 698.021 83.3882 698.021 77.4013C698.021 71.4145 696.171 66.8531 692.473 63.7171C688.916 60.4386 683.653 58.7993 676.683 58.7993C669.854 58.7993 664.591 60.4386 660.892 63.7171C657.336 66.8531 655.558 71.4145 655.558 77.4013C655.558 81.25 656.34 84.5998 657.905 87.4506C659.47 90.3015 661.817 92.4397 664.947 93.8651C668.076 95.2906 671.988 96.0033 676.683 96.0033Z" fill="white" fill-opacity="0.07"/>
<path d="M807.148 157.368C794.772 157.368 784.388 155.302 775.995 151.168C767.602 146.891 761.272 140.406 757.004 131.711C752.736 123.015 750.602 111.968 750.602 98.5691C750.602 85.0274 752.736 73.9803 757.004 65.4276C761.272 56.7325 767.531 50.318 775.781 46.1842C784.174 41.9079 794.417 39.7697 806.508 39.7697C817.889 39.7697 827.491 41.8366 835.315 45.9704C843.139 49.9616 849.042 56.2335 853.025 64.7862C857.008 73.1963 859 84.1009 859 97.5V105.197H780.689C780.974 111.754 781.97 117.314 783.677 121.875C785.526 126.436 788.3 129.857 791.998 132.138C795.839 134.276 800.889 135.345 807.148 135.345C810.563 135.345 813.621 134.918 816.324 134.062C819.169 133.207 821.587 131.924 823.579 130.214C825.57 128.503 827.135 126.365 828.273 123.799C829.411 121.234 829.98 118.311 829.98 115.033H859C859 122.16 857.72 128.361 855.159 133.635C852.599 138.909 849.042 143.328 844.49 146.891C839.938 150.313 834.461 152.95 828.06 154.803C821.801 156.513 814.83 157.368 807.148 157.368ZM781.116 86.3816H828.487C828.487 82.1053 827.917 78.3991 826.779 75.2632C825.784 72.1272 824.361 69.5614 822.512 67.5658C820.663 65.5702 818.387 64.1447 815.684 63.2895C813.123 62.2917 810.207 61.7928 806.935 61.7928C801.529 61.7928 796.977 62.7193 793.279 64.5724C789.722 66.2829 786.948 68.9912 784.957 72.6974C783.107 76.261 781.827 80.8224 781.116 86.3816Z" fill="white" fill-opacity="0.07"/>
</svg>
