<svg width="739" height="169" viewBox="0 0 739 169" fill="none" xmlns="http://www.w3.org/2000/svg">
<path d="M0 166.095V0H86.2541C98.1735 0 108.079 2.25979 115.972 6.77937C124.026 11.1375 130.066 17.352 134.093 25.4226C138.28 33.3319 140.374 42.7746 140.374 53.7507C140.374 64.7268 138.2 74.3309 133.851 82.563C129.663 90.6337 123.462 96.9289 115.247 101.448C107.032 105.968 96.9654 108.228 85.0461 108.228H35.9996V166.095H0ZM35.9996 78.6891H80.2139C87.7843 78.6891 93.5829 76.51 97.6097 72.1519C101.798 67.7937 103.892 61.7407 103.892 53.9928C103.892 48.6662 103.006 44.2273 101.234 40.6762C99.462 37.1251 96.8043 34.3811 93.2607 32.4441C89.8782 30.5072 85.5293 29.5387 80.2139 29.5387H35.9996V78.6891Z" fill="#505050" fill-opacity="0.07"/>
<path d="M217.193 169C203.34 169 191.582 166.66 181.918 161.979C172.253 157.136 164.925 149.792 159.931 139.946C154.938 129.938 152.442 117.428 152.442 102.417C152.442 87.0826 154.938 74.5731 159.931 64.8883C164.925 55.042 172.253 47.7784 181.918 43.0974C191.582 38.255 203.34 35.8338 217.193 35.8338C231.367 35.8338 243.206 38.255 252.709 43.0974C262.373 47.7784 269.702 55.042 274.695 64.8883C279.688 74.5731 282.185 87.0826 282.185 102.417C282.185 117.428 279.688 129.938 274.695 139.946C269.702 149.792 262.373 157.136 252.709 161.979C243.206 166.66 231.367 169 217.193 169ZM217.193 142.851C224.602 142.851 230.481 141.479 234.83 138.735C239.34 135.991 242.642 131.794 244.736 126.145C246.83 120.495 247.877 113.554 247.877 105.322V99.5115C247.877 91.2794 246.83 84.3386 244.736 78.6891C242.642 73.0396 239.34 68.8429 234.83 66.0989C230.481 63.1934 224.602 61.7407 217.193 61.7407C209.944 61.7407 204.065 63.1934 199.555 66.0989C195.206 68.8429 191.985 73.0396 189.891 78.6891C187.797 84.3386 186.75 91.2794 186.75 99.5115V105.322C186.75 113.554 187.797 120.495 189.891 126.145C191.985 131.794 195.206 135.991 199.555 138.735C204.065 141.479 209.944 142.851 217.193 142.851Z" fill="#505050" fill-opacity="0.07"/>
<path d="M358.36 169C349.501 169 341.528 168.032 334.44 166.095C327.353 164.158 321.313 161.494 316.32 158.105C311.327 154.553 307.461 150.357 304.723 145.514C302.145 140.672 300.857 135.184 300.857 129.05C300.857 128.404 300.857 127.759 300.857 127.113C300.857 126.468 300.937 125.983 301.099 125.66H333.474C333.474 125.983 333.474 126.306 333.474 126.629C333.474 126.952 333.474 127.275 333.474 127.597C333.635 131.633 334.924 134.942 337.34 137.524C339.756 139.946 342.897 141.721 346.762 142.851C350.789 143.981 354.977 144.546 359.326 144.546C363.192 144.546 366.896 144.223 370.44 143.577C374.145 142.77 377.205 141.398 379.621 139.461C382.198 137.524 383.487 135.022 383.487 131.956C383.487 128.082 381.876 125.096 378.655 122.997C375.594 120.899 371.487 119.204 366.333 117.913C361.339 116.621 355.863 115.169 349.903 113.554C344.427 112.263 338.95 110.81 333.474 109.196C327.998 107.421 323.004 105.161 318.494 102.417C314.145 99.6729 310.602 96.1218 307.863 91.7636C305.125 87.244 303.756 81.5946 303.756 74.8152C303.756 68.1972 305.206 62.4671 308.105 57.6246C311.004 52.6208 314.951 48.5048 319.944 45.2765C325.098 42.0482 331.058 39.7077 337.823 38.255C344.749 36.6409 352.158 35.8338 360.051 35.8338C367.46 35.8338 374.386 36.6409 380.829 38.255C387.272 39.7077 392.91 41.9675 397.742 45.0344C402.574 47.9398 406.359 51.6523 409.097 56.1719C411.836 60.5301 413.205 65.4532 413.205 70.9413C413.205 72.0712 413.205 73.1204 413.205 74.0888C413.205 75.0573 413.124 75.703 412.963 76.0258H380.829V74.0888C380.829 71.1834 379.943 68.7622 378.171 66.8252C376.4 64.7268 373.823 63.1127 370.44 61.9828C367.219 60.8529 363.272 60.288 358.601 60.288C355.38 60.288 352.4 60.5301 349.662 61.0143C347.085 61.4986 344.83 62.2249 342.897 63.1934C340.964 64.1619 339.434 65.3725 338.306 66.8252C337.34 68.1165 336.857 69.7307 336.857 71.6676C336.857 74.4117 337.984 76.6714 340.239 78.447C342.655 80.0611 345.796 81.4331 349.662 82.563C353.527 83.6929 357.796 84.9035 362.467 86.1948C368.266 87.809 374.306 89.4231 380.588 91.0373C387.03 92.49 392.99 94.5076 398.467 97.0902C403.943 99.6729 408.372 103.385 411.755 108.228C415.138 112.909 416.829 119.285 416.829 127.355C416.829 135.103 415.299 141.64 412.238 146.967C409.339 152.294 405.232 156.571 399.916 159.799C394.601 163.028 388.4 165.368 381.312 166.821C374.225 168.274 366.574 169 358.36 169Z" fill="#505050" fill-opacity="0.07"/>
<path d="M479.083 169C471.029 169 464.505 167.547 459.512 164.642C454.519 161.736 450.895 157.862 448.64 153.02C446.385 148.016 445.257 142.528 445.257 136.556V64.6461H429.553V38.7393H446.465L452.747 2.4212H478.841V38.7393H502.035V64.6461H478.841V130.987C478.841 134.861 479.727 137.847 481.499 139.946C483.27 141.883 486.17 142.851 490.197 142.851H502.035V165.126C500.102 165.772 497.847 166.337 495.27 166.821C492.693 167.467 489.955 167.951 487.056 168.274C484.156 168.758 481.499 169 479.083 169Z" fill="#505050" fill-opacity="0.07"/>
<path d="M581.475 169C567.462 169 555.704 166.66 546.201 161.979C536.697 157.136 529.53 149.792 524.697 139.946C519.865 130.099 517.449 117.59 517.449 102.417C517.449 87.0826 519.865 74.5731 524.697 64.8883C529.53 55.042 536.617 47.7784 545.959 43.0974C555.462 38.255 567.059 35.8338 580.75 35.8338C593.636 35.8338 604.509 38.1743 613.368 42.8553C622.227 47.3749 628.911 54.4771 633.421 64.1619C637.931 73.6853 640.186 86.0334 640.186 101.206V109.923H551.516C551.838 117.348 552.966 123.643 554.898 128.808C556.992 133.973 560.133 137.847 564.321 140.43C568.67 142.851 574.388 144.062 581.475 144.062C585.341 144.062 588.804 143.577 591.865 142.609C595.086 141.64 597.824 140.188 600.079 138.251C602.334 136.314 604.106 133.893 605.395 130.987C606.683 128.082 607.327 124.773 607.327 121.06H640.186C640.186 129.131 638.736 136.152 635.837 142.125C632.938 148.097 628.911 153.101 623.757 157.136C618.602 161.01 612.401 163.996 605.153 166.095C598.066 168.032 590.173 169 581.475 169ZM551.999 88.6161H605.636C605.636 83.7736 604.992 79.5769 603.703 76.0258C602.576 72.4747 600.965 69.5692 598.871 67.3095C596.777 65.0497 594.2 63.4355 591.14 62.467C588.24 61.3372 584.938 60.7722 581.234 60.7722C575.113 60.7722 569.959 61.8214 565.771 63.9198C561.744 65.8567 558.603 68.9236 556.348 73.1204C554.254 77.1557 552.805 82.3209 551.999 88.6161Z" fill="#505050" fill-opacity="0.07"/>
<path d="M664.826 166.095V38.7393H692.611L695.269 58.5931H696.96C698.571 54.3964 700.665 50.6032 703.242 47.2135C705.819 43.6624 709.041 40.8376 712.906 38.7393C716.772 36.6409 721.282 35.5917 726.436 35.5917C729.175 35.5917 731.671 35.9145 733.926 36.5602C736.181 37.0444 737.872 37.5287 739 38.0129V68.5201H728.611C723.618 68.5201 719.188 69.2464 715.322 70.6991C711.618 71.9905 708.477 74.0888 705.9 76.9943C703.323 79.8997 701.39 83.4508 700.101 87.6476C698.974 91.8443 698.41 96.7674 698.41 102.417V166.095H664.826Z" fill="#505050" fill-opacity="0.07"/>
</svg>
