<svg width="279" height="81" viewBox="0 0 279 81" fill="none" xmlns="http://www.w3.org/2000/svg">
<path d="M0 81V0H17.5801V81H0Z" fill="#505050" fill-opacity="0.07"/>
<path d="M35.4884 81V0H68.525C76.9414 0 84.0993 1.45627 89.9987 4.3688C95.8981 7.28134 100.421 11.7289 103.567 17.7114C106.792 23.6152 108.405 31.2114 108.405 40.5C108.405 49.7099 106.792 57.3061 103.567 63.2886C100.421 69.2711 95.8981 73.7187 89.9987 76.6312C84.0993 79.5437 76.9414 81 68.525 81H35.4884ZM53.0686 66.4767H68.407C71.9466 66.4767 75.0929 65.965 77.846 64.9417C80.599 63.9184 82.8801 62.4227 84.6893 60.4548C86.4984 58.4082 87.8749 55.8892 88.8188 52.898C89.7627 49.828 90.2347 46.2857 90.2347 42.2711V38.7289C90.2347 34.7143 89.7627 31.2114 88.8188 28.2201C87.8749 25.1501 86.4984 22.6312 84.6893 20.6633C82.8801 18.6166 80.599 17.0816 77.846 16.0583C75.0929 14.9563 71.9466 14.4052 68.407 14.4052H53.0686V66.4767Z" fill="#505050" fill-opacity="0.07"/>
<path d="M122.712 81V0H187.369V14.4052H140.41V32.4708H181.941V46.758H140.41V66.4767H188.077V81H122.712Z" fill="#505050" fill-opacity="0.07"/>
<path d="M194.993 81L226.142 0H247.851L279 81H260.004L254.223 65.0598H218.944L213.163 81H194.993ZM224.018 50.8907H249.149L241.952 30.9359C241.637 30.07 241.244 29.0466 240.772 27.8659C240.379 26.6064 239.946 25.2289 239.474 23.7332C239.002 22.2376 238.53 20.7813 238.058 19.3644C237.665 17.8688 237.272 16.5306 236.878 15.3499H236.171C235.777 16.8455 235.266 18.6166 234.637 20.6633C234.007 22.6312 233.378 24.5598 232.749 26.449C232.12 28.2595 231.608 29.7551 231.215 30.9359L224.018 50.8907Z" fill="#505050" fill-opacity="0.07"/>
</svg>
