<svg width="526" height="139" viewBox="0 0 526 139" fill="none" xmlns="http://www.w3.org/2000/svg">
<path d="M0 109.101V0H62.5749C68.3215 0 73.4829 1.11327 78.059 3.33982C82.7414 5.56636 86.4129 8.69413 89.0734 12.7231C91.7339 16.7521 93.0642 21.4703 93.0642 26.8776C93.0642 31.2246 92.266 35.0946 90.6697 38.4874C89.0734 41.8802 86.8918 44.6899 84.1249 46.9165C81.4644 49.143 78.4314 50.7864 75.026 51.8467V52.4828C79.0699 53.331 82.635 54.9214 85.7212 57.254C88.9138 59.5866 91.4146 62.6083 93.2238 66.3192C95.1393 69.9241 96.0971 74.2182 96.0971 79.2014C96.0971 85.775 94.554 91.2883 91.4679 95.7414C88.4881 100.195 84.4974 103.534 79.4956 105.761C74.4939 107.987 68.9068 109.101 62.7345 109.101H0ZM23.7848 89.6979H58.1052C62.0428 89.6979 65.2354 88.5847 67.683 86.3581C70.2371 84.1316 71.5141 80.6857 71.5141 76.0206C71.5141 73.2639 70.982 70.8783 69.9178 68.8638C68.8536 66.8493 67.2573 65.312 65.1289 64.2517C63.0005 63.0854 60.2868 62.5023 56.9878 62.5023H23.7848V89.6979ZM23.7848 44.0538H55.3915C58.2649 44.0538 60.6593 43.5236 62.5749 42.4634C64.5968 41.2971 66.0867 39.8127 67.0445 38.0103C68.1087 36.1018 68.6408 33.9283 68.6408 31.4897C68.6408 27.3547 67.4702 24.2269 65.1289 22.1064C62.8941 19.9859 59.9144 18.9256 56.1897 18.9256H23.7848V44.0538Z" fill="white" fill-opacity="0.08"/>
<path d="M151.438 111.009C142.179 111.009 134.41 109.472 128.132 106.397C121.853 103.216 117.117 98.3921 113.925 91.9245C110.732 85.4569 109.136 77.2399 109.136 67.2735C109.136 57.201 110.732 48.984 113.925 42.6224C117.117 36.1548 121.8 31.3837 127.972 28.3089C134.251 25.1281 141.913 23.5378 150.959 23.5378C159.472 23.5378 166.656 25.0751 172.509 28.1499C178.362 31.1186 182.778 35.7838 185.758 42.1453C188.738 48.4008 190.228 56.5118 190.228 66.4783V72.2037H131.643C131.856 77.0809 132.601 81.2159 133.878 84.6087C135.262 88.0015 137.337 90.5462 140.104 92.2426C142.977 93.833 146.755 94.6281 151.438 94.6281C153.992 94.6281 156.28 94.3101 158.302 93.6739C160.43 93.0378 162.239 92.0835 163.729 90.8112C165.219 89.5389 166.389 87.9485 167.241 86.04C168.092 84.1316 168.518 81.9581 168.518 79.5195H190.228C190.228 84.8208 189.27 89.4329 187.354 93.3558C185.439 97.2788 182.778 100.566 179.373 103.216C175.967 105.761 171.87 107.722 167.081 109.101C162.399 110.373 157.184 111.009 151.438 111.009ZM131.963 58.2082H167.4C167.4 55.0275 166.975 52.2708 166.123 49.9382C165.379 47.6056 164.314 45.6972 162.931 44.2128C161.547 42.7285 159.845 41.6682 157.823 41.032C155.907 40.2899 153.726 39.9188 151.278 39.9188C147.234 39.9188 143.828 40.6079 141.062 41.9863C138.401 43.2586 136.326 45.2731 134.836 48.0298C133.453 50.6804 132.495 54.0732 131.963 58.2082Z" fill="white" fill-opacity="0.08"/>
<path d="M228.696 111.009C225.929 111.009 222.949 110.691 219.757 110.055C216.67 109.419 213.744 108.305 210.977 106.715C208.21 105.019 205.922 102.633 204.113 99.5583C202.41 96.3776 201.559 92.3486 201.559 87.4714C201.559 81.64 202.836 76.8158 205.39 72.9989C207.944 69.1819 211.562 66.2132 216.245 64.0927C221.034 61.8661 226.727 60.3288 233.325 59.4806C239.923 58.6323 247.213 58.2082 255.194 58.2082V52.0057C255.194 49.5671 254.769 47.4466 253.917 45.6442C253.172 43.8417 251.789 42.4104 249.767 41.3501C247.851 40.2899 245.138 39.7597 241.626 39.7597C238.114 39.7597 235.241 40.1838 233.006 41.032C230.877 41.8802 229.334 42.9935 228.377 44.3719C227.525 45.6442 227.1 47.0755 227.1 48.6659V50.5744H205.55C205.443 50.0442 205.39 49.5671 205.39 49.143C205.39 48.6129 205.39 47.9767 205.39 47.2346C205.39 42.3574 206.88 38.1693 209.859 34.6705C212.839 31.0656 217.043 28.3089 222.47 26.4005C227.898 24.492 234.23 23.5378 241.466 23.5378C249.235 23.5378 255.726 24.545 260.941 26.5595C266.262 28.574 270.306 31.5427 273.073 35.4657C275.946 39.3886 277.383 44.3188 277.383 50.2563V88.2666C277.383 90.1751 277.915 91.6064 278.979 92.5606C280.15 93.4088 281.427 93.8329 282.81 93.8329H288.078V108.305C287.014 108.836 285.364 109.366 283.13 109.896C280.895 110.532 278.181 110.85 274.988 110.85C271.902 110.85 269.135 110.373 266.688 109.419C264.346 108.571 262.378 107.351 260.781 105.761C259.185 104.064 258.068 102.05 257.429 99.7174H256.312C254.503 101.944 252.268 103.905 249.607 105.602C247.053 107.298 244.02 108.624 240.508 109.578C237.103 110.532 233.165 111.009 228.696 111.009ZM236.198 94.3101C239.178 94.3101 241.839 93.886 244.18 93.0378C246.521 92.0835 248.49 90.8642 250.086 89.3799C251.682 87.7895 252.906 85.881 253.758 83.6545C254.715 81.4279 255.194 79.0423 255.194 76.4977V71.8856C249.235 71.8856 243.914 72.3097 239.231 73.1579C234.549 73.9001 230.824 75.2254 228.057 77.1339C225.397 79.0423 224.067 81.693 224.067 85.0858C224.067 86.9943 224.545 88.6377 225.503 90.016C226.461 91.3944 227.844 92.4546 229.654 93.1968C231.463 93.939 233.644 94.3101 236.198 94.3101Z" fill="white" fill-opacity="0.08"/>
<path d="M326.242 111.009C317.728 111.009 310.971 108.677 305.969 104.011C300.967 99.3463 298.467 91.8185 298.467 81.4279V25.4462H320.655V77.77C320.655 80.5267 320.974 82.8593 321.613 84.7677C322.251 86.5702 323.156 88.0545 324.327 89.2208C325.604 90.3871 327.147 91.2353 328.956 91.7654C330.765 92.2956 332.787 92.5606 335.022 92.5606C338.321 92.5606 341.3 91.7655 343.961 90.1751C346.621 88.5847 348.697 86.4111 350.187 83.6545C351.676 80.7918 352.421 77.611 352.421 74.1121V25.4462H374.61V109.101H356.412L354.816 97.6499H353.698C351.676 100.301 349.282 102.633 346.515 104.648C343.855 106.662 340.822 108.199 337.416 109.26C334.011 110.426 330.286 111.009 326.242 111.009Z" fill="white" fill-opacity="0.08"/>
<path d="M420.038 111.009C414.717 111.009 410.407 110.055 407.108 108.146C403.809 106.238 401.415 103.693 399.925 100.513C398.435 97.2258 397.69 93.6209 397.69 89.6979V42.4634H387.314V25.4462H398.488L402.639 1.59039H419.879V25.4462H435.203V42.4634H419.879V86.04C419.879 88.5847 420.464 90.5461 421.635 91.9245C422.805 93.1968 424.721 93.8329 427.381 93.8329H435.203V108.465C433.926 108.889 432.436 109.26 430.733 109.578C429.031 110.002 427.222 110.32 425.306 110.532C423.391 110.85 421.635 111.009 420.038 111.009Z" fill="white" fill-opacity="0.08"/>
<path d="M461.669 139C457.732 139 454.433 138.682 451.772 138.046C449.218 137.516 447.569 137.145 446.824 136.932V121.983H456.561C459.222 121.983 461.616 121.347 463.744 120.074C465.873 118.908 467.735 117.318 469.331 115.303C470.928 113.395 472.098 111.327 472.843 109.101L439.96 25.4462H463.425L477.792 64.0927C478.43 65.8951 479.122 68.1747 479.867 70.9314C480.718 73.582 481.57 76.3917 482.421 79.3604C483.272 82.2231 483.964 84.7677 484.496 86.9943H485.294C485.72 85.5099 486.199 83.7605 486.731 81.746C487.263 79.7315 487.795 77.664 488.327 75.5435C488.966 73.423 489.551 71.4085 490.083 69.5C490.722 67.4855 491.254 65.7361 491.68 64.2517L503.652 25.4462H526L497.426 105.125C495.83 109.79 493.968 114.137 491.839 118.166C489.817 122.301 487.423 125.906 484.656 128.981C481.889 132.161 478.59 134.6 474.759 136.296C471.034 138.099 466.671 139 461.669 139Z" fill="white" fill-opacity="0.08"/>
</svg>
