<svg width="1004" height="193" viewBox="0 0 1004 193" fill="none" xmlns="http://www.w3.org/2000/svg">
<path d="M0 153.171L55.9406 7.83864H94.9295L150.87 153.171H116.755L106.372 124.571H43.0149L32.632 153.171H0ZM52.1264 99.1482H97.2603L84.3346 63.3447C83.7696 61.7911 83.0633 59.955 82.2157 57.8364C81.5094 55.5767 80.7324 53.105 79.8848 50.4215C79.0372 47.738 78.1897 45.1251 77.3421 42.5829C76.6357 39.8994 75.9294 37.4984 75.2231 35.3798H73.9517C73.2454 38.0633 72.3272 41.2411 71.1971 44.9133C70.067 48.4442 68.9369 51.9045 67.8067 55.2942C66.6766 58.5426 65.7584 61.2261 65.0521 63.3447L52.1264 99.1482Z" fill="#505050" fill-opacity="0.07"/>
<path d="M165.625 153.171V41.7355H189.993L192.324 59.1076H193.807C195.22 55.4354 197.056 52.1164 199.316 49.1504C201.577 46.0432 204.402 43.5715 207.792 41.7355C211.183 39.8994 215.138 38.9813 219.658 38.9813C222.06 38.9813 224.25 39.2638 226.227 39.8288C228.205 40.2525 229.688 40.6762 230.677 41.0999V67.7936H221.565C217.186 67.7936 213.302 68.4292 209.911 69.7003C206.662 70.8302 203.907 72.6663 201.647 75.2086C199.387 77.7508 197.692 80.858 196.562 84.5302C195.573 88.2023 195.078 92.5101 195.078 97.4534V153.171H165.625Z" fill="#505050" fill-opacity="0.07"/>
<path d="M308.418 155.714C301.214 155.714 294.574 154.301 288.5 151.476C282.567 148.51 277.764 144.061 274.091 138.13H272.608L270.277 153.171H246.121V0H275.574V54.0231H276.846C279.106 50.7746 281.86 48.0205 285.109 45.7607C288.359 43.5009 292.031 41.8767 296.128 40.888C300.225 39.7581 304.675 39.1932 309.478 39.1932C318.236 39.1932 325.864 41.2411 332.362 45.337C339.002 49.4329 344.158 55.7885 347.831 64.4039C351.504 72.8782 353.34 83.824 353.34 97.2415C353.34 110.659 351.504 121.675 347.831 130.291C344.299 138.906 339.143 145.333 332.362 149.57C325.723 153.666 317.741 155.714 308.418 155.714ZM299.307 131.562C305.24 131.562 309.901 130.432 313.292 128.172C316.823 125.771 319.366 122.24 320.92 117.58C322.474 112.919 323.251 107.057 323.251 99.9956V95.1229C323.251 88.0611 322.474 82.1998 320.92 77.539C319.366 72.7369 316.823 69.206 313.292 66.9462C309.901 64.5452 305.24 63.3447 299.307 63.3447C295.069 63.3447 291.466 64.1215 288.5 65.6751C285.533 67.0874 283.061 69.206 281.083 72.0307C279.247 74.7142 277.834 78.1039 276.846 82.1998C275.857 86.2956 275.362 90.8152 275.362 95.7585V99.5719C275.362 106.21 276.21 111.93 277.905 116.732C279.6 121.534 282.214 125.206 285.745 127.749C289.277 130.291 293.797 131.562 299.307 131.562Z" fill="#505050" fill-opacity="0.07"/>
<path d="M426.317 155.714C414.168 155.714 403.856 153.666 395.38 149.57C386.904 145.333 380.477 138.906 376.097 130.291C371.718 121.534 369.529 110.588 369.529 97.4534C369.529 84.0359 371.718 73.09 376.097 64.6158C380.477 56.0004 386.904 49.6447 395.38 45.5489C403.856 41.3117 414.168 39.1932 426.317 39.1932C438.748 39.1932 449.131 41.3117 457.465 45.5489C465.941 49.6447 472.369 56.0004 476.748 64.6158C481.127 73.09 483.317 84.0359 483.317 97.4534C483.317 110.588 481.127 121.534 476.748 130.291C472.369 138.906 465.941 145.333 457.465 149.57C449.131 153.666 438.748 155.714 426.317 155.714ZM426.317 132.833C432.815 132.833 437.971 131.633 441.785 129.232C445.741 126.831 448.636 123.158 450.473 118.215C452.309 113.272 453.228 107.199 453.228 99.9956V94.9111C453.228 87.708 452.309 81.6348 450.473 76.6915C448.636 71.7483 445.741 68.0761 441.785 65.6751C437.971 63.1328 432.815 61.8617 426.317 61.8617C419.96 61.8617 414.804 63.1328 410.848 65.6751C407.034 68.0761 404.209 71.7483 402.372 76.6915C400.536 81.6348 399.618 87.708 399.618 94.9111V99.9956C399.618 107.199 400.536 113.272 402.372 118.215C404.209 123.158 407.034 126.831 410.848 129.232C414.804 131.633 419.96 132.833 426.317 132.833Z" fill="#505050" fill-opacity="0.07"/>
<path d="M504.99 153.171V41.7355H529.358L531.689 59.1076H533.172C534.585 55.4354 536.421 52.1164 538.681 49.1504C540.941 46.0432 543.767 43.5715 547.157 41.7355C550.547 39.8994 554.503 38.9813 559.023 38.9813C561.425 38.9813 563.614 39.2638 565.592 39.8288C567.57 40.2525 569.053 40.6762 570.042 41.0999V67.7936H560.93C556.551 67.7936 552.666 68.4292 549.276 69.7003C546.027 70.8302 543.272 72.6663 541.012 75.2086C538.752 77.7508 537.057 80.858 535.927 84.5302C534.938 88.2023 534.443 92.5101 534.443 97.4534V153.171H504.99Z" fill="#505050" fill-opacity="0.07"/>
<path d="M625.482 153.171V7.83864H684.813C699.929 7.83864 712.784 10.4515 723.378 15.6773C733.973 20.903 742.096 28.8829 747.747 39.6169C753.538 50.2097 756.434 63.839 756.434 80.5049C756.434 97.0296 753.538 110.659 747.747 121.393C742.096 132.127 733.973 140.107 723.378 145.333C712.784 150.558 699.929 153.171 684.813 153.171H625.482ZM657.055 127.113H684.601C690.958 127.113 696.609 126.195 701.553 124.359C706.497 122.523 710.594 119.839 713.843 116.308C717.092 112.636 719.564 108.117 721.259 102.75C722.955 97.2415 723.802 90.8858 723.802 83.6828V77.3271C723.802 70.124 722.955 63.839 721.259 58.472C719.564 52.9638 717.092 48.4442 713.843 44.9133C710.594 41.2411 706.497 38.487 701.553 36.6509C696.609 34.6736 690.958 33.685 684.601 33.685H657.055V127.113Z" fill="#505050" fill-opacity="0.07"/>
<path d="M809.039 155.714C805.366 155.714 801.411 155.29 797.173 154.442C793.076 153.595 789.191 152.112 785.519 149.993C781.846 147.734 778.809 144.556 776.407 140.46C774.147 136.223 773.017 130.856 773.017 124.359C773.017 116.591 774.712 110.165 778.102 105.08C781.493 99.9956 786.296 96.041 792.511 93.2162C798.868 90.2503 806.426 88.2023 815.184 87.0725C823.942 85.9426 833.619 85.3776 844.214 85.3776V77.1153C844.214 73.8668 843.649 71.0421 842.519 68.6411C841.53 66.24 839.693 64.3333 837.009 62.921C834.467 61.5086 830.864 60.8024 826.203 60.8024C821.541 60.8024 817.727 61.3674 814.76 62.4973C811.935 63.6272 809.887 65.1101 808.615 66.9462C807.485 68.6411 806.92 70.5478 806.92 72.6663V75.2086H778.314C778.173 74.5024 778.102 73.8668 778.102 73.3019C778.102 72.5957 778.102 71.7483 778.102 70.7596C778.102 64.2627 780.08 58.6839 784.035 54.0231C787.991 49.221 793.571 45.5488 800.775 43.0066C807.98 40.4643 816.385 39.1932 825.991 39.1932C836.303 39.1932 844.92 40.5349 851.842 43.2184C858.905 45.9019 864.273 49.8566 867.946 55.0823C871.76 60.3081 873.667 66.8756 873.667 74.7849V125.418C873.667 127.96 874.374 129.867 875.786 131.138C877.34 132.268 879.035 132.833 880.872 132.833H887.864V152.112C886.452 152.818 884.262 153.524 881.296 154.231C878.329 155.078 874.727 155.502 870.489 155.502C866.392 155.502 862.719 154.866 859.47 153.595C856.362 152.465 853.749 150.841 851.63 148.722C849.511 146.462 848.028 143.779 847.18 140.672H845.697C843.296 143.638 840.329 146.251 836.797 148.51C833.407 150.77 829.381 152.536 824.719 153.807C820.199 155.078 814.972 155.714 809.039 155.714ZM818.998 133.469C822.954 133.469 826.485 132.904 829.593 131.774C832.701 130.503 835.314 128.879 837.433 126.901C839.552 124.783 841.177 122.24 842.307 119.274C843.578 116.308 844.214 113.131 844.214 109.741V103.597C836.303 103.597 829.24 104.162 823.024 105.292C816.809 106.281 811.864 108.046 808.191 110.588C804.66 113.131 802.894 116.662 802.894 121.181C802.894 123.723 803.53 125.913 804.801 127.749C806.073 129.585 807.909 130.997 810.31 131.986C812.712 132.974 815.608 133.469 818.998 133.469Z" fill="#505050" fill-opacity="0.07"/>
<path d="M918.606 193C913.379 193 909 192.576 905.468 191.729C902.078 191.023 899.888 190.528 898.9 190.246V170.332H911.825C915.357 170.332 918.535 169.484 921.361 167.789C924.186 166.236 926.658 164.117 928.777 161.434C930.896 158.891 932.45 156.137 933.439 153.171L889.788 41.7355H920.937L940.007 93.2162C940.855 95.6173 941.773 98.6539 942.762 102.326C943.892 105.857 945.022 109.6 946.152 113.554C947.283 117.368 948.201 120.757 948.907 123.723H949.967C950.532 121.746 951.167 119.416 951.874 116.732C952.58 114.049 953.286 111.295 953.993 108.47C954.84 105.645 955.617 102.962 956.323 100.419C957.171 97.7358 957.877 95.4054 958.442 93.4281L974.335 41.7355H1004L966.071 147.875C963.952 154.089 961.48 159.88 958.654 165.247C955.97 170.755 952.792 175.557 949.119 179.653C945.446 183.89 941.067 187.139 935.981 189.398C931.037 191.799 925.245 193 918.606 193Z" fill="#505050" fill-opacity="0.07"/>
</svg>
