<?xml version="1.0" encoding="UTF-8"?>
<svg width="50px" height="50px" viewBox="0 0 50 50" version="1.1" xmlns="http://www.w3.org/2000/svg" xmlns:xlink="http://www.w3.org/1999/xlink">
    <!-- Generator: Sketch 63 (92445) - https://sketch.com -->
    <title>Combined Shape 3</title>
    <desc>Created with Sketch.</desc>
    <defs>
        <linearGradient x1="50%" y1="0%" x2="50%" y2="100%" id="linearGradient-1">
            <stop stop-color="#B1D08E" offset="0%"></stop>
            <stop stop-color="#7DB18D" offset="59.2160635%"></stop>
            <stop stop-color="#50968D" offset="100%"></stop>
        </linearGradient>
    </defs>
    <g id="Page-1" stroke="none" stroke-width="1" fill="none" fill-rule="evenodd">
        <g id="Desktop-HD" transform="translate(-1508.000000, -931.000000)" fill="url(#linearGradient-1)">
            <g id="Combined-Shape-3" transform="translate(1508.000000, 931.000000)">
                <path d="M25,0 C38.8071187,0 50,11.0416261 50,24.6621622 C50,38.2826982 38.8071187,49.3243243 25,49.3243243 C11.1928813,49.3243243 1.53630862e-13,38.2826982 1.53630862e-13,24.6621622 C1.53630862e-13,11.0416261 11.1928813,0 25,0 Z M28.2819368,13.1434419 C23.9032452,13.1434419 21.0443853,15.7601549 21.0443853,20.4973734 L21.0443853,20.4973734 L21.0443853,24.6621622 L16.1765968,24.6621622 L16.1765968,30.1265418 L21.0443853,30.1265418 L21.0440364,37.1729018 C22.2935624,37.5569942 23.6222833,37.7639358 25,37.7639358 C25.6911723,37.7639358 26.3700133,37.7118522 27.0327098,37.6114466 L27.0325378,30.1265418 L31.4969952,30.1265418 L32.3469265,24.6621622 L27.0325378,24.6621622 L27.0325378,21.1140121 C27.0325378,19.619292 27.7750687,18.1619208 30.155649,18.1619208 L30.155649,18.1619208 L32.571772,18.1619208 L32.5716274,13.8966381 C32.3163834,13.7216097 32.0546186,13.5551886 31.7867648,13.3978006 C30.9630302,13.2899542 29.6034583,13.1434419 28.2819368,13.1434419 Z" id="Combined-Shape"></path>
            </g>
        </g>
    </g>
</svg>