<svg width="331" height="353" viewBox="0 0 331 353" fill="none" xmlns="http://www.w3.org/2000/svg">
<path d="M137.637 12.5459C137.637 5.617 143.254 0 150.183 0H180.97C187.899 0 193.516 5.617 193.516 12.5459V43.3329C193.516 50.2619 187.899 55.8789 180.97 55.8789H150.183C143.254 55.8789 137.637 50.2619 137.637 43.3329V12.5459Z" fill="#25010F"/>
<path d="M153.612 16.488C153.612 13.2236 156.301 10.5742 159.615 10.5742H165.617V22.4018H159.615C156.301 22.4018 153.612 19.7524 153.612 16.488Z" fill="#E15A33"/>
<path d="M177.622 16.488C177.622 13.2236 174.933 10.5742 171.62 10.5742H165.617V22.4018H171.62C174.933 22.4018 177.622 19.7524 177.622 16.488Z" fill="#EE7A69"/>
<path d="M153.612 28.3161C153.612 25.0517 156.301 22.4023 159.615 22.4023H165.617V34.2299H159.615C156.301 34.2299 153.612 31.5806 153.612 28.3161Z" fill="#9763F6"/>
<path d="M171.531 34.2299C174.797 34.2299 177.445 31.5822 177.445 28.3161C177.445 25.05 174.797 22.4023 171.531 22.4023C168.265 22.4023 165.617 25.05 165.617 28.3161C165.617 31.5822 168.265 34.2299 171.531 34.2299Z" fill="#55BBF8"/>
<path d="M159.615 34.2305H165.617V40.1442C165.617 43.4087 162.928 46.0581 159.615 46.0581C156.301 46.0581 153.612 43.4087 153.612 40.1442C153.612 36.8799 156.301 34.2305 159.615 34.2305Z" fill="#5ECB89"/>
<g style="mix-blend-mode:overlay" filter="url(#filter0_d_604_9155)">
<path style="mix-blend-mode:overlay" fill-rule="evenodd" clip-rule="evenodd" d="M153.612 16.488C153.612 13.2236 156.301 10.5742 159.615 10.5742H165.617H171.62C174.933 10.5742 177.622 13.2236 177.622 16.488C177.622 19.7524 174.933 22.4018 171.62 22.4018H165.617H159.615C156.301 22.4018 153.612 19.7524 153.612 16.488ZM159.615 22.4023C156.301 22.4023 153.612 25.0517 153.612 28.3161C153.612 31.5806 156.301 34.2299 159.615 34.2299H165.617V28.3545C165.638 31.603 168.278 34.2299 171.531 34.2299C174.797 34.2299 177.445 31.5822 177.445 28.3161C177.445 25.05 174.797 22.4023 171.531 22.4023C168.278 22.4023 165.638 25.0293 165.617 28.2777V22.4023H159.615ZM165.617 34.2305H159.615C156.301 34.2305 153.612 36.8799 153.612 40.1442C153.612 43.4087 156.301 46.0581 159.615 46.0581C162.928 46.0581 165.617 43.4087 165.617 40.1442V34.2305Z" fill="url(#paint0_linear_604_9155)"/>
</g>
<g style="mix-blend-mode:overlay">
<path d="M158.087 16.488C158.087 15.7577 158.71 15.0492 159.615 15.0492H161.142V17.9268H159.615C158.71 17.9268 158.087 17.2184 158.087 16.488Z" fill="#3C100D" fill-opacity="0.65"/>
<path d="M158.087 16.488C158.087 15.7577 158.71 15.0492 159.615 15.0492H161.142V17.9268H159.615C158.71 17.9268 158.087 17.2184 158.087 16.488Z" stroke="url(#paint1_linear_604_9155)" stroke-width="8.95" style="mix-blend-mode:overlay"/>
</g>
<g style="mix-blend-mode:overlay">
<path d="M173.147 16.488C173.147 15.7577 172.525 15.0492 171.62 15.0492H170.092V17.9268H171.62C172.525 17.9268 173.147 17.2184 173.147 16.488Z" fill="#A35651" fill-opacity="0.45"/>
<path d="M173.147 16.488C173.147 15.7577 172.525 15.0492 171.62 15.0492H170.092V17.9268H171.62C172.525 17.9268 173.147 17.2184 173.147 16.488Z" stroke="url(#paint2_linear_604_9155)" stroke-width="8.95" style="mix-blend-mode:overlay"/>
</g>
<g style="mix-blend-mode:overlay">
<path d="M158.087 28.3161C158.087 27.5858 158.71 26.8773 159.615 26.8773H161.142V29.7549H159.615C158.71 29.7549 158.087 29.0465 158.087 28.3161Z" fill="#6B35CF" fill-opacity="0.31"/>
<path d="M158.087 28.3161C158.087 27.5858 158.71 26.8773 159.615 26.8773H161.142V29.7549H159.615C158.71 29.7549 158.087 29.0465 158.087 28.3161Z" stroke="url(#paint3_linear_604_9155)" stroke-width="8.95" style="mix-blend-mode:overlay"/>
</g>
<g style="mix-blend-mode:overlay">
<path d="M171.531 32.7911C174.002 32.7911 176.006 30.7876 176.006 28.3161C176.006 25.8446 174.002 23.8411 171.531 23.8411C169.06 23.8411 167.056 25.8446 167.056 28.3161C167.056 30.7876 169.06 32.7911 171.531 32.7911Z" fill="#00A0FF" fill-opacity="0.3"/>
<path d="M171.531 32.7911C174.002 32.7911 176.006 30.7876 176.006 28.3161C176.006 25.8446 174.002 23.8411 171.531 23.8411C169.06 23.8411 167.056 25.8446 167.056 28.3161C167.056 30.7876 169.06 32.7911 171.531 32.7911Z" stroke="url(#paint4_linear_604_9155)" stroke-width="2.87759" style="mix-blend-mode:overlay"/>
</g>
<g style="mix-blend-mode:overlay">
<path d="M161.142 40.1442C161.142 40.8746 160.52 41.5831 159.615 41.5831C158.71 41.5831 158.087 40.8747 158.087 40.1442C158.087 39.4139 158.71 38.7055 159.615 38.7055H161.142V40.1442Z" fill="#00FF65" fill-opacity="0.3"/>
<path d="M161.142 40.1442C161.142 40.8746 160.52 41.5831 159.615 41.5831C158.71 41.5831 158.087 40.8747 158.087 40.1442C158.087 39.4139 158.71 38.7055 159.615 38.7055H161.142V40.1442Z" stroke="url(#paint5_linear_604_9155)" stroke-width="8.95" style="mix-blend-mode:overlay"/>
</g>
<path style="mix-blend-mode:overlay" fill-rule="evenodd" clip-rule="evenodd" d="M153.612 16.488C153.612 13.2236 156.301 10.5742 159.615 10.5742H165.617H171.62C174.933 10.5742 177.622 13.2236 177.622 16.488C177.622 19.7524 174.933 22.4018 171.62 22.4018H165.617H159.615C156.301 22.4018 153.612 19.7524 153.612 16.488ZM159.615 22.4023C156.301 22.4023 153.612 25.0517 153.612 28.3161C153.612 31.5806 156.301 34.2299 159.615 34.2299H165.617V28.3545C165.638 31.603 168.278 34.2299 171.531 34.2299C174.797 34.2299 177.445 31.5822 177.445 28.3161C177.445 25.05 174.797 22.4023 171.531 22.4023C168.278 22.4023 165.638 25.0293 165.617 28.2777V22.4023H159.615ZM165.617 34.2305H159.615C156.301 34.2305 153.612 36.8799 153.612 40.1442C153.612 43.4087 156.301 46.0581 159.615 46.0581C162.928 46.0581 165.617 43.4087 165.617 40.1442V34.2305Z" fill="url(#paint6_linear_604_9155)"/>
<defs>
<filter id="filter0_d_604_9155" x="0.308792" y="10.574" width="330.616" height="342.09" filterUnits="userSpaceOnUse" color-interpolation-filters="sRGB">
<feFlood flood-opacity="0" result="BackgroundImageFix"/>
<feColorMatrix in="SourceAlpha" type="matrix" values="0 0 0 0 0 0 0 0 0 0 0 0 0 0 0 0 0 0 127 0" result="hardAlpha"/>
<feOffset dy="153.303"/>
<feGaussianBlur stdDeviation="76.6516"/>
<feColorMatrix type="matrix" values="0 0 0 0 0 0 0 0 0 0 0 0 0 0 0 0 0 0 0.2 0"/>
<feBlend mode="normal" in2="BackgroundImageFix" result="effect1_dropShadow_604_9155"/>
<feBlend mode="normal" in="SourceGraphic" in2="effect1_dropShadow_604_9155" result="shape"/>
</filter>
<linearGradient id="paint0_linear_604_9155" x1="153.662" y1="11.0989" x2="180.923" y2="34.8405" gradientUnits="userSpaceOnUse">
<stop offset="0.00520833" stop-color="white"/>
<stop offset="1" stop-color="#1A1919"/>
</linearGradient>
<linearGradient id="paint1_linear_604_9155" x1="153.634" y1="10.6132" x2="165.437" y2="22.5794" gradientUnits="userSpaceOnUse">
<stop stop-color="#FF8776"/>
<stop offset="0.173928" stop-color="#D95B48"/>
<stop offset="0.354254" stop-color="#E04C36"/>
<stop offset="0.756984" stop-color="#27110E"/>
<stop offset="1" stop-color="#380F08"/>
</linearGradient>
<linearGradient id="paint2_linear_604_9155" x1="170.515" y1="10.6132" x2="170.704" y2="22.331" gradientUnits="userSpaceOnUse">
<stop stop-color="#FFA3A3"/>
<stop offset="0.169753" stop-color="#EC8E88"/>
<stop offset="0.33973" stop-color="#DA7A74"/>
<stop offset="0.715204" stop-color="#9D5247"/>
<stop offset="1" stop-color="#6D1F1F"/>
</linearGradient>
<linearGradient id="paint3_linear_604_9155" x1="155.195" y1="22.5949" x2="161.26" y2="34.4074" gradientUnits="userSpaceOnUse">
<stop stop-color="#D9C4FF"/>
<stop offset="0.302397" stop-color="#9763F6"/>
<stop offset="0.542065" stop-color="#7A3CEB"/>
<stop offset="0.769478" stop-color="#572BA7"/>
<stop offset="1" stop-color="#301660"/>
</linearGradient>
<linearGradient id="paint4_linear_604_9155" x1="166.121" y1="22.595" x2="174.368" y2="34.0554" gradientUnits="userSpaceOnUse">
<stop stop-color="#ABE0FF"/>
<stop offset="0.239209" stop-color="#55BBF8"/>
<stop offset="0.434014" stop-color="#3FABEC"/>
<stop offset="0.731" stop-color="#1B6EA0"/>
<stop offset="1" stop-color="#2B668A"/>
</linearGradient>
<linearGradient id="paint5_linear_604_9155" x1="154.415" y1="34.8372" x2="164.72" y2="41.5034" gradientUnits="userSpaceOnUse">
<stop stop-color="#B6FFD3"/>
<stop offset="0.239209" stop-color="#7AFCAD"/>
<stop offset="0.472166" stop-color="#5ECB89"/>
<stop offset="0.731" stop-color="#38935C"/>
<stop offset="1" stop-color="#267344"/>
</linearGradient>
<linearGradient id="paint6_linear_604_9155" x1="153.662" y1="11.0989" x2="180.923" y2="34.8405" gradientUnits="userSpaceOnUse">
<stop offset="0.00520833" stop-color="white"/>
<stop offset="1" stop-color="#1A1919"/>
</linearGradient>
</defs>
</svg>
