<svg width="56" height="56" viewBox="0 0 56 56" fill="none" xmlns="http://www.w3.org/2000/svg">
<path d="M0 12.5459C0 5.617 5.617 0 12.5459 0H43.3329C50.2619 0 55.8789 5.617 55.8789 12.5459V43.3329C55.8789 50.2619 50.2619 55.8789 43.3329 55.8789H12.5459C5.617 55.8789 0 50.2619 0 43.3329V12.5459Z" fill="#25010F"/>
<path d="M15.9756 16.488C15.9756 13.2236 18.6647 10.5742 21.9781 10.5742H27.9806V22.4018H21.9781C18.6647 22.4018 15.9756 19.7524 15.9756 16.488Z" fill="#E15A33"/>
<path d="M39.9853 16.488C39.9853 13.2236 37.2961 10.5742 33.9827 10.5742H27.9805V22.4018H33.9827C37.2961 22.4018 39.9853 19.7524 39.9853 16.488Z" fill="#EE7A69"/>
<path d="M15.9756 28.3157C15.9756 25.0513 18.6647 22.4014 21.9781 22.4014H27.9806V34.2295H21.9781C18.6647 34.2295 15.9756 31.5802 15.9756 28.3157Z" fill="#9763F6"/>
<path d="M39.8081 28.3161C39.8081 31.5822 37.1604 34.2299 33.8943 34.2299C30.6282 34.2299 27.9805 31.5822 27.9805 28.3161C27.9805 25.05 30.6282 22.4023 33.8943 22.4023C37.1604 22.4023 39.8081 25.05 39.8081 28.3161Z" fill="#55BBF8"/>
<path d="M21.9781 34.2295H27.9806V40.1438C27.9806 43.4083 25.2915 46.0577 21.9781 46.0577C18.6647 46.0577 15.9756 43.4083 15.9756 40.1438C15.9756 36.8795 18.6647 34.2295 21.9781 34.2295Z" fill="#5ECB89"/>
<path d="M15.9756 16.488C15.9756 13.2236 18.6647 10.5742 21.9781 10.5742H27.9806H33.9828C37.2962 10.5742 39.9854 13.2236 39.9854 16.488C39.9854 19.7524 37.2962 22.4018 33.9828 22.4018H27.9806H21.9781C18.6647 22.4018 15.9756 19.7524 15.9756 16.488Z" fill="#00FF65" fill-opacity="0.2"/>
<path d="M21.9781 22.4014C18.6647 22.4014 15.9756 25.0513 15.9756 28.3157C15.9756 31.5802 18.6647 34.2295 21.9781 34.2295H27.9806V28.3541C28.0012 31.6026 30.641 34.2295 33.8943 34.2295C37.1604 34.2295 39.8081 31.5818 39.8081 28.3157C39.8081 25.0496 37.1604 22.4019 33.8943 22.4019C30.641 22.4019 28.0012 25.0289 27.9806 28.2773V22.4014H21.9781Z" fill="#00FF65" fill-opacity="0.2"/>
<path d="M27.9806 34.2295H21.9781C18.6647 34.2295 15.9756 36.8795 15.9756 40.1438C15.9756 43.4083 18.6647 46.0577 21.9781 46.0577C25.2915 46.0577 27.9806 43.4083 27.9806 40.1438V34.2295Z" fill="#00FF65" fill-opacity="0.2"/>
<path d="M15.9756 16.488C15.9756 13.2236 18.6647 10.5742 21.9781 10.5742H27.9806V22.4018H21.9781C18.6647 22.4018 15.9756 19.7524 15.9756 16.488Z" fill="#3C100D" fill-opacity="0.65"/>
<path d="M39.9853 16.488C39.9853 13.2236 37.2961 10.5742 33.9827 10.5742H27.9805V22.4018H33.9827C37.2961 22.4018 39.9853 19.7524 39.9853 16.488Z" fill="#A35651" fill-opacity="0.45"/>
<path d="M15.9756 28.3157C15.9756 25.0513 18.6647 22.4014 21.9781 22.4014H27.9806V34.2295H21.9781C18.6647 34.2295 15.9756 31.5802 15.9756 28.3157Z" fill="#6B35CF" fill-opacity="0.31"/>
<path d="M21.9781 34.2295H27.9806V40.1438C27.9806 43.4083 25.2915 46.0577 21.9781 46.0577C18.6647 46.0577 15.9756 43.4083 15.9756 40.1438C15.9756 36.8795 18.6647 34.2295 21.9781 34.2295Z" fill="#00FF65" fill-opacity="0.3"/>
<path d="M15.9756 16.488C15.9756 13.2236 18.6647 10.5742 21.9781 10.5742H27.9806V22.4018H21.9781C18.6647 22.4018 15.9756 19.7524 15.9756 16.488Z" fill="url(#paint0_linear_156_112)" fill-opacity="0.99"/>
<path d="M39.9853 16.488C39.9853 13.2236 37.2961 10.5742 33.9827 10.5742H27.9805V22.4018H33.9827C37.2961 22.4018 39.9853 19.7524 39.9853 16.488Z" fill="url(#paint1_linear_156_112)" fill-opacity="0.71"/>
<path d="M15.9756 28.3157C15.9756 25.0513 18.6647 22.4014 21.9781 22.4014H27.9806V34.2295H21.9781C18.6647 34.2295 15.9756 31.5802 15.9756 28.3157Z" fill="url(#paint2_linear_156_112)" fill-opacity="0.2"/>
<path d="M21.9781 34.2295H27.9806V40.1438C27.9806 43.4083 25.2915 46.0577 21.9781 46.0577C18.6647 46.0577 15.9756 43.4083 15.9756 40.1438C15.9756 36.8795 18.6647 34.2295 21.9781 34.2295Z" fill="url(#paint3_linear_156_112)" fill-opacity="0.2"/>
<defs>
<linearGradient id="paint0_linear_156_112" x1="21.9781" y1="10.5742" x2="21.9781" y2="22.4018" gradientUnits="userSpaceOnUse">
<stop stop-color="#FF3900"/>
<stop offset="1" stop-color="#F9A896"/>
</linearGradient>
<linearGradient id="paint1_linear_156_112" x1="33.9829" y1="10.5742" x2="33.9829" y2="22.4018" gradientUnits="userSpaceOnUse">
<stop stop-color="#FF7A66"/>
<stop offset="1" stop-color="white"/>
</linearGradient>
<linearGradient id="paint2_linear_156_112" x1="21.9781" y1="22.4014" x2="21.9781" y2="34.2295" gradientUnits="userSpaceOnUse">
<stop stop-color="#5A1CCD"/>
<stop offset="1" stop-color="#F5F0FF" stop-opacity="0.92"/>
</linearGradient>
<linearGradient id="paint3_linear_156_112" x1="21.9781" y1="34.2295" x2="21.9781" y2="46.0577" gradientUnits="userSpaceOnUse">
<stop stop-color="#00FF65"/>
<stop offset="1" stop-color="#F8FFFA" stop-opacity="0.86"/>
</linearGradient>
</defs>
</svg>
