<?xml version="1.0" encoding="UTF-8"?>
<svg width="51px" height="51px" viewBox="0 0 51 51" version="1.1" xmlns="http://www.w3.org/2000/svg" xmlns:xlink="http://www.w3.org/1999/xlink">
    <!-- Generator: Sketch 63 (92445) - https://sketch.com -->
    <title>Combined Shape</title>
    <desc>Created with Sketch.</desc>
    <defs>
        <linearGradient x1="50%" y1="0%" x2="50%" y2="100%" id="linearGradient-1">
            <stop stop-color="#A7EFFF" offset="0%"></stop>
            <stop stop-color="#6497FB" offset="100%"></stop>
        </linearGradient>
    </defs>
    <g id="Page-1" stroke="none" stroke-width="1" fill="none" fill-rule="evenodd">
        <path d="M25.5,0 C39.5832611,0 51,11.4167389 51,25.5 C51,39.5832611 39.5832611,51 25.5,51 C11.4167389,51 0,39.5832611 0,25.5 C0,11.4167389 11.4167389,0 25.5,0 Z M29.2902779,11 C24.4840639,11 21.3424987,13.6870703 21.3424987,18.5514062 L21.3424987,22.8272266 L16,22.8272266 L16,28.4375 L21.3424987,28.4375 L21.3424987,42 L27.9177303,42 L27.9177303,28.4375 L32.8204361,28.4375 L33.7538473,22.8272266 L27.9177303,22.8272266 L27.9177303,19.186543 C27.9177303,17.6516797 28.7329881,16.1555664 31.3468018,16.1555664 L34,16.1555664 L34,11.3790234 C34,11.3790234 31.5922982,11 29.2902779,11 Z" id="Combined-Shape" fill="url(#linearGradient-1)"></path>
    </g>
</svg>