<?xml version="1.0" encoding="UTF-8"?>
<svg width="51px" height="50px" viewBox="0 0 51 50" version="1.1" xmlns="http://www.w3.org/2000/svg" xmlns:xlink="http://www.w3.org/1999/xlink">
    <!-- Generator: Sketch 63 (92445) - https://sketch.com -->
    <title>Combined Shape</title>
    <desc>Created with Sketch.</desc>
    <defs>
        <linearGradient x1="50%" y1="0%" x2="50%" y2="100%" id="linearGradient-1">
            <stop stop-color="#B1D08E" offset="0%"></stop>
            <stop stop-color="#7DB18D" offset="59.2160635%"></stop>
            <stop stop-color="#50968D" offset="100%"></stop>
        </linearGradient>
    </defs>
    <g id="Page-1" stroke="none" stroke-width="1" fill="none" fill-rule="evenodd">
        <path d="M25.3424658,3.55271368e-15 C39.3387231,3.55271368e-15 50.6849315,11.1928813 50.6849315,25 C50.6849315,38.8071187 39.3387231,50 25.3424658,50 C11.3462084,50 2.13162821e-14,38.8071187 2.13162821e-14,25 C2.13162821e-14,11.1928813 11.3462084,3.55271368e-15 25.3424658,3.55271368e-15 Z M25.5,13 C18.0456522,13 12,18.2532609 12,24.7391304 C12,31.225 18.0456522,36.4782609 25.5,36.4782609 C26.0883582,36.4778708 26.6762337,36.4445578 27.2608696,36.3784783 L27.2608696,36.3784783 L27.2608696,40 C27.2608696,40 39,33.5434783 39,24.7391304 C39,18.2532609 32.9543478,13 25.5,13 Z M33.4285714,21 C33.7441627,21 34,21.2611672 34,21.5833333 C34,21.9054994 33.7441627,22.1666667 33.4285714,22.1666667 L33.4285714,22.1666667 L31.1428571,22.1666667 L31.1428571,23.9166667 L33.4285714,23.9166667 C33.7441627,23.9166667 34,24.1778339 34,24.5 C34,24.8221661 33.7441627,25.0833333 33.4285714,25.0833333 L33.4285714,25.0833333 L31.1428571,25.0833333 L31.1428571,26.8333333 L33.4285714,26.8333333 C33.7441627,26.8333333 34,27.0945006 34,27.4166667 C34,27.7388328 33.7441627,28 33.4285714,28 L33.4285714,28 L30.5714286,28 C30.2558373,28 30,27.7388328 30,27.4166667 L30,27.4166667 L30,21.5833333 C30,21.2611672 30.2558373,21 30.5714286,21 L30.5714286,21 Z M17.5714286,21 C17.8870199,21 18.1428571,21.2611672 18.1428571,21.5833333 L18.1428571,21.5833333 L18.1428571,26.8333333 L20.4285714,26.8333333 L20.4952121,26.8372578 C20.7794056,26.8709542 21,27.1175124 21,27.4166667 C21,27.7388328 20.7441627,28 20.4285714,28 L20.4285714,28 L17.5714286,28 L17.5047879,27.9960755 C17.2205944,27.9623792 17,27.7158209 17,27.4166667 L17,27.4166667 L17,21.5833333 L17.0038444,21.5153043 C17.0368531,21.2251901 17.2783795,21 17.5714286,21 Z M22.5,21 C22.7761424,21 23,21.2611672 23,21.5833333 L23,21.5833333 L23,27.4166667 L22.9966361,27.4846957 C22.9677536,27.7748099 22.7564179,28 22.5,28 C22.2238576,28 22,27.7388328 22,27.4166667 L22,27.4166667 L22,21.5833333 L22.0033639,21.5153043 C22.0322464,21.2251901 22.2435821,21 22.5,21 Z M28.375,21 C28.720178,21 29,21.2611672 29,21.5833333 L29,21.5833333 L29,27.4166667 L28.9954524,27.4872949 C28.9653182,27.7194222 28.7880384,27.9153452 28.541875,27.979 C28.4874954,27.9928829 28.4313772,28 28.375,28 C28.1556341,28 27.9523484,27.8925857 27.839375,27.7170833 L27.839375,27.7170833 L25.25,23.6891667 L25.25,27.4166667 L25.2457952,27.4846957 C25.209692,27.7748099 24.9455224,28 24.625,28 C24.279822,28 24,27.7388328 24,27.4166667 L24,27.4166667 L24,21.5833333 L24.0045882,21.5127572 C24.0348347,21.2808054 24.2120043,21.0850675 24.4579735,21.0214007 C24.7285395,20.9513673 25.0159354,21.0583316 25.160625,21.2829167 L25.160625,21.2829167 L27.75,25.3108333 L27.75,21.5833333 L27.7542048,21.5153043 C27.790308,21.2251901 28.0544776,21 28.375,21 Z" id="Combined-Shape" fill="url(#linearGradient-1)"></path>
    </g>
</svg>