<?xml version="1.0" encoding="UTF-8"?>
<svg width="50px" height="49px" viewBox="0 0 50 49" version="1.1" xmlns="http://www.w3.org/2000/svg" xmlns:xlink="http://www.w3.org/1999/xlink">
    <!-- Generator: Sketch 63 (92445) - https://sketch.com -->
    <title>Combined Shape</title>
    <desc>Created with Sketch.</desc>
    <defs>
        <radialGradient cx="50%" cy="0%" fx="50%" fy="0%" r="100%" gradientTransform="translate(0.500000,0.000000),scale(0.980000,1.000000),rotate(90.000000),translate(-0.500000,-0.000000)" id="radialGradient-1">
            <stop stop-color="#DE5CB4" offset="0%"></stop>
            <stop stop-color="#A33683" offset="100%"></stop>
        </radialGradient>
    </defs>
    <g id="Page-1" stroke="none" stroke-width="1" fill="none" fill-rule="evenodd">
        <path d="M25.5,0 C39.0309764,-2.48560004e-15 50,10.9690236 50,24.5 C50,38.0309764 39.0309764,49 25.5,49 L24.5,49 C10.9690236,49 1.65706669e-15,38.0309764 0,24.5 C-1.65706669e-15,10.9690236 10.9690236,2.48560004e-15 24.5,0 L25.5,0 Z M25.0678481,19 L24.2758463,19.8334836 C24.2595667,19.8462616 24.2436177,19.8594591 24.2280207,19.8730757 L24.1260006,19.9739629 L23.801,20.338 L15,29.6379272 L17.3627428,31.8019286 L25.1502368,23.5723703 L33.7172898,32 L36,29.7544047 L29.135,23.001 L26.1772714,19.9415442 L26.1089045,19.8763433 C25.9958704,19.7769252 25.8647235,19.6998232 25.72358,19.6449091 L25.0678481,19 Z" id="Combined-Shape" fill="url(#radialGradient-1)"></path>
    </g>
</svg>