<svg width="57" height="56" viewBox="0 0 57 56" fill="none" xmlns="http://www.w3.org/2000/svg">
<path d="M0.757812 12.5459C0.757812 5.617 6.37481 0 13.3037 0H44.0907C51.0197 0 56.6367 5.617 56.6367 12.5459V43.3329C56.6367 50.2619 51.0197 55.8789 44.0907 55.8789H13.3037C6.37481 55.8789 0.757812 50.2619 0.757812 43.3329V12.5459Z" fill="#25010F"/>
<g filter="url(#filter0_i_19_947)">
<path d="M16.1924 16.5505H19.7151V41.7182H16.1924V16.5505Z" fill="url(#paint0_linear_19_947)"/>
<path d="M37.9302 26.8282C37.5186 26.4892 36.9254 26.1624 36.1506 25.8476C35.3759 25.5329 34.5285 25.3755 33.6084 25.3755C32.64 25.3755 31.8047 25.5571 31.1026 25.9203C30.4246 26.2592 29.8678 26.7435 29.432 27.373C28.9962 27.9782 28.6814 28.7046 28.4877 29.552C28.294 30.3994 28.1972 31.3073 28.1972 32.2758C28.1972 34.479 28.7419 36.1859 29.8315 37.3965C30.921 38.5828 32.3737 39.176 34.1895 39.176C35.1095 39.176 35.8722 39.1397 36.4775 39.0671C37.107 38.9702 37.5912 38.8734 37.9302 38.7765V26.8282ZM37.9302 14.1172L41.3077 13.5361V41.1735C40.5329 41.3914 39.5402 41.6093 38.3297 41.8272C37.1191 42.0451 35.7269 42.154 34.1532 42.154C32.7005 42.154 31.3931 41.924 30.2309 41.464C29.0688 41.004 28.0761 40.3503 27.2529 39.5029C26.4297 38.6555 25.7881 37.6265 25.3281 36.4159C24.8923 35.1811 24.6744 33.8011 24.6744 32.2758C24.6744 30.8231 24.856 29.4915 25.2192 28.2809C25.6066 27.0703 26.1634 26.0292 26.8898 25.1576C27.6161 24.286 28.4998 23.6081 29.5409 23.1239C30.6062 22.6396 31.8168 22.3975 33.1726 22.3975C34.2621 22.3975 35.2185 22.5428 36.0417 22.8333C36.8891 23.1239 37.5186 23.4023 37.9302 23.6686V14.1172Z" fill="url(#paint1_linear_19_947)"/>
</g>
<defs>
<filter id="filter0_i_19_947" x="16.1924" y="13.5361" width="32.1152" height="32.6182" filterUnits="userSpaceOnUse" color-interpolation-filters="sRGB">
<feFlood flood-opacity="0" result="BackgroundImageFix"/>
<feBlend mode="normal" in="SourceGraphic" in2="BackgroundImageFix" result="shape"/>
<feColorMatrix in="SourceAlpha" type="matrix" values="0 0 0 0 0 0 0 0 0 0 0 0 0 0 0 0 0 0 127 0" result="hardAlpha"/>
<feOffset dx="7" dy="4"/>
<feGaussianBlur stdDeviation="4.5"/>
<feComposite in2="hardAlpha" operator="arithmetic" k2="-1" k3="1"/>
<feColorMatrix type="matrix" values="0 0 0 0 1 0 0 0 0 1 0 0 0 0 1 0 0 0 0.15 0"/>
<feBlend mode="normal" in2="shape" result="effect1_innerShadow_19_947"/>
</filter>
<linearGradient id="paint0_linear_19_947" x1="16.1924" y1="13.5361" x2="44.5681" y2="38.4389" gradientUnits="userSpaceOnUse">
<stop stop-color="#ED84B5"/>
<stop offset="1" stop-color="#A7165F"/>
</linearGradient>
<linearGradient id="paint1_linear_19_947" x1="16.1924" y1="13.5361" x2="44.5681" y2="38.4389" gradientUnits="userSpaceOnUse">
<stop stop-color="#ED84B5"/>
<stop offset="1" stop-color="#A7165F"/>
</linearGradient>
</defs>
</svg>
