<svg width="24" height="13" viewBox="0 0 24 13" fill="none" xmlns="http://www.w3.org/2000/svg">
<path d="M2.796 4.4V5.24H8.556V4.4H2.796ZM0.816 7.412V8.264H11.148V7.412H0.816ZM5.52 6.656V10.844C5.52 11.012 5.448 11.06 5.232 11.072C5.016 11.084 4.248 11.084 3.432 11.06C3.588 11.3 3.768 11.696 3.828 11.948C4.836 11.948 5.472 11.948 5.892 11.804C6.324 11.66 6.468 11.396 6.468 10.856V6.656H5.52ZM8.28 4.4V4.58C7.692 5.264 6.54 6.164 5.52 6.656C5.664 6.776 5.904 7.028 6.024 7.184C7.212 6.632 8.484 5.696 9.348 4.82L8.736 4.352L8.52 4.4H8.28ZM0.96 2.18V4.652H1.848V3.044H10.104V4.652H11.028V2.18H0.96ZM5.076 1.124C5.424 1.58 5.748 2.216 5.88 2.636L6.804 2.312C6.66 1.892 6.312 1.28 5.952 0.835999L5.076 1.124ZM17.4 6.128V6.812H23.4V6.128H17.4ZM17.256 11.024V11.732H23.52V11.024H17.256ZM19.14 0.931999V2.324H19.872V0.931999H19.14ZM20.748 0.931999V2.324H21.492V0.931999H20.748ZM18.348 3.968H22.356V4.856H18.348V3.968ZM18.348 2.504H22.356V3.368H18.348V2.504ZM17.64 1.844V5.492H23.088V1.844H17.64ZM18.768 8.012H21.972V9.02H18.768V8.012ZM17.976 7.4V9.62H22.812V7.4H17.976ZM21.468 9.656C21.336 10.1 21.072 10.772 20.856 11.192L21.456 11.408C21.708 11.024 22.008 10.424 22.284 9.884L21.468 9.656ZM18.564 9.896C18.768 10.364 18.996 10.988 19.092 11.384L19.812 11.144C19.704 10.76 19.476 10.148 19.26 9.68L18.564 9.896ZM19.272 2.168V5.216H19.884V2.168H19.272ZM20.784 2.168V5.216H21.408V2.168H20.784ZM13.572 6.14V6.788H16.332V6.14H13.572ZM15.876 6.14V11.036C15.876 11.156 15.84 11.204 15.708 11.204C15.588 11.204 15.168 11.204 14.7 11.192C14.796 11.396 14.904 11.696 14.94 11.888C15.624 11.888 16.032 11.876 16.308 11.768C16.572 11.636 16.656 11.432 16.656 11.048V6.14H15.876ZM13.128 1.352V5H13.848V2.036H15.924V5H16.692V1.352H13.128ZM12.624 4.688V6.416H13.32V5.348H16.488V6.416H17.208V4.688H12.624ZM14.604 2.816V4.94H15.144V3.392H16.404V2.816H14.604ZM13.224 6.14V8.396C13.224 9.356 13.152 10.604 12.516 11.528C12.696 11.612 13.02 11.852 13.152 12.008C13.86 10.976 13.98 9.488 13.98 8.396V6.14H13.224ZM13.92 9.8L14.268 10.436C14.916 10.052 15.648 9.608 16.392 9.152L16.224 8.648C15.36 9.104 14.52 9.536 13.92 9.8ZM14.052 7.652C14.508 7.952 15.06 8.42 15.336 8.72L15.792 8.216C15.504 7.94 14.952 7.544 14.472 7.232L14.052 7.652Z" fill="black"/>
</svg>
