<?xml version="1.0" encoding="UTF-8"?>
<svg width="237px" height="210px" viewBox="0 0 237 210" version="1.1" xmlns="http://www.w3.org/2000/svg" xmlns:xlink="http://www.w3.org/1999/xlink">
    <!-- Generator: Sketch 63 (92445) - https://sketch.com -->
    <title>people-3</title>
    <desc>Created with Sketch.</desc>
    <defs>
        <linearGradient x1="50%" y1="0%" x2="50%" y2="100%" id="linearGradient-1">
            <stop stop-color="#85EFD8" offset="0%"></stop>
            <stop stop-color="#AFD981" offset="100%"></stop>
        </linearGradient>
    </defs>
    <g id="Page-1" stroke="none" stroke-width="1" fill="none" fill-rule="evenodd">
        <g id="Desktop-HD" transform="translate(-328.000000, -6839.000000)" fill-rule="nonzero">
            <g id="people-3" transform="translate(327.000000, 6839.000000)">
                <g id="_群組_" fill="url(#linearGradient-1)" opacity="0.7">
                    <path d="M237.835522,118.41766 C237.793242,63.4817188 199.973917,15.788368 146.493211,3.22757741 C93.0125051,-9.33321314 37.9155468,16.5372773 13.421765,65.7105832 C-11.0720167,114.883889 1.46994652,174.446094 43.7134043,209.566596 L195.147234,209.566596 C222.249022,187.063404 237.900435,153.644018 237.835522,118.41766 Z" id="_路徑_"></path>
                </g>
                <g id="_群組_2" transform="translate(51.638298, 12.659574)">
                    <g id="_群組_3" transform="translate(5.063830, 96.212766)">
                        <path d="M0,100.441064 C0,40.3080851 18.2804255,8.58319149 24.1038298,1.39255319 C24.6224821,4.06747392 25.3939587,6.68710315 26.4078723,9.21617021 C26.9896148,10.5646506 27.8528709,11.7732092 28.9397872,12.7608511 C32.5567092,15.8915039 36.565436,18.5384552 40.8651064,20.6351064 C44.6738846,25.7835049 48.9086483,30.602666 53.5246809,35.0417021 C53.5246809,35.0417021 52.9170213,40.1055319 52.6638298,47.3974468 L52.6638298,47.3974468 L35.8265957,50.6382979 C34.9873111,50.7877103 34.1565474,50.3355224 33.826383,49.5495745 C32.7376596,47.0176596 30.8893617,39.4219149 30.9906383,19.1665957 C30.9906383,19.1665957 28.8638298,15.8751064 27.6231915,21.6985106 C26.5091489,26.9142553 27.8510638,46.3846809 31.3957447,52.9676596 C31.9188984,53.9445803 33.0165678,54.4677685 34.1048936,54.2589362 L59.2214894,49.5242553 L62.9940426,48.8153191 L67.3995745,60.7659574 L52.8410638,63.2978723 C52.8532813,63.4410874 52.8532813,63.5850828 52.8410638,63.7282979 C53.4740426,74.6661702 58.4365957,92.5668085 63.2725532,100.618298" id="Path" fill="#B3A59D"></path>
                        <path d="M52.7651064,47.3974468 L62.3610638,45.5744681 L63.4751064,48.5368085 L59.2214894,49.3470213 L52.6638298,50.6382979 C52.6891489,49.4989362 52.7144681,48.4102128 52.7651064,47.3974468 Z" id="Path" fill="#FFFFFF"></path>
                    </g>
                    <path d="M24.483617,63.2978723 C27.2180851,20.2553191 48.8406383,18.4323404 48.8406383,18.4323404 C73.273617,-11.0391489 128.064255,39.8523404 128.064255,39.8523404 C130.012318,38.7169631 131.287081,36.7056704 131.48234,34.4593617 C138.698298,43.3210638 130.975957,49.6508511 130.975957,49.6508511 C133.029018,56.7289041 130.225368,64.318271 124.06383,68.3617021 C125.24539,64.3612766 126.342553,60.1414184 127.355319,55.7021277 C103.153019,43.877481 76.7244084,37.3026847 49.802766,36.4089362 C46.8892118,43.0269631 42.6892532,48.999855 37.4470213,53.9804255 C36.0064075,55.3236982 34.6848712,56.789248 33.497234,58.3606383 C31.1023741,61.5514503 29.3796923,65.1949223 28.4334043,69.0706383 C28.1501723,66.6336977 26.7073484,64.4836072 24.5595745,63.2978723 L24.483617,63.2978723 Z" id="Path" fill="#B5B5B6"></path>
                    <path d="M59.7531915,174.854043 C59.0276586,171.012024 58.5204623,167.131972 58.2340426,163.232553 L78.1348936,170.220638 L75.6029787,180.57617 L59.7531915,174.854043" id="Path" fill="#B3A59D"></path>
                    <g id="_群組_4" transform="translate(15.191489, 35.446809)">
                        <path d="M96.212766,60.3102128 C95.3734113,60.4229679 94.5277289,60.4821656 93.6808511,60.4874468 C90.7292875,60.4310461 87.8357179,59.6576896 85.2495745,58.2340426 C83.8993861,57.5406094 82.9059012,56.3079523 82.5151064,54.8412766 C81.5456724,50.7613849 81.8190239,46.4847569 83.3,42.5614894 C83.511443,41.9573957 83.7918033,41.3796835 84.1355319,40.8397872 C80.8438367,38.6995084 76.7709445,38.1335713 73.0204255,39.2953191 C72.8721699,43.7588531 71.6007772,48.1129376 69.3238298,51.9548936 C68.062084,53.6675062 66.0580418,54.6742316 63.9308511,54.6640426 L63.5510638,54.6640426 L51.4485106,54.056383 C49.7671287,53.9873099 48.1081702,53.6452566 46.5365957,53.043617 C42.656856,51.8490942 40.0953522,48.1584377 40.3334043,44.1059574 L41.0676596,36.3329787 L13.9002128,33.32 L13.9002128,33.6238298 C20.1121732,48.609803 30.8149987,61.3028234 44.536383,69.9568085 C44.759533,68.3429176 45.311017,66.791869 46.1568085,65.3993617 C47.135273,63.5775631 48.8678607,62.2804387 50.8914894,61.8546809 C55.6768085,60.8925532 61.3989362,65.1968085 64.8170213,67.7540426 L65.5259574,68.2857447 C68.8040354,71.2190552 73.3965346,72.1838659 77.5778723,70.8176596 C78.4707023,70.4679246 79.436589,70.346101 80.3882979,70.4631915 C81.3812758,70.5337587 82.2693829,71.1067311 82.7429787,71.9823404 C83.2156282,73.6261147 83.0247249,75.3896979 82.2112766,76.8942553 C80.5724828,80.0486493 77.541195,82.2446906 74.0331915,82.8189362 C75.1552417,83.0062165 76.2888324,83.1161918 77.4259574,83.1480851 L78.3121277,83.1480851 C85.4009964,76.4857893 91.436721,68.7853316 96.212766,60.3102128 L96.212766,60.3102128 Z M53.9551064,56.8921277 C53.9154668,57.0126347 53.8273931,57.1111666 53.7120699,57.164023 C53.5967468,57.2168795 53.4646114,57.2192768 53.3474468,57.1706383 C47.5404257,55.2364124 41.1578003,57.4366019 37.7761702,62.5382979 C37.6780814,62.6628294 37.5295424,62.7370989 37.3710638,62.7408511 C37.2807924,62.7717165 37.1828246,62.7717165 37.0925532,62.7408511 C36.9189113,62.5557701 36.9189113,62.2676342 37.0925532,62.0825532 C40.7741949,56.6917554 47.5681637,54.3721151 53.7778723,56.3857447 C53.9405693,56.4982006 54.0121642,56.7027575 53.9551064,56.8921277 L53.9551064,56.8921277 Z M78.1602128,63.2978723 C78.1684195,63.5074227 78.0325681,63.6955246 77.8310638,63.753617 C76.7864076,64.0579565 75.703615,64.2114231 74.6155319,64.2093617 C72.9413055,64.2321262 71.2906884,63.8129218 69.8302128,62.9940426 C69.6101521,62.8531931 69.5333803,62.5680408 69.6529787,62.3357447 C69.716582,62.2247432 69.8217798,62.143648 69.9453134,62.110389 C70.068847,62.0771299 70.2005403,62.0944467 70.3112766,62.1585106 C72.4274368,63.2738261 74.8852284,63.553942 77.1980851,62.9434043 L76.8689362,47.9038298 C76.8685812,47.6477272 77.068933,47.4362448 77.3246809,47.4227655 L77.3246809,47.4227655 C77.5807834,47.422411 77.7922658,47.6227628 77.8057447,47.8785106 L78.1602128,63.2978723 Z" id="_複合路徑_" fill="#F7E2D6"></path>
                        <path d="M42.0804255,35.7253191 C42.0948009,35.7920717 42.0948009,35.8611198 42.0804255,35.9278723 L42.0804255,36.0544681 L41.3208511,44.1565957 C41.1294282,47.7857141 43.4386987,51.0772083 46.916383,52.1321277 C48.3903509,52.6959964 49.9473355,53.0125262 51.5244681,53.0689362 L63.6270213,53.7019149 C65.5955546,53.8372619 67.4996313,52.970907 68.6908511,51.3978723 C71.5012766,47.6 72.1848936,40.6625532 72.3621277,36.89 L72.3621277,36.89 C72.4268417,35.2840633 71.5589656,33.7850046 70.1340426,33.0414894 C64.3865957,30.0285106 56.6642553,29.572766 50.4357447,29.1929787 L49.802766,29.1929787 C46.096398,29.1302487 42.8860886,31.7520015 42.2070213,35.3961702 L42.0804255,35.7253191 Z M47.6253191,45.5744681 C47.6035011,45.4466513 47.6342047,45.3154393 47.7104703,45.2105741 C47.7867359,45.1057089 47.9021046,45.0360715 48.0304255,45.0174468 L62.3357447,42.7387234 L49.8534043,34.003617 C49.6787165,33.9247611 49.567504,33.7497336 49.5703181,33.558093 C49.5731322,33.3664524 49.689436,33.1947658 49.8663638,33.1210731 C50.0432916,33.0473805 50.2470836,33.0857431 50.3851064,33.2187234 L63.8295745,42.6374468 C63.9807611,42.759382 64.0575144,42.9512652 64.0321277,43.1438298 C63.9820227,43.3335482 63.8217119,43.4738201 63.6270213,43.4982979 L48.1823404,46.0302128 L48.1823404,46.0302128 C48.0479015,46.0443359 47.9133964,46.0041202 47.8087738,45.9185199 C47.7041513,45.8329196 47.6380972,45.7090415 47.6253191,45.5744681 Z" id="_複合路徑_2" fill="#F7E2D6"></path>
                        <path d="M96.896383,59.2468085 C100.037907,53.7232905 102.771227,47.9773949 105.074468,42.0551064 C104.708327,41.1138824 103.991268,40.3514401 103.074255,39.9282979 C99.7772525,38.3620538 96.1901412,37.4997674 92.5414894,37.396383 L91.3514894,37.396383 C88.048071,37.6742059 85.2288456,39.8957157 84.1861702,43.0425532 C82.7856021,46.7816139 82.5213426,50.8512107 83.4265957,54.74 C83.7571787,55.9479061 84.5728345,56.9651847 85.68,57.5504255 C89.1266185,59.3459333 93.072949,59.9427823 96.896383,59.2468085 Z M95.9089362,52.9929787 L86.5155319,47.1695745 C86.3523913,47.0881454 86.2493082,46.9214826 86.2493082,46.7391489 C86.2493082,46.5568153 86.3523913,46.3901525 86.5155319,46.3087234 L97.9344681,42.6121277 C98.0841784,42.4650542 98.3119536,42.4320051 98.4972896,42.5304648 C98.6826256,42.6289246 98.7827455,42.836168 98.7446809,43.0425532 C98.7841097,43.1600343 98.7739986,43.288506 98.7166769,43.3983726 C98.6593552,43.5082392 98.5597659,43.5900266 98.4408511,43.6248936 L87.9840426,47.0176596 L96.5165957,52.3093617 C96.6289741,52.3720941 96.709589,52.4794176 96.7385289,52.6048239 C96.7674688,52.7302302 96.7420354,52.8620264 96.6685106,52.9676596 C96.5661872,53.1148007 96.3905514,53.1928611 96.212766,53.1702128 L95.9089362,52.9929787 Z" id="_複合路徑_3" fill="#F7E2D6"></path>
                        <path d="M45.2959574,71.6531915 C46.3087234,72.2861702 47.3468085,72.9191489 48.4102128,73.5268085 C48.7655083,74.9754618 48.9104693,76.4677083 48.8406383,77.9576596 L46.8657447,78.2108511 C45.8891579,76.1589692 45.3543546,73.9248716 45.2959574,71.6531915 L45.2959574,71.6531915 Z" id="Path" fill="#F1BCC0"></path>
                        <path d="M47.3214894,79.1223404 L48.79,78.9197872 C48.7317222,79.6593345 48.6302726,80.3948438 48.4861702,81.1225532 C48.106383,80.6161702 47.7519149,79.9325532 47.3214894,79.1223404 Z" id="Path" fill="#371608"></path>
                        <path d="M45.3719149,70.5644681 C45.5165623,68.9081255 46.0360478,67.3063783 46.8910638,65.8804255 C47.7450149,64.2992366 49.2402895,63.1639355 50.992766,62.7661702 C55.3729787,61.9306383 60.8925532,66.0576596 64.1840426,68.513617 L64.8929787,69.0453191 C68.45846,72.1096742 73.373481,73.0715179 77.8310638,71.577234 C78.5650109,71.2643996 79.368535,71.1508581 80.1604255,71.2480851 C80.8500682,71.2904344 81.4748307,71.6690783 81.8314894,72.2608511 C82.1773052,73.6518349 81.9684656,75.1227918 81.2491489,76.3625532 C79.7973164,79.1831105 77.1077635,81.1604473 73.9825532,81.7048936 C73.4761702,80.2110638 70.8429787,76.16 57.3985106,77.0208511 C53.2384931,75.1629905 49.2190353,73.0051763 45.3719149,70.5644681 L45.3719149,70.5644681 Z" id="Path" fill="#F1BCC0"></path>
                        <path d="M118.518936,108.239362 C119.101277,108.239362 119.88617,108.973617 120.620426,110.442128 C121.582553,112.366383 121.861064,113.809574 121.405319,114.518511 C121.135003,114.86027 120.726874,115.064335 120.291277,115.075532 C118.523977,114.046876 117.246078,112.349097 116.746596,110.36617 C117.025106,109.682553 117.708723,108.29 118.518936,108.239362 Z" id="Path" fill="#A1D4E6"></path>
                        <path d="M80.8187234,144.496383 C82.080901,147.31655 82.0345777,150.549915 80.6921277,153.332766 C80.5537921,150.057667 79.5300236,146.88136 77.7297872,144.141915 C77.5603913,143.989473 77.3072767,143.976805 77.1235058,144.11157 C76.9397349,144.246335 76.8757371,144.491553 76.9702128,144.698936 C78.9880764,147.854697 79.9542317,151.568633 79.73,155.30766 C79.3654993,156.060033 78.6740524,156.601978 77.856383,156.77617 C77.918215,152.701863 76.8111052,148.695181 74.6661702,145.230638 C74.5251933,145.008513 74.231929,144.940837 74.0078723,145.078723 C73.785747,145.2197 73.7180706,145.512965 73.8559574,145.737021 C75.8520343,149.009029 76.9117336,152.766144 76.9195745,156.598936 C75.5270213,155.940638 73.2229787,153.408723 70.2353191,144.977447 C70.1956796,144.85694 70.1076059,144.758408 69.9922827,144.705551 C69.8769596,144.652695 69.7448241,144.650298 69.6276596,144.698936 C69.3762193,144.783137 69.2403261,145.054923 69.3238298,145.306596 C70.4125532,148.44617 71.0455319,152.117447 70.2859574,152.522553 C70.0074468,152.649149 68.3617021,152.851702 61.1457447,143.40766 L63.5004255,134.191489 C65.8297872,134.77383 77.4512766,137.533617 80.8187234,144.496383 Z" id="Path" fill="#F7E2D6"></path>
                        <path d="M121.101489,86.0851064 C122.595319,85.7053191 125.228511,88.6170213 126.697021,90.7185106 C126.463621,90.9023683 126.197201,91.0398754 125.912128,91.123617 C123.627535,91.6661506 121.223017,91.0293811 119.506383,89.427234 C119.759574,87.376383 120.316596,86.2117021 121.101489,86.0851064 Z" id="Path" fill="#A1D4E6"></path>
                        <path d="M105.530213,40.8651064 C108.023793,34.2626827 110.054243,27.4945156 111.606809,20.6097872 C87.6318355,9.03572227 61.5194636,2.55288842 34.9151064,1.56978723 C31.966152,8.11678697 27.7791724,14.0318629 22.5846809,18.9893617 C18.5786173,22.6143853 15.6520718,27.275829 14.1280851,32.4591489 L41.1689362,35.4468085 L41.1689362,35.4468085 C42.0156757,31.1196272 45.9625778,28.1078038 50.3597872,28.4334043 C56.6895745,28.8131915 64.5385106,29.2942553 70.4378723,32.3831915 C72.1962854,33.2914473 73.2644114,35.1408877 73.1723404,37.1178723 L73.1723404,37.1178723 C73.1723404,37.573617 73.1723404,38.0546809 73.1723404,38.5610638 C77.1005069,37.4436377 81.3200369,38.0807221 84.7431915,40.3080851 C86.3141038,38.1765195 88.736413,36.8359285 91.3768085,36.6368085 C95.5817951,36.4779905 99.7620727,37.3470711 103.555319,39.1687234 C104.359202,39.5385309 105.043367,40.126211 105.530213,40.8651064 L105.530213,40.8651064 Z M54.5374468,17.2676596 C53.2537092,18.387239 51.5782421,18.9517985 49.8787234,18.8374468 C49.1073004,18.8375467 48.337013,18.7782938 47.5746809,18.6602128 C47.4028133,18.6330758 47.2584785,18.5163099 47.1960461,18.3538998 C47.1336136,18.1914896 47.1625684,18.0081091 47.2720035,17.8728359 C47.3814386,17.7375628 47.5547282,17.6709481 47.7265957,17.6980851 C49.8302984,18.3158346 52.1022119,17.9027594 53.8538298,16.5840426 C54.7191295,15.6367242 55.1423594,14.3670345 55.0185106,13.09 C55.0307221,12.8591581 55.2053973,12.669639 55.4344797,12.6386819 C55.6635622,12.6077248 55.8822749,12.7440834 55.9553191,12.9634043 C56.1520445,14.5381816 55.6315969,16.1181118 54.5374468,17.2676596 L54.5374468,17.2676596 Z" id="_複合路徑_4" fill="#F7E2D6"></path>
                        <path d="M66.7665957,106.087234 C71.1169101,107.400551 74.6310469,110.625727 76.3119149,114.84766 C76.8548888,115.908687 77.2063088,117.05723 77.35,118.240426 C75.6298581,116.219374 73.7502002,114.339716 71.7291489,112.619574 C71.6388016,112.528347 71.5157348,112.477021 71.3873404,112.477021 C71.2589461,112.477021 71.1358793,112.528347 71.0455319,112.619574 C70.8685124,112.813068 70.8685124,113.109698 71.0455319,113.303191 C73.3777964,115.288608 75.5143761,117.493015 77.4259574,119.88617 C77.5453288,121.259254 77.5453288,122.640107 77.4259574,124.013191 C75.3419199,121.02616 72.9672129,118.252842 70.3365957,115.73383 C70.2506307,115.644066 70.1317346,115.593306 70.0074468,115.593306 C69.8831591,115.593306 69.7642629,115.644066 69.6782979,115.73383 C69.5870703,115.824177 69.5357445,115.947244 69.5357445,116.075638 C69.5357445,116.204033 69.5870703,116.327099 69.6782979,116.417447 C72.5689259,119.119182 75.1196317,122.163025 77.2740426,125.481702 C77.1174931,126.461616 76.6252225,127.356654 75.8814894,128.013617 C75.147234,124.443617 69.0453191,118.974681 68.7668085,118.721489 C68.6764612,118.630262 68.5533944,118.578936 68.425,118.578936 C68.2966056,118.578936 68.1735388,118.630262 68.0831915,118.721489 C67.9095496,118.90657 67.9095496,119.194706 68.0831915,119.379787 C69.9314894,121.025532 74.5648936,125.684255 74.9193617,128.317479 C73.8467086,128.321267 72.8005498,127.984368 71.9317021,127.355319 C71.569286,127.12532 71.2224989,126.871574 70.893617,126.595745 L63.9055319,120.088723 C62.4728614,118.747077 60.5764547,118.012106 58.6138298,118.037872 L57.0946809,118.037872 L53.7778723,109.125532 C57.5597003,106.489251 62.2077997,105.401976 66.7665957,106.087234 L66.7665957,106.087234 Z" id="Path" fill="#F7E2D6"></path>
                        <path d="M11.5708511,44.0046809 C11.4345155,43.9406696 11.2767611,43.9406696 11.1404255,44.0046809 C6.88680851,45.5744681 3.87382979,44.4604255 2.17744681,40.6625532 C1.35023263,38.697346 1.08719724,36.5404558 1.41787234,34.4340426 C1.79765957,31.446383 2.98765957,27.9017021 6.48170213,27.9017021 C9.78554798,27.9589382 12.5307164,30.4653963 12.8874468,33.7504255 L12.8874468,33.7504255 L12.8874468,33.7504255 C12.8874468,34.003617 20.1287234,55.246383 44.4097872,70.9948936 C44.351175,73.678434 44.9418353,76.3364053 46.1314894,78.7425532 L46.1314894,78.7425532 L46.1314894,78.7425532 C46.6629462,80.0144141 47.3247791,81.2277744 48.106383,82.3631915 C47.7157193,83.8615663 47.1639201,85.3132226 46.4606383,86.692766 C41.1733822,85.3594758 36.0459421,83.4579086 31.1678723,81.0212766 C24.0274193,71.4209658 17.7732428,61.1922516 12.4823404,50.4610638 C12.0265957,46.9417021 11.7734043,44.4097872 11.7734043,44.3338298 C11.7580529,44.1994997 11.6838501,44.0789201 11.5708511,44.0046809 Z" id="Path" fill="#F7E2D6"></path>
                        <path d="M19.1919149,73.1723404 C18.1131585,72.2472842 17.2491126,71.0981031 16.66,69.8048936 C14.7725613,64.5232445 13.4899745,59.0446455 12.8368085,53.4740426 C17.5901988,62.7470543 23.0588014,71.6356499 29.1929787,80.0591489 C25.6154004,78.1395859 22.2612896,75.8299197 19.1919149,73.1723404 L19.1919149,73.1723404 Z" id="Path" fill="#F7E2D6"></path>
                        <path d="M47.2708511,87.4270213 C45.9405243,89.8595701 44.2311592,92.064651 42.2070213,93.9593617 C46.850893,98.7688445 52.268344,102.765605 58.2340426,105.783404 C60.9958465,104.764883 63.990632,104.554107 66.8678723,105.175745 C69.3039024,105.773725 71.5178924,107.056433 73.2482979,108.87234 C73.9444143,108.825447 74.6374838,108.740926 75.3244681,108.619149 C81.8996774,107.117676 87.6937213,103.251976 91.6046809,97.757234 C95.1403424,91.835638 96.2215864,84.7666646 94.6176596,78.0589362 C94.6176596,78.3121277 94.4151064,78.5906383 94.2885106,78.8438298 C91.7565957,83.2746809 83.8570213,84.0595745 78.54,84.0595745 L77.3246809,84.0595745 C75.2600735,84.040446 73.2075232,83.7423578 71.222766,83.1734043 C66.4311107,81.8261006 61.7432598,80.1337356 57.1959574,78.1095745 C57.098048,78.1465076 56.9900371,78.1465076 56.8921277,78.1095745 C54.3602128,76.9448936 51.8282979,75.5776596 49.5242553,74.4129787 C49.7530241,75.7589435 49.8378992,77.1254329 49.7774468,78.4893617 L49.7774468,78.4893617 C49.7912317,78.5646937 49.7912317,78.641902 49.7774468,78.717234 C49.7015058,79.9801763 49.5151202,81.2340432 49.2204255,82.4644681 C49.2464575,82.5554801 49.2464575,82.6519667 49.2204255,82.7429787 C48.7869421,84.4189576 48.1669727,86.0410693 47.3721277,87.5789362 L47.3721277,87.5789362 C47.3721277,87.5789362 47.2708511,87.4017021 47.2708511,87.4270213 Z M93.6808511,86.3382979 C88.7894348,89.7641591 82.9125597,91.4978817 76.9448936,91.2755319 C69.0478802,91.0731951 61.32716,88.8971183 54.4868085,84.9457447 C54.375807,84.8821414 54.2947118,84.7769436 54.2614528,84.65341 C54.2281937,84.5298764 54.2455105,84.3981831 54.3095745,84.2874468 C54.3682065,84.1781352 54.4688621,84.0974454 54.5883114,84.0639996 C54.7077606,84.0305538 54.8356821,84.047242 54.9425532,84.1102128 C78.9957447,97.0989362 92.9212766,85.7306383 93.0731915,85.6040426 C93.266685,85.427023 93.563315,85.427023 93.7568085,85.6040426 C93.8561609,85.7062099 93.9051014,85.8471693 93.8904372,85.9889227 C93.8757731,86.1306761 93.7990137,86.2586321 93.6808511,86.3382979 L93.6808511,86.3382979 Z M75.9574468,97.6812766 C67.8536235,97.5078781 59.9601128,95.0696604 53.1702128,90.6425532 C53.0592113,90.5789499 52.9781161,90.4737521 52.944857,90.3502185 C52.911598,90.226685 52.9289148,90.0949916 52.9929787,89.9842553 C53.1339556,89.76213 53.42722,89.6944536 53.6512766,89.8323404 C76.4385106,103.605957 90.9210638,92.5414894 91.0729787,92.3642553 C91.2751921,92.2685218 91.5167124,92.3248315 91.655737,92.5001234 C91.7947617,92.6754154 91.7945885,92.923413 91.6553191,93.0985106 C87.0071924,96.1798352 81.5333159,97.777854 75.9574468,97.6812766 Z M50.3851064,94.693617 C50.4478388,94.5812386 50.5551623,94.5006238 50.6805686,94.4716838 C50.8059749,94.4427439 50.9377711,94.4681773 51.0434043,94.5417021 C72.3368085,107.98617 85.4774468,99.9853191 85.6040426,99.9093617 C85.8280992,99.7714749 86.1213635,99.8391513 86.2623404,100.061277 C86.3358652,100.16691 86.3612986,100.298706 86.3323587,100.424112 C86.3034188,100.549519 86.2228039,100.656842 86.1104255,100.719574 C82.5602732,102.537984 78.6011383,103.410041 74.6155319,103.251489 C66.0342678,102.953467 57.7162127,100.212988 50.6382979,95.3519149 C50.514047,95.3021732 50.4161347,95.2029182 50.3680898,95.0780015 C50.3200449,94.9530847 50.326211,94.8137996 50.3851064,94.693617 L50.3851064,94.693617 Z" id="_複合路徑_5" fill="#FFFFFF"></path>
                        <path d="M73.0204255,81.9074468 C72.4849388,82.0134628 71.9439573,82.0895383 71.4,82.1353191 C67.2979373,80.9802158 63.2726699,79.5679896 59.3480851,77.9070213 C70.21,77.5525532 72.5393617,80.742766 73.0204255,81.9074468 Z" id="Path" fill="#371608"></path>
                        <path d="M41.6753191,93.3010638 C38.4028397,89.9529263 35.3256986,86.4192863 32.4591489,82.7176596 C36.8481258,84.7564045 41.4166885,86.383796 46.1061702,87.5789362 C44.8935652,89.6770906 43.4031442,91.6018629 41.6753191,93.3010638 Z" id="Path" fill="#B3A59D"></path>
                        <path d="M124.392979,92.2629787 C125.003545,92.2711495 125.611169,92.1770106 126.190638,91.9844681 C128.038919,91.443563 129.147791,89.5584818 128.722553,87.6802128 C128.330936,85.8733238 127.124954,84.3494854 125.456383,83.5531915 C122.834316,82.6866384 119.97975,82.8588186 117.480851,84.0342553 C117.362742,84.0835005 117.270777,84.1801314 117.227433,84.3005313 C117.184089,84.4209313 117.19336,84.5540068 117.252979,84.667234 C117.302224,84.7853431 117.398855,84.8773078 117.519255,84.9206518 C117.639655,84.9639957 117.77273,84.9547254 117.885957,84.8951064 C120.131857,83.8507931 122.685937,83.6793178 125.051277,84.4140426 C126.398719,85.1643816 127.330764,86.4878857 127.583191,88.0093617 C127.740308,88.6987202 127.631821,89.4219715 127.279362,90.0348936 C126.190638,88.5157447 123.15234,84.6419149 120.79766,85.1989362 C119.658298,85.4774468 118.924043,86.6421277 118.569574,88.7942553 C118.240426,88.4904255 117.911277,88.2119149 117.556809,87.8574468 C117.371728,87.6838049 117.083592,87.6838049 116.898511,87.8574468 C116.800411,87.9439622 116.744213,88.0684563 116.744213,88.1992553 C116.744213,88.3300543 116.800411,88.4545484 116.898511,88.5410638 C117.414251,89.0583367 117.964063,89.5404799 118.544255,89.9842553 L118.69617,89.9842553 C120.286509,91.3600805 122.292509,92.1624805 124.392979,92.2629787 L124.392979,92.2629787 Z M121.68383,90.6931915 C120.926139,90.3805261 120.340801,89.7553029 120.078689,88.9786739 C119.816577,88.2020449 119.903333,87.34999 120.316596,86.6421277 C120.484597,86.3411719 120.768046,86.1217273 121.101489,86.0344681 C122.595319,85.6546809 125.228511,88.566383 126.697021,90.6678723 C126.463621,90.85173 126.197201,90.9892371 125.912128,91.0729787 C124.504874,91.4804262 122.995951,91.3448942 121.68383,90.6931915 Z" id="_複合路徑_6" fill="#371608"></path>
                        <path d="M115.252766,108.264681 C115.374012,108.984102 115.543183,109.69462 115.759149,110.391489 C115.733765,110.473978 115.733765,110.562192 115.759149,110.644681 C116.350858,112.856602 117.78741,114.747758 119.759574,115.911064 C119.842278,115.934978 119.930063,115.934978 120.012766,115.911064 L120.012766,115.911064 C120.42809,116.095823 120.875075,116.198973 121.329362,116.214894 L121.607872,116.214894 C123.051064,116.062979 124.494255,114.721064 124.317021,111.429574 C124.407853,109.387892 123.570181,107.414709 122.038298,106.061915 C120.865961,105.224934 119.401955,104.904683 117.987234,105.175745 C117.864797,105.199796 117.757576,105.272995 117.690586,105.378265 C117.623597,105.483534 117.602698,105.611666 117.632766,105.732766 C117.656817,105.855203 117.730017,105.962424 117.835286,106.029414 C117.940555,106.096403 118.068687,106.117302 118.189787,106.087234 C119.340843,105.888561 120.523787,106.152449 121.481277,106.821489 C122.757552,108.027148 123.449976,109.725897 123.380213,111.480213 C123.380213,113.455106 122.949787,114.797021 121.937021,115.151489 L122.088936,114.948936 C122.772553,113.910851 122.544681,112.214468 121.354681,109.885106 C120.392553,108.011489 119.430426,107.1 118.341702,107.201277 C117.48925,107.432891 116.795298,108.051821 116.468085,108.87234 C116.38239,108.600147 116.32304,108.320352 116.290851,108.036809 C116.248901,107.771124 115.999514,107.589752 115.73383,107.631702 C115.468146,107.673652 115.286773,107.923039 115.328723,108.188723 L115.252766,108.264681 Z M117.404894,111.935957 C116.799129,110.848222 116.973718,109.492586 117.835319,108.59383 C118.017607,108.403173 118.258076,108.278486 118.518936,108.239362 C119.101277,108.239362 119.88617,108.973617 120.620426,110.442128 C121.582553,112.366383 121.861064,113.809574 121.405319,114.518511 C121.135003,114.86027 120.726874,115.064335 120.291277,115.075532 C119.022278,114.359401 118.01205,113.260556 117.404894,111.935957 Z" id="_複合路徑_7" fill="#371608"></path>
                        <path d="M49.8787234,18.8374468 C49.1073004,18.8375467 48.337013,18.7782938 47.5746809,18.6602128 C47.3089966,18.6182626 47.1276243,18.3688757 47.1695745,18.1031915 C47.2115246,17.8375073 47.4609115,17.656135 47.7265957,17.6980851 C49.8302984,18.3158346 52.1022119,17.9027594 53.8538298,16.5840426 C54.7191295,15.6367242 55.1423594,14.3670345 55.0185106,13.09 C55.0307221,12.8591581 55.2053973,12.669639 55.4344797,12.6386819 C55.6635622,12.6077248 55.8822749,12.7440834 55.9553191,12.9634043 C56.1520445,14.5381816 55.6315969,16.1181118 54.5374468,17.2676596 C53.2537092,18.387239 51.5782421,18.9517985 49.8787234,18.8374468 L49.8787234,18.8374468 Z" id="Path" fill="#371608"></path>
                        <path d="M86.2876596,46.6885106 C86.3113534,46.5073931 86.4408974,46.3579193 86.6168085,46.3087234 L98.0357447,42.6121277 C98.1858942,42.5313475 98.367585,42.5360791 98.5133264,42.624565 C98.6590678,42.7130508 98.7470841,42.87207 98.7446809,43.0425532 C98.7841097,43.1600343 98.7739986,43.288506 98.7166769,43.3983726 C98.6593552,43.5082392 98.5597659,43.5900266 98.4408511,43.6248936 L87.9840426,47.0176596 L96.5165957,52.3093617 C96.6289741,52.3720941 96.709589,52.4794176 96.7385289,52.6048239 C96.7674688,52.7302302 96.7420354,52.8620264 96.6685106,52.9676596 C96.5661872,53.1148007 96.3905514,53.1928611 96.212766,53.1702128 L95.9595745,53.1702128 L86.5661702,47.3468085 C86.4318825,47.3097661 86.3219105,47.2133418 86.2676325,47.0850483 C86.2133545,46.9567548 86.2207318,46.8106827 86.2876596,46.6885106 L86.2876596,46.6885106 Z" id="Path" fill="#371608"></path>
                        <path d="M48.106383,45.042766 L62.4117021,42.7640426 L49.9293617,34.0289362 C49.754674,33.9500803 49.6434614,33.7750528 49.6462755,33.5834121 C49.6490896,33.3917715 49.7653935,33.2200849 49.9423212,33.1463923 C50.119249,33.0726996 50.323041,33.1110623 50.4610638,33.2440426 L63.9055319,42.662766 C64.0567186,42.7847011 64.1334719,42.9765844 64.1080851,43.1691489 C64.0579801,43.3588674 63.8976693,43.4991393 63.7029787,43.523617 L48.2582979,46.0555319 L48.2582979,46.0555319 C48.0233588,46.0485072 47.8241378,45.8807421 47.777234,45.6504255 C47.7381344,45.5261892 47.7510804,45.3914082 47.8131133,45.2768858 C47.8751462,45.1623635 47.9809641,45.0778881 48.106383,45.042766 L48.106383,45.042766 Z" id="Path" fill="#371608"></path>
                        <path d="M77.8310638,63.6776596 C76.7864076,63.981999 75.703615,64.1354657 74.6155319,64.1334043 C72.9413055,64.1561687 71.2906884,63.7369644 69.8302128,62.9180851 C69.6101521,62.7772357 69.5333803,62.4920834 69.6529787,62.2597872 C69.716582,62.1487857 69.8217798,62.0676905 69.9453134,62.0344315 C70.068847,62.0011725 70.2005403,62.0184893 70.3112766,62.0825532 C72.4274368,63.1978686 74.8852284,63.4779846 77.1980851,62.8674468 L76.8689362,47.8278723 C76.8685812,47.5717698 77.068933,47.3602874 77.3246809,47.346808 L77.3246809,47.346808 C77.5807834,47.3464536 77.7922658,47.5468053 77.8057447,47.8025532 L78.1602128,63.2978723 C78.1365189,63.4789899 78.006975,63.6284637 77.8310638,63.6776596 Z" id="Path" fill="#371608"></path>
                        <path d="M53.3474468,57.1706383 C47.5404257,55.2364124 41.1578003,57.4366019 37.7761702,62.5382979 C37.6780814,62.6628294 37.5295424,62.7370989 37.3710638,62.7408511 C37.2807924,62.7717165 37.1828246,62.7717165 37.0925532,62.7408511 C36.9189113,62.5557701 36.9189113,62.2676342 37.0925532,62.0825532 C40.7741949,56.6917554 47.5681637,54.3721151 53.7778723,56.3857447 C53.9758098,56.505151 54.0608325,56.7484616 53.980344,56.9651612 C53.8998556,57.1818608 53.6766156,57.3106739 53.4487234,57.2719149 L53.3474468,57.1706383 Z" id="Path" fill="#371608"></path>
                        <path d="M54.3602128,84.9457447 C54.2492113,84.8821414 54.1681161,84.7769436 54.134857,84.65341 C54.101598,84.5298764 54.1189148,84.3981831 54.1829787,84.2874468 C54.2416107,84.1781352 54.3422664,84.0974454 54.4617156,84.0639996 C54.5811649,84.0305538 54.7090864,84.047242 54.8159574,84.1102128 C78.8691489,97.0989362 92.7946809,85.7306383 92.9465957,85.6040426 C93.1400893,85.427023 93.4367192,85.427023 93.6302128,85.6040426 C93.8038546,85.7891235 93.8038546,86.0772595 93.6302128,86.2623404 C88.7387965,89.6882017 82.8619214,91.4219243 76.8942553,91.1995745 C68.9779925,91.0330355 61.2300606,88.8827667 54.3602128,84.9457447 L54.3602128,84.9457447 Z" id="Path" fill="#C9CACA"></path>
                        <path d="M53.1702128,90.6425532 C53.0592113,90.5789499 52.9781161,90.4737521 52.944857,90.3502185 C52.911598,90.226685 52.9289148,90.0949916 52.9929787,89.9842553 C53.1339556,89.76213 53.42722,89.6944536 53.6512766,89.8323404 C76.4385106,103.605957 90.9210638,92.5414894 91.0729787,92.3642553 C91.2751921,92.2685218 91.5167124,92.3248315 91.655737,92.5001234 C91.7947617,92.6754154 91.7945885,92.923413 91.6553191,93.0985106 C87.0071924,96.1798352 81.5333159,97.777854 75.9574468,97.6812766 C67.8536235,97.5078781 59.9601128,95.0696604 53.1702128,90.6425532 Z" id="Path" fill="#C9CACA"></path>
                        <path d="M51.0434043,94.5417021 C72.3368085,107.98617 85.4774468,99.9853191 85.6040426,99.9093617 C85.8280992,99.7714749 86.1213635,99.8391513 86.2623404,100.061277 C86.3358652,100.16691 86.3612986,100.298706 86.3323587,100.424112 C86.3034188,100.549519 86.2228039,100.656842 86.1104255,100.719574 C82.5602732,102.537984 78.6011383,103.410041 74.6155319,103.251489 C66.0342678,102.953467 57.7162127,100.212988 50.6382979,95.3519149 C50.4705561,95.2728145 50.3632215,95.1043355 50.3624158,94.9188806 C50.3616192,94.7334256 50.4674942,94.5640256 50.6345463,94.4834789 C50.8015985,94.4029323 51.0000745,94.4255849 51.1446809,94.5417021 L51.0434043,94.5417021 Z" id="Path" fill="#C9CACA"></path>
                    </g>
                    <path d="M140.040213,42.3842553 C140.242766,37.5482979 137.710851,32.5857447 132.444468,27.6738298 C131.976162,27.2114418 131.327397,26.97974 130.672128,27.0408511 C130.065151,27.0777068 129.502981,27.3726157 129.12766,27.8510638 C128.248237,29.0277103 127.697705,30.417149 127.532553,31.8768085 C122.899149,27.0914894 97.1495745,2.00021277 66.7665957,1.66963189 C64.4399035,1.64204125 62.1288057,2.05443046 59.9557447,2.88638298 C54.6467674,4.91542364 49.8492957,8.08780588 45.903617,12.1785106 C43.6502128,12.1785106 26.3825532,12.6848936 22.4580851,46.232766 L21.0655319,62.3610638 C18.0778723,62.5889362 16.1282979,65.1461702 15.5206383,69.6782979 C15.1749974,71.9679294 15.473057,74.3085738 16.3814894,76.4385106 C17.0585946,78.2879442 18.4745327,79.7723567 20.2899519,80.5359854 C22.1053712,81.2996142 24.1566356,81.2736281 25.9521277,80.4642553 C26.1293617,82.1353191 26.6357447,86.9459574 27.5219149,92.1617021 C25.2178723,94.693617 -0.506382979,128.241489 1.84829787,196.324681 C1.84829787,196.445552 1.89631369,196.561472 1.9817824,196.646941 C2.06725111,196.73241 2.18317155,196.780426 2.30404255,196.780426 L2.30404255,196.780426 C2.42943103,196.780619 2.54936015,196.729144 2.63559551,196.638117 C2.72183087,196.547091 2.76675342,196.424557 2.75978723,196.299362 C0.683617021,131.887447 23.6987234,98.2382979 27.8510638,93.4023404 C28.4719524,97.581514 29.5415353,101.681582 31.0412766,105.631489 C31.6783711,107.038131 32.60094,108.296963 33.7504255,109.328085 C37.3996767,112.466532 41.4322859,115.129415 45.7517021,117.252979 C49.0442563,121.628036 52.6220351,125.780966 56.4617021,129.684681 C56.4617021,129.684681 56.4617021,129.684681 56.4617021,129.684681 L56.6389362,129.684681 L58.1834043,131.178511 C58.1834043,132.115319 57.5757447,136.698085 57.3225532,143.027872 L40.7891489,146.192766 C40.1602358,146.323234 39.5289686,145.980852 39.2953191,145.382553 C38.2065957,142.850638 36.4089362,135.254894 36.5102128,114.999574 C36.517644,114.869853 36.4693518,114.743127 36.3774742,114.651249 C36.2855967,114.559372 36.1588707,114.511079 36.0291489,114.518511 L36.0291489,114.518511 C35.7730464,114.518156 35.561564,114.718507 35.5480851,114.974255 C35.5480851,135.432128 37.2951064,142.977234 38.4091489,145.661064 C38.83709,146.645927 39.8828374,147.21063 40.9410638,147.028298 L67.0704255,141.964468 L72.412766,156.447021 L58.2340426,159.510638 L58.0314894,159.510638 L57.8542553,159.510638 L57.8542553,159.510638 L31.2691489,164.321277 C30.8084586,164.408997 30.3358847,164.245042 30.0285106,163.890851 C20.7617021,153.763191 21.3440426,113.252553 21.3440426,112.872766 C21.3443975,112.616663 21.1440457,112.405181 20.8882979,112.391702 L20.8882979,112.391702 C20.636597,112.391702 20.4325532,112.595746 20.4325532,112.847447 C20.4325532,114.54383 19.8248936,153.991064 29.3448936,164.52383 C29.7799328,165.019918 30.4067827,165.305688 31.0665957,165.308723 L31.4717021,165.308723 L57.7276596,160.548723 C58.0956435,172.557993 61.1955425,184.325486 66.7919149,194.957447 C67.1717021,195.717021 67.5768085,196.425957 67.9312766,197.033617 C68.0182244,197.174098 68.1711772,197.261489 68.336383,197.261489 L68.5895745,197.261489 C68.7019528,197.198757 68.7825677,197.091433 68.8115076,196.966027 C68.8404476,196.840621 68.8150142,196.708825 68.7414894,196.603191 C65.1491764,190.008848 62.3448113,183.014932 60.3861702,175.765532 L75.2231915,181.18383 L75.4004255,181.18383 C75.4655503,181.209252 75.537854,181.209252 75.6029787,181.18383 C75.7316632,181.129619 75.8260532,181.016351 75.8561702,180.88 L75.9574468,180.019149 C82.7429787,188.804894 84.7938298,189.361915 85.8319149,188.804894 C86.87,188.247872 86.7180851,187.43766 86.6421277,186.272979 C88.5917021,190.450638 90.4653191,192.729362 92.2629787,193.159787 L92.3895745,193.159787 L92.3895745,193.159787 L92.6680851,193.159787 L92.6680851,193.159787 C94.6429787,193.159787 95.6304255,190.906383 95.6810638,190.805106 C97.8542728,187.420959 98.1961676,183.175768 96.5925532,179.487447 C93.0225532,172.094255 81.4010638,169.359787 78.6412766,168.752128 L79.046383,167.232979 C79.1122051,166.995716 78.9776717,166.749071 78.7425532,166.675957 L59.6265957,160.017021 L72.9191489,157.611702 C73.0555072,157.584179 73.1745383,157.501773 73.2482979,157.38383 C73.3116121,157.256216 73.3116121,157.106337 73.2482979,156.978723 L72.3368085,154.446809 L73.602766,154.446809 C75.2956426,154.442553 76.9260942,155.085675 78.1602128,156.244468 L85.173617,162.751489 C85.5065697,163.064043 85.8619906,163.351765 86.2370213,163.61234 C87.2005465,164.262212 88.3184204,164.646481 89.4778723,164.726383 C89.7804717,164.765053 90.0867623,164.765053 90.3893617,164.726383 L90.3893617,164.726383 C90.5976816,164.679393 90.7952559,164.593491 90.9717021,164.473191 C93.3517021,163.055319 93.503617,158.27 93.2251064,154.548085 C93.1188493,152.953457 92.6971565,151.395775 91.9844681,149.965319 C91.1609368,148.254029 90.1229518,146.654511 88.8955319,145.205319 C89.3625523,145.171191 89.8274049,145.112028 90.2880851,145.028085 C97.1268011,143.465733 103.154149,139.447501 107.226596,133.735745 C111.100426,127.760426 112.037234,120.215319 109.986383,111.302979 C109.958351,111.193689 109.896281,111.096149 109.809149,111.024468 C109.648022,108.451004 108.819007,105.963958 107.40383,103.808511 C109.150851,101.276596 110.923191,98.5421277 112.695532,95.5038298 C115.4343,94.9255928 117.709494,93.0295985 118.772128,90.44 C120.13498,86.846311 120.987247,83.0792897 121.304043,79.2489362 C121.380617,78.6289366 121.328908,77.9998142 121.152128,77.4006383 C121.785106,75.7802128 122.392766,74.1091489 123.000426,72.3368085 C131.060305,68.8506844 136.050399,60.6657118 135.457447,51.9042553 C138.183017,49.4611776 139.83064,46.0384913 140.040213,42.3842553 Z M96.0102128,179.943191 C97.2723903,182.763358 97.226067,185.996723 95.883617,188.779574 C95.7452814,185.504476 94.721513,182.328168 92.9212766,179.588723 C92.7518807,179.436282 92.4987661,179.423613 92.3149952,179.558378 C92.1312243,179.693144 92.0672264,179.938361 92.1617021,180.145745 C94.1795657,183.301505 95.1457211,187.015442 94.9214894,190.754468 C94.5569887,191.506841 93.8655417,192.048786 93.0478723,192.222979 C93.1097043,188.148672 92.0025946,184.141989 89.8576596,180.677447 C89.7166827,180.455321 89.4234183,180.387645 89.1993617,180.525532 C88.9772364,180.666509 88.90956,180.959773 89.0474468,181.18383 C91.0435237,184.455837 92.103223,188.212953 92.1110638,192.045745 C90.7185106,191.387447 88.4144681,188.855532 85.4268085,180.424255 C85.387169,180.303748 85.2990952,180.205216 85.1837721,180.15236 C85.0684489,180.099504 84.9363135,180.097106 84.8191489,180.145745 C84.5677087,180.229945 84.4318154,180.501732 84.5153191,180.753404 C85.6040426,183.892979 86.2370213,187.564255 85.4774468,187.969362 C85.1989362,188.095957 83.5531915,188.298511 76.337234,178.854468 L78.6919149,169.638298 C81.0212766,170.220638 92.642766,172.980426 96.0102128,179.943191 Z M78.2868085,167.435532 L75.0712766,180.095106 L60.1582979,174.62617 C59.2840713,170.018654 58.7173588,165.358078 58.4619149,160.675319 L78.2868085,167.435532 Z M34.3834043,108.619149 C33.3046478,107.694093 32.4406019,106.544912 31.8514894,105.251702 C29.9640506,99.970053 28.6814639,94.491454 28.0282979,88.9208511 C32.7816882,98.1938629 38.2502908,107.082458 44.3844681,115.505957 C40.8068898,113.586394 37.452779,111.276728 34.3834043,108.619149 L34.3834043,108.619149 Z M27.6738298,85.8319149 C27.2180851,82.3125532 26.9648936,79.7806383 26.9648936,79.7046809 C26.9570334,79.5611996 26.8819644,79.4298289 26.7623404,79.3502128 C26.6260049,79.2862015 26.4682504,79.2862015 26.3319149,79.3502128 C22.0782979,80.92 19.0653191,79.8059574 17.3689362,76.0080851 C16.541722,74.0428779 16.2786866,71.8859877 16.6093617,69.7795745 C16.9891489,66.7919149 18.1791489,63.247234 21.6731915,63.247234 C24.9770373,63.3044701 27.7222058,65.8109282 28.0789362,69.0959574 L28.0789362,69.0959574 L28.0789362,69.0959574 C28.0789362,69.3491489 35.3202128,90.5919149 59.6012766,106.340426 C59.5426644,109.023966 60.1333247,111.681937 61.3229787,114.088085 L61.3229787,114.088085 L61.3229787,114.088085 C61.8480634,115.394951 62.5100517,116.642545 63.2978723,117.81 C62.9072087,119.308375 62.3554095,120.760031 61.6521277,122.139574 C56.3648715,120.806284 51.2374315,118.904717 46.3593617,116.468085 C39.2202188,106.875829 32.9660733,96.6556399 27.6738298,85.9331915 L27.6738298,85.8319149 Z M72.59,112.492979 C68.4292399,110.626951 64.4097634,108.460665 60.5634043,106.011277 C60.7080516,104.354934 61.2275372,102.753187 62.0825532,101.327234 C62.9365043,99.7460451 64.4317789,98.6107441 66.1842553,98.2129787 C70.5644681,97.3774468 76.0840426,101.504468 79.3755319,103.960426 L80.0844681,104.492128 C83.6499493,107.556483 88.5649704,108.518326 93.0225532,107.024043 C93.7565002,106.711208 94.5600244,106.597667 95.3519149,106.694894 C96.0415576,106.737243 96.66632,107.115887 97.0229787,107.70766 C97.3687945,109.098643 97.159955,110.5696 96.4406383,111.809362 C94.9888058,114.629919 92.2992529,116.607256 89.1740426,117.151702 C88.6170213,115.683191 86.0851064,111.632128 72.59,112.492979 Z M88.2119149,117.354255 C87.6764282,117.460271 87.1354467,117.536347 86.5914894,117.582128 C82.4894267,116.427024 78.4641593,115.014798 74.5395745,113.35383 C85.4014894,112.999362 87.7308511,116.189574 88.2119149,117.354255 Z M63.6017021,108.87234 C63.9569976,110.320994 64.1019587,111.81324 64.0321277,113.303191 L62.057234,113.556383 C61.0806473,111.504501 60.545844,109.270404 60.4874468,106.998723 C61.5002128,107.732979 62.5382979,108.365957 63.6017021,108.87234 Z M63.9814894,114.265319 C63.9232115,115.004866 63.821762,115.740376 63.6776596,116.468085 C63.3485106,115.961702 62.9434043,115.278085 62.5129787,114.467872 L63.9814894,114.265319 Z M47.6506383,118.063191 C52.0396152,120.101936 56.6081779,121.729328 61.2976596,122.924468 C60.0850546,125.022623 58.5946335,126.947395 56.8668085,128.646596 C53.5973372,125.331196 50.5202513,121.831434 47.6506383,118.164468 L47.6506383,118.063191 Z M67.9059574,141.508723 C67.8243946,141.293149 67.6013895,141.165718 67.3742553,141.204894 L58.2340426,143.027872 C58.4619149,137.964043 58.816383,133.88766 58.993617,132.191277 C62.9752828,136.003972 67.4759906,139.234594 72.3621277,141.787234 C71.0606332,142.323813 69.8141745,142.985199 68.6402128,143.762128 L67.9059574,141.508723 Z M91.5287234,150.193191 C92.0716974,151.254219 92.4231173,152.402762 92.5668085,153.585957 C90.8466666,151.564906 88.9670087,149.685248 86.9459574,147.965106 C86.8556101,147.873879 86.7325433,147.822553 86.6041489,147.822553 C86.4757546,147.822553 86.3526878,147.873879 86.2623404,147.965106 C86.0853209,148.1586 86.0853209,148.45523 86.2623404,148.648723 C88.5946049,150.634139 90.7311846,152.838547 92.642766,155.231702 C92.7621373,156.604786 92.7621373,157.985639 92.642766,159.358723 C90.5587284,156.371692 88.1840214,153.598374 85.5534043,151.079362 C85.4674393,150.989598 85.3485431,150.938838 85.2242553,150.938838 C85.0999676,150.938838 84.9810714,150.989598 84.8951064,151.079362 C84.8038788,151.169709 84.752553,151.292776 84.752553,151.42117 C84.752553,151.549565 84.8038788,151.672631 84.8951064,151.762979 C87.7857344,154.464714 90.3364403,157.508557 92.4908511,160.827234 C92.3343016,161.807148 91.842031,162.702186 91.0982979,163.359149 C90.3640426,159.789149 84.2621277,154.320213 83.983617,154.067021 C83.8932697,153.975794 83.7702029,153.924468 83.6418085,153.924468 C83.5134141,153.924468 83.3903473,153.975794 83.3,154.067021 C83.1263581,154.252102 83.1263581,154.540238 83.3,154.725319 C85.1482979,156.371064 89.7817021,161.029787 90.1361702,163.663011 C89.0635171,163.666799 88.0173584,163.3299 87.1485106,162.700851 C86.7802818,162.504468 86.425079,162.284581 86.0851064,162.042553 L79.0970213,155.535532 C77.6643507,154.193885 75.7679441,153.458914 73.8053191,153.484681 L72.2861702,153.484681 L68.9693617,144.57234 C72.7511896,141.93606 77.399289,140.848785 81.9580851,141.534043 C86.3083994,142.847359 89.8225363,146.072535 91.5034043,150.294468 L91.5287234,150.193191 Z M109.809149,113.429787 C111.413076,120.137516 110.331832,127.206489 106.79617,133.128085 C102.885211,138.622827 97.0911667,142.488527 90.5159574,143.99 C89.8289732,144.111777 89.1359036,144.196298 88.4397872,144.243191 C86.7345063,142.47558 84.5679675,141.221268 82.1859574,140.622553 C79.3087171,140.000915 76.3139316,140.211692 73.5521277,141.230213 C67.5864291,138.212414 62.1689781,134.215653 57.5251064,129.40617 C59.5492443,127.511459 61.2586094,125.306379 62.5889362,122.87383 C62.5889362,122.87383 62.5889362,122.87383 62.5889362,122.87383 L62.5889362,122.87383 C63.3837813,121.335963 64.0037506,119.713851 64.437234,118.037872 C64.463266,117.94686 64.463266,117.850374 64.437234,117.759362 C64.727826,116.503315 64.9057656,115.223845 64.9689362,113.93617 C64.9827211,113.860838 64.9827211,113.78363 64.9689362,113.708298 L64.9689362,113.708298 C65.0293886,112.344369 64.9445135,110.97788 64.7157447,109.631915 C67.0451064,110.923191 69.5010638,112.16383 72.083617,113.328511 C72.1815265,113.365444 72.2895374,113.365444 72.3874468,113.328511 C76.9347492,115.352672 81.6226001,117.045037 86.4142553,118.39234 C88.3990126,118.961294 90.4515628,119.259382 92.5161702,119.278511 L93.6808511,119.278511 C98.9978723,119.278511 106.998723,118.493617 109.429362,114.062766 C109.606596,113.93617 109.707872,113.682979 109.809149,113.429787 Z M108.644468,113.758936 C106.593617,117.50617 99.8587234,118.367021 94.8455319,118.468298 C99.2763057,114.28507 103.279595,109.67111 106.79617,104.694681 C109.226809,108.492553 109.859787,111.530851 108.644468,113.758936 Z M93.4529787,118.468298 L92.5668085,118.468298 C91.4296835,118.436405 90.2960927,118.326429 89.1740426,118.139149 C92.6820461,117.564903 95.7133338,115.368862 97.3521277,112.214468 C98.165576,110.709911 98.3564793,108.946327 97.8838298,107.302553 C97.4102339,106.426944 96.5221268,105.853971 95.5291489,105.783404 C94.5774401,105.666314 93.6115533,105.788137 92.7187234,106.137872 C88.5373856,107.504079 83.9448864,106.539268 80.6668085,103.605957 L79.9578723,103.074255 C76.5397872,100.54234 70.8176596,96.212766 66.0323404,97.1748936 C64.0087117,97.6006514 62.2761241,98.8977759 61.2976596,100.719574 C60.451868,102.112082 59.9003841,103.66313 59.677234,105.277021 C45.9558498,96.6230362 35.2530242,83.9300158 29.0410638,68.9440426 L29.0410638,68.6402128 L56.2085106,71.6278723 L55.4742553,79.4008511 C55.2362033,83.4533313 57.7977071,87.1439878 61.6774468,88.3385106 C63.2490213,88.9401502 64.9079797,89.2822035 66.5893617,89.3512766 L78.6919149,89.9589362 L79.0717021,89.9589362 C81.1988929,89.9691252 83.2029351,88.9623998 84.4646809,87.2497872 C86.7416283,83.4078313 88.013021,79.0537468 88.1612766,74.5902128 C91.9117955,73.4284649 95.9846878,73.9944021 99.276383,76.1346809 C98.9326544,76.6745771 98.652294,77.2522893 98.4408511,77.856383 C96.959875,81.7796505 96.6865235,86.0562785 97.6559574,90.1361702 C98.0191382,91.6692029 99.0374817,92.9652765 100.441064,93.6808511 C103.094396,95.1101578 106.061077,95.8583532 109.074894,95.8582979 C109.921771,95.8530167 110.767454,95.7938189 111.606809,95.6810638 C106.741575,104.157365 100.611292,111.841564 93.4276596,118.468298 L93.4529787,118.468298 Z M57.2719149,71.1721277 L57.2719149,70.8176596 C57.9509822,67.1734908 61.1612916,64.5517381 64.8676596,64.6144681 L65.5006383,64.6144681 C71.7291489,64.9942553 79.4514894,65.45 85.1989362,68.4629787 C86.6238592,69.2064939 87.4917353,70.7055527 87.4270213,72.3114894 L87.4270213,72.3114894 C87.2497872,76.0840426 86.5661702,83.0214894 83.7557447,86.8193617 C82.564525,88.3923963 80.6604483,89.2587512 78.6919149,89.1234043 L66.6906383,88.6170213 C65.1135057,88.5606113 63.5565211,88.2440815 62.0825532,87.6802128 C58.6048689,86.6252934 56.2955984,83.3337992 56.4870213,79.7046809 L57.2465957,71.6025532 L57.2465957,71.4759574 C57.287754,71.3801047 57.2966402,71.2734707 57.2719149,71.1721277 L57.2719149,71.1721277 Z M112.087872,94.693617 C108.256014,95.3663575 104.309234,94.7427128 100.871489,92.9212766 C99.8124104,92.3097827 99.0454027,91.2962368 98.7446809,90.1108511 C97.8394277,86.2220617 98.1036872,82.1524649 99.5042553,78.4134043 C100.563425,75.2864298 103.379125,73.0875974 106.669574,72.8178723 L107.859574,72.8178723 C111.508226,72.9212568 115.095338,73.7835431 118.39234,75.3497872 C119.309353,75.7729294 120.026412,76.5353718 120.392553,77.4765957 C118.049531,83.4111631 115.273839,89.1656466 112.087872,94.693617 Z M117.885957,90.2121277 C117.033549,92.182607 115.38706,93.7003206 113.35383,94.3897872 C116.016306,89.6401526 118.375697,84.7268688 120.417872,79.6793617 C120.059747,83.2895842 119.207827,86.8335745 117.885957,90.2121277 L117.885957,90.2121277 Z M120.721702,76.3119149 C120.229192,75.5245203 119.515984,74.8993619 118.670851,74.5142553 C114.877605,72.692603 110.697327,71.8235224 106.49234,71.9823404 C103.851945,72.1814604 101.429636,73.5220514 99.8587234,75.653617 C96.4355688,73.426254 92.2160388,72.7891696 88.2878723,73.9065957 C88.2878723,73.4002128 88.2878723,72.9191489 88.2878723,72.4634043 C88.3799434,70.4864197 87.3118173,68.6369792 85.5534043,67.7287234 C79.6540426,64.6397872 71.8051064,64.1587234 65.4753191,63.7789362 C61.0781097,63.4533357 57.1312076,66.4651591 56.2844681,70.7923404 L56.2844681,70.7923404 L29.3195745,67.83 C30.8435612,62.64668 33.7701066,57.9852364 37.7761702,54.3602128 C42.9706618,49.402714 47.1576414,43.487638 50.1065957,36.9406383 C76.7109529,37.9237395 102.823325,44.4065733 126.798298,55.9806383 C125.249143,62.8910851 123.218659,69.6847465 120.721702,76.3119149 L120.721702,76.3119149 Z M134.672553,51.3219149 C134.551238,51.4201899 134.48516,51.5712262 134.495319,51.7270213 C135.339726,59.9182058 130.939828,67.7548906 123.506809,71.2987234 C125.20344,66.218528 126.640055,61.0551642 127.811064,55.8287234 C127.853776,55.6212751 127.762869,55.4091597 127.583191,55.2970213 C127.583191,55.2970213 124.291702,53.55 118.645532,51.17 C121.246671,50.257733 123.324708,48.2628176 124.34234,45.7010638 C125.151815,42.177232 124.49377,38.4757279 122.519362,35.4468085 C122.456629,35.3344301 122.349306,35.2538152 122.223899,35.2248753 C122.098493,35.1959354 121.966697,35.2213688 121.861064,35.2948936 C121.638938,35.4358705 121.571262,35.7291349 121.709149,35.9531915 C123.516352,38.7468934 124.135942,42.1455268 123.430851,45.397234 C122.342777,47.993293 120.104378,49.9319894 117.379574,50.6382979 C114.695745,49.5242553 111.55617,48.3089362 107.98617,47.0682979 C112.817385,44.5275288 114.765819,38.6150406 112.391702,33.6997872 C112.26767,33.4609856 111.978527,33.3608977 111.733404,33.4719149 C111.61806,33.5311505 111.531513,33.6344406 111.49338,33.7583722 C111.455247,33.8823038 111.468758,34.0163812 111.530851,34.1302128 C112.660453,36.4060336 112.788896,39.0500512 111.885204,41.4246464 C110.981512,43.7992415 109.127709,45.6888826 106.770851,46.6378723 C88.4066673,40.3444839 69.2252207,36.7538263 49.8280851,35.9785106 C49.631987,35.9632765 49.4482397,36.0755665 49.3723404,36.2570213 C46.4605505,42.805982 42.2978173,48.7232557 37.1178723,53.6765957 C33.086098,57.33862 30.1128531,62.0171083 28.5093617,67.2223404 C27.8850407,65.474072 26.6420959,64.0149629 25.0153191,63.1206383 C29.2689362,32.7376596 50.0559574,24.2810638 50.3344681,24.1797872 C50.45039,24.1349593 50.5429751,24.0447322 50.5907781,23.9300051 C50.6385811,23.8152779 50.6374546,23.6860043 50.5876596,23.5721277 C50.54802,23.4516206 50.4599463,23.3530888 50.3446231,23.3002323 C50.2293,23.2473759 50.0971646,23.2449786 49.98,23.293617 C49.7774468,23.293617 28.5853191,31.952766 24.1544681,62.7408511 C23.5228759,62.5380725 22.8674419,62.4189027 22.2048936,62.386383 L23.5974468,46.3593617 C27.6485106,11.5961702 46.0302128,13.1406383 46.2074468,13.1659574 C46.3569806,13.1692223 46.5020375,13.114826 46.6125532,13.0140426 C50.474622,8.94822537 55.1983354,5.79908312 60.4368085,3.79787234 C62.4924094,2.9948451 64.6868927,2.60758334 66.8931915,2.65851064 C99.8080851,3.01297872 127.33,33.0414894 127.659149,33.32 C127.792872,33.468561 128.004528,33.5189553 128.190851,33.4465957 C128.378364,33.3890998 128.503298,33.212111 128.494681,33.0161702 C128.487369,31.3755588 129.011446,29.776678 129.988511,28.4587234 C130.200305,28.1776133 130.523567,28.0021282 130.874681,27.9776596 C131.266444,27.9515579 131.651491,28.0890748 131.938085,28.3574468 C137.001915,33.0668085 139.356596,37.7761702 139.179362,42.333617 C138.917265,45.8057249 137.298139,49.0348807 134.672553,51.3219149 Z" id="_複合路徑_8" fill="#371608"></path>
                </g>
            </g>
        </g>
    </g>
</svg>