<?xml version="1.0" encoding="UTF-8"?>
<svg width="675px" height="666px" viewBox="0 0 675 666" version="1.1" xmlns="http://www.w3.org/2000/svg" xmlns:xlink="http://www.w3.org/1999/xlink">
    <!-- Generator: Sketch 63 (92445) - https://sketch.com -->
    <title>Group 103 Copy 2</title>
    <desc>Created with Sketch.</desc>
    <defs>
        <linearGradient x1="50%" y1="0%" x2="50%" y2="100%" id="linearGradient-1">
            <stop stop-color="#A7EFFF" offset="0%"></stop>
            <stop stop-color="#6497FB" offset="100%"></stop>
        </linearGradient>
        <linearGradient x1="50%" y1="0%" x2="50%" y2="100%" id="linearGradient-2">
            <stop stop-color="#FFA7FD" offset="0%"></stop>
            <stop stop-color="#A966F5" offset="100%"></stop>
        </linearGradient>
    </defs>
    <g id="Page-1" stroke="none" stroke-width="1" fill="none" fill-rule="evenodd">
        <g id="Group-103-Copy-2">
            <g id="Group-103-Copy">
                <g id="Group-102-Copy">
                    <g id="Group-47" transform="translate(169.000000, 0.000000)" fill-rule="nonzero">
                        <circle id="Oval-Copy-58" fill="url(#linearGradient-1)" opacity="0.28" cx="38" cy="38" r="38"></circle>
                        <path d="M22.594,47 L22.594,44.382 L19.536,44.382 L19.536,30.72 L17.138,30.72 C16.104,31.358 14.982,31.776 13.354,32.084 L13.354,34.086 L16.302,34.086 L16.302,44.382 L12.804,44.382 L12.804,47 L22.594,47 Z M31.416,47.308 C34.518,47.308 37.136,45.57 37.136,42.578 C37.136,40.444 35.728,39.08 33.88,38.574 L33.88,38.464 C35.618,37.782 36.608,36.506 36.608,34.746 C36.608,31.952 34.474,30.412 31.328,30.412 C29.414,30.412 27.852,31.182 26.444,32.414 L28.094,34.394 C29.062,33.514 30.008,32.964 31.174,32.942 C32.56,32.964 33.352,33.712 33.352,34.988 C33.352,36.44 32.384,37.474 29.392,37.474 L29.392,39.806 C32.934,39.806 33.88,40.796 33.88,42.402 C33.88,43.854 32.758,44.668 31.108,44.668 C29.634,44.668 28.446,43.942 27.478,42.996 L25.96,45.042 C27.104,46.34 28.842,47.308 31.416,47.308 Z M45.188,48.892 L45.188,33.382 C45.826,31.974 46.398,30.522 46.86,29.114 L44.44,28.388 C43.472,31.622 41.844,34.834 40.084,36.88 C40.502,37.562 41.14,39.08 41.338,39.696 C41.8,39.168 42.262,38.552 42.702,37.892 L42.702,48.892 L45.188,48.892 Z M60.192,36.704 L60.192,32.172 L56.408,32.172 L56.408,31.226 L60.852,31.226 L60.852,29.334 L46.794,29.334 L46.794,31.226 L50.798,31.226 L50.798,32.172 L47.19,32.172 L47.19,36.704 L60.192,36.704 Z M54.296,32.172 L52.866,32.172 L52.866,31.226 L54.296,31.226 L54.296,32.172 Z M57.816,35.186 L56.408,35.186 L56.408,33.69 L57.816,33.69 L57.816,35.186 Z M54.296,35.186 L52.866,35.186 L52.866,33.69 L54.296,33.69 L54.296,35.186 Z M50.798,35.186 L49.456,35.186 L49.456,33.69 L50.798,33.69 L50.798,35.186 Z M59.114,48.98 L61.358,47.506 C60.258,46.956 58.41,46.23 56.716,45.658 L59.972,45.658 L59.972,37.452 L47.52,37.452 L47.52,45.658 L50.622,45.658 C49.39,46.274 47.586,46.846 45.958,47.154 C46.442,47.616 47.036,48.408 47.344,48.936 C49.28,48.496 51.502,47.704 52.932,46.692 L51.48,45.658 L55.792,45.658 L54.384,46.868 C56.188,47.484 58.058,48.342 59.114,48.98 Z M57.42,39.74 L49.94,39.74 L49.94,38.948 L57.42,38.948 L57.42,39.74 Z M57.42,41.94 L49.94,41.94 L49.94,41.148 L57.42,41.148 L57.42,41.94 Z M57.42,44.184 L49.94,44.184 L49.94,43.348 L57.42,43.348 L57.42,44.184 Z" id="13價" fill="#FFFFFF"></path>
                    </g>
                    <g id="Group-54" transform="translate(341.000000, 0.000000)" fill-rule="nonzero">
                        <circle id="Oval-Copy-59" fill="url(#linearGradient-2)" opacity="0.23" cx="38" cy="38" r="38"></circle>
                        <path d="M22.858,47 L22.858,44.272 L19.316,44.272 C18.568,44.272 17.49,44.36 16.676,44.448 C19.646,41.544 22.088,38.376 22.088,35.428 C22.088,32.392 20.042,30.412 16.962,30.412 C14.74,30.412 13.288,31.292 11.792,32.876 L13.552,34.636 C14.366,33.734 15.356,32.964 16.544,32.964 C18.084,32.964 18.986,33.954 18.986,35.604 C18.986,38.112 16.368,41.17 11.946,45.13 L11.946,47 L22.858,47 Z M31.416,47.308 C34.518,47.308 37.136,45.57 37.136,42.578 C37.136,40.444 35.728,39.08 33.88,38.574 L33.88,38.464 C35.618,37.782 36.608,36.506 36.608,34.746 C36.608,31.952 34.474,30.412 31.328,30.412 C29.414,30.412 27.852,31.182 26.444,32.414 L28.094,34.394 C29.062,33.514 30.008,32.964 31.174,32.942 C32.56,32.964 33.352,33.712 33.352,34.988 C33.352,36.44 32.384,37.474 29.392,37.474 L29.392,39.806 C32.934,39.806 33.88,40.796 33.88,42.402 C33.88,43.854 32.758,44.668 31.108,44.668 C29.634,44.668 28.446,43.942 27.478,42.996 L25.96,45.042 C27.104,46.34 28.842,47.308 31.416,47.308 Z M45.188,48.892 L45.188,33.382 C45.826,31.974 46.398,30.522 46.86,29.114 L44.44,28.388 C43.472,31.622 41.844,34.834 40.084,36.88 C40.502,37.562 41.14,39.08 41.338,39.696 C41.8,39.168 42.262,38.552 42.702,37.892 L42.702,48.892 L45.188,48.892 Z M60.192,36.704 L60.192,32.172 L56.408,32.172 L56.408,31.226 L60.852,31.226 L60.852,29.334 L46.794,29.334 L46.794,31.226 L50.798,31.226 L50.798,32.172 L47.19,32.172 L47.19,36.704 L60.192,36.704 Z M54.296,32.172 L52.866,32.172 L52.866,31.226 L54.296,31.226 L54.296,32.172 Z M57.816,35.186 L56.408,35.186 L56.408,33.69 L57.816,33.69 L57.816,35.186 Z M54.296,35.186 L52.866,35.186 L52.866,33.69 L54.296,33.69 L54.296,35.186 Z M50.798,35.186 L49.456,35.186 L49.456,33.69 L50.798,33.69 L50.798,35.186 Z M59.114,48.98 L61.358,47.506 C60.258,46.956 58.41,46.23 56.716,45.658 L59.972,45.658 L59.972,37.452 L47.52,37.452 L47.52,45.658 L50.622,45.658 C49.39,46.274 47.586,46.846 45.958,47.154 C46.442,47.616 47.036,48.408 47.344,48.936 C49.28,48.496 51.502,47.704 52.932,46.692 L51.48,45.658 L55.792,45.658 L54.384,46.868 C56.188,47.484 58.058,48.342 59.114,48.98 Z M57.42,39.74 L49.94,39.74 L49.94,38.948 L57.42,38.948 L57.42,39.74 Z M57.42,41.94 L49.94,41.94 L49.94,41.148 L57.42,41.148 L57.42,41.94 Z M57.42,44.184 L49.94,44.184 L49.94,43.348 L57.42,43.348 L57.42,44.184 Z" id="23價" fill="#FFFFFF"></path>
                    </g>
                    <g id="Group-54-Copy" transform="translate(513.000000, 0.000000)" fill-rule="nonzero">
                        <circle id="Oval-Copy-59" fill="url(#linearGradient-2)" opacity="0.23" cx="38" cy="38" r="38"></circle>
                        <path d="M22.858,47 L22.858,44.272 L19.316,44.272 C18.568,44.272 17.49,44.36 16.676,44.448 C19.646,41.544 22.088,38.376 22.088,35.428 C22.088,32.392 20.042,30.412 16.962,30.412 C14.74,30.412 13.288,31.292 11.792,32.876 L13.552,34.636 C14.366,33.734 15.356,32.964 16.544,32.964 C18.084,32.964 18.986,33.954 18.986,35.604 C18.986,38.112 16.368,41.17 11.946,45.13 L11.946,47 L22.858,47 Z M31.416,47.308 C34.518,47.308 37.136,45.57 37.136,42.578 C37.136,40.444 35.728,39.08 33.88,38.574 L33.88,38.464 C35.618,37.782 36.608,36.506 36.608,34.746 C36.608,31.952 34.474,30.412 31.328,30.412 C29.414,30.412 27.852,31.182 26.444,32.414 L28.094,34.394 C29.062,33.514 30.008,32.964 31.174,32.942 C32.56,32.964 33.352,33.712 33.352,34.988 C33.352,36.44 32.384,37.474 29.392,37.474 L29.392,39.806 C32.934,39.806 33.88,40.796 33.88,42.402 C33.88,43.854 32.758,44.668 31.108,44.668 C29.634,44.668 28.446,43.942 27.478,42.996 L25.96,45.042 C27.104,46.34 28.842,47.308 31.416,47.308 Z M45.188,48.892 L45.188,33.382 C45.826,31.974 46.398,30.522 46.86,29.114 L44.44,28.388 C43.472,31.622 41.844,34.834 40.084,36.88 C40.502,37.562 41.14,39.08 41.338,39.696 C41.8,39.168 42.262,38.552 42.702,37.892 L42.702,48.892 L45.188,48.892 Z M60.192,36.704 L60.192,32.172 L56.408,32.172 L56.408,31.226 L60.852,31.226 L60.852,29.334 L46.794,29.334 L46.794,31.226 L50.798,31.226 L50.798,32.172 L47.19,32.172 L47.19,36.704 L60.192,36.704 Z M54.296,32.172 L52.866,32.172 L52.866,31.226 L54.296,31.226 L54.296,32.172 Z M57.816,35.186 L56.408,35.186 L56.408,33.69 L57.816,33.69 L57.816,35.186 Z M54.296,35.186 L52.866,35.186 L52.866,33.69 L54.296,33.69 L54.296,35.186 Z M50.798,35.186 L49.456,35.186 L49.456,33.69 L50.798,33.69 L50.798,35.186 Z M59.114,48.98 L61.358,47.506 C60.258,46.956 58.41,46.23 56.716,45.658 L59.972,45.658 L59.972,37.452 L47.52,37.452 L47.52,45.658 L50.622,45.658 C49.39,46.274 47.586,46.846 45.958,47.154 C46.442,47.616 47.036,48.408 47.344,48.936 C49.28,48.496 51.502,47.704 52.932,46.692 L51.48,45.658 L55.792,45.658 L54.384,46.868 C56.188,47.484 58.058,48.342 59.114,48.98 Z M57.42,39.74 L49.94,39.74 L49.94,38.948 L57.42,38.948 L57.42,39.74 Z M57.42,41.94 L49.94,41.94 L49.94,41.148 L57.42,41.148 L57.42,41.94 Z M57.42,44.184 L49.94,44.184 L49.94,43.348 L57.42,43.348 L57.42,44.184 Z" id="23價" fill="#FFFFFF"></path>
                    </g>
                    <g id="Group-53" transform="translate(269.000000, 22.000000)">
                        <path d="M5.58,24.26 C8.34,24.26 10.18,22.6 10.18,20.46 C10.18,18.46 8.98,17.36 7.7,16.62 L7.7,16.52 C8.58,15.84 9.66,14.52 9.66,12.98 C9.66,10.72 8.14,9.12 5.64,9.12 C3.34,9.12 1.62,10.6 1.62,12.84 C1.62,14.38 2.52,15.48 3.6,16.22 L3.6,16.32 C2.26,17.04 0.9,18.4 0.9,20.36 C0.9,22.62 2.88,24.26 5.58,24.26 Z M6.58,16.04 C4.86,15.36 3.28,14.6 3.28,12.84 C3.28,11.42 4.26,10.46 5.6,10.46 C7.18,10.46 8.1,11.64 8.1,13.08 C8.1,14.16 7.58,15.16 6.58,16.04 Z M5.62,22.9 C3.86,22.9 2.56,21.76 2.56,20.2 C2.56,18.8 3.38,17.64 4.56,16.88 C6.64,17.72 8.44,18.46 8.44,20.42 C8.44,21.88 7.3,22.9 5.62,22.9 Z M15.68,11.16 L17.08,10.7 C16.84,9.88 16.36,8.58 16.02,7.58 L14.68,7.94 C15,8.96 15.46,10.32 15.68,11.16 Z M29.6,22.54 C30.1,22.3 30.3,21.94 30.3,21.14 L30.3,8.08 L19.46,8.08 L19.46,13.24 C19.46,15.76 19.36,19.26 18.22,21.78 C18.56,21.92 19.16,22.28 19.42,22.5 C20.42,20.34 20.74,17.38 20.82,14.9 L28.92,14.9 L28.92,21.14 C28.92,21.42 28.8,21.5 28.54,21.52 C28.28,21.54 27.36,21.54 26.38,21.5 C26.56,21.86 26.76,22.42 26.8,22.78 C28.22,22.78 29.08,22.76 29.6,22.54 Z M24.2,10.96 L20.84,10.96 L20.84,9.32 L24.2,9.32 L24.2,10.96 Z M28.92,10.96 L25.46,10.96 L25.46,9.32 L28.92,9.32 L28.92,10.96 Z M28.92,13.82 L25.46,13.82 L25.46,12.04 L28.92,12.04 L28.92,13.82 Z M24.2,13.82 L20.84,13.82 L20.84,12.04 L24.2,12.04 L24.2,13.82 Z M14.1,25.62 C14.7,24.34 15.38,23.1 15.84,23.1 C16.28,23.1 17.02,23.78 17.82,24.26 C19.28,25.14 21.02,25.36 23.62,25.36 C25.98,25.36 29.72,25.24 31.2,25.14 C31.22,24.7 31.48,24 31.64,23.6 C29.44,23.84 26.22,24.02 23.66,24.02 C21.32,24.02 19.52,23.88 18.12,23.02 C17.4,22.58 16.96,22.2 16.54,21.98 C17.32,20.52 18.02,18.58 18.5,16.78 L17.8,16.48 L17.58,16.54 L16.08,16.54 C16.66,15.18 17.3,13.52 17.82,12.1 L13.32,12.1 L13.32,13.44 L15.98,13.44 C15.42,14.98 14.76,16.66 14.2,17.84 L16.8,17.84 C16.38,19.3 15.78,20.92 15.12,22.04 C14.5,22.44 13.8,23.26 13.1,24.26 L14.1,25.62 Z M27.42,20.6 L27.42,16.06 L22.12,16.06 L22.12,20.6 L27.42,20.6 Z M26.3,19.6 L23.2,19.6 L23.2,17.08 L26.3,17.08 L26.3,19.6 Z" id="8週" fill="#FFFFFF" fill-rule="nonzero"></path>
                        <polygon id="Triangle" fill="#8DEEA1" transform="translate(42.000000, 17.000000) rotate(-270.000000) translate(-42.000000, -17.000000) " points="42 11 49 23 35 23"></polygon>
                        <g id="Group-62-Copy-21"></g>
                    </g>
                    <g id="Group-53-Copy-10" transform="translate(441.000000, 22.000000)">
                        <path d="M5.22,24.26 C7.7,24.26 10.02,22.44 10.02,19.22 C10.02,16 8.04,14.56 5.6,14.56 C4.72,14.56 4.06,14.78 3.42,15.14 L3.78,10.9 L9.32,10.9 L9.32,9.34 L2.18,9.34 L1.72,16.2 L2.7,16.8 C3.54,16.24 4.16,15.94 5.14,15.94 C6.98,15.94 8.18,17.18 8.18,19.28 C8.18,21.42 6.78,22.74 5.06,22.74 C3.36,22.74 2.3,21.96 1.46,21.12 L0.56,22.32 C1.54,23.3 2.94,24.26 5.22,24.26 Z M24.16,25.54 L24.16,20.96 L31.4,20.96 L31.4,19.52 L24.16,19.52 L24.16,15.56 L30.02,15.56 L30.02,14.16 L24.16,14.16 L24.16,11.12 L30.48,11.12 L30.48,9.68 L18.56,9.68 C18.88,9 19.2,8.28 19.48,7.58 L17.98,7.22 C17.04,9.9 15.36,12.48 13.48,14.12 C13.86,14.32 14.48,14.82 14.76,15.06 C15.84,14.02 16.9,12.66 17.8,11.12 L22.66,11.12 L22.66,14.16 L16.7,14.16 L16.7,19.52 L13.42,19.52 L13.42,20.96 L22.66,20.96 L22.66,25.54 L24.16,25.54 Z M22.66,19.52 L18.18,19.52 L18.18,15.56 L22.66,15.56 L22.66,19.52 Z" id="5年" fill="#FFFFFF" fill-rule="nonzero"></path>
                        <polygon id="Triangle" fill="#8DEEA1" transform="translate(42.000000, 17.000000) rotate(-270.000000) translate(-42.000000, -17.000000) " points="42 11 49 23 35 23"></polygon>
                        <g id="Group-62-Copy-21"></g>
                    </g>
                    <rect id="Rectangle" fill="#1F1E57" opacity="0.254208519" x="0" y="5" width="135" height="67"></rect>
                    <path d="M31.69,35.87 C32.746,34.88 33.626,33.582 34.352,32.086 C35.034,32.636 35.716,33.208 36.112,33.648 L37.278,31.602 C36.816,31.162 35.98,30.524 35.188,29.974 C35.54,28.962 35.804,27.884 36.024,26.762 L33.538,26.388 C32.988,29.556 31.8,32.394 29.842,34.088 C30.392,34.484 31.316,35.386 31.69,35.87 Z M24.98,32.658 C26.806,31.316 28.852,29.182 30.238,27.29 L27.928,26.388 C27.004,27.818 25.178,29.644 23.616,30.744 C24.012,31.206 24.65,32.13 24.98,32.658 Z M30.92,46.87 C31.954,45.88 32.702,44.648 33.252,43.196 C34.858,45.902 37.19,46.628 40.182,46.628 L43.548,46.628 C43.636,45.968 43.944,44.824 44.274,44.274 C43.438,44.296 41.018,44.318 40.402,44.296 C39.83,44.296 39.258,44.274 38.73,44.186 L38.73,40.578 L42.976,40.578 L42.976,38.378 L38.73,38.378 L38.73,35.276 L38.268,35.276 C38.972,34.506 39.588,33.626 40.094,32.614 C41.128,33.648 42.14,34.792 42.69,35.606 L44.428,33.868 C43.724,32.9 42.272,31.492 41.018,30.348 C41.392,29.226 41.656,27.994 41.854,26.674 L39.412,26.388 C38.972,29.798 37.806,32.636 35.672,34.286 C36.046,34.506 36.596,34.902 37.08,35.276 L36.288,35.276 L36.288,43.262 C35.386,42.602 34.638,41.59 34.11,40.028 C34.286,39.06 34.396,38.048 34.484,36.948 L31.954,36.75 C31.756,40.424 31.008,43.438 28.94,45.198 C29.512,45.55 30.546,46.43 30.92,46.87 Z M28.94,46.958 L28.94,45.198 L28.94,45.198 L28.94,34.594 C29.556,33.714 30.128,32.812 30.612,31.932 L28.324,31.074 C27.18,33.208 25.266,35.342 23.418,36.728 C23.836,37.278 24.54,38.598 24.782,39.17 C25.354,38.686 25.926,38.158 26.498,37.542 L26.498,46.958 L28.94,46.958 Z M57.386,46.936 L57.386,39.94 C59.388,42.448 61.94,44.648 64.536,45.99 C64.976,45.308 65.812,44.252 66.428,43.724 C63.502,42.448 60.51,40.116 58.596,37.674 L65.856,37.674 L65.856,35.078 L57.386,35.078 L57.386,32.262 L64.272,32.262 L64.272,29.666 L57.386,29.666 L57.386,26.388 L54.592,26.388 L54.592,29.666 L47.904,29.666 L47.904,32.262 L54.592,32.262 L54.592,35.078 L46.254,35.078 L46.254,37.674 L53.382,37.674 C51.446,40.116 48.454,42.448 45.506,43.702 C46.144,44.252 47.002,45.308 47.442,45.968 C50.016,44.626 52.59,42.492 54.592,40.072 L54.592,46.936 L57.386,46.936 Z M75.514,46.914 C78.352,46.408 80.53,45.726 82.202,44.692 C83.808,45.44 85.26,46.188 86.25,46.848 L87.944,44.934 C86.954,44.318 85.612,43.658 84.16,43.02 C84.93,42.118 85.524,41.04 85.986,39.764 L88.296,39.764 L88.296,37.564 L86.602,37.564 C86.668,37.256 86.734,36.948 86.756,36.64 L84.27,36.244 C84.204,36.706 84.116,37.146 84.006,37.564 L81.278,37.564 C81.542,37.036 81.784,36.508 82.004,36.002 L80.002,35.584 L87.966,35.584 L87.966,33.362 L84.754,33.362 C85.15,32.68 85.59,31.91 86.03,31.118 L84.028,30.524 L87.548,30.524 L87.548,28.324 L83.566,28.324 C83.28,27.642 82.884,26.872 82.51,26.256 L79.606,26.762 C79.848,27.224 80.112,27.774 80.31,28.324 L75.514,28.324 L75.514,30.524 L78.704,30.524 L77.054,31.096 C77.472,31.778 77.934,32.702 78.154,33.362 L75.008,33.362 L75.008,35.584 L79.54,35.584 C79.276,36.222 78.968,36.882 78.616,37.564 L74.766,37.564 L74.766,39.764 L77.34,39.764 C76.79,40.622 76.218,41.436 75.712,42.096 C76.878,42.492 78.154,42.954 79.43,43.482 C78.088,44.054 76.438,44.45 74.37,44.692 C74.832,45.242 75.338,46.166 75.514,46.914 Z M71.708,46.276 C72.39,45.858 72.588,45.22 72.588,44.01 L72.588,38.686 C73.292,38.51 73.952,38.29 74.634,38.092 L74.282,35.694 L72.588,36.178 L72.588,32.944 L74.546,32.944 L74.546,30.524 L72.588,30.524 L72.588,26.388 L70.19,26.388 L70.19,30.524 L67.88,30.524 L67.88,32.944 L70.19,32.944 L70.19,36.816 C69.178,37.08 68.276,37.322 67.528,37.498 L68.1,40.006 L70.19,39.39 L70.19,43.988 C70.19,44.274 70.102,44.362 69.838,44.362 C69.574,44.384 68.826,44.384 68.034,44.34 C68.342,45.044 68.65,46.122 68.694,46.76 C70.102,46.782 71.07,46.694 71.708,46.276 Z M82.312,33.362 L78.968,33.362 L80.552,32.79 C80.354,32.152 79.87,31.228 79.364,30.524 L83.544,30.524 C83.236,31.404 82.73,32.57 82.312,33.362 Z M81.718,42.008 C80.86,41.678 80.024,41.37 79.21,41.084 C79.496,40.666 79.782,40.226 80.068,39.764 L83.258,39.764 C82.862,40.644 82.356,41.392 81.718,42.008 Z M95.644,46.892 L95.644,38.312 C96.172,39.104 96.7,39.962 96.964,40.534 L98.416,38.554 L98.416,40.49 L102.64,40.49 L102.64,41.502 L98.262,41.502 L98.262,43.482 L102.64,43.482 L102.64,44.472 L97.03,44.472 L97.03,46.54 L110.34,46.54 L110.34,44.472 L105.148,44.472 L105.148,43.482 L109.526,43.482 L109.526,41.502 L105.148,41.502 L105.148,40.49 L109.526,40.49 L109.526,33.12 L105.148,33.12 L105.148,32.218 L109.878,32.218 L109.878,30.194 L105.148,30.194 L105.148,29.094 C106.842,28.962 108.47,28.764 109.834,28.5 L108.338,26.542 C105.764,27.048 101.518,27.334 97.91,27.444 C98.152,27.972 98.438,28.83 98.482,29.402 C99.802,29.38 101.21,29.336 102.64,29.27 L102.64,30.194 L97.69,30.194 L97.69,32.218 L102.64,32.218 L102.64,33.12 L98.416,33.12 L98.416,38.444 C97.932,37.872 96.216,36.09 95.644,35.606 L95.644,34.968 L97.998,34.968 L97.998,32.526 L95.644,32.526 L95.644,29.424 C96.59,29.182 97.47,28.896 98.262,28.588 L96.524,26.586 C94.83,27.356 92.124,27.994 89.704,28.412 C89.99,28.94 90.298,29.82 90.43,30.414 C91.288,30.304 92.19,30.15 93.114,29.974 L93.114,32.526 L89.968,32.526 L89.968,34.968 L92.762,34.968 C91.948,37.102 90.738,39.434 89.506,40.864 C89.924,41.524 90.474,42.602 90.716,43.35 C91.574,42.25 92.41,40.688 93.114,38.994 L93.114,46.892 L95.644,46.892 Z M102.64,36.024 L100.682,36.024 L100.682,34.946 L102.64,34.946 L102.64,36.024 Z M107.172,36.024 L105.148,36.024 L105.148,34.946 L107.172,34.946 L107.172,36.024 Z M102.64,38.686 L100.682,38.686 L100.682,37.564 L102.64,37.564 L102.64,38.686 Z M107.172,38.686 L105.148,38.686 L105.148,37.564 L107.172,37.564 L107.172,38.686 Z" id="從未接種" fill="#8DEEA1" fill-rule="nonzero"></path>
                </g>
                <g id="Group-101-Copy" transform="translate(0.000000, 116.000000)">
                    <rect id="Rectangle-Copy-14" fill="#1F1E57" opacity="0.300013951" x="0" y="0" width="135" height="99"></rect>
                    <path d="M49.752,44.298 C53.756,44.298 54.724,43.088 55.23,38.952 C54.46,38.798 53.272,38.358 52.59,37.94 C52.26,41.13 51.908,41.702 49.642,41.702 L42.448,41.702 C40.028,41.702 39.632,41.504 39.632,40.14 L39.632,35.454 L49.62,35.454 L49.62,36.488 L52.348,36.488 L52.348,25.598 L36.046,25.598 L36.046,28.194 L49.62,28.194 L49.62,32.88 L39.632,32.88 L39.632,29.888 L36.926,29.888 L36.926,40.14 C36.926,43.462 38.224,44.298 42.47,44.298 L49.752,44.298 Z M64.514,44.914 C67.352,44.408 69.53,43.726 71.202,42.692 C72.808,43.44 74.26,44.188 75.25,44.848 L76.944,42.934 C75.954,42.318 74.612,41.658 73.16,41.02 C73.93,40.118 74.524,39.04 74.986,37.764 L77.296,37.764 L77.296,35.564 L75.602,35.564 C75.668,35.256 75.734,34.948 75.756,34.64 L73.27,34.244 C73.204,34.706 73.116,35.146 73.006,35.564 L70.278,35.564 C70.542,35.036 70.784,34.508 71.004,34.002 L69.002,33.584 L76.966,33.584 L76.966,31.362 L73.754,31.362 C74.15,30.68 74.59,29.91 75.03,29.118 L73.028,28.524 L76.548,28.524 L76.548,26.324 L72.566,26.324 C72.28,25.642 71.884,24.872 71.51,24.256 L68.606,24.762 C68.848,25.224 69.112,25.774 69.31,26.324 L64.514,26.324 L64.514,28.524 L67.704,28.524 L66.054,29.096 C66.472,29.778 66.934,30.702 67.154,31.362 L64.008,31.362 L64.008,33.584 L68.54,33.584 C68.276,34.222 67.968,34.882 67.616,35.564 L63.766,35.564 L63.766,37.764 L66.34,37.764 C65.79,38.622 65.218,39.436 64.712,40.096 C65.878,40.492 67.154,40.954 68.43,41.482 C67.088,42.054 65.438,42.45 63.37,42.692 C63.832,43.242 64.338,44.166 64.514,44.914 Z M60.708,44.276 C61.39,43.858 61.588,43.22 61.588,42.01 L61.588,36.686 C62.292,36.51 62.952,36.29 63.634,36.092 L63.282,33.694 L61.588,34.178 L61.588,30.944 L63.546,30.944 L63.546,28.524 L61.588,28.524 L61.588,24.388 L59.19,24.388 L59.19,28.524 L56.88,28.524 L56.88,30.944 L59.19,30.944 L59.19,34.816 C58.178,35.08 57.276,35.322 56.528,35.498 L57.1,38.006 L59.19,37.39 L59.19,41.988 C59.19,42.274 59.102,42.362 58.838,42.362 C58.574,42.384 57.826,42.384 57.034,42.34 C57.342,43.044 57.65,44.122 57.694,44.76 C59.102,44.782 60.07,44.694 60.708,44.276 Z M71.312,31.362 L67.968,31.362 L69.552,30.79 C69.354,30.152 68.87,29.228 68.364,28.524 L72.544,28.524 C72.236,29.404 71.73,30.57 71.312,31.362 Z M70.718,40.008 C69.86,39.678 69.024,39.37 68.21,39.084 C68.496,38.666 68.782,38.226 69.068,37.764 L72.258,37.764 C71.862,38.644 71.356,39.392 70.718,40.008 Z M84.644,44.892 L84.644,36.312 C85.172,37.104 85.7,37.962 85.964,38.534 L87.416,36.554 L87.416,38.49 L91.64,38.49 L91.64,39.502 L87.262,39.502 L87.262,41.482 L91.64,41.482 L91.64,42.472 L86.03,42.472 L86.03,44.54 L99.34,44.54 L99.34,42.472 L94.148,42.472 L94.148,41.482 L98.526,41.482 L98.526,39.502 L94.148,39.502 L94.148,38.49 L98.526,38.49 L98.526,31.12 L94.148,31.12 L94.148,30.218 L98.878,30.218 L98.878,28.194 L94.148,28.194 L94.148,27.094 C95.842,26.962 97.47,26.764 98.834,26.5 L97.338,24.542 C94.764,25.048 90.518,25.334 86.91,25.444 C87.152,25.972 87.438,26.83 87.482,27.402 C88.802,27.38 90.21,27.336 91.64,27.27 L91.64,28.194 L86.69,28.194 L86.69,30.218 L91.64,30.218 L91.64,31.12 L87.416,31.12 L87.416,36.444 C86.932,35.872 85.216,34.09 84.644,33.606 L84.644,32.968 L86.998,32.968 L86.998,30.526 L84.644,30.526 L84.644,27.424 C85.59,27.182 86.47,26.896 87.262,26.588 L85.524,24.586 C83.83,25.356 81.124,25.994 78.704,26.412 C78.99,26.94 79.298,27.82 79.43,28.414 C80.288,28.304 81.19,28.15 82.114,27.974 L82.114,30.526 L78.968,30.526 L78.968,32.968 L81.762,32.968 C80.948,35.102 79.738,37.434 78.506,38.864 C78.924,39.524 79.474,40.602 79.716,41.35 C80.574,40.25 81.41,38.688 82.114,36.994 L82.114,44.892 L84.644,44.892 Z M91.64,34.024 L89.682,34.024 L89.682,32.946 L91.64,32.946 L91.64,34.024 Z M96.172,34.024 L94.148,34.024 L94.148,32.946 L96.172,32.946 L96.172,34.024 Z M91.64,36.686 L89.682,36.686 L89.682,35.564 L91.64,35.564 L91.64,36.686 Z M96.172,36.686 L94.148,36.686 L94.148,35.564 L96.172,35.564 L96.172,36.686 Z M32.9,71 L32.9,68.272 L29.358,68.272 C28.61,68.272 27.532,68.36 26.718,68.448 C29.688,65.544 32.13,62.376 32.13,59.428 C32.13,56.392 30.084,54.412 27.004,54.412 C24.782,54.412 23.33,55.292 21.834,56.876 L23.594,58.636 C24.408,57.734 25.398,56.964 26.586,56.964 C28.126,56.964 29.028,57.954 29.028,59.604 C29.028,62.112 26.41,65.17 21.988,69.13 L21.988,71 L32.9,71 Z M40.028,71.308 C43.13,71.308 45.748,69.57 45.748,66.578 C45.748,64.444 44.34,63.08 42.492,62.574 L42.492,62.464 C44.23,61.782 45.22,60.506 45.22,58.746 C45.22,55.952 43.086,54.412 39.94,54.412 C38.026,54.412 36.464,55.182 35.056,56.414 L36.706,58.394 C37.674,57.514 38.62,56.964 39.786,56.942 C41.172,56.964 41.964,57.712 41.964,58.988 C41.964,60.44 40.996,61.474 38.004,61.474 L38.004,63.806 C41.546,63.806 42.492,64.796 42.492,66.402 C42.492,67.854 41.37,68.668 39.72,68.668 C38.246,68.668 37.058,67.942 36.09,66.996 L34.572,69.042 C35.716,70.34 37.454,71.308 40.028,71.308 Z M52.37,72.892 L52.37,57.382 C53.008,55.974 53.58,54.522 54.042,53.114 L51.622,52.388 C50.654,55.622 49.026,58.834 47.266,60.88 C47.684,61.562 48.322,63.08 48.52,63.696 C48.982,63.168 49.444,62.552 49.884,61.892 L49.884,72.892 L52.37,72.892 Z M67.374,60.704 L67.374,56.172 L63.59,56.172 L63.59,55.226 L68.034,55.226 L68.034,53.334 L53.976,53.334 L53.976,55.226 L57.98,55.226 L57.98,56.172 L54.372,56.172 L54.372,60.704 L67.374,60.704 Z M61.478,56.172 L60.048,56.172 L60.048,55.226 L61.478,55.226 L61.478,56.172 Z M64.998,59.186 L63.59,59.186 L63.59,57.69 L64.998,57.69 L64.998,59.186 Z M61.478,59.186 L60.048,59.186 L60.048,57.69 L61.478,57.69 L61.478,59.186 Z M57.98,59.186 L56.638,59.186 L56.638,57.69 L57.98,57.69 L57.98,59.186 Z M66.296,72.98 L68.54,71.506 C67.44,70.956 65.592,70.23 63.898,69.658 L67.154,69.658 L67.154,61.452 L54.702,61.452 L54.702,69.658 L57.804,69.658 C56.572,70.274 54.768,70.846 53.14,71.154 C53.624,71.616 54.218,72.408 54.526,72.936 C56.462,72.496 58.684,71.704 60.114,70.692 L58.662,69.658 L62.974,69.658 L61.566,70.868 C63.37,71.484 65.24,72.342 66.296,72.98 Z M64.602,63.74 L57.122,63.74 L57.122,62.948 L64.602,62.948 L64.602,63.74 Z M64.602,65.94 L57.122,65.94 L57.122,65.148 L64.602,65.148 L64.602,65.94 Z M64.602,68.184 L57.122,68.184 L57.122,67.348 L64.602,67.348 L64.602,68.184 Z M90.1,63.85 L90.1,61.012 L69.86,61.012 L69.86,63.85 L90.1,63.85 Z M99.626,63.168 L99.626,58.724 C100.286,58.13 101.012,57.404 101.672,56.7 L100.22,56.172 L105.192,56.172 L105.192,54.192 L100.044,54.192 C99.802,53.554 99.384,52.74 99.032,52.124 L97.162,52.784 C97.382,53.18 97.602,53.708 97.8,54.192 L92.124,54.192 L92.124,56.172 L96.942,56.172 L96.216,56.59 C96.37,56.81 96.546,57.052 96.7,57.294 L92.102,57.294 L92.102,58.9 L93.18,58.9 C92.982,60.088 92.564,61.034 91.75,61.65 C92.058,61.958 92.498,62.64 92.674,62.992 C93.268,62.552 93.708,62.002 94.06,61.364 C94.214,61.782 94.324,62.332 94.346,62.794 C94.83,62.794 95.314,62.772 95.6,62.728 C96.04,62.662 96.282,62.53 96.524,62.2 C96.854,61.76 96.942,60.594 96.986,57.954 L96.986,57.756 C97.14,58.064 97.294,58.306 97.382,58.548 L98.68,57.734 C98.482,57.294 98.086,56.678 97.668,56.172 L99.912,56.172 C99.428,56.942 98.636,57.998 97.932,58.702 L97.932,63.168 L99.626,63.168 Z M110.692,72.452 C111.352,72.078 111.55,71.462 111.55,70.296 L111.55,52.652 L109.416,52.652 L109.416,70.296 C109.416,70.582 109.306,70.67 109.02,70.692 C108.712,70.714 107.832,70.714 106.93,70.67 C107.216,71.33 107.502,72.298 107.568,72.914 C109.042,72.914 110.032,72.848 110.692,72.452 Z M108.074,67.326 L108.074,54.764 L106.028,54.764 L106.028,67.326 L108.074,67.326 Z M100.704,63.058 C100.968,62.882 101.452,62.706 103.432,62.2 C103.366,61.87 103.278,61.254 103.256,60.814 L102.134,61.056 L102.134,59.142 C103.3,58.812 104.576,58.394 105.588,57.91 L104.18,56.612 C103.344,57.162 101.892,57.69 100.616,58.042 L100.594,60.374 C100.594,61.166 100.352,61.408 100.088,61.54 C100.33,61.892 100.616,62.64 100.704,63.058 Z M104.532,62.53 L105.918,61.584 C105.61,60.836 104.928,59.67 104.268,58.834 L102.904,59.626 C103.564,60.506 104.224,61.738 104.532,62.53 Z M94.786,61.232 C94.632,61.232 94.412,61.21 94.126,61.188 C94.434,60.506 94.632,59.758 94.764,58.9 L95.402,58.9 C95.358,60.286 95.292,60.858 95.182,61.056 C95.072,61.21 94.962,61.232 94.786,61.232 Z M93.048,72.892 C94.17,72.1 94.808,71.044 95.204,69.922 L101.386,69.922 L101.386,72.826 L103.608,72.826 L103.608,63.476 L101.386,63.476 L101.386,64.598 L95.71,64.598 L95.71,63.476 L93.598,63.476 L93.598,66.358 C93.598,67.898 93.356,70.098 91.508,71.44 C91.97,71.77 92.696,72.474 93.048,72.892 Z M101.386,67.898 L95.644,67.898 C95.688,67.436 95.71,67.018 95.71,66.6 L101.386,66.6 L101.386,67.898 Z" id="已接種23價一劑" fill="#8DEEA1" fill-rule="nonzero"></path>
                    <g id="Group-53-Copy-3" transform="translate(183.000000, 36.000000)">
                        <path d="M9.8,24 L9.8,22.48 L6.86,22.48 L6.86,9.34 L5.46,9.34 C4.66,9.8 3.72,10.14 2.42,10.38 L2.42,11.54 L5.02,11.54 L5.02,22.48 L1.76,22.48 L1.76,24 L9.8,24 Z M24.16,25.54 L24.16,20.96 L31.4,20.96 L31.4,19.52 L24.16,19.52 L24.16,15.56 L30.02,15.56 L30.02,14.16 L24.16,14.16 L24.16,11.12 L30.48,11.12 L30.48,9.68 L18.56,9.68 C18.88,9 19.2,8.28 19.48,7.58 L17.98,7.22 C17.04,9.9 15.36,12.48 13.48,14.12 C13.86,14.32 14.48,14.82 14.76,15.06 C15.84,14.02 16.9,12.66 17.8,11.12 L22.66,11.12 L22.66,14.16 L16.7,14.16 L16.7,19.52 L13.42,19.52 L13.42,20.96 L22.66,20.96 L22.66,25.54 L24.16,25.54 Z M22.66,19.52 L18.18,19.52 L18.18,15.56 L22.66,15.56 L22.66,19.52 Z" id="1年" fill="#FFFFFF" fill-rule="nonzero"></path>
                        <polygon id="Triangle" fill="#8DEEA1" transform="translate(42.000000, 17.000000) rotate(-270.000000) translate(-42.000000, -17.000000) " points="42 11 49 23 35 23"></polygon>
                        <g id="Group-62-Copy-21"></g>
                    </g>
                    <g id="Group-53-Copy-5" transform="translate(355.000000, 36.000000)">
                        <path d="M5.58,24.26 C8.34,24.26 10.18,22.6 10.18,20.46 C10.18,18.46 8.98,17.36 7.7,16.62 L7.7,16.52 C8.58,15.84 9.66,14.52 9.66,12.98 C9.66,10.72 8.14,9.12 5.64,9.12 C3.34,9.12 1.62,10.6 1.62,12.84 C1.62,14.38 2.52,15.48 3.6,16.22 L3.6,16.32 C2.26,17.04 0.9,18.4 0.9,20.36 C0.9,22.62 2.88,24.26 5.58,24.26 Z M6.58,16.04 C4.86,15.36 3.28,14.6 3.28,12.84 C3.28,11.42 4.26,10.46 5.6,10.46 C7.18,10.46 8.1,11.64 8.1,13.08 C8.1,14.16 7.58,15.16 6.58,16.04 Z M5.62,22.9 C3.86,22.9 2.56,21.76 2.56,20.2 C2.56,18.8 3.38,17.64 4.56,16.88 C6.64,17.72 8.44,18.46 8.44,20.42 C8.44,21.88 7.3,22.9 5.62,22.9 Z M15.68,11.16 L17.08,10.7 C16.84,9.88 16.36,8.58 16.02,7.58 L14.68,7.94 C15,8.96 15.46,10.32 15.68,11.16 Z M29.6,22.54 C30.1,22.3 30.3,21.94 30.3,21.14 L30.3,8.08 L19.46,8.08 L19.46,13.24 C19.46,15.76 19.36,19.26 18.22,21.78 C18.56,21.92 19.16,22.28 19.42,22.5 C20.42,20.34 20.74,17.38 20.82,14.9 L28.92,14.9 L28.92,21.14 C28.92,21.42 28.8,21.5 28.54,21.52 C28.28,21.54 27.36,21.54 26.38,21.5 C26.56,21.86 26.76,22.42 26.8,22.78 C28.22,22.78 29.08,22.76 29.6,22.54 Z M24.2,10.96 L20.84,10.96 L20.84,9.32 L24.2,9.32 L24.2,10.96 Z M28.92,10.96 L25.46,10.96 L25.46,9.32 L28.92,9.32 L28.92,10.96 Z M28.92,13.82 L25.46,13.82 L25.46,12.04 L28.92,12.04 L28.92,13.82 Z M24.2,13.82 L20.84,13.82 L20.84,12.04 L24.2,12.04 L24.2,13.82 Z M14.1,25.62 C14.7,24.34 15.38,23.1 15.84,23.1 C16.28,23.1 17.02,23.78 17.82,24.26 C19.28,25.14 21.02,25.36 23.62,25.36 C25.98,25.36 29.72,25.24 31.2,25.14 C31.22,24.7 31.48,24 31.64,23.6 C29.44,23.84 26.22,24.02 23.66,24.02 C21.32,24.02 19.52,23.88 18.12,23.02 C17.4,22.58 16.96,22.2 16.54,21.98 C17.32,20.52 18.02,18.58 18.5,16.78 L17.8,16.48 L17.58,16.54 L16.08,16.54 C16.66,15.18 17.3,13.52 17.82,12.1 L13.32,12.1 L13.32,13.44 L15.98,13.44 C15.42,14.98 14.76,16.66 14.2,17.84 L16.8,17.84 C16.38,19.3 15.78,20.92 15.12,22.04 C14.5,22.44 13.8,23.26 13.1,24.26 L14.1,25.62 Z M27.42,20.6 L27.42,16.06 L22.12,16.06 L22.12,20.6 L27.42,20.6 Z M26.3,19.6 L23.2,19.6 L23.2,17.08 L26.3,17.08 L26.3,19.6 Z" id="8週" fill="#FFFFFF" fill-rule="nonzero"></path>
                        <polygon id="Triangle" fill="#8DEEA1" transform="translate(42.000000, 17.000000) rotate(-270.000000) translate(-42.000000, -17.000000) " points="42 11 49 23 35 23"></polygon>
                        <g id="Group-62-Copy-21"></g>
                    </g>
                    <g id="Group-51-Copy-2" transform="translate(255.000000, 14.000000)" fill-rule="nonzero">
                        <circle id="Oval-Copy-60" fill="url(#linearGradient-1)" opacity="0.28" cx="38" cy="38" r="38"></circle>
                        <path d="M23.594,47 L23.594,44.382 L20.536,44.382 L20.536,30.72 L18.138,30.72 C17.104,31.358 15.982,31.776 14.354,32.084 L14.354,34.086 L17.302,34.086 L17.302,44.382 L13.804,44.382 L13.804,47 L23.594,47 Z M32.416,47.308 C35.518,47.308 38.136,45.57 38.136,42.578 C38.136,40.444 36.728,39.08 34.88,38.574 L34.88,38.464 C36.618,37.782 37.608,36.506 37.608,34.746 C37.608,31.952 35.474,30.412 32.328,30.412 C30.414,30.412 28.852,31.182 27.444,32.414 L29.094,34.394 C30.062,33.514 31.008,32.964 32.174,32.942 C33.56,32.964 34.352,33.712 34.352,34.988 C34.352,36.44 33.384,37.474 30.392,37.474 L30.392,39.806 C33.934,39.806 34.88,40.796 34.88,42.402 C34.88,43.854 33.758,44.668 32.108,44.668 C30.634,44.668 29.446,43.942 28.478,42.996 L26.96,45.042 C28.104,46.34 29.842,47.308 32.416,47.308 Z M46.188,48.892 L46.188,33.382 C46.826,31.974 47.398,30.522 47.86,29.114 L45.44,28.388 C44.472,31.622 42.844,34.834 41.084,36.88 C41.502,37.562 42.14,39.08 42.338,39.696 C42.8,39.168 43.262,38.552 43.702,37.892 L43.702,48.892 L46.188,48.892 Z M61.192,36.704 L61.192,32.172 L57.408,32.172 L57.408,31.226 L61.852,31.226 L61.852,29.334 L47.794,29.334 L47.794,31.226 L51.798,31.226 L51.798,32.172 L48.19,32.172 L48.19,36.704 L61.192,36.704 Z M55.296,32.172 L53.866,32.172 L53.866,31.226 L55.296,31.226 L55.296,32.172 Z M58.816,35.186 L57.408,35.186 L57.408,33.69 L58.816,33.69 L58.816,35.186 Z M55.296,35.186 L53.866,35.186 L53.866,33.69 L55.296,33.69 L55.296,35.186 Z M51.798,35.186 L50.456,35.186 L50.456,33.69 L51.798,33.69 L51.798,35.186 Z M60.114,48.98 L62.358,47.506 C61.258,46.956 59.41,46.23 57.716,45.658 L60.972,45.658 L60.972,37.452 L48.52,37.452 L48.52,45.658 L51.622,45.658 C50.39,46.274 48.586,46.846 46.958,47.154 C47.442,47.616 48.036,48.408 48.344,48.936 C50.28,48.496 52.502,47.704 53.932,46.692 L52.48,45.658 L56.792,45.658 L55.384,46.868 C57.188,47.484 59.058,48.342 60.114,48.98 Z M58.42,39.74 L50.94,39.74 L50.94,38.948 L58.42,38.948 L58.42,39.74 Z M58.42,41.94 L50.94,41.94 L50.94,41.148 L58.42,41.148 L58.42,41.94 Z M58.42,44.184 L50.94,44.184 L50.94,43.348 L58.42,43.348 L58.42,44.184 Z" id="13價" fill="#FFFFFF"></path>
                    </g>
                    <g id="Group-51-Copy-4" transform="translate(427.000000, 14.000000)" fill-rule="nonzero">
                        <circle id="Oval-Copy-60" fill="url(#linearGradient-2)" opacity="0.23" cx="38" cy="38" r="38"></circle>
                        <path d="M23.858,47 L23.858,44.272 L20.316,44.272 C19.568,44.272 18.49,44.36 17.676,44.448 C20.646,41.544 23.088,38.376 23.088,35.428 C23.088,32.392 21.042,30.412 17.962,30.412 C15.74,30.412 14.288,31.292 12.792,32.876 L14.552,34.636 C15.366,33.734 16.356,32.964 17.544,32.964 C19.084,32.964 19.986,33.954 19.986,35.604 C19.986,38.112 17.368,41.17 12.946,45.13 L12.946,47 L23.858,47 Z M32.416,47.308 C35.518,47.308 38.136,45.57 38.136,42.578 C38.136,40.444 36.728,39.08 34.88,38.574 L34.88,38.464 C36.618,37.782 37.608,36.506 37.608,34.746 C37.608,31.952 35.474,30.412 32.328,30.412 C30.414,30.412 28.852,31.182 27.444,32.414 L29.094,34.394 C30.062,33.514 31.008,32.964 32.174,32.942 C33.56,32.964 34.352,33.712 34.352,34.988 C34.352,36.44 33.384,37.474 30.392,37.474 L30.392,39.806 C33.934,39.806 34.88,40.796 34.88,42.402 C34.88,43.854 33.758,44.668 32.108,44.668 C30.634,44.668 29.446,43.942 28.478,42.996 L26.96,45.042 C28.104,46.34 29.842,47.308 32.416,47.308 Z M46.188,48.892 L46.188,33.382 C46.826,31.974 47.398,30.522 47.86,29.114 L45.44,28.388 C44.472,31.622 42.844,34.834 41.084,36.88 C41.502,37.562 42.14,39.08 42.338,39.696 C42.8,39.168 43.262,38.552 43.702,37.892 L43.702,48.892 L46.188,48.892 Z M61.192,36.704 L61.192,32.172 L57.408,32.172 L57.408,31.226 L61.852,31.226 L61.852,29.334 L47.794,29.334 L47.794,31.226 L51.798,31.226 L51.798,32.172 L48.19,32.172 L48.19,36.704 L61.192,36.704 Z M55.296,32.172 L53.866,32.172 L53.866,31.226 L55.296,31.226 L55.296,32.172 Z M58.816,35.186 L57.408,35.186 L57.408,33.69 L58.816,33.69 L58.816,35.186 Z M55.296,35.186 L53.866,35.186 L53.866,33.69 L55.296,33.69 L55.296,35.186 Z M51.798,35.186 L50.456,35.186 L50.456,33.69 L51.798,33.69 L51.798,35.186 Z M60.114,48.98 L62.358,47.506 C61.258,46.956 59.41,46.23 57.716,45.658 L60.972,45.658 L60.972,37.452 L48.52,37.452 L48.52,45.658 L51.622,45.658 C50.39,46.274 48.586,46.846 46.958,47.154 C47.442,47.616 48.036,48.408 48.344,48.936 C50.28,48.496 52.502,47.704 53.932,46.692 L52.48,45.658 L56.792,45.658 L55.384,46.868 C57.188,47.484 59.058,48.342 60.114,48.98 Z M58.42,39.74 L50.94,39.74 L50.94,38.948 L58.42,38.948 L58.42,39.74 Z M58.42,41.94 L50.94,41.94 L50.94,41.148 L58.42,41.148 L58.42,41.94 Z M58.42,44.184 L50.94,44.184 L50.94,43.348 L58.42,43.348 L58.42,44.184 Z" id="23價" fill="#FFFFFF"></path>
                    </g>
                    <g id="Group-53-Copy-6" transform="translate(527.000000, 36.000000)">
                        <path d="M5.22,24.26 C7.7,24.26 10.02,22.44 10.02,19.22 C10.02,16 8.04,14.56 5.6,14.56 C4.72,14.56 4.06,14.78 3.42,15.14 L3.78,10.9 L9.32,10.9 L9.32,9.34 L2.18,9.34 L1.72,16.2 L2.7,16.8 C3.54,16.24 4.16,15.94 5.14,15.94 C6.98,15.94 8.18,17.18 8.18,19.28 C8.18,21.42 6.78,22.74 5.06,22.74 C3.36,22.74 2.3,21.96 1.46,21.12 L0.56,22.32 C1.54,23.3 2.94,24.26 5.22,24.26 Z M24.16,25.54 L24.16,20.96 L31.4,20.96 L31.4,19.52 L24.16,19.52 L24.16,15.56 L30.02,15.56 L30.02,14.16 L24.16,14.16 L24.16,11.12 L30.48,11.12 L30.48,9.68 L18.56,9.68 C18.88,9 19.2,8.28 19.48,7.58 L17.98,7.22 C17.04,9.9 15.36,12.48 13.48,14.12 C13.86,14.32 14.48,14.82 14.76,15.06 C15.84,14.02 16.9,12.66 17.8,11.12 L22.66,11.12 L22.66,14.16 L16.7,14.16 L16.7,19.52 L13.42,19.52 L13.42,20.96 L22.66,20.96 L22.66,25.54 L24.16,25.54 Z M22.66,19.52 L18.18,19.52 L18.18,15.56 L22.66,15.56 L22.66,19.52 Z" id="5年" fill="#FFFFFF" fill-rule="nonzero"></path>
                        <polygon id="Triangle-Copy" fill="#8DEEA1" transform="translate(42.000000, 17.000000) rotate(-270.000000) translate(-42.000000, -17.000000) " points="42 11 49 23 35 23"></polygon>
                        <g id="Group-62-Copy-21"></g>
                    </g>
                    <g id="Group-51-Copy-5" transform="translate(599.000000, 14.000000)" fill-rule="nonzero">
                        <circle id="Oval-Copy-60" fill="url(#linearGradient-2)" opacity="0.23" cx="38" cy="38" r="38"></circle>
                        <path d="M23.858,47 L23.858,44.272 L20.316,44.272 C19.568,44.272 18.49,44.36 17.676,44.448 C20.646,41.544 23.088,38.376 23.088,35.428 C23.088,32.392 21.042,30.412 17.962,30.412 C15.74,30.412 14.288,31.292 12.792,32.876 L14.552,34.636 C15.366,33.734 16.356,32.964 17.544,32.964 C19.084,32.964 19.986,33.954 19.986,35.604 C19.986,38.112 17.368,41.17 12.946,45.13 L12.946,47 L23.858,47 Z M32.416,47.308 C35.518,47.308 38.136,45.57 38.136,42.578 C38.136,40.444 36.728,39.08 34.88,38.574 L34.88,38.464 C36.618,37.782 37.608,36.506 37.608,34.746 C37.608,31.952 35.474,30.412 32.328,30.412 C30.414,30.412 28.852,31.182 27.444,32.414 L29.094,34.394 C30.062,33.514 31.008,32.964 32.174,32.942 C33.56,32.964 34.352,33.712 34.352,34.988 C34.352,36.44 33.384,37.474 30.392,37.474 L30.392,39.806 C33.934,39.806 34.88,40.796 34.88,42.402 C34.88,43.854 33.758,44.668 32.108,44.668 C30.634,44.668 29.446,43.942 28.478,42.996 L26.96,45.042 C28.104,46.34 29.842,47.308 32.416,47.308 Z M46.188,48.892 L46.188,33.382 C46.826,31.974 47.398,30.522 47.86,29.114 L45.44,28.388 C44.472,31.622 42.844,34.834 41.084,36.88 C41.502,37.562 42.14,39.08 42.338,39.696 C42.8,39.168 43.262,38.552 43.702,37.892 L43.702,48.892 L46.188,48.892 Z M61.192,36.704 L61.192,32.172 L57.408,32.172 L57.408,31.226 L61.852,31.226 L61.852,29.334 L47.794,29.334 L47.794,31.226 L51.798,31.226 L51.798,32.172 L48.19,32.172 L48.19,36.704 L61.192,36.704 Z M55.296,32.172 L53.866,32.172 L53.866,31.226 L55.296,31.226 L55.296,32.172 Z M58.816,35.186 L57.408,35.186 L57.408,33.69 L58.816,33.69 L58.816,35.186 Z M55.296,35.186 L53.866,35.186 L53.866,33.69 L55.296,33.69 L55.296,35.186 Z M51.798,35.186 L50.456,35.186 L50.456,33.69 L51.798,33.69 L51.798,35.186 Z M60.114,48.98 L62.358,47.506 C61.258,46.956 59.41,46.23 57.716,45.658 L60.972,45.658 L60.972,37.452 L48.52,37.452 L48.52,45.658 L51.622,45.658 C50.39,46.274 48.586,46.846 46.958,47.154 C47.442,47.616 48.036,48.408 48.344,48.936 C50.28,48.496 52.502,47.704 53.932,46.692 L52.48,45.658 L56.792,45.658 L55.384,46.868 C57.188,47.484 59.058,48.342 60.114,48.98 Z M58.42,39.74 L50.94,39.74 L50.94,38.948 L58.42,38.948 L58.42,39.74 Z M58.42,41.94 L50.94,41.94 L50.94,41.148 L58.42,41.148 L58.42,41.94 Z M58.42,44.184 L50.94,44.184 L50.94,43.348 L58.42,43.348 L58.42,44.184 Z" id="23價" fill="#FFFFFF"></path>
                    </g>
                </g>
                <g id="Group-100-Copy" transform="translate(0.000000, 255.000000)">
                    <rect id="Rectangle-Copy-15" fill="#1F1E57" opacity="0.366699219" x="0" y="0" width="135" height="99"></rect>
                    <path d="M49.752,44.298 C53.756,44.298 54.724,43.088 55.23,38.952 C54.46,38.798 53.272,38.358 52.59,37.94 C52.26,41.13 51.908,41.702 49.642,41.702 L42.448,41.702 C40.028,41.702 39.632,41.504 39.632,40.14 L39.632,35.454 L49.62,35.454 L49.62,36.488 L52.348,36.488 L52.348,25.598 L36.046,25.598 L36.046,28.194 L49.62,28.194 L49.62,32.88 L39.632,32.88 L39.632,29.888 L36.926,29.888 L36.926,40.14 C36.926,43.462 38.224,44.298 42.47,44.298 L49.752,44.298 Z M64.514,44.914 C67.352,44.408 69.53,43.726 71.202,42.692 C72.808,43.44 74.26,44.188 75.25,44.848 L76.944,42.934 C75.954,42.318 74.612,41.658 73.16,41.02 C73.93,40.118 74.524,39.04 74.986,37.764 L77.296,37.764 L77.296,35.564 L75.602,35.564 C75.668,35.256 75.734,34.948 75.756,34.64 L73.27,34.244 C73.204,34.706 73.116,35.146 73.006,35.564 L70.278,35.564 C70.542,35.036 70.784,34.508 71.004,34.002 L69.002,33.584 L76.966,33.584 L76.966,31.362 L73.754,31.362 C74.15,30.68 74.59,29.91 75.03,29.118 L73.028,28.524 L76.548,28.524 L76.548,26.324 L72.566,26.324 C72.28,25.642 71.884,24.872 71.51,24.256 L68.606,24.762 C68.848,25.224 69.112,25.774 69.31,26.324 L64.514,26.324 L64.514,28.524 L67.704,28.524 L66.054,29.096 C66.472,29.778 66.934,30.702 67.154,31.362 L64.008,31.362 L64.008,33.584 L68.54,33.584 C68.276,34.222 67.968,34.882 67.616,35.564 L63.766,35.564 L63.766,37.764 L66.34,37.764 C65.79,38.622 65.218,39.436 64.712,40.096 C65.878,40.492 67.154,40.954 68.43,41.482 C67.088,42.054 65.438,42.45 63.37,42.692 C63.832,43.242 64.338,44.166 64.514,44.914 Z M60.708,44.276 C61.39,43.858 61.588,43.22 61.588,42.01 L61.588,36.686 C62.292,36.51 62.952,36.29 63.634,36.092 L63.282,33.694 L61.588,34.178 L61.588,30.944 L63.546,30.944 L63.546,28.524 L61.588,28.524 L61.588,24.388 L59.19,24.388 L59.19,28.524 L56.88,28.524 L56.88,30.944 L59.19,30.944 L59.19,34.816 C58.178,35.08 57.276,35.322 56.528,35.498 L57.1,38.006 L59.19,37.39 L59.19,41.988 C59.19,42.274 59.102,42.362 58.838,42.362 C58.574,42.384 57.826,42.384 57.034,42.34 C57.342,43.044 57.65,44.122 57.694,44.76 C59.102,44.782 60.07,44.694 60.708,44.276 Z M71.312,31.362 L67.968,31.362 L69.552,30.79 C69.354,30.152 68.87,29.228 68.364,28.524 L72.544,28.524 C72.236,29.404 71.73,30.57 71.312,31.362 Z M70.718,40.008 C69.86,39.678 69.024,39.37 68.21,39.084 C68.496,38.666 68.782,38.226 69.068,37.764 L72.258,37.764 C71.862,38.644 71.356,39.392 70.718,40.008 Z M84.644,44.892 L84.644,36.312 C85.172,37.104 85.7,37.962 85.964,38.534 L87.416,36.554 L87.416,38.49 L91.64,38.49 L91.64,39.502 L87.262,39.502 L87.262,41.482 L91.64,41.482 L91.64,42.472 L86.03,42.472 L86.03,44.54 L99.34,44.54 L99.34,42.472 L94.148,42.472 L94.148,41.482 L98.526,41.482 L98.526,39.502 L94.148,39.502 L94.148,38.49 L98.526,38.49 L98.526,31.12 L94.148,31.12 L94.148,30.218 L98.878,30.218 L98.878,28.194 L94.148,28.194 L94.148,27.094 C95.842,26.962 97.47,26.764 98.834,26.5 L97.338,24.542 C94.764,25.048 90.518,25.334 86.91,25.444 C87.152,25.972 87.438,26.83 87.482,27.402 C88.802,27.38 90.21,27.336 91.64,27.27 L91.64,28.194 L86.69,28.194 L86.69,30.218 L91.64,30.218 L91.64,31.12 L87.416,31.12 L87.416,36.444 C86.932,35.872 85.216,34.09 84.644,33.606 L84.644,32.968 L86.998,32.968 L86.998,30.526 L84.644,30.526 L84.644,27.424 C85.59,27.182 86.47,26.896 87.262,26.588 L85.524,24.586 C83.83,25.356 81.124,25.994 78.704,26.412 C78.99,26.94 79.298,27.82 79.43,28.414 C80.288,28.304 81.19,28.15 82.114,27.974 L82.114,30.526 L78.968,30.526 L78.968,32.968 L81.762,32.968 C80.948,35.102 79.738,37.434 78.506,38.864 C78.924,39.524 79.474,40.602 79.716,41.35 C80.574,40.25 81.41,38.688 82.114,36.994 L82.114,44.892 L84.644,44.892 Z M91.64,34.024 L89.682,34.024 L89.682,32.946 L91.64,32.946 L91.64,34.024 Z M96.172,34.024 L94.148,34.024 L94.148,32.946 L96.172,32.946 L96.172,34.024 Z M91.64,36.686 L89.682,36.686 L89.682,35.564 L91.64,35.564 L91.64,36.686 Z M96.172,36.686 L94.148,36.686 L94.148,35.564 L96.172,35.564 L96.172,36.686 Z M32.9,71 L32.9,68.272 L29.358,68.272 C28.61,68.272 27.532,68.36 26.718,68.448 C29.688,65.544 32.13,62.376 32.13,59.428 C32.13,56.392 30.084,54.412 27.004,54.412 C24.782,54.412 23.33,55.292 21.834,56.876 L23.594,58.636 C24.408,57.734 25.398,56.964 26.586,56.964 C28.126,56.964 29.028,57.954 29.028,59.604 C29.028,62.112 26.41,65.17 21.988,69.13 L21.988,71 L32.9,71 Z M40.028,71.308 C43.13,71.308 45.748,69.57 45.748,66.578 C45.748,64.444 44.34,63.08 42.492,62.574 L42.492,62.464 C44.23,61.782 45.22,60.506 45.22,58.746 C45.22,55.952 43.086,54.412 39.94,54.412 C38.026,54.412 36.464,55.182 35.056,56.414 L36.706,58.394 C37.674,57.514 38.62,56.964 39.786,56.942 C41.172,56.964 41.964,57.712 41.964,58.988 C41.964,60.44 40.996,61.474 38.004,61.474 L38.004,63.806 C41.546,63.806 42.492,64.796 42.492,66.402 C42.492,67.854 41.37,68.668 39.72,68.668 C38.246,68.668 37.058,67.942 36.09,66.996 L34.572,69.042 C35.716,70.34 37.454,71.308 40.028,71.308 Z M52.37,72.892 L52.37,57.382 C53.008,55.974 53.58,54.522 54.042,53.114 L51.622,52.388 C50.654,55.622 49.026,58.834 47.266,60.88 C47.684,61.562 48.322,63.08 48.52,63.696 C48.982,63.168 49.444,62.552 49.884,61.892 L49.884,72.892 L52.37,72.892 Z M67.374,60.704 L67.374,56.172 L63.59,56.172 L63.59,55.226 L68.034,55.226 L68.034,53.334 L53.976,53.334 L53.976,55.226 L57.98,55.226 L57.98,56.172 L54.372,56.172 L54.372,60.704 L67.374,60.704 Z M61.478,56.172 L60.048,56.172 L60.048,55.226 L61.478,55.226 L61.478,56.172 Z M64.998,59.186 L63.59,59.186 L63.59,57.69 L64.998,57.69 L64.998,59.186 Z M61.478,59.186 L60.048,59.186 L60.048,57.69 L61.478,57.69 L61.478,59.186 Z M57.98,59.186 L56.638,59.186 L56.638,57.69 L57.98,57.69 L57.98,59.186 Z M66.296,72.98 L68.54,71.506 C67.44,70.956 65.592,70.23 63.898,69.658 L67.154,69.658 L67.154,61.452 L54.702,61.452 L54.702,69.658 L57.804,69.658 C56.572,70.274 54.768,70.846 53.14,71.154 C53.624,71.616 54.218,72.408 54.526,72.936 C56.462,72.496 58.684,71.704 60.114,70.692 L58.662,69.658 L62.974,69.658 L61.566,70.868 C63.37,71.484 65.24,72.342 66.296,72.98 Z M64.602,63.74 L57.122,63.74 L57.122,62.948 L64.602,62.948 L64.602,63.74 Z M64.602,65.94 L57.122,65.94 L57.122,65.148 L64.602,65.148 L64.602,65.94 Z M64.602,68.184 L57.122,68.184 L57.122,67.348 L64.602,67.348 L64.602,68.184 Z M87.9,58.262 L87.9,55.38 L72.016,55.38 L72.016,58.262 L87.9,58.262 Z M89.726,71.088 L89.726,68.074 L70.19,68.074 L70.19,71.088 L89.726,71.088 Z M99.626,63.168 L99.626,58.724 C100.286,58.13 101.012,57.404 101.672,56.7 L100.22,56.172 L105.192,56.172 L105.192,54.192 L100.044,54.192 C99.802,53.554 99.384,52.74 99.032,52.124 L97.162,52.784 C97.382,53.18 97.602,53.708 97.8,54.192 L92.124,54.192 L92.124,56.172 L96.942,56.172 L96.216,56.59 C96.37,56.81 96.546,57.052 96.7,57.294 L92.102,57.294 L92.102,58.9 L93.18,58.9 C92.982,60.088 92.564,61.034 91.75,61.65 C92.058,61.958 92.498,62.64 92.674,62.992 C93.268,62.552 93.708,62.002 94.06,61.364 C94.214,61.782 94.324,62.332 94.346,62.794 C94.83,62.794 95.314,62.772 95.6,62.728 C96.04,62.662 96.282,62.53 96.524,62.2 C96.854,61.76 96.942,60.594 96.986,57.954 L96.986,57.756 C97.14,58.064 97.294,58.306 97.382,58.548 L98.68,57.734 C98.482,57.294 98.086,56.678 97.668,56.172 L99.912,56.172 C99.428,56.942 98.636,57.998 97.932,58.702 L97.932,63.168 L99.626,63.168 Z M110.692,72.452 C111.352,72.078 111.55,71.462 111.55,70.296 L111.55,52.652 L109.416,52.652 L109.416,70.296 C109.416,70.582 109.306,70.67 109.02,70.692 C108.712,70.714 107.832,70.714 106.93,70.67 C107.216,71.33 107.502,72.298 107.568,72.914 C109.042,72.914 110.032,72.848 110.692,72.452 Z M108.074,67.326 L108.074,54.764 L106.028,54.764 L106.028,67.326 L108.074,67.326 Z M100.704,63.058 C100.968,62.882 101.452,62.706 103.432,62.2 C103.366,61.87 103.278,61.254 103.256,60.814 L102.134,61.056 L102.134,59.142 C103.3,58.812 104.576,58.394 105.588,57.91 L104.18,56.612 C103.344,57.162 101.892,57.69 100.616,58.042 L100.594,60.374 C100.594,61.166 100.352,61.408 100.088,61.54 C100.33,61.892 100.616,62.64 100.704,63.058 Z M104.532,62.53 L105.918,61.584 C105.61,60.836 104.928,59.67 104.268,58.834 L102.904,59.626 C103.564,60.506 104.224,61.738 104.532,62.53 Z M94.786,61.232 C94.632,61.232 94.412,61.21 94.126,61.188 C94.434,60.506 94.632,59.758 94.764,58.9 L95.402,58.9 C95.358,60.286 95.292,60.858 95.182,61.056 C95.072,61.21 94.962,61.232 94.786,61.232 Z M93.048,72.892 C94.17,72.1 94.808,71.044 95.204,69.922 L101.386,69.922 L101.386,72.826 L103.608,72.826 L103.608,63.476 L101.386,63.476 L101.386,64.598 L95.71,64.598 L95.71,63.476 L93.598,63.476 L93.598,66.358 C93.598,67.898 93.356,70.098 91.508,71.44 C91.97,71.77 92.696,72.474 93.048,72.892 Z M101.386,67.898 L95.644,67.898 C95.688,67.436 95.71,67.018 95.71,66.6 L101.386,66.6 L101.386,67.898 Z" id="已接種23價二劑" fill="#8DEEA1" fill-rule="nonzero"></path>
                    <g id="Group-58" transform="translate(183.000000, 12.000000)">
                        <g id="Group-53-Copy-4" transform="translate(0.000000, 22.000000)">
                            <path d="M9.8,24 L9.8,22.48 L6.86,22.48 L6.86,9.34 L5.46,9.34 C4.66,9.8 3.72,10.14 2.42,10.38 L2.42,11.54 L5.02,11.54 L5.02,22.48 L1.76,22.48 L1.76,24 L9.8,24 Z M24.16,25.54 L24.16,20.96 L31.4,20.96 L31.4,19.52 L24.16,19.52 L24.16,15.56 L30.02,15.56 L30.02,14.16 L24.16,14.16 L24.16,11.12 L30.48,11.12 L30.48,9.68 L18.56,9.68 C18.88,9 19.2,8.28 19.48,7.58 L17.98,7.22 C17.04,9.9 15.36,12.48 13.48,14.12 C13.86,14.32 14.48,14.82 14.76,15.06 C15.84,14.02 16.9,12.66 17.8,11.12 L22.66,11.12 L22.66,14.16 L16.7,14.16 L16.7,19.52 L13.42,19.52 L13.42,20.96 L22.66,20.96 L22.66,25.54 L24.16,25.54 Z M22.66,19.52 L18.18,19.52 L18.18,15.56 L22.66,15.56 L22.66,19.52 Z" id="1年" fill="#FFFFFF" fill-rule="nonzero"></path>
                            <polygon id="Triangle" fill="#8DEEA1" transform="translate(42.000000, 17.000000) rotate(-270.000000) translate(-42.000000, -17.000000) " points="42 11 49 23 35 23"></polygon>
                            <g id="Group-62-Copy-21"></g>
                        </g>
                        <g id="Group-51-Copy-3" transform="translate(72.000000, 0.000000)" fill-rule="nonzero">
                            <circle id="Oval-Copy-60" fill="url(#linearGradient-1)" opacity="0.28" cx="38" cy="38" r="38"></circle>
                            <path d="M23.594,47 L23.594,44.382 L20.536,44.382 L20.536,30.72 L18.138,30.72 C17.104,31.358 15.982,31.776 14.354,32.084 L14.354,34.086 L17.302,34.086 L17.302,44.382 L13.804,44.382 L13.804,47 L23.594,47 Z M32.416,47.308 C35.518,47.308 38.136,45.57 38.136,42.578 C38.136,40.444 36.728,39.08 34.88,38.574 L34.88,38.464 C36.618,37.782 37.608,36.506 37.608,34.746 C37.608,31.952 35.474,30.412 32.328,30.412 C30.414,30.412 28.852,31.182 27.444,32.414 L29.094,34.394 C30.062,33.514 31.008,32.964 32.174,32.942 C33.56,32.964 34.352,33.712 34.352,34.988 C34.352,36.44 33.384,37.474 30.392,37.474 L30.392,39.806 C33.934,39.806 34.88,40.796 34.88,42.402 C34.88,43.854 33.758,44.668 32.108,44.668 C30.634,44.668 29.446,43.942 28.478,42.996 L26.96,45.042 C28.104,46.34 29.842,47.308 32.416,47.308 Z M46.188,48.892 L46.188,33.382 C46.826,31.974 47.398,30.522 47.86,29.114 L45.44,28.388 C44.472,31.622 42.844,34.834 41.084,36.88 C41.502,37.562 42.14,39.08 42.338,39.696 C42.8,39.168 43.262,38.552 43.702,37.892 L43.702,48.892 L46.188,48.892 Z M61.192,36.704 L61.192,32.172 L57.408,32.172 L57.408,31.226 L61.852,31.226 L61.852,29.334 L47.794,29.334 L47.794,31.226 L51.798,31.226 L51.798,32.172 L48.19,32.172 L48.19,36.704 L61.192,36.704 Z M55.296,32.172 L53.866,32.172 L53.866,31.226 L55.296,31.226 L55.296,32.172 Z M58.816,35.186 L57.408,35.186 L57.408,33.69 L58.816,33.69 L58.816,35.186 Z M55.296,35.186 L53.866,35.186 L53.866,33.69 L55.296,33.69 L55.296,35.186 Z M51.798,35.186 L50.456,35.186 L50.456,33.69 L51.798,33.69 L51.798,35.186 Z M60.114,48.98 L62.358,47.506 C61.258,46.956 59.41,46.23 57.716,45.658 L60.972,45.658 L60.972,37.452 L48.52,37.452 L48.52,45.658 L51.622,45.658 C50.39,46.274 48.586,46.846 46.958,47.154 C47.442,47.616 48.036,48.408 48.344,48.936 C50.28,48.496 52.502,47.704 53.932,46.692 L52.48,45.658 L56.792,45.658 L55.384,46.868 C57.188,47.484 59.058,48.342 60.114,48.98 Z M58.42,39.74 L50.94,39.74 L50.94,38.948 L58.42,38.948 L58.42,39.74 Z M58.42,41.94 L50.94,41.94 L50.94,41.148 L58.42,41.148 L58.42,41.94 Z M58.42,44.184 L50.94,44.184 L50.94,43.348 L58.42,43.348 L58.42,44.184 Z" id="13價" fill="#FFFFFF"></path>
                        </g>
                    </g>
                </g>
                <g id="Group-99-Copy" transform="translate(0.000000, 394.000000)">
                    <rect id="Rectangle-Copy-16" fill="#1F1E57" opacity="0.440545945" x="0" y="0" width="135" height="99"></rect>
                    <path d="M49.752,46.298 C53.756,46.298 54.724,45.088 55.23,40.952 C54.46,40.798 53.272,40.358 52.59,39.94 C52.26,43.13 51.908,43.702 49.642,43.702 L42.448,43.702 C40.028,43.702 39.632,43.504 39.632,42.14 L39.632,37.454 L49.62,37.454 L49.62,38.488 L52.348,38.488 L52.348,27.598 L36.046,27.598 L36.046,30.194 L49.62,30.194 L49.62,34.88 L39.632,34.88 L39.632,31.888 L36.926,31.888 L36.926,42.14 C36.926,45.462 38.224,46.298 42.47,46.298 L49.752,46.298 Z M64.514,46.914 C67.352,46.408 69.53,45.726 71.202,44.692 C72.808,45.44 74.26,46.188 75.25,46.848 L76.944,44.934 C75.954,44.318 74.612,43.658 73.16,43.02 C73.93,42.118 74.524,41.04 74.986,39.764 L77.296,39.764 L77.296,37.564 L75.602,37.564 C75.668,37.256 75.734,36.948 75.756,36.64 L73.27,36.244 C73.204,36.706 73.116,37.146 73.006,37.564 L70.278,37.564 C70.542,37.036 70.784,36.508 71.004,36.002 L69.002,35.584 L76.966,35.584 L76.966,33.362 L73.754,33.362 C74.15,32.68 74.59,31.91 75.03,31.118 L73.028,30.524 L76.548,30.524 L76.548,28.324 L72.566,28.324 C72.28,27.642 71.884,26.872 71.51,26.256 L68.606,26.762 C68.848,27.224 69.112,27.774 69.31,28.324 L64.514,28.324 L64.514,30.524 L67.704,30.524 L66.054,31.096 C66.472,31.778 66.934,32.702 67.154,33.362 L64.008,33.362 L64.008,35.584 L68.54,35.584 C68.276,36.222 67.968,36.882 67.616,37.564 L63.766,37.564 L63.766,39.764 L66.34,39.764 C65.79,40.622 65.218,41.436 64.712,42.096 C65.878,42.492 67.154,42.954 68.43,43.482 C67.088,44.054 65.438,44.45 63.37,44.692 C63.832,45.242 64.338,46.166 64.514,46.914 Z M60.708,46.276 C61.39,45.858 61.588,45.22 61.588,44.01 L61.588,38.686 C62.292,38.51 62.952,38.29 63.634,38.092 L63.282,35.694 L61.588,36.178 L61.588,32.944 L63.546,32.944 L63.546,30.524 L61.588,30.524 L61.588,26.388 L59.19,26.388 L59.19,30.524 L56.88,30.524 L56.88,32.944 L59.19,32.944 L59.19,36.816 C58.178,37.08 57.276,37.322 56.528,37.498 L57.1,40.006 L59.19,39.39 L59.19,43.988 C59.19,44.274 59.102,44.362 58.838,44.362 C58.574,44.384 57.826,44.384 57.034,44.34 C57.342,45.044 57.65,46.122 57.694,46.76 C59.102,46.782 60.07,46.694 60.708,46.276 Z M71.312,33.362 L67.968,33.362 L69.552,32.79 C69.354,32.152 68.87,31.228 68.364,30.524 L72.544,30.524 C72.236,31.404 71.73,32.57 71.312,33.362 Z M70.718,42.008 C69.86,41.678 69.024,41.37 68.21,41.084 C68.496,40.666 68.782,40.226 69.068,39.764 L72.258,39.764 C71.862,40.644 71.356,41.392 70.718,42.008 Z M84.644,46.892 L84.644,38.312 C85.172,39.104 85.7,39.962 85.964,40.534 L87.416,38.554 L87.416,40.49 L91.64,40.49 L91.64,41.502 L87.262,41.502 L87.262,43.482 L91.64,43.482 L91.64,44.472 L86.03,44.472 L86.03,46.54 L99.34,46.54 L99.34,44.472 L94.148,44.472 L94.148,43.482 L98.526,43.482 L98.526,41.502 L94.148,41.502 L94.148,40.49 L98.526,40.49 L98.526,33.12 L94.148,33.12 L94.148,32.218 L98.878,32.218 L98.878,30.194 L94.148,30.194 L94.148,29.094 C95.842,28.962 97.47,28.764 98.834,28.5 L97.338,26.542 C94.764,27.048 90.518,27.334 86.91,27.444 C87.152,27.972 87.438,28.83 87.482,29.402 C88.802,29.38 90.21,29.336 91.64,29.27 L91.64,30.194 L86.69,30.194 L86.69,32.218 L91.64,32.218 L91.64,33.12 L87.416,33.12 L87.416,38.444 C86.932,37.872 85.216,36.09 84.644,35.606 L84.644,34.968 L86.998,34.968 L86.998,32.526 L84.644,32.526 L84.644,29.424 C85.59,29.182 86.47,28.896 87.262,28.588 L85.524,26.586 C83.83,27.356 81.124,27.994 78.704,28.412 C78.99,28.94 79.298,29.82 79.43,30.414 C80.288,30.304 81.19,30.15 82.114,29.974 L82.114,32.526 L78.968,32.526 L78.968,34.968 L81.762,34.968 C80.948,37.102 79.738,39.434 78.506,40.864 C78.924,41.524 79.474,42.602 79.716,43.35 C80.574,42.25 81.41,40.688 82.114,38.994 L82.114,46.892 L84.644,46.892 Z M91.64,36.024 L89.682,36.024 L89.682,34.946 L91.64,34.946 L91.64,36.024 Z M96.172,36.024 L94.148,36.024 L94.148,34.946 L96.172,34.946 L96.172,36.024 Z M91.64,38.686 L89.682,38.686 L89.682,37.564 L91.64,37.564 L91.64,38.686 Z M96.172,38.686 L94.148,38.686 L94.148,37.564 L96.172,37.564 L96.172,38.686 Z M32.636,73 L32.636,70.382 L29.578,70.382 L29.578,56.72 L27.18,56.72 C26.146,57.358 25.024,57.776 23.396,58.084 L23.396,60.086 L26.344,60.086 L26.344,70.382 L22.846,70.382 L22.846,73 L32.636,73 Z M40.028,73.308 C43.13,73.308 45.748,71.57 45.748,68.578 C45.748,66.444 44.34,65.08 42.492,64.574 L42.492,64.464 C44.23,63.782 45.22,62.506 45.22,60.746 C45.22,57.952 43.086,56.412 39.94,56.412 C38.026,56.412 36.464,57.182 35.056,58.414 L36.706,60.394 C37.674,59.514 38.62,58.964 39.786,58.942 C41.172,58.964 41.964,59.712 41.964,60.988 C41.964,62.44 40.996,63.474 38.004,63.474 L38.004,65.806 C41.546,65.806 42.492,66.796 42.492,68.402 C42.492,69.854 41.37,70.668 39.72,70.668 C38.246,70.668 37.058,69.942 36.09,68.996 L34.572,71.042 C35.716,72.34 37.454,73.308 40.028,73.308 Z M52.37,74.892 L52.37,59.382 C53.008,57.974 53.58,56.522 54.042,55.114 L51.622,54.388 C50.654,57.622 49.026,60.834 47.266,62.88 C47.684,63.562 48.322,65.08 48.52,65.696 C48.982,65.168 49.444,64.552 49.884,63.892 L49.884,74.892 L52.37,74.892 Z M67.374,62.704 L67.374,58.172 L63.59,58.172 L63.59,57.226 L68.034,57.226 L68.034,55.334 L53.976,55.334 L53.976,57.226 L57.98,57.226 L57.98,58.172 L54.372,58.172 L54.372,62.704 L67.374,62.704 Z M61.478,58.172 L60.048,58.172 L60.048,57.226 L61.478,57.226 L61.478,58.172 Z M64.998,61.186 L63.59,61.186 L63.59,59.69 L64.998,59.69 L64.998,61.186 Z M61.478,61.186 L60.048,61.186 L60.048,59.69 L61.478,59.69 L61.478,61.186 Z M57.98,61.186 L56.638,61.186 L56.638,59.69 L57.98,59.69 L57.98,61.186 Z M66.296,74.98 L68.54,73.506 C67.44,72.956 65.592,72.23 63.898,71.658 L67.154,71.658 L67.154,63.452 L54.702,63.452 L54.702,71.658 L57.804,71.658 C56.572,72.274 54.768,72.846 53.14,73.154 C53.624,73.616 54.218,74.408 54.526,74.936 C56.462,74.496 58.684,73.704 60.114,72.692 L58.662,71.658 L62.974,71.658 L61.566,72.868 C63.37,73.484 65.24,74.342 66.296,74.98 Z M64.602,65.74 L57.122,65.74 L57.122,64.948 L64.602,64.948 L64.602,65.74 Z M64.602,67.94 L57.122,67.94 L57.122,67.148 L64.602,67.148 L64.602,67.94 Z M64.602,70.184 L57.122,70.184 L57.122,69.348 L64.602,69.348 L64.602,70.184 Z M90.1,65.85 L90.1,63.012 L69.86,63.012 L69.86,65.85 L90.1,65.85 Z M99.626,65.168 L99.626,60.724 C100.286,60.13 101.012,59.404 101.672,58.7 L100.22,58.172 L105.192,58.172 L105.192,56.192 L100.044,56.192 C99.802,55.554 99.384,54.74 99.032,54.124 L97.162,54.784 C97.382,55.18 97.602,55.708 97.8,56.192 L92.124,56.192 L92.124,58.172 L96.942,58.172 L96.216,58.59 C96.37,58.81 96.546,59.052 96.7,59.294 L92.102,59.294 L92.102,60.9 L93.18,60.9 C92.982,62.088 92.564,63.034 91.75,63.65 C92.058,63.958 92.498,64.64 92.674,64.992 C93.268,64.552 93.708,64.002 94.06,63.364 C94.214,63.782 94.324,64.332 94.346,64.794 C94.83,64.794 95.314,64.772 95.6,64.728 C96.04,64.662 96.282,64.53 96.524,64.2 C96.854,63.76 96.942,62.594 96.986,59.954 L96.986,59.756 C97.14,60.064 97.294,60.306 97.382,60.548 L98.68,59.734 C98.482,59.294 98.086,58.678 97.668,58.172 L99.912,58.172 C99.428,58.942 98.636,59.998 97.932,60.702 L97.932,65.168 L99.626,65.168 Z M110.692,74.452 C111.352,74.078 111.55,73.462 111.55,72.296 L111.55,54.652 L109.416,54.652 L109.416,72.296 C109.416,72.582 109.306,72.67 109.02,72.692 C108.712,72.714 107.832,72.714 106.93,72.67 C107.216,73.33 107.502,74.298 107.568,74.914 C109.042,74.914 110.032,74.848 110.692,74.452 Z M108.074,69.326 L108.074,56.764 L106.028,56.764 L106.028,69.326 L108.074,69.326 Z M100.704,65.058 C100.968,64.882 101.452,64.706 103.432,64.2 C103.366,63.87 103.278,63.254 103.256,62.814 L102.134,63.056 L102.134,61.142 C103.3,60.812 104.576,60.394 105.588,59.91 L104.18,58.612 C103.344,59.162 101.892,59.69 100.616,60.042 L100.594,62.374 C100.594,63.166 100.352,63.408 100.088,63.54 C100.33,63.892 100.616,64.64 100.704,65.058 Z M104.532,64.53 L105.918,63.584 C105.61,62.836 104.928,61.67 104.268,60.834 L102.904,61.626 C103.564,62.506 104.224,63.738 104.532,64.53 Z M94.786,63.232 C94.632,63.232 94.412,63.21 94.126,63.188 C94.434,62.506 94.632,61.758 94.764,60.9 L95.402,60.9 C95.358,62.286 95.292,62.858 95.182,63.056 C95.072,63.21 94.962,63.232 94.786,63.232 Z M93.048,74.892 C94.17,74.1 94.808,73.044 95.204,71.922 L101.386,71.922 L101.386,74.826 L103.608,74.826 L103.608,65.476 L101.386,65.476 L101.386,66.598 L95.71,66.598 L95.71,65.476 L93.598,65.476 L93.598,68.358 C93.598,69.898 93.356,72.098 91.508,73.44 C91.97,73.77 92.696,74.474 93.048,74.892 Z M101.386,69.898 L95.644,69.898 C95.688,69.436 95.71,69.018 95.71,68.6 L101.386,68.6 L101.386,69.898 Z" id="已接種13價一劑" fill="#8DEEA1" fill-rule="nonzero"></path>
                    <g id="Group-53-Copy-7" transform="translate(183.000000, 35.000000)">
                        <path d="M5.58,24.26 C8.34,24.26 10.18,22.6 10.18,20.46 C10.18,18.46 8.98,17.36 7.7,16.62 L7.7,16.52 C8.58,15.84 9.66,14.52 9.66,12.98 C9.66,10.72 8.14,9.12 5.64,9.12 C3.34,9.12 1.62,10.6 1.62,12.84 C1.62,14.38 2.52,15.48 3.6,16.22 L3.6,16.32 C2.26,17.04 0.9,18.4 0.9,20.36 C0.9,22.62 2.88,24.26 5.58,24.26 Z M6.58,16.04 C4.86,15.36 3.28,14.6 3.28,12.84 C3.28,11.42 4.26,10.46 5.6,10.46 C7.18,10.46 8.1,11.64 8.1,13.08 C8.1,14.16 7.58,15.16 6.58,16.04 Z M5.62,22.9 C3.86,22.9 2.56,21.76 2.56,20.2 C2.56,18.8 3.38,17.64 4.56,16.88 C6.64,17.72 8.44,18.46 8.44,20.42 C8.44,21.88 7.3,22.9 5.62,22.9 Z M15.68,11.16 L17.08,10.7 C16.84,9.88 16.36,8.58 16.02,7.58 L14.68,7.94 C15,8.96 15.46,10.32 15.68,11.16 Z M29.6,22.54 C30.1,22.3 30.3,21.94 30.3,21.14 L30.3,8.08 L19.46,8.08 L19.46,13.24 C19.46,15.76 19.36,19.26 18.22,21.78 C18.56,21.92 19.16,22.28 19.42,22.5 C20.42,20.34 20.74,17.38 20.82,14.9 L28.92,14.9 L28.92,21.14 C28.92,21.42 28.8,21.5 28.54,21.52 C28.28,21.54 27.36,21.54 26.38,21.5 C26.56,21.86 26.76,22.42 26.8,22.78 C28.22,22.78 29.08,22.76 29.6,22.54 Z M24.2,10.96 L20.84,10.96 L20.84,9.32 L24.2,9.32 L24.2,10.96 Z M28.92,10.96 L25.46,10.96 L25.46,9.32 L28.92,9.32 L28.92,10.96 Z M28.92,13.82 L25.46,13.82 L25.46,12.04 L28.92,12.04 L28.92,13.82 Z M24.2,13.82 L20.84,13.82 L20.84,12.04 L24.2,12.04 L24.2,13.82 Z M14.1,25.62 C14.7,24.34 15.38,23.1 15.84,23.1 C16.28,23.1 17.02,23.78 17.82,24.26 C19.28,25.14 21.02,25.36 23.62,25.36 C25.98,25.36 29.72,25.24 31.2,25.14 C31.22,24.7 31.48,24 31.64,23.6 C29.44,23.84 26.22,24.02 23.66,24.02 C21.32,24.02 19.52,23.88 18.12,23.02 C17.4,22.58 16.96,22.2 16.54,21.98 C17.32,20.52 18.02,18.58 18.5,16.78 L17.8,16.48 L17.58,16.54 L16.08,16.54 C16.66,15.18 17.3,13.52 17.82,12.1 L13.32,12.1 L13.32,13.44 L15.98,13.44 C15.42,14.98 14.76,16.66 14.2,17.84 L16.8,17.84 C16.38,19.3 15.78,20.92 15.12,22.04 C14.5,22.44 13.8,23.26 13.1,24.26 L14.1,25.62 Z M27.42,20.6 L27.42,16.06 L22.12,16.06 L22.12,20.6 L27.42,20.6 Z M26.3,19.6 L23.2,19.6 L23.2,17.08 L26.3,17.08 L26.3,19.6 Z" id="8週" fill="#FFFFFF" fill-rule="nonzero"></path>
                        <polygon id="Triangle" fill="#8DEEA1" transform="translate(42.000000, 17.000000) rotate(-270.000000) translate(-42.000000, -17.000000) " points="42 11 49 23 35 23"></polygon>
                        <g id="Group-62-Copy-21"></g>
                    </g>
                    <g id="Group-53-Copy-8" transform="translate(355.000000, 35.000000)">
                        <path d="M5.22,24.26 C7.7,24.26 10.02,22.44 10.02,19.22 C10.02,16 8.04,14.56 5.6,14.56 C4.72,14.56 4.06,14.78 3.42,15.14 L3.78,10.9 L9.32,10.9 L9.32,9.34 L2.18,9.34 L1.72,16.2 L2.7,16.8 C3.54,16.24 4.16,15.94 5.14,15.94 C6.98,15.94 8.18,17.18 8.18,19.28 C8.18,21.42 6.78,22.74 5.06,22.74 C3.36,22.74 2.3,21.96 1.46,21.12 L0.56,22.32 C1.54,23.3 2.94,24.26 5.22,24.26 Z M24.16,25.54 L24.16,20.96 L31.4,20.96 L31.4,19.52 L24.16,19.52 L24.16,15.56 L30.02,15.56 L30.02,14.16 L24.16,14.16 L24.16,11.12 L30.48,11.12 L30.48,9.68 L18.56,9.68 C18.88,9 19.2,8.28 19.48,7.58 L17.98,7.22 C17.04,9.9 15.36,12.48 13.48,14.12 C13.86,14.32 14.48,14.82 14.76,15.06 C15.84,14.02 16.9,12.66 17.8,11.12 L22.66,11.12 L22.66,14.16 L16.7,14.16 L16.7,19.52 L13.42,19.52 L13.42,20.96 L22.66,20.96 L22.66,25.54 L24.16,25.54 Z M22.66,19.52 L18.18,19.52 L18.18,15.56 L22.66,15.56 L22.66,19.52 Z" id="5年" fill="#FFFFFF" fill-rule="nonzero"></path>
                        <polygon id="Triangle" fill="#8DEEA1" transform="translate(42.000000, 17.000000) rotate(-270.000000) translate(-42.000000, -17.000000) " points="42 11 49 23 35 23"></polygon>
                        <g id="Group-62-Copy-21"></g>
                    </g>
                    <g id="Group-51-Copy-6" transform="translate(255.000000, 13.000000)" fill-rule="nonzero">
                        <circle id="Oval-Copy-60" fill="url(#linearGradient-2)" opacity="0.23" cx="38" cy="38" r="38"></circle>
                        <path d="M23.858,47 L23.858,44.272 L20.316,44.272 C19.568,44.272 18.49,44.36 17.676,44.448 C20.646,41.544 23.088,38.376 23.088,35.428 C23.088,32.392 21.042,30.412 17.962,30.412 C15.74,30.412 14.288,31.292 12.792,32.876 L14.552,34.636 C15.366,33.734 16.356,32.964 17.544,32.964 C19.084,32.964 19.986,33.954 19.986,35.604 C19.986,38.112 17.368,41.17 12.946,45.13 L12.946,47 L23.858,47 Z M32.416,47.308 C35.518,47.308 38.136,45.57 38.136,42.578 C38.136,40.444 36.728,39.08 34.88,38.574 L34.88,38.464 C36.618,37.782 37.608,36.506 37.608,34.746 C37.608,31.952 35.474,30.412 32.328,30.412 C30.414,30.412 28.852,31.182 27.444,32.414 L29.094,34.394 C30.062,33.514 31.008,32.964 32.174,32.942 C33.56,32.964 34.352,33.712 34.352,34.988 C34.352,36.44 33.384,37.474 30.392,37.474 L30.392,39.806 C33.934,39.806 34.88,40.796 34.88,42.402 C34.88,43.854 33.758,44.668 32.108,44.668 C30.634,44.668 29.446,43.942 28.478,42.996 L26.96,45.042 C28.104,46.34 29.842,47.308 32.416,47.308 Z M46.188,48.892 L46.188,33.382 C46.826,31.974 47.398,30.522 47.86,29.114 L45.44,28.388 C44.472,31.622 42.844,34.834 41.084,36.88 C41.502,37.562 42.14,39.08 42.338,39.696 C42.8,39.168 43.262,38.552 43.702,37.892 L43.702,48.892 L46.188,48.892 Z M61.192,36.704 L61.192,32.172 L57.408,32.172 L57.408,31.226 L61.852,31.226 L61.852,29.334 L47.794,29.334 L47.794,31.226 L51.798,31.226 L51.798,32.172 L48.19,32.172 L48.19,36.704 L61.192,36.704 Z M55.296,32.172 L53.866,32.172 L53.866,31.226 L55.296,31.226 L55.296,32.172 Z M58.816,35.186 L57.408,35.186 L57.408,33.69 L58.816,33.69 L58.816,35.186 Z M55.296,35.186 L53.866,35.186 L53.866,33.69 L55.296,33.69 L55.296,35.186 Z M51.798,35.186 L50.456,35.186 L50.456,33.69 L51.798,33.69 L51.798,35.186 Z M60.114,48.98 L62.358,47.506 C61.258,46.956 59.41,46.23 57.716,45.658 L60.972,45.658 L60.972,37.452 L48.52,37.452 L48.52,45.658 L51.622,45.658 C50.39,46.274 48.586,46.846 46.958,47.154 C47.442,47.616 48.036,48.408 48.344,48.936 C50.28,48.496 52.502,47.704 53.932,46.692 L52.48,45.658 L56.792,45.658 L55.384,46.868 C57.188,47.484 59.058,48.342 60.114,48.98 Z M58.42,39.74 L50.94,39.74 L50.94,38.948 L58.42,38.948 L58.42,39.74 Z M58.42,41.94 L50.94,41.94 L50.94,41.148 L58.42,41.148 L58.42,41.94 Z M58.42,44.184 L50.94,44.184 L50.94,43.348 L58.42,43.348 L58.42,44.184 Z" id="23價" fill="#FFFFFF"></path>
                    </g>
                    <g id="Group-51-Copy-7" transform="translate(427.000000, 13.000000)" fill-rule="nonzero">
                        <circle id="Oval-Copy-60" fill="url(#linearGradient-2)" opacity="0.23" cx="38" cy="38" r="38"></circle>
                        <path d="M23.858,47 L23.858,44.272 L20.316,44.272 C19.568,44.272 18.49,44.36 17.676,44.448 C20.646,41.544 23.088,38.376 23.088,35.428 C23.088,32.392 21.042,30.412 17.962,30.412 C15.74,30.412 14.288,31.292 12.792,32.876 L14.552,34.636 C15.366,33.734 16.356,32.964 17.544,32.964 C19.084,32.964 19.986,33.954 19.986,35.604 C19.986,38.112 17.368,41.17 12.946,45.13 L12.946,47 L23.858,47 Z M32.416,47.308 C35.518,47.308 38.136,45.57 38.136,42.578 C38.136,40.444 36.728,39.08 34.88,38.574 L34.88,38.464 C36.618,37.782 37.608,36.506 37.608,34.746 C37.608,31.952 35.474,30.412 32.328,30.412 C30.414,30.412 28.852,31.182 27.444,32.414 L29.094,34.394 C30.062,33.514 31.008,32.964 32.174,32.942 C33.56,32.964 34.352,33.712 34.352,34.988 C34.352,36.44 33.384,37.474 30.392,37.474 L30.392,39.806 C33.934,39.806 34.88,40.796 34.88,42.402 C34.88,43.854 33.758,44.668 32.108,44.668 C30.634,44.668 29.446,43.942 28.478,42.996 L26.96,45.042 C28.104,46.34 29.842,47.308 32.416,47.308 Z M46.188,48.892 L46.188,33.382 C46.826,31.974 47.398,30.522 47.86,29.114 L45.44,28.388 C44.472,31.622 42.844,34.834 41.084,36.88 C41.502,37.562 42.14,39.08 42.338,39.696 C42.8,39.168 43.262,38.552 43.702,37.892 L43.702,48.892 L46.188,48.892 Z M61.192,36.704 L61.192,32.172 L57.408,32.172 L57.408,31.226 L61.852,31.226 L61.852,29.334 L47.794,29.334 L47.794,31.226 L51.798,31.226 L51.798,32.172 L48.19,32.172 L48.19,36.704 L61.192,36.704 Z M55.296,32.172 L53.866,32.172 L53.866,31.226 L55.296,31.226 L55.296,32.172 Z M58.816,35.186 L57.408,35.186 L57.408,33.69 L58.816,33.69 L58.816,35.186 Z M55.296,35.186 L53.866,35.186 L53.866,33.69 L55.296,33.69 L55.296,35.186 Z M51.798,35.186 L50.456,35.186 L50.456,33.69 L51.798,33.69 L51.798,35.186 Z M60.114,48.98 L62.358,47.506 C61.258,46.956 59.41,46.23 57.716,45.658 L60.972,45.658 L60.972,37.452 L48.52,37.452 L48.52,45.658 L51.622,45.658 C50.39,46.274 48.586,46.846 46.958,47.154 C47.442,47.616 48.036,48.408 48.344,48.936 C50.28,48.496 52.502,47.704 53.932,46.692 L52.48,45.658 L56.792,45.658 L55.384,46.868 C57.188,47.484 59.058,48.342 60.114,48.98 Z M58.42,39.74 L50.94,39.74 L50.94,38.948 L58.42,38.948 L58.42,39.74 Z M58.42,41.94 L50.94,41.94 L50.94,41.148 L58.42,41.148 L58.42,41.94 Z M58.42,44.184 L50.94,44.184 L50.94,43.348 L58.42,43.348 L58.42,44.184 Z" id="23價" fill="#FFFFFF"></path>
                    </g>
                </g>
                <g id="Group-98-Copy" transform="translate(0.000000, 533.000000)">
                    <rect id="Rectangle-Copy-17" fill="#1F1E57" opacity="0.568940662" x="0" y="0" width="135" height="133"></rect>
                    <path d="M49.752,48.298 C53.756,48.298 54.724,47.088 55.23,42.952 C54.46,42.798 53.272,42.358 52.59,41.94 C52.26,45.13 51.908,45.702 49.642,45.702 L42.448,45.702 C40.028,45.702 39.632,45.504 39.632,44.14 L39.632,39.454 L49.62,39.454 L49.62,40.488 L52.348,40.488 L52.348,29.598 L36.046,29.598 L36.046,32.194 L49.62,32.194 L49.62,36.88 L39.632,36.88 L39.632,33.888 L36.926,33.888 L36.926,44.14 C36.926,47.462 38.224,48.298 42.47,48.298 L49.752,48.298 Z M64.514,48.914 C67.352,48.408 69.53,47.726 71.202,46.692 C72.808,47.44 74.26,48.188 75.25,48.848 L76.944,46.934 C75.954,46.318 74.612,45.658 73.16,45.02 C73.93,44.118 74.524,43.04 74.986,41.764 L77.296,41.764 L77.296,39.564 L75.602,39.564 C75.668,39.256 75.734,38.948 75.756,38.64 L73.27,38.244 C73.204,38.706 73.116,39.146 73.006,39.564 L70.278,39.564 C70.542,39.036 70.784,38.508 71.004,38.002 L69.002,37.584 L76.966,37.584 L76.966,35.362 L73.754,35.362 C74.15,34.68 74.59,33.91 75.03,33.118 L73.028,32.524 L76.548,32.524 L76.548,30.324 L72.566,30.324 C72.28,29.642 71.884,28.872 71.51,28.256 L68.606,28.762 C68.848,29.224 69.112,29.774 69.31,30.324 L64.514,30.324 L64.514,32.524 L67.704,32.524 L66.054,33.096 C66.472,33.778 66.934,34.702 67.154,35.362 L64.008,35.362 L64.008,37.584 L68.54,37.584 C68.276,38.222 67.968,38.882 67.616,39.564 L63.766,39.564 L63.766,41.764 L66.34,41.764 C65.79,42.622 65.218,43.436 64.712,44.096 C65.878,44.492 67.154,44.954 68.43,45.482 C67.088,46.054 65.438,46.45 63.37,46.692 C63.832,47.242 64.338,48.166 64.514,48.914 Z M60.708,48.276 C61.39,47.858 61.588,47.22 61.588,46.01 L61.588,40.686 C62.292,40.51 62.952,40.29 63.634,40.092 L63.282,37.694 L61.588,38.178 L61.588,34.944 L63.546,34.944 L63.546,32.524 L61.588,32.524 L61.588,28.388 L59.19,28.388 L59.19,32.524 L56.88,32.524 L56.88,34.944 L59.19,34.944 L59.19,38.816 C58.178,39.08 57.276,39.322 56.528,39.498 L57.1,42.006 L59.19,41.39 L59.19,45.988 C59.19,46.274 59.102,46.362 58.838,46.362 C58.574,46.384 57.826,46.384 57.034,46.34 C57.342,47.044 57.65,48.122 57.694,48.76 C59.102,48.782 60.07,48.694 60.708,48.276 Z M71.312,35.362 L67.968,35.362 L69.552,34.79 C69.354,34.152 68.87,33.228 68.364,32.524 L72.544,32.524 C72.236,33.404 71.73,34.57 71.312,35.362 Z M70.718,44.008 C69.86,43.678 69.024,43.37 68.21,43.084 C68.496,42.666 68.782,42.226 69.068,41.764 L72.258,41.764 C71.862,42.644 71.356,43.392 70.718,44.008 Z M84.644,48.892 L84.644,40.312 C85.172,41.104 85.7,41.962 85.964,42.534 L87.416,40.554 L87.416,42.49 L91.64,42.49 L91.64,43.502 L87.262,43.502 L87.262,45.482 L91.64,45.482 L91.64,46.472 L86.03,46.472 L86.03,48.54 L99.34,48.54 L99.34,46.472 L94.148,46.472 L94.148,45.482 L98.526,45.482 L98.526,43.502 L94.148,43.502 L94.148,42.49 L98.526,42.49 L98.526,35.12 L94.148,35.12 L94.148,34.218 L98.878,34.218 L98.878,32.194 L94.148,32.194 L94.148,31.094 C95.842,30.962 97.47,30.764 98.834,30.5 L97.338,28.542 C94.764,29.048 90.518,29.334 86.91,29.444 C87.152,29.972 87.438,30.83 87.482,31.402 C88.802,31.38 90.21,31.336 91.64,31.27 L91.64,32.194 L86.69,32.194 L86.69,34.218 L91.64,34.218 L91.64,35.12 L87.416,35.12 L87.416,40.444 C86.932,39.872 85.216,38.09 84.644,37.606 L84.644,36.968 L86.998,36.968 L86.998,34.526 L84.644,34.526 L84.644,31.424 C85.59,31.182 86.47,30.896 87.262,30.588 L85.524,28.586 C83.83,29.356 81.124,29.994 78.704,30.412 C78.99,30.94 79.298,31.82 79.43,32.414 C80.288,32.304 81.19,32.15 82.114,31.974 L82.114,34.526 L78.968,34.526 L78.968,36.968 L81.762,36.968 C80.948,39.102 79.738,41.434 78.506,42.864 C78.924,43.524 79.474,44.602 79.716,45.35 C80.574,44.25 81.41,42.688 82.114,40.994 L82.114,48.892 L84.644,48.892 Z M91.64,38.024 L89.682,38.024 L89.682,36.946 L91.64,36.946 L91.64,38.024 Z M96.172,38.024 L94.148,38.024 L94.148,36.946 L96.172,36.946 L96.172,38.024 Z M91.64,40.686 L89.682,40.686 L89.682,39.564 L91.64,39.564 L91.64,40.686 Z M96.172,40.686 L94.148,40.686 L94.148,39.564 L96.172,39.564 L96.172,40.686 Z M32.636,75 L32.636,72.382 L29.578,72.382 L29.578,58.72 L27.18,58.72 C26.146,59.358 25.024,59.776 23.396,60.084 L23.396,62.086 L26.344,62.086 L26.344,72.382 L22.846,72.382 L22.846,75 L32.636,75 Z M40.028,75.308 C43.13,75.308 45.748,73.57 45.748,70.578 C45.748,68.444 44.34,67.08 42.492,66.574 L42.492,66.464 C44.23,65.782 45.22,64.506 45.22,62.746 C45.22,59.952 43.086,58.412 39.94,58.412 C38.026,58.412 36.464,59.182 35.056,60.414 L36.706,62.394 C37.674,61.514 38.62,60.964 39.786,60.942 C41.172,60.964 41.964,61.712 41.964,62.988 C41.964,64.44 40.996,65.474 38.004,65.474 L38.004,67.806 C41.546,67.806 42.492,68.796 42.492,70.402 C42.492,71.854 41.37,72.668 39.72,72.668 C38.246,72.668 37.058,71.942 36.09,70.996 L34.572,73.042 C35.716,74.34 37.454,75.308 40.028,75.308 Z M52.37,76.892 L52.37,61.382 C53.008,59.974 53.58,58.522 54.042,57.114 L51.622,56.388 C50.654,59.622 49.026,62.834 47.266,64.88 C47.684,65.562 48.322,67.08 48.52,67.696 C48.982,67.168 49.444,66.552 49.884,65.892 L49.884,76.892 L52.37,76.892 Z M67.374,64.704 L67.374,60.172 L63.59,60.172 L63.59,59.226 L68.034,59.226 L68.034,57.334 L53.976,57.334 L53.976,59.226 L57.98,59.226 L57.98,60.172 L54.372,60.172 L54.372,64.704 L67.374,64.704 Z M61.478,60.172 L60.048,60.172 L60.048,59.226 L61.478,59.226 L61.478,60.172 Z M64.998,63.186 L63.59,63.186 L63.59,61.69 L64.998,61.69 L64.998,63.186 Z M61.478,63.186 L60.048,63.186 L60.048,61.69 L61.478,61.69 L61.478,63.186 Z M57.98,63.186 L56.638,63.186 L56.638,61.69 L57.98,61.69 L57.98,63.186 Z M66.296,76.98 L68.54,75.506 C67.44,74.956 65.592,74.23 63.898,73.658 L67.154,73.658 L67.154,65.452 L54.702,65.452 L54.702,73.658 L57.804,73.658 C56.572,74.274 54.768,74.846 53.14,75.154 C53.624,75.616 54.218,76.408 54.526,76.936 C56.462,76.496 58.684,75.704 60.114,74.692 L58.662,73.658 L62.974,73.658 L61.566,74.868 C63.37,75.484 65.24,76.342 66.296,76.98 Z M64.602,67.74 L57.122,67.74 L57.122,66.948 L64.602,66.948 L64.602,67.74 Z M64.602,69.94 L57.122,69.94 L57.122,69.148 L64.602,69.148 L64.602,69.94 Z M64.602,72.184 L57.122,72.184 L57.122,71.348 L64.602,71.348 L64.602,72.184 Z M90.1,67.85 L90.1,65.012 L69.86,65.012 L69.86,67.85 L90.1,67.85 Z M99.626,67.168 L99.626,62.724 C100.286,62.13 101.012,61.404 101.672,60.7 L100.22,60.172 L105.192,60.172 L105.192,58.192 L100.044,58.192 C99.802,57.554 99.384,56.74 99.032,56.124 L97.162,56.784 C97.382,57.18 97.602,57.708 97.8,58.192 L92.124,58.192 L92.124,60.172 L96.942,60.172 L96.216,60.59 C96.37,60.81 96.546,61.052 96.7,61.294 L92.102,61.294 L92.102,62.9 L93.18,62.9 C92.982,64.088 92.564,65.034 91.75,65.65 C92.058,65.958 92.498,66.64 92.674,66.992 C93.268,66.552 93.708,66.002 94.06,65.364 C94.214,65.782 94.324,66.332 94.346,66.794 C94.83,66.794 95.314,66.772 95.6,66.728 C96.04,66.662 96.282,66.53 96.524,66.2 C96.854,65.76 96.942,64.594 96.986,61.954 L96.986,61.756 C97.14,62.064 97.294,62.306 97.382,62.548 L98.68,61.734 C98.482,61.294 98.086,60.678 97.668,60.172 L99.912,60.172 C99.428,60.942 98.636,61.998 97.932,62.702 L97.932,67.168 L99.626,67.168 Z M110.692,76.452 C111.352,76.078 111.55,75.462 111.55,74.296 L111.55,56.652 L109.416,56.652 L109.416,74.296 C109.416,74.582 109.306,74.67 109.02,74.692 C108.712,74.714 107.832,74.714 106.93,74.67 C107.216,75.33 107.502,76.298 107.568,76.914 C109.042,76.914 110.032,76.848 110.692,76.452 Z M108.074,71.326 L108.074,58.764 L106.028,58.764 L106.028,71.326 L108.074,71.326 Z M100.704,67.058 C100.968,66.882 101.452,66.706 103.432,66.2 C103.366,65.87 103.278,65.254 103.256,64.814 L102.134,65.056 L102.134,63.142 C103.3,62.812 104.576,62.394 105.588,61.91 L104.18,60.612 C103.344,61.162 101.892,61.69 100.616,62.042 L100.594,64.374 C100.594,65.166 100.352,65.408 100.088,65.54 C100.33,65.892 100.616,66.64 100.704,67.058 Z M104.532,66.53 L105.918,65.584 C105.61,64.836 104.928,63.67 104.268,62.834 L102.904,63.626 C103.564,64.506 104.224,65.738 104.532,66.53 Z M94.786,65.232 C94.632,65.232 94.412,65.21 94.126,65.188 C94.434,64.506 94.632,63.758 94.764,62.9 L95.402,62.9 C95.358,64.286 95.292,64.858 95.182,65.056 C95.072,65.21 94.962,65.232 94.786,65.232 Z M93.048,76.892 C94.17,76.1 94.808,75.044 95.204,73.922 L101.386,73.922 L101.386,76.826 L103.608,76.826 L103.608,67.476 L101.386,67.476 L101.386,68.598 L95.71,68.598 L95.71,67.476 L93.598,67.476 L93.598,70.358 C93.598,71.898 93.356,74.098 91.508,75.44 C91.97,75.77 92.696,76.474 93.048,76.892 Z M101.386,71.898 L95.644,71.898 C95.688,71.436 95.71,71.018 95.71,70.6 L101.386,70.6 L101.386,71.898 Z M32.9,103 L32.9,100.272 L29.358,100.272 C28.61,100.272 27.532,100.36 26.718,100.448 C29.688,97.544 32.13,94.376 32.13,91.428 C32.13,88.392 30.084,86.412 27.004,86.412 C24.782,86.412 23.33,87.292 21.834,88.876 L23.594,90.636 C24.408,89.734 25.398,88.964 26.586,88.964 C28.126,88.964 29.028,89.954 29.028,91.604 C29.028,94.112 26.41,97.17 21.988,101.13 L21.988,103 L32.9,103 Z M40.028,103.308 C43.13,103.308 45.748,101.57 45.748,98.578 C45.748,96.444 44.34,95.08 42.492,94.574 L42.492,94.464 C44.23,93.782 45.22,92.506 45.22,90.746 C45.22,87.952 43.086,86.412 39.94,86.412 C38.026,86.412 36.464,87.182 35.056,88.414 L36.706,90.394 C37.674,89.514 38.62,88.964 39.786,88.942 C41.172,88.964 41.964,89.712 41.964,90.988 C41.964,92.44 40.996,93.474 38.004,93.474 L38.004,95.806 C41.546,95.806 42.492,96.796 42.492,98.402 C42.492,99.854 41.37,100.668 39.72,100.668 C38.246,100.668 37.058,99.942 36.09,98.996 L34.572,101.042 C35.716,102.34 37.454,103.308 40.028,103.308 Z M52.37,104.892 L52.37,89.382 C53.008,87.974 53.58,86.522 54.042,85.114 L51.622,84.388 C50.654,87.622 49.026,90.834 47.266,92.88 C47.684,93.562 48.322,95.08 48.52,95.696 C48.982,95.168 49.444,94.552 49.884,93.892 L49.884,104.892 L52.37,104.892 Z M67.374,92.704 L67.374,88.172 L63.59,88.172 L63.59,87.226 L68.034,87.226 L68.034,85.334 L53.976,85.334 L53.976,87.226 L57.98,87.226 L57.98,88.172 L54.372,88.172 L54.372,92.704 L67.374,92.704 Z M61.478,88.172 L60.048,88.172 L60.048,87.226 L61.478,87.226 L61.478,88.172 Z M64.998,91.186 L63.59,91.186 L63.59,89.69 L64.998,89.69 L64.998,91.186 Z M61.478,91.186 L60.048,91.186 L60.048,89.69 L61.478,89.69 L61.478,91.186 Z M57.98,91.186 L56.638,91.186 L56.638,89.69 L57.98,89.69 L57.98,91.186 Z M66.296,104.98 L68.54,103.506 C67.44,102.956 65.592,102.23 63.898,101.658 L67.154,101.658 L67.154,93.452 L54.702,93.452 L54.702,101.658 L57.804,101.658 C56.572,102.274 54.768,102.846 53.14,103.154 C53.624,103.616 54.218,104.408 54.526,104.936 C56.462,104.496 58.684,103.704 60.114,102.692 L58.662,101.658 L62.974,101.658 L61.566,102.868 C63.37,103.484 65.24,104.342 66.296,104.98 Z M64.602,95.74 L57.122,95.74 L57.122,94.948 L64.602,94.948 L64.602,95.74 Z M64.602,97.94 L57.122,97.94 L57.122,97.148 L64.602,97.148 L64.602,97.94 Z M64.602,100.184 L57.122,100.184 L57.122,99.348 L64.602,99.348 L64.602,100.184 Z M87.9,90.262 L87.9,87.38 L72.016,87.38 L72.016,90.262 L87.9,90.262 Z M89.726,103.088 L89.726,100.074 L70.19,100.074 L70.19,103.088 L89.726,103.088 Z M99.626,95.168 L99.626,90.724 C100.286,90.13 101.012,89.404 101.672,88.7 L100.22,88.172 L105.192,88.172 L105.192,86.192 L100.044,86.192 C99.802,85.554 99.384,84.74 99.032,84.124 L97.162,84.784 C97.382,85.18 97.602,85.708 97.8,86.192 L92.124,86.192 L92.124,88.172 L96.942,88.172 L96.216,88.59 C96.37,88.81 96.546,89.052 96.7,89.294 L92.102,89.294 L92.102,90.9 L93.18,90.9 C92.982,92.088 92.564,93.034 91.75,93.65 C92.058,93.958 92.498,94.64 92.674,94.992 C93.268,94.552 93.708,94.002 94.06,93.364 C94.214,93.782 94.324,94.332 94.346,94.794 C94.83,94.794 95.314,94.772 95.6,94.728 C96.04,94.662 96.282,94.53 96.524,94.2 C96.854,93.76 96.942,92.594 96.986,89.954 L96.986,89.756 C97.14,90.064 97.294,90.306 97.382,90.548 L98.68,89.734 C98.482,89.294 98.086,88.678 97.668,88.172 L99.912,88.172 C99.428,88.942 98.636,89.998 97.932,90.702 L97.932,95.168 L99.626,95.168 Z M110.692,104.452 C111.352,104.078 111.55,103.462 111.55,102.296 L111.55,84.652 L109.416,84.652 L109.416,102.296 C109.416,102.582 109.306,102.67 109.02,102.692 C108.712,102.714 107.832,102.714 106.93,102.67 C107.216,103.33 107.502,104.298 107.568,104.914 C109.042,104.914 110.032,104.848 110.692,104.452 Z M108.074,99.326 L108.074,86.764 L106.028,86.764 L106.028,99.326 L108.074,99.326 Z M100.704,95.058 C100.968,94.882 101.452,94.706 103.432,94.2 C103.366,93.87 103.278,93.254 103.256,92.814 L102.134,93.056 L102.134,91.142 C103.3,90.812 104.576,90.394 105.588,89.91 L104.18,88.612 C103.344,89.162 101.892,89.69 100.616,90.042 L100.594,92.374 C100.594,93.166 100.352,93.408 100.088,93.54 C100.33,93.892 100.616,94.64 100.704,95.058 Z M104.532,94.53 L105.918,93.584 C105.61,92.836 104.928,91.67 104.268,90.834 L102.904,91.626 C103.564,92.506 104.224,93.738 104.532,94.53 Z M94.786,93.232 C94.632,93.232 94.412,93.21 94.126,93.188 C94.434,92.506 94.632,91.758 94.764,90.9 L95.402,90.9 C95.358,92.286 95.292,92.858 95.182,93.056 C95.072,93.21 94.962,93.232 94.786,93.232 Z M93.048,104.892 C94.17,104.1 94.808,103.044 95.204,101.922 L101.386,101.922 L101.386,104.826 L103.608,104.826 L103.608,95.476 L101.386,95.476 L101.386,96.598 L95.71,96.598 L95.71,95.476 L93.598,95.476 L93.598,98.358 C93.598,99.898 93.356,102.098 91.508,103.44 C91.97,103.77 92.696,104.474 93.048,104.892 Z M101.386,99.898 L95.644,99.898 C95.688,99.436 95.71,99.018 95.71,98.6 L101.386,98.6 L101.386,99.898 Z" id="已接種13價一劑23價二劑" fill="#8DEEA1" fill-rule="nonzero"></path>
                    <g id="Group-49" transform="translate(255.000000, 32.000000)" fill-rule="nonzero">
                        <circle id="Oval-Copy-60" fill="url(#linearGradient-2)" opacity="0.23" cx="38" cy="38" r="38"></circle>
                        <path d="M23.858,47 L23.858,44.272 L20.316,44.272 C19.568,44.272 18.49,44.36 17.676,44.448 C20.646,41.544 23.088,38.376 23.088,35.428 C23.088,32.392 21.042,30.412 17.962,30.412 C15.74,30.412 14.288,31.292 12.792,32.876 L14.552,34.636 C15.366,33.734 16.356,32.964 17.544,32.964 C19.084,32.964 19.986,33.954 19.986,35.604 C19.986,38.112 17.368,41.17 12.946,45.13 L12.946,47 L23.858,47 Z M32.416,47.308 C35.518,47.308 38.136,45.57 38.136,42.578 C38.136,40.444 36.728,39.08 34.88,38.574 L34.88,38.464 C36.618,37.782 37.608,36.506 37.608,34.746 C37.608,31.952 35.474,30.412 32.328,30.412 C30.414,30.412 28.852,31.182 27.444,32.414 L29.094,34.394 C30.062,33.514 31.008,32.964 32.174,32.942 C33.56,32.964 34.352,33.712 34.352,34.988 C34.352,36.44 33.384,37.474 30.392,37.474 L30.392,39.806 C33.934,39.806 34.88,40.796 34.88,42.402 C34.88,43.854 33.758,44.668 32.108,44.668 C30.634,44.668 29.446,43.942 28.478,42.996 L26.96,45.042 C28.104,46.34 29.842,47.308 32.416,47.308 Z M46.188,48.892 L46.188,33.382 C46.826,31.974 47.398,30.522 47.86,29.114 L45.44,28.388 C44.472,31.622 42.844,34.834 41.084,36.88 C41.502,37.562 42.14,39.08 42.338,39.696 C42.8,39.168 43.262,38.552 43.702,37.892 L43.702,48.892 L46.188,48.892 Z M61.192,36.704 L61.192,32.172 L57.408,32.172 L57.408,31.226 L61.852,31.226 L61.852,29.334 L47.794,29.334 L47.794,31.226 L51.798,31.226 L51.798,32.172 L48.19,32.172 L48.19,36.704 L61.192,36.704 Z M55.296,32.172 L53.866,32.172 L53.866,31.226 L55.296,31.226 L55.296,32.172 Z M58.816,35.186 L57.408,35.186 L57.408,33.69 L58.816,33.69 L58.816,35.186 Z M55.296,35.186 L53.866,35.186 L53.866,33.69 L55.296,33.69 L55.296,35.186 Z M51.798,35.186 L50.456,35.186 L50.456,33.69 L51.798,33.69 L51.798,35.186 Z M60.114,48.98 L62.358,47.506 C61.258,46.956 59.41,46.23 57.716,45.658 L60.972,45.658 L60.972,37.452 L48.52,37.452 L48.52,45.658 L51.622,45.658 C50.39,46.274 48.586,46.846 46.958,47.154 C47.442,47.616 48.036,48.408 48.344,48.936 C50.28,48.496 52.502,47.704 53.932,46.692 L52.48,45.658 L56.792,45.658 L55.384,46.868 C57.188,47.484 59.058,48.342 60.114,48.98 Z M58.42,39.74 L50.94,39.74 L50.94,38.948 L58.42,38.948 L58.42,39.74 Z M58.42,41.94 L50.94,41.94 L50.94,41.148 L58.42,41.148 L58.42,41.94 Z M58.42,44.184 L50.94,44.184 L50.94,43.348 L58.42,43.348 L58.42,44.184 Z" id="23價" fill="#FFFFFF"></path>
                    </g>
                    <g id="Group-81" transform="translate(183.000000, 54.000000)">
                        <path d="M5.22,24.26 C7.7,24.26 10.02,22.44 10.02,19.22 C10.02,16 8.04,14.56 5.6,14.56 C4.72,14.56 4.06,14.78 3.42,15.14 L3.78,10.9 L9.32,10.9 L9.32,9.34 L2.18,9.34 L1.72,16.2 L2.7,16.8 C3.54,16.24 4.16,15.94 5.14,15.94 C6.98,15.94 8.18,17.18 8.18,19.28 C8.18,21.42 6.78,22.74 5.06,22.74 C3.36,22.74 2.3,21.96 1.46,21.12 L0.56,22.32 C1.54,23.3 2.94,24.26 5.22,24.26 Z M24.16,25.54 L24.16,20.96 L31.4,20.96 L31.4,19.52 L24.16,19.52 L24.16,15.56 L30.02,15.56 L30.02,14.16 L24.16,14.16 L24.16,11.12 L30.48,11.12 L30.48,9.68 L18.56,9.68 C18.88,9 19.2,8.28 19.48,7.58 L17.98,7.22 C17.04,9.9 15.36,12.48 13.48,14.12 C13.86,14.32 14.48,14.82 14.76,15.06 C15.84,14.02 16.9,12.66 17.8,11.12 L22.66,11.12 L22.66,14.16 L16.7,14.16 L16.7,19.52 L13.42,19.52 L13.42,20.96 L22.66,20.96 L22.66,25.54 L24.16,25.54 Z M22.66,19.52 L18.18,19.52 L18.18,15.56 L22.66,15.56 L22.66,19.52 Z" id="5年" fill="#FFFFFF" fill-rule="nonzero"></path>
                        <polygon id="Triangle" fill="#8DEEA1" transform="translate(42.000000, 17.000000) rotate(-270.000000) translate(-42.000000, -17.000000) " points="42 11 49 23 35 23"></polygon>
                    </g>
                </g>
                <g id="Group-53-Copy-11" transform="translate(183.000000, 580.000000)">
                    <g id="Group-62-Copy-21"></g>
                </g>
            </g>
        </g>
    </g>
</svg>