<?xml version="1.0" encoding="UTF-8"?>
<svg width="237px" height="210px" viewBox="0 0 237 210" version="1.1" xmlns="http://www.w3.org/2000/svg" xmlns:xlink="http://www.w3.org/1999/xlink">
    <!-- Generator: Sketch 63 (92445) - https://sketch.com -->
    <title>people-2</title>
    <desc>Created with Sketch.</desc>
    <defs>
        <linearGradient x1="50%" y1="0%" x2="50%" y2="100%" id="linearGradient-1">
            <stop stop-color="#85EFD8" offset="0%"></stop>
            <stop stop-color="#AFD981" offset="100%"></stop>
        </linearGradient>
    </defs>
    <g id="Page-1" stroke="none" stroke-width="1" fill="none" fill-rule="evenodd">
        <g id="Desktop-HD" transform="translate(-331.000000, -6220.000000)" fill-rule="nonzero">
            <g id="people-2" transform="translate(330.000000, 6220.000000)">
                <g id="_群組_" fill="url(#linearGradient-1)" opacity="0.7">
                    <path d="M237.835522,118.41766 C237.793242,63.4817188 199.973917,15.788368 146.493211,3.22757741 C93.0125051,-9.33321314 37.9155468,16.5372773 13.421765,65.7105832 C-11.0720167,114.883889 1.46994652,174.446094 43.7134043,209.566596 L195.147234,209.566596 C222.249022,187.063404 237.900435,153.644018 237.835522,118.41766 Z" id="_路徑_"></path>
                </g>
                <g id="_群組_2" transform="translate(54.170213, 15.191489)">
                    <path d="M77.8817021,149.686809 L92.4148936,116.113617 L90.0855319,115.379362 C90.0855319,115.379362 123.785319,121.96234 128.21617,193.564894 L22.787234,193.564894 L22.787234,184.829787 C31.1297073,183.130286 39.1639668,180.1676 46.6125532,176.044043 C68.5642553,176.980851 77.6031915,174.271702 79.8059574,171.461277 C82.0087234,168.650851 66.1082979,167.384894 66.1082979,167.384894 C66.1082979,167.384894 81.8568085,165.232766 82.9455319,161.25766 C84.0342553,157.282553 65.2221277,160.472766 65.2221277,160.472766 C65.2221277,160.472766 83.5531915,154.649362 81.5023404,150.902128 C80.9959574,150.015957 79.6540426,149.686809 77.8817021,149.686809" id="_路徑_2" fill="#BF9D5A"></path>
                    <path d="M58.7657447,118.11383 C43.2957447,114.341277 33.4212766,106.340426 31.3704255,78.4893617 C29.3195745,50.6382979 39.1180851,36.206383 39.1180851,36.206383 C59.64921,31.2478875 81.320067,35.2323805 98.7446809,47.1695745 C97.0027321,43.1711713 94.7195258,39.431143 91.9591489,36.0544681 C91.9591489,36.0544681 105.074468,39.8523404 110.340851,45.4478723 L112.872766,72.3368085 C113.520072,79.0595729 112.654968,85.8419893 110.340851,92.1870213 L107.808936,99.3270213 C106.080657,104.16533 102.874131,108.337357 98.6434043,111.25234 C92.82,115.151489 83.0214894,118.974681 67.1970213,118.645532 C64.4632589,118.619641 61.733037,118.442134 59.0189362,118.11383" id="_路徑_3" fill="#F7E2D6"></path>
                    <path d="M20.2553191,22.3568085 C33.8010638,18.8121277 39.1180851,23.8506383 39.1180851,23.8506383 C39.8776596,5.11446809 65.1208511,1.06340426 65.1208511,1.06340426 C74.5498948,1.77503818 83.854109,3.6545915 92.82,6.65893617 C92.82,6.65893617 142.698723,23.0151064 115.024894,81.4770213 C114.280582,81.3354902 113.527862,81.2424575 112.771489,81.1985106 C113.062771,78.2517907 113.062771,75.2835285 112.771489,72.3368085 L110.416809,45.5744681 C105.150426,39.9789362 92.0351064,36.1810638 92.0351064,36.1810638 C94.7589641,39.52313 97.0161315,43.219774 98.7446809,47.1695745 C63.8295745,22.787234 25.9268085,40.2574468 25.9268085,40.2574468 L22.3568085,71.2987234 C21.9642302,74.6039155 21.9642302,77.9439568 22.3568085,81.2491489 C21.6409701,81.1827276 20.9205193,81.1827276 20.2046809,81.2491489 L20.2046809,81.2491489 C20.2046809,81.2491489 2.10148936,38.2065957 20.2046809,22.2808511" id="_路徑_4" fill="#725944"></path>
                    <path d="M101.529787,63.4497872 C101.529787,63.4497872 104.061702,56.2591489 107.429149,62.7155319 C107.441697,62.9601228 107.441697,63.2051963 107.429149,63.4497872 C107.606383,66.1589362 107.277234,69.8048936 104.162979,69.9568085 C100.618298,70.1593617 101.048723,65.8297872 101.529787,63.4497872 Z" id="_路徑_5" fill="#FFFFFF"></path>
                    <polygon id="_路徑_6" fill="#371608" points="66.5893617 84.4393617 63.247234 88.9461702 66.5893617 91.7819149"></polygon>
                    <g id="_群組_3">
                        <path d="M37.5229787,79.5021277 C37.5229787,84.3766722 40.4593335,88.7712377 44.9628255,90.6366452 C49.4663174,92.5020526 54.6500609,91.4709419 58.0968844,88.0241184 C61.5437079,84.5772949 62.5748186,79.3935514 60.7094111,74.8900595 C58.8440037,70.3865676 54.4494382,67.4502128 49.5748936,67.4502128 C42.9245823,67.4641402 37.5369061,72.8518163 37.5229787,79.5021277 L37.5229787,79.5021277 Z M41.9791489,81.6795745 L53.3474468,74.2610638 C53.5947452,74.1147332 53.9127715,74.1805318 54.0817021,74.4129787 C54.1667586,74.5324655 54.1986805,74.6817799 54.1699164,74.8256003 C54.1411524,74.9694207 54.0542573,75.0949718 53.9297872,75.1725532 L52.4612766,76.1346809 C52.6638298,77.4006383 53.1195745,81.5782979 50.8661702,83.1480851 C50.2848165,83.5436256 49.5942282,83.7472606 48.8912766,83.7304255 C47.0276068,83.5499949 45.2409523,82.8963408 43.7008511,81.8314894 L42.5614894,82.5910638 C42.3097885,82.7518727 41.9753833,82.6781902 41.8145745,82.4264894 C41.6537656,82.1747885 41.7274481,81.8403833 41.9791489,81.6795745 L41.9791489,81.6795745 Z" id="_複合路徑_" fill="#F7E2D6"></path>
                        <path d="M50.2585106,82.2619149 C51.676383,81.2744681 51.676383,78.4640426 51.4738298,76.7929787 L44.713617,81.1731915 C47.2708511,82.616383 49.1697872,82.9961702 50.2585106,82.2619149 Z" id="_路徑_7" fill="#371608"></path>
                        <path d="M51.853617,59.6265957 C48.9349927,62.6834003 45.0911657,64.6942913 40.9157447,65.3487234 C43.4185556,66.5815212 46.3274976,66.6919873 48.9165957,65.6525532 C50.8223908,64.2452761 51.9192842,61.9947536 51.853617,59.6265957 Z" id="_路徑_8" fill="#725944"></path>
                        <path d="M82.6670213,59.322766 C82.8351341,61.8697351 84.2084227,64.1836323 86.363617,65.5512766 C88.5741261,66.4216372 91.0446878,66.3484353 93.1997872,65.3487234 C89.2284972,64.2806744 85.6003979,62.2049829 82.6670213,59.322766 Z" id="_路徑_9" fill="#725944"></path>
                        <path d="M113.05,83.1480851 L113.05,83.1480851 C112.593486,86.2757727 111.81283,89.3474829 110.720638,92.313617 L108.87234,97.3774468 C111.049059,98.1602892 113.430516,98.1602892 115.607234,97.3774468 C118.040664,96.2115243 119.876407,94.0820623 120.671064,91.5034043 C121.694047,89.4971048 121.64654,87.1122656 120.544468,85.1482979 C118.69617,82.3885106 114.265319,81.9580851 113.252553,81.8821277 C113.176596,82.2365957 113.100638,82.6923404 113.05,83.1480851 Z" id="_路徑_10" fill="#F7E2D6"></path>
                        <path d="M84.6165957,82.2619149 C85.7053191,82.9961702 87.6295745,82.616383 90.1614894,81.1731915 L83.5531915,76.7929787 C83.2240426,78.4893617 83.1987234,81.2744681 84.6165957,82.2619149 Z" id="_路徑_11" fill="#371608"></path>
                        <path d="M21.926383,81.7808511 C19.4529618,81.6517137 17.0242516,82.4763877 15.1408511,84.0848936 C13.9951461,85.5644505 13.6193443,87.4998298 14.1280851,89.3006383 C15.5206383,96.39 23.8,97.4787234 26.3319149,97.6306383 L23.5974468,89.1993617 C22.8311336,86.7783671 22.272098,84.2965879 21.926383,81.7808511 L21.926383,81.7808511 Z" id="_路徑_12" fill="#F7E2D6"></path>
                        <path d="M73.1217021,79.5021277 C73.1217021,84.3766722 76.0580569,88.7712377 80.5615489,90.6366452 C85.0650408,92.5020526 90.2487843,91.4709419 93.6956078,88.0241184 C97.1424313,84.5772949 98.173542,79.3935514 96.3081345,74.8900595 C94.4427271,70.3865676 90.0481616,67.4502128 85.173617,67.4502128 C78.5175282,67.4502128 73.1217021,72.8460389 73.1217021,79.5021277 L73.1217021,79.5021277 Z M93.0478723,82.4138298 C92.9588802,82.568022 92.7954542,82.6641549 92.6174468,82.6670213 C92.518326,82.6965734 92.4127378,82.6965734 92.313617,82.6670213 L91.1742553,81.9074468 C89.674446,82.9592051 87.931986,83.6126276 86.1104255,83.806383 C85.4079209,83.8198666 84.7183285,83.6165253 84.1355319,83.2240426 C81.8821277,81.6542553 82.3378723,77.4765957 82.5404255,76.2106383 L81.0212766,75.1725532 C80.8968065,75.0949718 80.8099115,74.9694207 80.7811474,74.8256003 C80.7523833,74.6817799 80.7843052,74.5324655 80.8693617,74.4129787 C81.0306744,74.1690124 81.3587401,74.1011367 81.603617,74.2610638 L92.9719149,81.6795745 C93.0831164,81.764294 93.1543472,81.8912157 93.1687322,82.0302705 C93.1831172,82.1693254 93.1393764,82.3081407 93.0478723,82.4138298 Z" id="_複合路徑_2" fill="#F7E2D6"></path>
                        <path d="M53.6765957,138.394468 L57.3985106,147.002979 C61.9812766,143.939362 68.7414894,140.141489 72.1595745,142.091064 C72.9439867,142.461423 73.4461686,143.249159 73.4508511,144.116596 C73.4508511,146.37 69.6276596,149.180426 66.462766,151.281915 C70.0430958,150.134181 73.7503101,149.42845 77.5019149,149.180426 L82.0087234,138.799574 L67.2982979,129.254255 L53.6765957,138.394468 Z" id="_路徑_13" fill="#FFFFFF"></path>
                        <path d="M15.7738298,162.321064 C15.4746346,162.351006 15.2056788,162.138083 15.1661702,161.84 C15.1520811,161.698849 15.1949783,161.557921 15.2853212,161.448559 C15.3756641,161.339196 15.5059615,161.270468 15.647234,161.25766 C19.0510724,160.874036 22.4318342,160.307759 25.7748936,159.561277 C25.8443367,156.457046 26.1234833,153.361056 26.6104255,150.294468 C26.6621066,149.99553 26.9435089,149.79292 27.2434043,149.838723 C27.3850642,149.857488 27.5132087,149.932482 27.5989471,150.0468 C27.6846855,150.161118 27.7208002,150.305135 27.6991489,150.446383 C27.2267531,153.387285 26.9476441,156.355989 26.863617,159.333404 C31.3174618,158.315677 35.7126144,157.056297 40.0295745,155.560851 C40.5106383,155.130426 44.0553191,151.687021 44.5110638,141.508723 C44.5110638,139.584468 44.9161702,137.027234 46.5112766,137.001915 L46.5112766,137.001915 C49.1951064,137.001915 52.8410638,145.76234 53.6006383,149.661489 C54.2589362,149.180426 55.2970213,148.395532 56.5629787,147.509362 L43.346383,117.126383 C35.2189362,121.759787 10.887234,137.381702 4.20297872,163.055319 C1.67106383,172.322128 2.68382979,178.702553 6.88680851,181.994043 C14.4825532,187.918723 31.7248936,183.108085 45.7770213,175.664255 C42.0921227,169.982961 40.0021126,163.415607 39.7257447,156.649574 C31.954823,159.347641 23.9295124,161.247926 15.7738298,162.321064 L15.7738298,162.321064 Z" id="_路徑_14" fill="#BF9D5A"></path>
                        <path d="M66.5893617,128.418723 L61.8293617,119 C56.3650102,118.608043 50.9627875,117.59725 45.726383,115.987021 L44.2578723,116.771915 L53.1702128,137.381702 L66.5893617,128.418723 Z" id="_路徑_15" fill="#FFFFFF"></path>
                        <path d="M72.6912766,119 L67.9819149,128.317447 L82.4391489,137.685532 L91.6806383,116.468085 C90.8451064,116.164255 90.2880851,116.01234 90.0855319,115.961702 C84.4700006,117.830665 78.60787,118.854618 72.6912766,119 L72.6912766,119 Z" id="_路徑_16" fill="#FFFFFF"></path>
                        <path d="M66.9185106,119.177234 C66.6653191,119.177234 65.2474468,119.177234 63.0953191,119.177234 L67.2729787,127.532553 L71.4506383,119.30383 L66.9185106,119.30383 L66.9185106,119.177234 Z" id="_路徑_17" fill="#F7E2D6"></path>
                        <path d="M77.8817021,150.24383 L77.8817021,150.24383 C72.4981998,150.737065 67.2031385,151.937393 62.1331915,153.81383 C61.8605587,153.917095 61.5556161,153.781565 61.4495745,153.51 C61.3899191,153.386132 61.3831942,153.243331 61.4309448,153.114404 C61.4786954,152.985478 61.5768164,152.881509 61.702766,152.826383 C65.8044681,150.674255 72.3368085,146.420638 72.3874468,144.116596 C72.3874468,143.863404 72.3874468,143.458298 71.6278723,143.053191 C67.7793617,140.825106 57.2465957,148.117021 53.5246809,151.256596 C53.3523379,151.356098 53.1400026,151.356098 52.9676596,151.256596 C52.7870254,151.171205 52.6627792,150.999172 52.6385106,150.800851 C52.36,146.851064 48.106383,138.141277 46.4859574,138.141277 L46.4859574,138.141277 C46.2074468,138.141277 45.6757447,138.875532 45.5491489,141.61 C45.0934043,151.73766 41.7006383,155.484894 40.7891489,156.345745 C40.9719687,163.175158 43.0686273,169.816039 46.8404255,175.51234 C72.8685106,176.601064 78.2614894,172.423404 79.2995745,171.132128 C79.2995745,170.980213 79.2995745,170.904255 79.2995745,170.878936 C78.7678723,169.638298 72.083617,168.347021 65.9057447,167.916596 C65.6495705,167.861028 65.4668041,167.634366 65.4668041,167.372234 C65.4668041,167.110102 65.6495705,166.883441 65.9057447,166.827872 C71.8557447,166.01766 81.5782979,163.764255 82.3125532,161.105745 C82.398487,160.956903 82.398487,160.773523 82.3125532,160.624681 C80.8693617,159.029574 71.0708511,160.017021 65.2474468,161.004468 C64.9634202,161.053541 64.6888694,160.877828 64.6144681,160.599362 C64.5501161,160.320548 64.7179599,160.040808 64.9942553,159.966383 C69.0959574,158.675106 80.0085106,154.725319 81.1225532,151.914894 C81.2353539,151.692043 81.2353539,151.428808 81.1225532,151.205957 C80.742766,150.52234 79.5780851,150.269149 78.0082979,150.269149 L77.8817021,150.24383 Z" id="_路徑_18" fill="#F7E2D6"></path>
                        <path d="M103.985745,70.5138298 L104.238936,70.5138298 C105.292318,70.4797372 106.275901,69.9786666 106.922766,69.1465957 C108.948298,66.462766 107.68234,60.7406383 107.631702,60.4874468 C107.608125,60.3461781 107.525828,60.2215005 107.405195,60.1442958 C107.284563,60.0670911 107.136879,60.0445808 106.998723,60.0823404 C106.856444,60.1067749 106.730216,60.1880126 106.64904,60.3073896 C106.567863,60.4267666 106.538717,60.5740199 106.568298,60.7153191 C106.568298,60.7153191 107.783617,66.1842553 106.036596,68.4882979 C105.600957,69.072497 104.917019,69.4191507 104.188298,69.4251064 C103.504311,69.5185774 102.819191,69.2616577 102.365319,68.7414894 C101.175319,67.1970213 102.010851,63.4497872 102.365319,62.1331915 C102.436187,61.8485679 102.284308,61.5556594 102.010851,61.4495745 C101.873256,61.4022244 101.722266,61.4133361 101.593085,61.480319 C101.463904,61.5473019 101.36782,61.6643023 101.327234,61.8040426 C101.327234,62.0065957 99.6561702,67.0957447 101.327234,69.3997872 C101.966767,70.1984395 102.967901,70.6179623 103.985745,70.5138298 Z" id="_路徑_19" fill="#D4E5EF"></path>
                        <path d="M92.7440426,115.708511 L92.7440426,115.708511 L92.5668085,115.708511 L91.8325532,115.43 C94.2644279,114.432664 96.5818304,113.176343 98.7446809,111.682766 C103.080916,108.720561 106.361937,104.455234 108.112766,99.5042553 L108.517872,98.4155319 C109.729308,98.8052767 110.992586,99.0101325 112.265106,99.0231915 C113.55953,99.0381749 114.843345,98.7883048 116.03766,98.2889362 C118.755294,97.0089634 120.81232,94.6488935 121.709149,91.7819149 C122.8675,89.4506524 122.781958,86.6943094 121.481277,84.4393617 C120.086131,82.6292941 118.061936,81.4093551 115.809787,81.0212766 C124.772766,61.7787234 126.342553,45.042766 120.417872,31.2944681 C112.417021,12.6595745 93.1744681,6.20319149 92.9719149,6.12723404 C64.1587234,-3.08893617 49.5242553,0.379787234 42.333617,4.91191489 C38.0388151,7.42757968 34.9160144,11.5427572 33.6491489,16.3561702 C26.295056,16.75837 19.6016273,20.7290481 15.7231915,26.9902128 C5.59553191,44.2325532 17.4702128,75.7802128 19.4957447,80.8693617 C17.5752326,81.1332948 15.7953686,82.0232268 14.4319149,83.4012766 C13.0529772,85.1230684 12.5822846,87.4012207 13.1659574,89.5285106 C14.6851064,97.8078723 24.6102128,98.7446809 26.686383,98.7446809 L27.2687234,100.592979 C29.8006383,108.340638 36.9153191,112.847447 44.3085106,115.480638 C38.2319149,118.746809 10.3808511,135.027021 3.08893617,162.928723 C0.557021277,172.651277 1.59510638,179.411489 6.17787234,183.006809 C9.13843427,185.071573 12.7004241,186.095645 16.3055319,185.918511 C18.2306746,185.90195 20.1518696,185.741145 22.0529787,185.437447 L22.0529787,193.564894 C22.0529787,193.858545 22.2910299,194.096596 22.5846809,194.096596 C22.8783318,194.096596 23.116383,193.858545 23.116383,193.564894 L23.116383,185.234894 C31.3082033,183.509239 39.2001407,180.582823 46.5365957,176.550426 C49.3723404,176.550426 52.0308511,176.72766 54.562766,176.72766 C68.3617021,176.72766 77.35,174.980638 80.0338298,171.66383 C80.3530464,171.293528 80.4407869,170.776834 80.2617021,170.321915 C79.5274468,168.625532 74.0331915,167.638085 69.9568085,167.131702 C74.8687234,166.194894 82.4391489,164.270638 83.2746809,161.25766 C83.4431884,160.744864 83.3167962,160.180961 82.9455319,159.789149 C81.4517021,158.143404 75.1978723,158.497872 70.4125532,159.029574 C75.0206383,157.307872 80.9959574,154.624043 81.9580851,152.193404 C82.2239403,151.677033 82.2239403,151.064031 81.9580851,150.54766 C81.1586521,149.565415 79.9295663,149.035963 78.6665957,149.129787 L92.6934043,116.771915 C100.719574,120.291277 124.06383,135.280213 127.684468,193.615532 C127.697994,193.899251 127.932129,194.121915 128.21617,194.121915 L128.21617,194.121915 C128.361969,194.115642 128.498782,194.049719 128.594541,193.939596 C128.690299,193.829473 128.736587,193.684832 128.722553,193.539574 C125.076596,133.912979 100.744894,119 92.7440426,115.708511 Z M120.595106,85.0470213 C121.697179,87.010989 121.744685,89.3958282 120.721702,91.4021277 C119.927045,93.9807857 118.091302,96.1102477 115.657872,97.2761702 C113.481154,98.0590126 111.099697,98.0590126 108.922979,97.2761702 L110.771277,92.2123404 C111.863468,89.2462063 112.644124,86.1744961 113.100638,83.0468085 L113.100638,83.0468085 C113.100638,82.5910638 113.100638,82.1353191 113.277872,81.6795745 C114.24,81.8568085 118.670851,82.287234 120.519149,85.0470213 L120.595106,85.0470213 Z M97.2255319,79.5021277 C97.2255319,84.3766722 94.2891771,88.7712377 89.7856852,90.6366452 C85.2821932,92.5020526 80.0984498,91.4709419 76.6516263,88.0241184 C73.2048028,84.5772949 72.1736921,79.3935514 74.0390995,74.8900595 C75.904507,70.3865676 80.2990725,67.4502128 85.173617,67.4502128 C91.8239284,67.4641402 97.2116045,72.8518163 97.2255319,79.5021277 L97.2255319,79.5021277 Z M86.363617,65.5512766 C84.2084227,64.1836323 82.8351341,61.8697351 82.6670213,59.322766 C85.6003979,62.2049829 89.2284972,64.2806744 93.1997872,65.3487234 C91.0446878,66.3484353 88.5741261,66.4216372 86.363617,65.5512766 L86.363617,65.5512766 Z M89.8323404,67.2223404 C91.8115295,67.0365107 93.732385,66.450779 95.4785106,65.5006383 C95.6802807,65.3697937 95.7808695,65.1283806 95.7317021,64.8929787 C95.657331,64.6595404 95.4448052,64.4976159 95.2,64.4878723 C88.7182979,64.3359574 82.3885106,57.4997872 82.3125532,57.4238298 L82.3125532,57.4238298 C82.2457245,57.4101884 82.1768287,57.4101884 82.11,57.4238298 L82.11,57.4238298 C82.0188122,57.3990835 81.9226772,57.3990835 81.8314894,57.4238298 L81.8314894,57.4238298 C81.7494749,57.4515263 81.6784888,57.5047658 81.6289362,57.5757447 C80.5846366,59.2600892 79.2468889,60.743617 77.6791489,61.9559574 C77.8807821,59.8008012 78.4190179,57.6905751 79.2742553,55.7021277 C79.379428,55.4225762 79.2453922,55.1098261 78.9704255,54.9931915 C78.6908741,54.8880188 78.3781239,55.0220546 78.2614894,55.2970213 C76.4638298,59.7785106 76.0334043,62.3357447 76.9702128,62.892766 C77.099976,62.972268 77.2484954,63.0159502 77.4006383,63.0193617 C78.1348936,63.0193617 79.2489362,62.1331915 81.5529787,59.1961702 C81.7332951,62.1056068 83.2470712,64.7687314 85.6546809,66.4121277 L85.173617,66.4121277 C79.4702339,66.4206044 74.4208402,70.1003246 72.6659574,75.5270213 C69.5772207,73.0298813 65.1879716,72.9464751 62.0065957,75.3244681 C60.2278035,70.064496 55.329437,66.4946719 49.7774468,66.4121277 C51.9295745,64.943617 53.043617,62.0825532 53.0182979,57.8542553 C53.0230185,57.5959993 52.8414509,57.3717099 52.5878723,57.3225532 C52.3449912,57.2605417 52.0917893,57.3765925 51.9802128,57.6010638 C51.9802128,57.6010638 49.2710638,63.07 39.0421277,64.6397872 C38.8047526,64.6510022 38.6111329,64.8338653 38.586383,65.0702128 C38.5372866,65.3049205 38.6513653,65.5434486 38.8648936,65.6525532 C40.6170277,66.5590053 42.5082012,67.1665769 44.4604255,67.4502128 C40.4360182,69.1722113 37.5252825,72.7750763 36.6874468,77.0714894 C31.8028865,77.4113413 27.0909307,79.0168966 23.0151064,81.7302128 C22.5845815,78.3002655 22.5845815,74.8299472 23.0151064,71.4 L26.5344681,40.6878723 C29.927234,39.1434043 65.8297872,24.6608511 98.4914894,47.6 C98.6845404,47.7521707 98.9567362,47.7521707 99.1497872,47.6 C99.3472963,47.4538124 99.4113489,47.1869262 99.3017021,46.9670213 C97.7707828,43.5078895 95.8872018,40.215865 93.6808511,37.1431915 C97.3774468,38.3838298 105.859362,41.5487234 109.885106,45.7010638 L112.265106,72.3874468 C112.552042,75.6175518 112.484119,78.8693748 112.062553,82.0846809 C107.945171,79.1321269 103.089652,77.379232 98.0357447,77.0208511 C97.1805098,72.5554598 94.0777797,68.849421 89.8323404,67.2223404 L89.8323404,67.2223404 Z M49.5748936,67.4502128 C54.4494382,67.4502128 58.8440037,70.3865676 60.7094111,74.8900595 C62.5748186,79.3935514 61.5437079,84.5772949 58.0968844,88.0241184 C54.6500609,91.4709419 49.4663174,92.5020526 44.9628255,90.6366452 C40.4593335,88.7712377 37.5229787,84.3766722 37.5229787,79.5021277 C37.5229787,72.8460389 42.9188048,67.4502128 49.5748936,67.4502128 Z M40.9157447,65.3487234 C45.0911657,64.6942913 48.9349927,62.6834003 51.853617,59.6265957 C51.9192842,61.9947536 50.8223908,64.2452761 48.9165957,65.6525532 C46.3274976,66.6919873 43.4185556,66.5815212 40.9157447,65.3487234 L40.9157447,65.3487234 Z M16.6346809,27.547234 C20.1287234,21.6731915 26.0280851,18.2551064 34.1555319,17.4195745 C34.3986393,17.3899341 34.5938673,17.2049812 34.6365957,16.9638298 C35.7165366,12.2629638 38.7079772,8.22543658 42.8906383,5.82340426 C49.9040426,1.41787234 64.2346809,-1.92425532 92.642766,7.16531915 C92.82,7.16531915 111.606809,13.5710638 119.430426,31.7755319 C125.228511,45.2959574 123.658723,61.8040426 114.721064,80.8693617 L113.328511,80.6921277 C113.594289,77.8964444 113.594289,75.0818535 113.328511,72.2861702 L111.024468,46.7138298 L120.063404,54.3095745 C120.165184,54.3882259 120.289296,54.4325516 120.417872,54.4361702 C120.515782,54.4731033 120.623793,54.4731033 120.721702,54.4361702 C120.921482,54.2929776 121.00379,54.0357648 120.924255,53.8031915 C115.581915,38.6117021 102.365319,26.5597872 102.238723,26.4331915 C102.021523,26.2175566 101.67103,26.2175566 101.45383,26.4331915 C101.35176,26.5331988 101.294242,26.6700814 101.294242,26.8129787 C101.294242,26.9558761 101.35176,27.0927587 101.45383,27.192766 C108.942284,34.2807468 114.964268,42.7717436 119.177234,52.182766 L110.745957,45.0174468 C105.403617,39.3965957 92.6934043,35.6746809 92.136383,35.4974468 C91.9009811,35.4482794 91.659568,35.5488682 91.5287234,35.7506383 C91.3765527,35.9436893 91.3765527,36.2158851 91.5287234,36.4089362 C93.916902,39.1813691 95.91844,42.2645894 97.4787234,45.5744681 C63.0953191,22.787234 26.0787234,39.5738298 25.6989362,39.7510638 C25.5188588,39.8236774 25.3926823,39.9886775 25.3697872,40.1814894 L21.8251064,71.1974468 C21.4833124,74.344648 21.4833124,77.5196073 21.8251064,80.6668085 C21.4202937,80.6449933 21.0145999,80.6449933 20.6097872,80.6668085 C19.0906383,76.9448936 6.60829787,44.4857447 16.6346809,27.547234 Z M14.102766,89.3006383 C13.5940252,87.4998298 13.969827,85.5644505 15.1155319,84.0848936 C16.9989324,82.4763877 19.4276427,81.6517137 21.9010638,81.7808511 C22.2467788,84.2965879 22.8058144,86.7783671 23.5721277,89.1993617 L26.3065957,97.6306383 C23.8,97.4787234 15.5206383,96.39 14.1280851,89.3006383 L14.102766,89.3006383 Z M28.2814894,100.26383 L24.6102128,88.8702128 C23.9804172,86.9087221 23.4980114,84.9029297 23.1670213,82.8695745 C27.1393948,80.1775794 31.7309186,78.5396164 36.5102128,78.1095745 C36.4843,78.5733972 36.4843,79.0383049 36.5102128,79.5021277 C36.2981466,84.3298364 38.75291,88.8844086 42.9020576,91.3615677 C47.0512053,93.8387268 52.2251777,93.8387268 56.3743254,91.3615677 C60.523473,88.8844086 62.9782364,84.3298364 62.7661702,79.5021277 C62.7710543,78.4522012 62.6434509,77.4058534 62.386383,76.3878723 C65.3274457,73.8729166 69.6890719,73.9710532 72.5140426,76.6157447 C72.3017505,77.5633886 72.1914068,78.5310177 72.1848936,79.5021277 C72.1848936,86.7595018 78.0681578,92.642766 85.3255319,92.642766 C92.582906,92.642766 98.4661702,86.7595018 98.4661702,79.5021277 C98.4913532,79.0467309 98.4913532,78.5902904 98.4661702,78.1348936 C100.668936,78.362766 107.960851,79.4008511 112.138511,83.3759574 C111.689039,86.321708 110.942539,89.2143958 109.910426,92.0097872 L107.378511,99.1497872 C105.694314,103.880375 102.557035,107.957065 98.4155319,110.796596 C93.1491489,114.315957 83.5278723,118.39234 67.2729787,118.11383 C66.6146809,118.088511 34.4087234,118.215106 28.3068085,100.26383 L28.2814894,100.26383 Z M71.3240426,119.177234 L67.146383,127.405957 L63.0953191,119 C65.2474468,119 66.6653191,119 66.9185106,119 L71.4506383,119 L71.3240426,119.177234 Z M45.726383,115.961702 C50.9617868,117.580516 56.3640293,118.599807 61.8293617,119 L66.5893617,128.444043 L53.1702128,137.381702 L44.207234,116.746596 L45.726383,115.961702 Z M6.83617021,182.145957 C2.63319149,178.854468 1.77234043,172.474043 4.15234043,163.207234 C10.8365957,137.609574 35.1682979,121.911702 43.2957447,117.278298 L56.5123404,147.661277 C55.246383,148.547447 54.2082979,149.33234 53.55,149.813404 C52.7904255,145.78766 49.1444681,137.15383 46.4606383,137.15383 L46.4606383,137.15383 C44.8655319,137.15383 44.5617021,139.685745 44.4604255,141.660638 C44.0046809,151.788298 40.46,155.28234 39.9789362,155.712766 C35.6619761,157.208212 31.2668235,158.467592 26.8129787,159.485319 C26.8970058,156.507904 27.1761148,153.539199 27.6485106,150.598298 C27.6701619,150.45705 27.6340472,150.313033 27.5483088,150.198715 C27.4625704,150.084397 27.334426,150.009402 27.192766,149.990638 C26.8928706,149.944835 26.6114683,150.147444 26.5597872,150.446383 C26.0733484,153.445523 25.7857707,156.473547 25.6989362,159.510638 C22.3558767,160.25712 18.9751149,160.823398 15.5712766,161.207021 C15.4300041,161.21983 15.2997066,161.288558 15.2093638,161.39792 C15.1190209,161.507283 15.0761236,161.648211 15.0902128,161.789362 C15.1297214,162.087445 15.3986772,162.300368 15.6978723,162.270426 C23.8310658,161.243266 31.8391273,159.393947 39.5991489,156.750851 C39.8755168,163.516884 41.965527,170.084238 45.6504255,175.765532 C31.6742553,183.26 14.3559574,188.070638 6.83617021,182.145957 Z M81.0212766,151.155319 C81.1519464,151.391651 81.1519464,151.678561 81.0212766,151.914894 C79.907234,154.725319 68.9946809,158.675106 64.8929787,159.966383 C64.6166833,160.040808 64.4488395,160.320548 64.5131915,160.599362 C64.5875928,160.877828 64.8621436,161.053541 65.1461702,161.004468 C70.9695745,160.017021 80.7680851,159.029574 82.2112766,160.624681 C82.2972104,160.773523 82.2972104,160.956903 82.2112766,161.105745 C81.4770213,163.63766 71.7544681,166.01766 65.8044681,166.827872 C65.5482939,166.883441 65.3655275,167.110102 65.3655275,167.372234 C65.3655275,167.634366 65.5482939,167.861028 65.8044681,167.916596 C71.9823404,168.39766 78.6665957,169.638298 79.1982979,170.878936 C79.1982979,170.878936 79.1982979,170.878936 79.1982979,171.132128 C78.1602128,172.423404 72.767234,176.601064 46.7391489,175.51234 C42.9673507,169.816039 40.8706921,163.175158 40.6878723,156.345745 C41.5993617,155.484894 44.9921277,151.71234 45.4478723,141.61 C45.5744681,138.875532 46.1061702,138.141277 46.3846809,138.141277 L46.3846809,138.141277 C48.0051064,138.141277 52.2587234,146.95234 52.537234,150.800851 C52.5615026,150.999172 52.6857488,151.171205 52.866383,151.256596 C53.038726,151.356098 53.2510613,151.356098 53.4234043,151.256596 C57.1453191,148.218298 67.6780851,140.825106 71.5265957,143.053191 C72.2102128,143.458298 72.2861702,143.863404 72.2861702,144.116596 C72.2861702,146.420638 65.7031915,150.674255 61.6014894,152.826383 C61.4755398,152.881509 61.3774188,152.985478 61.3296682,153.114404 C61.2819176,153.243331 61.2886425,153.386132 61.3482979,153.51 C61.4543395,153.781565 61.7592822,153.917095 62.0319149,153.81383 C67.1018619,151.937393 72.3969232,150.737065 77.7804255,150.24383 L77.7804255,150.24383 C79.4768085,150.218511 80.6414894,150.471702 81.0212766,151.155319 Z M77.5019149,149.180426 C73.7503101,149.42845 70.0430958,150.134181 66.462766,151.281915 C69.6276596,149.231064 73.4255319,146.37 73.4255319,144.116596 C73.4208494,143.249159 72.9186675,142.461423 72.1342553,142.091064 C68.7161702,140.141489 62.0065957,143.939362 57.3731915,147.002979 L53.6512766,138.394468 L67.2729787,129.254255 L81.9834043,138.799574 L77.5019149,149.180426 Z M82.5657447,137.786809 L68.1085106,128.418723 L72.6912766,119 C78.6142601,118.813764 84.4765538,117.747116 90.0855319,115.835106 C90.2880851,115.835106 90.8451064,116.03766 91.6806383,116.341489 L82.5657447,137.786809 Z" id="_複合路徑_3" fill="#371608"></path>
                        <path d="M105.150426,149.838723 C105.005549,149.850226 104.872599,149.923422 104.785399,150.039688 C104.6982,150.155954 104.665158,150.304081 104.694681,150.446383 C104.694681,150.775532 109.17617,182.702979 108.543191,193.488936 C108.54068,193.783084 108.757927,194.032919 109.049574,194.071277 L109.049574,194.071277 C109.328722,194.059712 109.556117,193.843145 109.581277,193.564894 C110.214255,182.601702 105.758085,150.52234 105.707447,150.24383 C105.656336,149.983872 105.413485,149.807253 105.150426,149.838723 L105.150426,149.838723 Z" id="_路徑_20" fill="#371608"></path>
                        <path d="M81.2491489,111.404255 C81.4035112,111.406792 81.5513541,111.34211 81.6542553,111.227021 C81.7563248,111.127014 81.8138435,110.990131 81.8138435,110.847234 C81.8138435,110.704337 81.7563248,110.567454 81.6542553,110.467447 C75.9574468,105.403617 70.1340426,102.871702 64.437234,103.352766 C59.59779,103.753193 55.0826386,105.947557 51.7776596,109.505319 C51.6755901,109.605326 51.6180714,109.742209 51.6180714,109.885106 C51.6180714,110.028004 51.6755901,110.164886 51.7776596,110.264894 C51.9948595,110.480529 52.3453532,110.480529 52.5625532,110.264894 C55.685966,106.940983 59.9199783,104.878028 64.4625532,104.466809 C69.8808511,104.13766 75.4004255,106.416383 80.8693617,111.328298 C80.9835831,111.396207 81.1175948,111.42301 81.2491489,111.404255 Z" id="_路徑_21" fill="#371608"></path>
                        <path d="M42.2829787,82.6670213 C42.3739907,82.6930533 42.4704774,82.6930533 42.5614894,82.6670213 L43.7008511,81.9074468 C45.2409523,82.9722982 47.0276068,83.6259524 48.8912766,83.806383 C49.5942282,83.823218 50.2848165,83.619583 50.8661702,83.2240426 C53.1195745,81.6542553 52.6638298,77.4765957 52.4612766,76.2106383 L53.9297872,75.2485106 C54.0542573,75.1709292 54.1411524,75.0453782 54.1699164,74.9015578 C54.1986805,74.7577373 54.1667586,74.6084229 54.0817021,74.4889362 C53.9127715,74.2564892 53.5947452,74.1906907 53.3474468,74.3370213 L41.9791489,81.7555319 C41.7686048,81.8810737 41.6711754,82.1342862 41.7432651,82.368578 C41.8153549,82.6028698 42.0382781,82.7575122 42.2829787,82.7429787 L42.2829787,82.6670213 Z M51.4738298,76.7929787 C51.676383,78.4640426 51.676383,81.2744681 50.2585106,82.2619149 C48.8406383,83.2493617 47.2708511,82.616383 44.713617,81.1731915 L51.4738298,76.7929787 Z" id="_複合路徑_4" fill="#371608"></path>
                        <path d="M80.7934043,74.4129787 C80.7083478,74.5324655 80.6764259,74.6817799 80.7051899,74.8256003 C80.733954,74.9694207 80.820849,75.0949718 80.9453191,75.1725532 L82.4138298,76.1346809 C82.2112766,77.4006383 81.7555319,81.5782979 84.0089362,83.1480851 C84.5917328,83.5405678 85.2813251,83.7439092 85.9838298,83.7304255 C87.8053902,83.5366701 89.5478502,82.8832476 91.0476596,81.8314894 L92.1870213,82.5910638 C92.2861421,82.6206159 92.3917303,82.6206159 92.4908511,82.5910638 C92.6688585,82.5881975 92.8322844,82.4920646 92.9212766,82.3378723 C93.0053459,82.2224672 93.0367886,82.0769338 93.0078607,81.9371154 C92.9789328,81.797297 92.8923227,81.6761883 92.7693617,81.603617 L81.5276596,74.2610638 C81.2827827,74.1011367 80.954717,74.1690124 80.7934043,74.4129787 Z M83.3253191,76.7929787 L90.0602128,81.1731915 C87.5282979,82.616383 85.6040426,82.9961702 84.5153191,82.2619149 C83.4265957,81.5276596 83.2240426,78.4893617 83.5531915,76.7929787 L83.3253191,76.7929787 Z" id="_複合路徑_5" fill="#371608"></path>
                    </g>
                    <path d="M70.5897872,138.723617 C70.6000457,140.046915 69.8108059,141.245628 68.5911698,141.759157 C67.3715337,142.272685 65.9625632,141.999529 65.023188,141.067436 C64.0838128,140.135343 63.799701,138.728541 64.3037227,137.504945 C64.8077443,136.28135 66.000279,135.482766 67.323617,135.482766 C69.1176314,135.482766 70.5758801,136.929657 70.5897872,138.723617 L70.5897872,138.723617 Z" id="_路徑_22" fill="#371608"></path>
                </g>
            </g>
        </g>
    </g>
</svg>