<?xml version="1.0" encoding="UTF-8"?>
<svg width="238px" height="210px" viewBox="0 0 238 210" version="1.1" xmlns="http://www.w3.org/2000/svg" xmlns:xlink="http://www.w3.org/1999/xlink">
    <!-- Generator: Sketch 63 (92445) - https://sketch.com -->
    <title>peopel-1</title>
    <desc>Created with Sketch.</desc>
    <defs>
        <linearGradient x1="50%" y1="0%" x2="50%" y2="100%" id="linearGradient-1">
            <stop stop-color="#85EFD8" offset="0%"></stop>
            <stop stop-color="#AFD981" offset="100%"></stop>
        </linearGradient>
    </defs>
    <g id="Page-1" stroke="none" stroke-width="1" fill="none" fill-rule="evenodd">
        <g id="Desktop-HD" transform="translate(-327.000000, -5788.000000)">
            <g id="peopel-1" transform="translate(327.000000, 5788.000000)">
                <g id="_群組_" fill="url(#linearGradient-1)" fill-rule="nonzero" opacity="0.769661458">
                    <path d="M237.496633,118.333735 C237.454353,63.4367282 199.635028,15.7771785 146.154322,3.22528997 C92.6736162,-9.32659854 37.5766579,16.525557 13.0828762,65.664013 C-11.4109056,114.802469 1.13105763,174.322461 43.3745154,209.418072 L194.808345,209.418072 C221.910134,186.930829 237.561546,153.535128 237.496633,118.333735 Z" id="_路徑_"></path>
                </g>
                <g id="_群組_2" transform="translate(40.000000, 19.000000)">
                    <g id="_群組_3" transform="translate(77.304627, 98.030610)" fill="#ECD560" fill-rule="nonzero">
                        <path d="M65.4115208,92.6404103 C68.4044938,26.3637244 41.036546,3.15802723 36.6992716,0.349049708 C29.7199386,10.6629318 19.5044126,18.3715696 7.65728814,22.2641356 L7.65728814,22.2641356 C9.5572173,29.9757037 10.6536953,37.8624458 10.9292671,45.7988121 L10.9292671,45.7988121 L30.6372332,48.8355446 C31.5364442,48.9926345 32.413794,48.4631073 32.6917316,47.5955455 C33.7823912,44.305752 36.0144388,35.271473 35.0252359,18.0633224 C35.0252359,18.0633224 38.0435731,15.532712 38.0435731,21.884544 C38.0435731,27.5278052 39.463967,43.6984055 35.329606,50.3792169 C34.5604376,51.623101 33.1286224,52.2976879 31.6771645,52.100032 L10.8531745,49.1392178 L10.8531745,49.1392178 L2.88882272,48.0257493 L1.39233623,56.0730903 L10.7009895,57.6673748 L10.7009895,58.1481908 C8.96049987,70.0641498 5.54500247,81.6758101 0.555318369,92.6404103" id="_路徑_2"></path>
                    </g>
                    <path d="M124.834402,66.2156022 C124.834402,66.2156022 123.439372,28.8637929 94.8032158,16.691557 L97.6186395,13.8572734 L93.9154695,14.970742 L92.3936189,11.326663 L91.8609711,14.9201298 C91.8609711,14.9201298 48.741869,-0.794960709 24.5190792,30.6605263 C24.5190792,30.6605263 2.0210536,59.6613213 20.2325332,87.4221171 L20.2325332,87.4221171 C19.7669129,85.0309319 19.4450586,82.6141013 19.2686945,80.1845715 C19.2686945,80.1845715 38.2664636,77.1225329 52.8001374,50.095614 L51.4304718,64.469481 C63.2605681,58.1877232 73.1847597,48.8542996 80.1680852,37.4425621 C80.1680852,37.4425621 112.329863,50.095614 119.457197,74.1617187 C119.457197,74.1617187 119.203555,66.8229486 124.859766,66.2156022" id="_路徑_3" fill="#725944" fill-rule="nonzero"></path>
                    <path d="M87.7519743,158.78533 C87.3510833,162.462966 86.6899649,166.107704 85.7735685,169.692261 L74.9177004,174.070217 L72.3812826,164.960019 L87.7519743,158.78533 Z" id="_路徑_4" fill="#ECD560" fill-rule="nonzero"></path>
                    <g id="_群組_4" transform="translate(0.000000, 14.520468)" fill-rule="nonzero">
                        <path d="M72.4827393,105.622442 C72.4827393,106.432237 72.7110169,107.267338 72.9139304,108.153052 L76.2112735,107.596318 C76.5351818,107.15953 76.8316648,106.703147 77.0990197,106.229788 C75.4757123,105.926115 73.9284975,105.622442 72.4827393,105.622442 Z" id="_路徑_5" fill="#371608"></path>
                        <path d="M78.570142,95.753061 C78.245868,94.5940206 77.7591416,93.4864845 77.1243839,92.4632675 C76.3098561,90.8852874 74.8467189,89.7396316 73.1168438,89.3253107 C69.1346679,88.4649031 64.1632891,91.8559211 60.4347549,94.3865314 L58.3548923,95.7783671 C55.5994803,97.4763254 52.458361,98.451325 49.2237884,98.6126508 L48.7672332,98.6126508 C48.6600884,98.6474475 48.5446436,98.6474475 48.4374989,98.6126508 L44.455323,98.0306104 C42.7305589,97.8534677 41.614535,98.0306104 41.0818873,98.916324 C40.2955978,100.080405 41.0818873,102.282036 41.5130783,103.167749 L41.9189052,103.42081 C44.0973649,104.628223 46.381028,105.636154 48.741869,106.432237 C48.8119617,106.210664 48.9238839,106.004512 49.0716033,105.82489 C50.5680898,103.926933 55.8692029,103.29428 64.2901099,103.800402 C69.3384694,101.662625 74.1288108,98.9630851 78.570142,95.753061 L78.570142,95.753061 Z" id="_路徑_6" fill="#F1BCC0"></path>
                        <path d="M78.8237838,96.8159174 C76.6931929,98.3089775 74.5626019,99.6755071 72.4573752,100.8902 C72.3519971,102.111069 72.3519971,103.338716 72.4573752,104.559585 L77.5302107,105.24285 C78.8493407,102.642821 79.3025104,99.6906637 78.8237838,96.8159174 L78.8237838,96.8159174 Z" id="_路徑_7" fill="#F1BCC0"></path>
                        <path d="M49.9847137,106.381625 C49.8848674,106.478207 49.8145096,106.601051 49.7818003,106.73591 L50.745639,107.039583 C55.8184746,106.305706 59.6738296,105.344074 59.7752863,105.318768 C60.5362116,105.141626 61.3225011,104.913871 62.1087907,104.66081 C52.9269583,104.281218 50.5680898,105.622442 49.9847137,106.381625 Z" id="_路徑_8" fill="#371608"></path>
                        <path d="M55.0829134,161.928522 C54.7813179,163.787916 54.8502717,165.688401 55.2858268,167.521171 C55.7410048,164.303483 56.9774426,161.245528 58.8875401,158.613423 C59.0897336,158.43299 59.3955435,158.43299 59.5977371,158.613423 C59.7910846,158.810225 59.7910846,159.125192 59.5977371,159.321994 C57.5219927,162.253304 56.2776688,165.689217 55.9960238,169.267293 C56.2983514,169.726336 56.7583943,170.059329 57.2895969,170.203618 C57.4321324,170.229768 57.5782524,170.229768 57.7207879,170.203618 C58.1127581,166.49162 59.306957,162.908593 61.2210444,159.701585 C61.3718018,159.476264 61.6736598,159.409338 61.9058772,159.549749 C62.1300075,159.699738 62.2062832,159.993271 62.0834265,160.233014 C60.359801,163.23675 59.2720864,166.561325 58.8875401,170.00117 C60.8913101,169.241986 63.4530921,166.23056 65.5583188,160.38485 C65.6426691,160.133539 65.914939,159.997716 66.1670591,160.081177 C66.4163065,160.154728 66.562187,160.412233 66.4967934,160.663217 C65.9134173,162.839542 65.5583188,165.471377 66.014874,165.876275 C66.014874,165.876275 66.1924233,165.876275 66.2177874,165.876275 C67.8410948,165.294234 72.2544617,159.979952 74.00459,157.727709 L71.569629,149.73098 C69.1600321,150.034654 56.3511223,152.084448 55.0829134,161.928522 Z" id="_路徑_9" fill="#F7E2D6"></path>
                        <path d="M10.6956024,132.117932 C10.0614979,132.117932 9.30057261,132.877115 8.53964727,134.395482 C7.52508016,136.369358 7.24607421,137.887724 7.72799359,138.621601 C8.00438736,138.969973 8.42407131,139.174683 8.86938158,139.178335 C10.6785212,138.093719 11.9965636,136.352445 12.5471874,134.319563 C12.217453,133.610992 11.4818919,132.193851 10.6956024,132.117932 Z" id="_路徑_10" fill="#A1D4E6"></path>
                        <path d="M40.1434127,102.332648 C39.6015921,101.044747 39.6478791,99.5854283 40.2702336,98.3342836 C41.3391617,97.1294261 42.998267,96.6298957 44.5567797,97.0436723 C47.3722034,97.3220395 48.6911406,97.44857 49.3252451,97.6004066 C52.3800275,97.4430294 55.3458685,96.5205019 57.9490655,94.9179596 L60.0035639,93.55143 C63.7574622,91.0208196 68.9063903,87.4273529 73.3197572,88.4902092 C75.3113909,88.9695194 77.0014108,90.2778984 77.9614017,92.083676 C78.5835653,93.0685085 79.0698614,94.1325054 79.4071599,95.246939 C97.7961887,82.0371528 116.540316,61.0077805 118.56945,58.7049251 C111.366024,37.2959613 83.9473477,25.047807 80.3709986,23.5547469 C73.3151078,34.8557214 63.4044489,44.1066 51.6333852,50.3792169 C51.4764312,50.4696269 51.2830558,50.4696269 51.1261017,50.3792169 C50.9934215,50.2654219 50.9189391,50.0982202 50.9231883,49.9237071 L52.0899404,37.95392 C39.0020247,60.7294134 22.6674943,65.4363487 19.775978,66.1196135 C21.5007421,86.3391904 31.4181356,96.9171418 40.1434127,102.332648 Z M72.7363811,42.7114675 C72.8105372,42.4490696 73.079687,42.292425 73.3451214,42.357182 C73.5962634,42.4307426 73.75008,42.6828627 73.7002199,42.9392224 C73.4209359,44.1465447 73.6901205,45.4152986 74.435781,46.4061586 C76.1195901,47.689864 78.3237551,48.0768333 80.3456344,47.4437089 C80.4736785,47.421902 80.6051239,47.4525898 80.7101756,47.5288161 C80.8152273,47.6050424 80.8849885,47.7203517 80.9036464,47.8486065 C80.9255032,47.9763574 80.894745,48.1075019 80.8183438,48.212313 C80.7419426,48.3171242 80.6263687,48.3867257 80.4978195,48.4053408 C79.719011,48.5417785 78.9296725,48.6095232 78.138951,48.6077897 C76.5066365,48.7466996 74.8923021,48.1852772 73.7002199,47.0641173 C72.7213681,45.8401112 72.3654915,44.2329895 72.7363811,42.7114675 Z M60.0542923,71.4338953 L72.8885662,62.8551261 C73.1207837,62.7147158 73.4226417,62.7816417 73.573399,63.0069627 C73.6502923,63.1134174 73.6802375,63.2466016 73.6562893,63.3756258 C73.6323411,63.50465 73.5565803,63.6183039 73.4465781,63.6902275 L61.5761429,71.5857319 L75.5264407,74.4706277 C75.6557076,74.4948072 75.7694539,74.5706463 75.8412985,74.6805559 C75.9131432,74.7904654 75.9368437,74.9248956 75.9069033,75.0526681 C75.8599161,75.282866 75.6603408,75.4505447 75.424984,75.4575658 L75.424984,75.4575658 L60.2064773,72.344915 C60.0252521,72.2877731 59.8832877,72.1461337 59.8260147,71.9653235 C59.8003276,71.7477354 59.9111128,71.5367208 60.1050206,71.4338953 L60.0542923,71.4338953 Z M46.3576363,78.5449105 C46.4481443,78.4537299 46.57143,78.4024306 46.7000527,78.4024306 C46.8286754,78.4024306 46.9519611,78.4537299 47.0424691,78.5449105 C47.2358166,78.7417127 47.2358166,79.0566791 47.0424691,79.2534814 C46.4083646,79.7342973 44.8357856,81.3032758 45.0640632,82.6191932 C45.1908841,83.4542946 46.027902,84.1628655 47.600481,84.7195998 C47.8469124,84.8241639 47.9772192,85.0950148 47.9048511,85.3522524 C47.8394022,85.5484525 47.6555514,85.6809296 47.4482959,85.6812317 L47.2707467,85.6812317 C45.3937975,84.9979669 44.3285021,84.036335 44.1255886,82.7963359 C43.6690334,80.6706232 46.2054512,78.6461349 46.4083646,78.5449105 L46.3576363,78.5449105 Z M27.2330463,81.0755208 C27.0742859,81.0717706 26.9254827,80.9975394 26.8272194,80.873072 C26.7503261,80.7666173 26.7203809,80.6334331 26.7443292,80.5044089 C26.7682774,80.3753847 26.8440382,80.2617309 26.9540403,80.1898072 L34.335016,75.1285864 L25.0263628,71.7628746 C24.818588,71.6397316 24.7267309,71.387449 24.806841,71.1599654 C24.8869511,70.9324817 25.116783,70.7929662 25.3560971,70.8265488 L35.5017682,74.5465461 C35.6720202,74.598281 35.7929217,74.749062 35.8061383,74.9261376 C35.8391053,75.1122703 35.7597082,75.3004068 35.6032249,75.4069536 L27.4359597,81.0755208 C27.3813091,81.0589437 27.3298571,81.0332766 27.2837746,80.9996025 L27.2330463,81.0755208 Z" id="_複合路徑_" fill="#F7E2D6"></path>
                        <path d="M7.98163536,109.190602 C6.43442052,108.811011 3.69508933,111.721213 2.19860284,113.973456 C2.43712286,114.170275 2.71327007,114.316643 3.01025653,114.40366 C5.37076156,114.962719 7.85512006,114.307439 9.63030692,112.657538 C9.37666514,110.683662 8.79328905,109.393051 7.98163536,109.190602 Z" id="_路徑_11" fill="#A1D4E6"></path>
                        <path d="M65.6597755,127.512221 C62.2102474,128.650996 59.6484654,131.662422 58.0505222,136.470582 C57.8046851,137.222528 57.6181133,137.99249 57.4925103,138.773437 C59.0585132,136.784484 60.7985759,134.938313 62.6921667,133.256707 C62.7834407,133.157455 62.9122576,133.100954 63.0472652,133.100954 C63.1822729,133.100954 63.3110898,133.157455 63.4023637,133.256707 C63.4937535,133.347008 63.5451706,133.470011 63.5451706,133.598339 C63.5451706,133.726667 63.4937535,133.849671 63.4023637,133.939972 C61.0172499,136.003695 58.9415627,138.39848 57.2388685,141.050987 C57.218802,141.897281 57.2697078,142.743768 57.3910536,143.581597 C57.402933,143.657053 57.402933,143.733896 57.3910536,143.809352 C59.335841,141.069821 61.5353619,138.519474 63.9603756,136.192215 C64.0508837,136.101034 64.1741693,136.049735 64.302792,136.049735 C64.4314147,136.049735 64.5547004,136.101034 64.6452084,136.192215 C64.8225428,136.385609 64.8225428,136.682086 64.6452084,136.87548 C62.0576395,139.284525 59.7902101,142.014518 57.8983372,144.998739 C58.1216365,145.746857 58.5318496,146.426077 59.0904535,146.972615 C60.8254235,143.857989 63.0040631,141.010932 65.5583188,138.520376 C65.6488269,138.429196 65.7721125,138.377897 65.9007352,138.377897 C66.0293579,138.377897 66.1526436,138.429196 66.2431516,138.520376 C66.3426309,138.611441 66.3992622,138.739963 66.3992622,138.874662 C66.3992622,139.00936 66.3426309,139.137882 66.2431516,139.228947 C63.7229119,141.639338 61.5771625,144.411337 59.876743,147.453431 C60.4644102,147.627097 61.0899325,147.627097 61.6775996,147.453431 C62.5253267,147.173105 63.3035075,146.715892 63.9603756,146.112208 L69.9716858,140.241192 C71.4336483,138.833827 73.4232772,138.107805 75.4503481,138.242009 L77.859945,138.419152 L79.3310673,130.498342 C78.0628585,129.511404 71.569629,125.588957 65.6597755,127.512221 Z" id="_路徑_12" fill="#F7E2D6"></path>
                        <path d="M86.7881356,111.619988 C90.3644847,108.153052 93.8140128,104.357136 96.9338067,100.561221 C93.3319675,102.780661 89.4956748,104.596819 85.4945625,105.976727 C85.7735685,106.887747 86.2301237,108.836317 86.7881356,111.619988 Z" id="_路徑_13" fill="#ECD560"></path>
                        <path d="M121.283417,67.6632858 L121.283417,67.6632858 L121.283417,67.6632858 L121.283417,67.6632858 L121.283417,67.6632858 L121.537059,67.6632858 C123.57517,68.7430303 126.017542,68.7430303 128.055653,67.6632858 C129.883609,66.0553769 130.966328,63.7667333 131.048626,61.3367599 C131.285702,58.7445055 130.613311,56.1505442 129.146312,53.9979898 C128.480841,53.2495753 127.591457,52.7349136 126.609895,52.5302357 C126.511141,52.6645072 126.340054,52.7247526 126.178704,52.6820724 C126.036246,52.6694266 125.910978,52.5829009 125.848969,52.4543174 L125.595328,52.4543174 C124.157782,52.3350141 122.737312,52.8319608 121.689244,53.820847 C120.305952,55.5587529 119.578759,57.726379 119.634746,59.9449242 C119.650897,60.1929184 119.474965,60.4123297 119.228919,60.4510462 C118.983053,60.4764346 118.751987,60.3297288 118.670907,60.0967608 C115.145286,64.044513 97.2128126,83.9857228 79.4071599,96.6387747 C80.1129379,100.45798 79.3620378,104.402462 77.3019331,107.697542 C85.2126555,106.018226 92.6905876,102.727199 99.267311,98.0306104 C107.332255,88.4585153 114.682242,78.3088154 121.258053,67.6632858 L121.283417,67.6632858 Z" id="_路徑_14" fill="#F7E2D6"></path>
                        <path d="M102.742203,95.5 C110.314285,89.1103634 116.164836,80.9331254 119.761567,71.7122624 C114.525522,79.9439146 108.843986,87.8849218 102.742203,95.5 L102.742203,95.5 Z" id="_路徑_15" fill="#F7E2D6"></path>
                        <path d="M65.3554054,126.575895 C66.6712204,126.143509 68.0551926,125.954828 69.439038,126.019161 C72.5281408,123.910576 75.5080343,121.646988 78.3672286,119.237125 C75.2203084,116.496341 73.0118912,112.84177 72.0515483,108.785704 L72.0515483,108.633868 C71.8062455,107.491518 71.6451745,106.33277 71.569629,105.166932 C71.544504,105.093083 71.544504,105.013026 71.569629,104.939177 L71.569629,104.939177 C71.4947683,103.818516 71.4947683,102.694126 71.569629,101.573465 C69.4405572,102.789773 67.2284216,103.855256 64.9495786,104.762034 L64.9495786,104.762034 C63.4284482,105.385372 61.8591875,105.884693 60.2572057,106.255094 C54.0629758,107.79307 47.7170582,108.641782 41.3355291,108.785704 C35.9329592,108.785704 30.8347595,107.849379 28.4505268,104.863258 C28.0581239,104.349873 27.7499164,103.777578 27.5374164,103.167749 C26.0409299,110.936723 26.8272194,117.339168 29.9216491,122.19794 C33.9799175,128.575078 41.2848007,131.206912 46.7127348,132.320381 C50.9386281,133.157228 55.3103319,132.87808 59.3948236,131.510586 C60.7509869,129.228364 62.8570504,127.484781 65.3554054,126.575895 L65.3554054,126.575895 Z M28.1461567,110.683662 C28.2328259,110.585614 28.3575415,110.529444 28.4885731,110.529444 C28.6196047,110.529444 28.7443202,110.585614 28.8309895,110.683662 C28.9831745,110.683662 44.5314155,121.767736 65.9387815,109.089378 C66.0478302,109.017791 66.1823759,108.996199 66.3084241,109.030058 C66.4344722,109.063916 66.5399656,109.149986 66.5982501,109.26652 C66.6719057,109.372099 66.6973843,109.503827 66.6683929,109.629169 C66.6394015,109.754511 66.5586433,109.861779 66.446065,109.924479 C60.0977754,113.893007 52.7828508,116.054457 45.2923408,116.175087 C39.2746406,116.279297 33.3551828,114.644627 28.2476134,111.468151 C28.0961265,111.405882 27.9896975,111.2674 27.9687306,111.105279 C27.9477638,110.943158 28.0154743,110.782258 28.1461567,110.683662 L28.1461567,110.683662 Z M29.6680073,117.819984 C29.4648878,117.638293 29.4478539,117.32672 29.6299611,117.124066 C29.8120683,116.921411 30.1243563,116.904416 30.327476,117.086107 C30.4542968,117.086107 43.0095648,127.71467 68.3737426,114.707333 C68.4877766,114.645272 68.6220925,114.631768 68.7462445,114.669881 C68.8703965,114.707994 68.9738702,114.794497 69.0332112,114.909782 C69.0954144,115.023555 69.1089498,115.157563 69.0707491,115.281431 C69.0325485,115.405298 68.9458471,115.508535 68.8302978,115.56774 C61.5457046,119.641808 53.3854838,121.907204 45.038699,122.172633 C39.5610196,122.436799 34.1516629,120.869362 29.6680073,117.718759 L29.6680073,117.819984 Z M47.0931974,127.942425 C42.9989379,128.054793 38.9372615,127.187046 35.2481264,125.411815 C35.0099862,125.279041 34.9248168,124.978798 35.0578951,124.741203 C35.1909735,124.503608 35.4919056,124.418634 35.7300458,124.551407 C35.8822309,124.551407 49.7564361,132.345687 70.2506917,119.490186 C70.4893855,119.354473 70.7929868,119.433004 70.9355245,119.667329 C71.0091801,119.772908 71.0346587,119.904636 71.0056673,120.029978 C70.9766759,120.15532 70.8959177,120.262588 70.7833394,120.325288 C63.7708266,125.048608 55.5513233,127.673881 47.0931974,127.891813 L47.0931974,127.942425 Z" id="_複合路徑_2" fill="#FFFFFF"></path>
                        <path d="M19.2686945,55.3645194 C19.368959,55.3864652 19.4728001,55.3864652 19.5730646,55.3645194 C47.4736601,33.1457602 58.5831699,0.981702303 58.6846267,0.678029057 C58.7328718,0.554092086 58.7275262,0.415755988 58.6698599,0.295893001 C58.6121936,0.176030014 58.5073551,0.0853411616 58.3802565,0.045376462 C58.1224287,-0.0268259491 57.8509562,0.103182496 57.7461521,0.349049708 C57.7461521,0.678029057 46.6366422,32.5637198 18.9389601,54.5800302 C18.7616258,54.773424 18.7616258,55.0699011 18.9389601,55.263295 C19.0345727,55.3325982 19.1505712,55.3682083 19.2686945,55.3645194 Z" id="_路徑_16" fill="#371608"></path>
                        <path d="M66.4967934,109.72203 C66.6093716,109.65933 66.6901299,109.552062 66.7191213,109.42672 C66.7481127,109.301379 66.722634,109.16965 66.6489785,109.064072 C66.590694,108.947537 66.4852006,108.861467 66.3591524,108.827609 C66.2331043,108.793751 66.0985585,108.815342 65.9895098,108.886929 C44.5821438,121.539981 29.0339029,110.582438 28.8817178,110.481213 C28.7412607,110.377242 28.5558776,110.35593 28.3954005,110.425305 C28.2349233,110.49468 28.1237325,110.644203 28.1037124,110.817549 C28.0836924,110.990896 28.1578846,111.161731 28.2983417,111.265703 C33.4059112,114.442178 39.3253689,116.076848 45.3430692,115.972638 C52.8335792,115.852008 60.1485038,113.690558 66.4967934,109.72203 L66.4967934,109.72203 Z" id="_路徑_17" fill="#C9CACA"></path>
                        <path d="M68.7542052,115.466516 C68.8697546,115.407311 68.956456,115.304074 68.9946566,115.180206 C69.0328572,115.056338 69.0193219,114.92233 68.9571186,114.808557 C68.8977777,114.693272 68.7943039,114.60677 68.6701519,114.568656 C68.5459999,114.530543 68.4116841,114.544048 68.29765,114.606108 C42.9334723,127.613446 30.4542968,117.136719 30.2513834,116.984882 C30.0482638,116.803192 29.7359758,116.820187 29.5538686,117.022841 C29.3717614,117.225496 29.3887952,117.537069 29.5919148,117.718759 C34.0463789,120.80113 39.3957031,122.331092 44.8104214,122.071409 C53.2090296,121.83027 61.4242833,119.564092 68.7542052,115.466516 L68.7542052,115.466516 Z" id="_路徑_18" fill="#C9CACA"></path>
                        <path d="M70.9355245,119.642023 C70.7929868,119.407698 70.4893855,119.329167 70.2506917,119.46488 C49.7564361,132.345687 35.8822309,124.526101 35.7300458,124.526101 C35.4919056,124.393327 35.1909735,124.478302 35.0578951,124.715897 C34.9248168,124.953492 35.0099862,125.253735 35.2481264,125.386509 C38.9372615,127.16174 42.9989379,128.029487 47.0931974,127.917119 C55.5538713,127.691688 63.773584,125.057568 70.7833394,120.325288 C70.9037927,120.263339 70.9904381,120.151204 71.0198354,120.019219 C71.0492327,119.887234 71.0183436,119.74904 70.9355245,119.642023 L70.9355245,119.642023 Z" id="_路徑_19" fill="#C9CACA"></path>
                        <path d="M36.0597801,74.774301 C36.0465635,74.5972253 35.925662,74.4464444 35.75541,74.3947094 L25.6097389,70.6747122 C25.3704247,70.6411296 25.1405929,70.7806451 25.0604828,71.0081287 C24.9803727,71.2356124 25.0722298,71.487895 25.2800046,71.611038 L34.5886578,74.9767498 L27.2076821,80.0379706 C27.0976799,80.1098942 27.0219191,80.2235481 26.9979709,80.3525723 C26.9740227,80.4815965 27.0039679,80.6147807 27.0808612,80.7212354 C27.1791245,80.8457028 27.3279277,80.919934 27.486688,80.9236842 C27.5778619,80.9497028 27.6745201,80.9497028 27.765694,80.9236842 L35.7300458,75.255117 C35.9358452,75.1870891 36.0707812,74.9903264 36.0597801,74.774301 L36.0597801,74.774301 Z" id="_路徑_20" fill="#371608"></path>
                        <path d="M60.2825699,72.3196089 L75.5010765,75.4322597 L75.5010765,75.4322597 C75.7364334,75.4252385 75.9360087,75.2575599 75.9829959,75.027362 C76.0129363,74.8995895 75.9892357,74.7651593 75.9173911,74.6552498 C75.8455465,74.5453402 75.7318001,74.4695011 75.6025332,74.4453216 L61.6522355,71.5604258 L73.5226706,63.6649214 C73.6326728,63.5929978 73.7084336,63.4793439 73.7323818,63.3503197 C73.75633,63.2212955 73.7263848,63.0881113 73.6494915,62.9816566 C73.4987342,62.7563356 73.1968762,62.6894096 72.9646587,62.82982 L60.1303848,71.4085892 C59.9745694,71.5272023 59.8966294,71.7216062 59.9274714,71.9147113 C59.9724619,72.099435 60.1050328,72.2505978 60.2825699,72.3196089 Z" id="_路徑_21" fill="#371608"></path>
                        <path d="M78.138951,48.6077897 C78.9296725,48.6095232 79.719011,48.5417785 80.4978195,48.4053408 C80.6263687,48.3867257 80.7419426,48.3171242 80.8183438,48.212313 C80.894745,48.1075019 80.9255032,47.9763574 80.9036464,47.8486065 C80.8849885,47.7203517 80.8152273,47.6050424 80.7101756,47.5288161 C80.6051239,47.4525898 80.4736785,47.421902 80.3456344,47.4437089 C78.3237551,48.0768333 76.1195901,47.689864 74.435781,46.4061586 C73.6901205,45.4152986 73.4209359,44.1465447 73.7002199,42.9392224 C73.75008,42.6828627 73.5962634,42.4307426 73.3451214,42.357182 C73.079687,42.292425 72.8105372,42.4490696 72.7363811,42.7114675 C72.3654915,44.2329895 72.7213681,45.8401112 73.7002199,47.0641173 C74.8923021,48.1852772 76.5066365,48.7466996 78.138951,48.6077897 L78.138951,48.6077897 Z" id="_路徑_22" fill="#371608"></path>
                        <path d="M47.1946541,85.7318439 L47.3722034,85.7318439 C47.5794589,85.7315418 47.7633096,85.5990647 47.8287586,85.4028646 C47.9011267,85.145627 47.7708199,84.8747761 47.5243885,84.770212 C46.0025378,84.2134777 45.1655199,83.5049068 44.9879707,82.6698054 C44.7596931,81.353888 46.3322721,79.7849095 46.9663765,79.3040936 C47.1597241,79.1072913 47.1597241,78.7923249 46.9663765,78.5955227 C46.8758685,78.5043421 46.7525829,78.4530428 46.6239601,78.4530428 C46.4953374,78.4530428 46.3720518,78.5043421 46.2815437,78.5955227 C46.2815437,78.5955227 43.5929409,80.7212354 43.9226752,82.8975603 C44.2524095,84.0869472 45.317705,85.0485791 47.1946541,85.7318439 Z" id="_路徑_23" fill="#371608"></path>
                        <path d="M10.3912322,113.214273 C10.3912322,113.214273 10.5180531,113.214273 10.5434173,113.062436 C11.1447377,112.595943 11.7204897,112.097537 12.2681814,111.569376 C12.4455157,111.375982 12.4455157,111.079505 12.2681814,110.886111 C12.1769075,110.78686 12.0480906,110.730358 11.9130829,110.730358 C11.7780753,110.730358 11.6492583,110.78686 11.5579844,110.886111 C11.2305768,111.218851 10.8832991,111.53153 10.5180531,111.822437 C10.1629546,109.620806 9.40202932,108.406113 8.20991296,108.127746 C5.67349519,107.545705 2.62979386,111.54407 1.51377004,113.188967 C1.13895794,112.565862 1.0207706,111.82208 1.18403573,111.113866 C1.46523775,109.522622 2.46672413,108.149899 3.89800275,107.393869 C6.352327,106.636365 9.00131772,106.816769 11.3297068,107.899991 C11.4473993,107.950604 11.5804509,107.952361 11.6994444,107.904872 C11.8184379,107.857384 11.9135714,107.764562 11.9638113,107.64693 C12.0235363,107.533761 12.0328232,107.400754 11.9894021,107.280416 C11.945981,107.160078 11.8538528,107.063497 11.7355337,107.014277 C9.14778561,105.788232 6.18536823,105.606905 3.46681173,106.508155 C1.7677448,107.38669 0.576579163,109.005586 0.245561154,110.886111 C-0.21605079,112.799273 0.895577373,114.740168 2.78197893,115.314679 C3.38871583,115.506871 4.0223937,115.600851 4.65892808,115.593046 C6.78036258,115.452612 8.7957275,114.616282 10.3912322,113.214273 L10.3912322,113.214273 Z M3.08634906,114.40366 C2.7893626,114.316643 2.5132154,114.170275 2.27469537,113.973456 C3.77118186,111.797131 6.51051306,108.912235 8.0577279,109.190602 C8.4004757,109.288095 8.69163609,109.515043 8.86938158,109.823255 C9.3092874,110.551069 9.40514169,111.435385 9.13136391,112.240205 C8.85758612,113.045024 8.24203704,113.688447 7.44898763,113.998762 C6.09555116,114.669293 4.54052652,114.813615 3.08634906,114.40366 Z" id="_複合路徑_3" fill="#371608"></path>
                        <path d="M13.6124828,131.586504 C13.4805258,131.564871 13.3454924,131.598916 13.2396767,131.680495 C13.1338609,131.762075 13.0667779,131.883854 13.0544709,132.016708 C13.0544709,132.320381 12.92765,132.573442 12.8769217,132.851809 C12.472354,131.974412 11.6705465,131.343847 10.7209666,131.1563 C9.63030692,131.1563 8.59037563,131.991402 7.6011727,133.939972 C6.38369217,136.470582 6.13005039,138.090173 6.86561154,139.153029 C6.91037612,139.23275 6.96125634,139.308896 7.01779661,139.380784 C5.97786532,139.001192 5.41985341,137.634663 5.52131012,135.584868 C5.43258222,133.768581 6.15746397,132.006886 7.49971599,130.776709 C8.47508662,130.079048 9.69204423,129.805175 10.8731516,130.017526 C11.1377034,130.06521 11.3936016,129.898702 11.4565277,129.637934 C11.4870772,129.513753 11.4667911,129.382547 11.4001548,129.273323 C11.3335184,129.1641 11.2260208,129.085857 11.1014292,129.055894 C9.6401758,128.77125 8.12595775,129.100868 6.9163399,129.966913 C5.32993306,131.375611 4.45580632,133.416755 4.53210719,135.534256 C4.35455795,138.925274 5.87640861,140.291804 7.34753092,140.44364 L7.65190105,140.44364 C8.1230135,140.425175 8.58695556,140.322313 9.02156665,140.139967 L9.02156665,140.139967 L9.30057261,140.013437 C11.3367999,138.81255 12.8140066,136.856549 13.4095694,134.572624 C13.4335262,134.489964 13.4335262,134.402224 13.4095694,134.319563 C13.6404195,133.601225 13.8101158,132.864737 13.916853,132.117932 C13.9560984,131.890915 13.8284403,131.668025 13.6124828,131.586504 Z M8.81865323,139.178335 C8.37334295,139.174683 7.953659,138.969973 7.67726523,138.621601 C7.19534585,137.887724 7.47435181,136.369358 8.48891892,134.395482 C9.24984425,132.877115 10.0107696,132.092626 10.644874,132.117932 C10.9172857,132.162272 11.1671531,132.295823 11.355071,132.497524 C12.267974,133.431138 12.4539592,134.853759 11.8116262,135.989766 C11.178378,137.342567 10.1301669,138.459281 8.81865323,139.178335 L8.81865323,139.178335 Z" id="_複合路徑_4" fill="#371608"></path>
                    </g>
                    <g id="_群組_5" transform="translate(10.145671, 1.867416)">
                        <path d="M39.8390426,119.034677 C39.7391963,119.131259 39.6688385,119.254103 39.6361292,119.388962 L40.5999679,119.692635 C45.6728035,118.958758 49.5281585,117.997126 49.6296152,117.97182 C50.3905405,117.794677 51.1768301,117.566923 51.9631196,117.313861 C42.7812872,116.93427 40.4224187,118.275493 39.8390426,119.034677 Z" id="_路徑_24"></path>
                        <path d="M44.9372423,174.581574 C44.6356468,176.440968 44.7046006,178.341453 45.1401557,180.174223 C45.5953337,176.956535 46.8317715,173.89858 48.741869,171.266475 C48.9440625,171.086041 49.2498724,171.086041 49.452066,171.266475 C49.6454135,171.463277 49.6454135,171.778243 49.452066,171.975046 C47.3763216,174.906356 46.1319977,178.342269 45.8503527,181.920344 C46.1526803,182.379388 46.6127232,182.712381 47.1439258,182.85667 C47.2864613,182.88282 47.4325813,182.88282 47.5751168,182.85667 C47.967087,179.144672 49.1612859,175.561645 51.0753733,172.354637 C51.2261307,172.129316 51.5279887,172.06239 51.7602061,172.202801 C51.9843365,172.35279 52.0606121,172.646322 51.9377554,172.886065 C50.2141299,175.889802 49.1264153,179.214377 48.741869,182.654221 C50.745639,181.895038 53.307421,178.883612 55.4126477,173.037902 C55.496998,172.786591 55.7692679,172.650768 56.021388,172.734229 C56.2706355,172.80778 56.4165159,173.065285 56.3511223,173.316269 C55.7677462,175.492594 55.4126477,178.124429 55.8692029,178.529327 C55.8692029,178.529327 56.0467522,178.529327 56.0721164,178.529327 C57.6954237,177.947286 62.1087907,172.633004 63.8589189,170.380761 L61.4239579,162.384032 C59.014361,162.687706 46.2054512,164.7375 44.9372423,174.581574 Z" id="_路徑_25"></path>
                        <path d="M68.6781127,109.468969 C66.5475218,110.962029 64.4169308,112.328559 62.3117041,113.543252 C62.206326,114.764121 62.206326,115.991768 62.3117041,117.212637 C63.9096473,117.38978 65.6344114,117.642841 67.3845396,117.895902 C68.7036696,115.295873 69.1568393,112.343716 68.6781127,109.468969 L68.6781127,109.468969 Z" id="_路徑_26"></path>
                        <path d="M68.4244709,108.406113 C68.1001969,107.247073 67.6134705,106.139536 66.9787128,105.116319 C66.164185,103.538339 64.7010478,102.392684 62.9711727,101.978363 C58.9889968,101.117955 54.017618,104.508973 50.2890838,107.039583 L48.2092213,108.431419 C45.4538092,110.129377 42.3126899,111.104377 39.0781173,111.265703 L38.6215621,111.265703 C38.5144174,111.300499 38.3989725,111.300499 38.2918278,111.265703 L34.3096519,110.683662 C32.5848878,110.50652 31.4688639,110.683662 30.9362162,111.569376 C30.1499267,112.733457 30.9362162,114.935088 31.3674072,115.820801 L31.7732341,116.073862 C33.9516938,117.281274 36.2353569,118.289206 38.5961979,119.085289 C38.6662906,118.863716 38.7782128,118.657564 38.9259322,118.477942 C40.4224187,116.579984 45.7235318,115.947332 54.1444388,116.453454 C59.1927983,114.315677 63.9831397,111.616137 68.4244709,108.406113 L68.4244709,108.406113 Z" id="_路徑_27"></path>
                        <path d="M62.3370683,118.275493 C62.3370683,119.085289 62.5653459,119.92039 62.7682593,120.806104 L66.0656024,120.24937 C66.3895107,119.812582 66.6859937,119.356198 66.9533486,118.88284 C65.3300412,118.579167 63.7828264,118.275493 62.3370683,118.275493 Z" id="_路徑_28"></path>
                        <polygon id="_路徑_29" points="74.9430646 170.254231 74.9430646 169.874639 74.7401512 170.532598"></polygon>
                        <path d="M29.9977416,114.9857 C29.455921,113.697799 29.502208,112.23848 30.1245625,110.987336 C31.1934906,109.782478 32.852596,109.282948 34.4111086,109.696724 C37.2265323,109.975091 38.5454695,110.101622 39.179574,110.253459 C42.2343564,110.096081 45.2001974,109.173554 47.8033944,107.571012 L49.8578928,106.204482 C53.6117911,103.673872 58.7607192,100.080405 63.1740861,101.143261 C65.1657198,101.622571 66.8557397,102.93095 67.8157306,104.736728 C68.4378942,105.72156 68.9241903,106.785557 69.2614888,107.899991 C87.6505176,94.6902047 106.394645,73.6608324 108.423779,71.357977 C101.220353,49.9490132 73.8016766,37.7008589 70.2253275,36.2077988 C63.1694367,47.5087733 53.2587778,56.7596519 41.4877142,63.0322688 C41.3294759,63.1177635 41.1386689,63.1177635 40.9804306,63.0322688 C40.8477504,62.9184738 40.773268,62.7512721 40.7775172,62.576759 L41.9442694,50.6069719 C28.8563536,73.3824653 12.5218232,78.0894006 9.63030692,78.7726654 C11.355071,98.9922423 21.2724645,109.570194 29.9977416,114.9857 Z" id="_路徑_30"></path>
                        <path d="M65.1017636,171.544842 L75.2474347,167.470559 C76.2920601,163.31684 76.9961264,159.085188 77.3526615,154.817507 L75.9322675,154.589752 L61.8805131,160.233014 L65.1017636,171.544842 Z" id="_路徑_31"></path>
                        <path d="M9.02156665,77.7857273 C9.22448007,77.7857273 27.9939716,74.3947094 42.2232753,47.949831 C42.3419123,47.7488776 42.5828235,47.6548238 42.8066514,47.722076 C43.032365,47.7825572 43.1820492,47.9959022 43.1617499,48.2281981 L41.8428126,61.6910453 C53.2101807,55.4179026 62.7732783,46.3385124 69.6165873,35.3220852 C69.7455159,35.1188706 69.9999761,35.0342447 70.2253275,35.1196363 C70.5296977,35.2461668 100.662341,47.3424845 109.032519,69.9155291 C109.272385,68.2567828 110.015963,66.7112091 111.16311,65.4869609 C111.68493,64.9713129 112.306208,64.5666847 112.989331,64.297574 C107.45994,27.9833151 78.0121301,24.6429094 77.70776,24.6429094 C77.4371052,24.6036464 77.2463729,24.3573814 77.2765689,24.0861751 C77.2893364,23.9583646 77.3528284,23.840964 77.4528897,23.7601475 C77.552951,23.6793309 77.6812622,23.6418177 77.8092167,23.6559713 C78.1135868,23.6559713 108.24623,27.0216831 113.927806,63.9685947 C114.534869,63.8307934 115.157143,63.7712599 115.779391,63.7914519 L116.033033,63.7914519 C116.717865,59.0592105 119.761567,28.5653554 90.2122996,13.5082237 C90.0613176,13.4158185 89.9662523,13.2545775 89.9586578,13.0780199 C89.9509992,12.9039437 90.0383339,12.7393558 90.1869354,12.6478162 L97.1367201,8.49761513 C93.9454768,7.27918405 90.4386506,7.15454497 87.1685983,8.14332968 C86.9467677,8.19330395 86.7187093,8.08987837 86.6105863,7.89026864 C84.8990287,4.89607201 82.6357196,2.25157342 79.9398076,0.0959886696 L80.8782822,7.68781981 C80.897206,7.85214461 80.8301435,8.01463779 80.7007329,8.11802357 C80.5550844,8.21594564 80.3644621,8.21594564 80.2188136,8.11802357 C79.8637151,7.99149306 45.8503527,-5.09176261 19.344787,17.1523026 C17.7251185,18.46122 16.2073631,19.8909036 14.8045992,21.4290342 C2.77213395,34.6883437 -2.2024138,52.8771898 1.41231333,70.396345 C2.98489235,78.3171555 5.90177279,84.0616411 10.0614979,87.6044956 C9.36639588,84.5635995 8.89170334,81.4767053 8.64110399,78.3677677 C8.59331055,78.1038216 8.76020067,77.8485094 9.02156665,77.7857273 Z" id="_路徑_32"></path>
                        <path d="M69.0332112,131.257525 C71.3159872,129.351132 73.5564895,127.301337 75.7547183,125.108141 C75.1967064,122.071409 74.6894228,120.046921 74.4865094,119.034677 C70.7447908,120.264714 66.8990865,121.154062 62.9965369,121.691817 C63.9837702,125.420053 66.0901938,128.757889 69.0332112,131.257525 Z" id="_路徑_33"></path>
                        <path d="M38.3171919,119.996308 C35.8908561,119.170044 33.5402365,118.137123 31.2913147,116.908964 L30.758667,116.579984 L30.758667,116.579984 C26.4614664,114.120883 22.6390827,110.915718 19.4716079,107.115502 C17.3663811,111.468151 17.1634677,114.707333 18.913596,117.010188 C22.0333898,120.95794 30.9869446,120.806104 38.3171919,119.996308 Z" id="_路徑_34"></path>
                        <path d="M111.137746,80.3163377 L111.137746,80.3163377 L111.137746,80.3163377 L111.137746,80.3163377 L111.137746,80.3163377 L111.391388,80.3163377 C113.429499,81.3960822 115.871871,81.3960822 117.909982,80.3163377 C119.737938,78.7084288 120.820657,76.4197852 120.902955,73.9898118 C121.140031,71.3975574 120.467639,68.8035961 119.000641,66.6510417 C118.33517,65.9026272 117.445786,65.3879655 116.464224,65.1832876 C116.36547,65.3175591 116.194383,65.3778045 116.033033,65.3351243 C115.890575,65.3224785 115.765307,65.2359528 115.703298,65.1073693 L115.449656,65.1073693 C114.012111,64.988066 112.591641,65.4850127 111.543573,66.4738989 C110.16028,68.2118048 109.433088,70.3794309 109.489075,72.5979761 C109.505226,72.8459703 109.329294,73.0653816 109.083248,73.1040981 C108.837382,73.1294865 108.606316,72.9827807 108.525236,72.7498127 C104.999615,76.6975649 87.0671415,96.6387747 69.2614888,109.291827 C69.9672668,113.111032 69.2163667,117.055514 67.156262,120.350594 C75.0669844,118.671278 82.5449165,115.380251 89.1216399,110.683662 C97.1865837,101.111567 104.53657,90.9618673 111.112382,80.3163377 L111.137746,80.3163377 Z" id="_路徑_35"></path>
                        <path d="M92.5965323,108.153052 C100.168613,101.763415 106.019165,93.5861773 109.615896,84.3653143 C104.37985,92.5969665 98.6983145,100.537974 92.5965323,108.153052 L92.5965323,108.153052 Z" id="_路徑_36"></path>
                        <path d="M76.6424645,124.27304 C80.2188136,120.806104 83.6683417,117.010188 86.7881356,113.214273 C83.1862964,115.433713 79.3500037,117.24987 75.3488914,118.629779 C75.6278974,119.540799 76.0844526,121.489369 76.6424645,124.27304 Z" id="_路徑_37"></path>
                        <path d="M55.2097343,139.228947 C56.5255493,138.796561 57.9095215,138.60788 59.2933669,138.672213 C62.3824697,136.563628 65.3623632,134.30004 68.2215575,131.890177 C65.0746373,129.149393 62.8662201,125.494822 61.9058772,121.438756 L61.9058772,121.28692 C61.6605745,120.14457 61.4995034,118.985822 61.4239579,117.819984 C61.3988329,117.746134 61.3988329,117.666078 61.4239579,117.592229 L61.4239579,117.592229 C61.3490972,116.471568 61.3490972,115.347178 61.4239579,114.226517 C59.2948861,115.442825 57.0827505,116.508308 54.8039075,117.415086 L54.8039075,117.415086 C53.2827771,118.038424 51.7135165,118.537745 50.1115346,118.908146 C43.9173047,120.446122 37.5713871,121.294834 31.189858,121.438756 C25.7872881,121.438756 20.6890884,120.502431 18.3048557,117.51631 C17.9124528,117.002925 17.6042453,116.43063 17.3917453,115.820801 C15.8952588,123.589775 16.6815483,129.992219 19.775978,134.850991 C23.8342464,141.22813 31.1391296,143.859964 36.5670637,144.973433 C40.792957,145.81028 45.1646608,145.531132 49.2491525,144.163638 C50.6053158,141.881416 52.7113793,140.137833 55.2097343,139.228947 L55.2097343,139.228947 Z" id="_路徑_38"></path>
                        <path d="M55.5141044,140.165273 C52.0645763,141.304048 49.5027943,144.315474 47.9048511,149.123634 C47.659014,149.87558 47.4724422,150.645542 47.3468392,151.426489 C48.9128421,149.437536 50.6529048,147.591365 52.5464956,145.909759 C52.6377696,145.810507 52.7665865,145.754006 52.9015941,145.754006 C53.0366018,145.754006 53.1654187,145.810507 53.2566926,145.909759 C53.3480824,146.00006 53.3994995,146.123063 53.3994995,146.251391 C53.3994995,146.379719 53.3480824,146.502723 53.2566926,146.593024 C50.8715788,148.656747 48.7958916,151.051531 47.0931974,153.704039 C47.0731309,154.550333 47.1240367,155.39682 47.2453825,156.234649 C47.2572619,156.310105 47.2572619,156.386948 47.2453825,156.462404 C49.1901699,153.722873 51.3896908,151.172526 53.8147045,148.845267 C53.9052126,148.754086 54.0284982,148.702787 54.1571209,148.702787 C54.2857436,148.702787 54.4090293,148.754086 54.4995373,148.845267 C54.6768717,149.038661 54.6768717,149.335138 54.4995373,149.528532 C51.9119684,151.937576 49.644539,154.66757 47.7526661,157.651791 C47.9759654,158.399909 48.3861785,159.079129 48.9447824,159.625667 C50.6797524,156.511041 52.858392,153.663984 55.4126477,151.173428 C55.5031558,151.082248 55.6264414,151.030948 55.7550641,151.030948 C55.8836868,151.030948 56.0069725,151.082248 56.0974805,151.173428 C56.1969598,151.264493 56.2535911,151.393015 56.2535911,151.527714 C56.2535911,151.662412 56.1969598,151.790934 56.0974805,151.881999 C53.5772408,154.29239 51.4314914,157.064389 49.7310719,160.106483 C50.3187391,160.280149 50.9442614,160.280149 51.5319285,160.106483 C52.3796557,159.826157 53.1578365,159.368944 53.8147045,158.76526 L59.8260147,152.894243 C61.2879772,151.486879 63.2776061,150.760857 65.304677,150.895061 L67.7142739,151.072204 L69.1853962,143.151393 C67.9171874,142.164455 61.4239579,138.242009 55.5141044,140.165273 Z" id="_路徑_39"></path>
                        <path d="M69.3629455,132.219157 L69.3629455,132.219157 L69.1853962,132.219157 C66.4714292,134.496706 63.6813697,136.673031 60.8405818,138.646907 C63.9022372,139.115032 66.8363826,140.199902 69.4644022,141.835476 L69.6926798,140.519559 C69.7440689,140.248541 70.0035009,140.06848 70.2760559,140.114661 L77.5809391,141.22813 C77.3359501,136.139743 76.7939287,131.069926 75.9576317,126.044467 C73.8016766,128.397935 71.569629,130.321199 69.3629455,132.219157 Z" id="_路徑_40"></path>
                    </g>
                    <path d="M117.529519,93.4449698 C119.388673,90.1364606 120.893457,86.6418194 122.018978,83.0188551 C124.230927,84.0323092 126.795334,83.928839 128.918035,82.7404879 C131.061514,80.9847024 132.34561,78.3947401 132.443656,75.6294728 C132.700362,72.7771513 131.936584,69.9262638 130.2877,67.5821318 C129.493807,66.6812402 128.423757,66.0673699 127.243999,65.8360106 C127.928832,60.7747898 130.871077,30.4074653 101.676908,14.8948236 L108.652057,10.7193165 C108.800658,10.6277769 108.887993,10.463189 108.880334,10.2891128 C108.884125,10.1226666 108.796596,9.96741671 108.652057,9.8842151 C105.193715,8.17468213 101.213529,7.83999031 97.5171828,8.94788925 C95.5860191,5.64151195 92.9963536,2.76495233 89.9079295,0.495650585 C89.7487763,0.381610872 89.5344349,0.381610872 89.3752817,0.495650585 C89.2140852,0.599875892 89.1257187,0.786000318 89.1470041,0.976466557 L90.1362071,8.82135874 C84.8604581,6.99931926 53.738612,-2.43985746 29.0339029,18.2605355 C27.3735742,19.6137797 25.8138124,21.0853947 24.3668942,22.6637975 C12.1192622,36.1444402 7.04191073,54.6404504 10.6956024,72.4662098 C12.4203665,81.2221217 15.7684379,87.4727293 20.6890884,91.04089 C22.227816,97.2424714 25.0533571,103.053035 28.9831745,108.097204 C27.7681555,110.253101 27.0734053,112.66183 26.9540403,115.132301 L26.9540403,115.132301 C24.7473568,124.217192 25.4321896,131.657187 28.9831745,137.249836 C33.0921713,143.955953 40.6506963,146.714318 46.2054512,147.979624 C50.2834796,148.773519 54.4926903,148.582629 58.4817132,147.422889 C57.9057672,148.510984 57.4221581,149.645286 57.0359551,150.813907 C56.6004583,152.259369 56.3699433,153.758545 56.3511223,155.267781 C56.3141235,155.36564 56.3141235,155.473596 56.3511223,155.571455 C56.2741017,156.413241 56.2741017,157.260278 56.3511223,158.102065 C56.4546088,159.891237 57.3228523,161.550024 58.735355,162.657164 C58.735355,162.657164 58.735355,162.657164 58.8875401,162.657164 C58.9531868,162.68032 59.0248068,162.68032 59.0904535,162.657164 L59.0904535,162.657164 C59.5079085,162.866689 59.9675054,162.979162 60.4347549,162.986143 C60.9087613,162.982535 61.3793484,162.905706 61.8297847,162.758388 C62.8775584,162.416907 63.826384,161.826334 64.5944801,161.037573 L70.6057902,155.191863 C71.8621283,153.975932 73.5773839,153.350285 75.3235273,153.471048 L77.6316674,153.622885 L77.6316674,154.255537 C77.5794879,154.376713 77.5794879,154.513953 77.6316674,154.635129 C77.7043574,154.73803 77.8128758,154.81021 77.9360376,154.837578 L84.0741686,155.875128 L71.0877096,161.113491 C70.8639109,161.214313 70.7381963,161.454714 70.7833394,161.695532 L71.2145305,163.13798 C68.2722858,163.542877 55.3365552,165.820427 53.9922538,176.170623 C53.4571166,178.790056 53.804893,181.512516 54.9814567,183.914291 C54.969838,183.97277 54.969838,184.032955 54.9814567,184.091434 C55.4191943,184.770893 56.0990747,185.259286 56.88377,185.457963 C57.1274152,185.496761 57.375686,185.496761 57.6193312,185.457963 L57.9490655,185.457963 L58.2027073,185.457963 C60.307934,185.078372 62.5653459,182.75021 64.4676592,178.954295 C64.3864199,179.663842 64.5766509,180.377835 65.0003069,180.953477 C65.328813,181.239935 65.7945069,181.309135 66.1924233,181.13062 C68.0947366,180.447355 72.3559185,175.28491 74.00459,173.235115 L74.2328676,174.019604 C74.2630382,174.155885 74.357596,174.269094 74.4865094,174.323278 L74.6894228,174.323278 L74.8669721,174.323278 L84.8097297,170.324913 C82.6027589,176.944485 80.0198893,183.433344 77.0736555,189.760001 C77.0131833,189.876916 77.0033713,190.013448 77.0465065,190.137776 C77.0896416,190.262103 77.1819555,190.363364 77.3019331,190.41796 C77.3675799,190.441116 77.4391998,190.441116 77.5048465,190.41796 C77.6908838,190.418943 77.8639549,190.323013 77.9614017,190.164899 C78.4940495,189.076736 79.0774256,187.786125 79.6861658,186.343677 C88.132437,167.186956 88.2085295,156.507781 88.2085295,156.507781 L115.677934,161.164104 L116.083761,161.164104 C116.752193,161.161819 117.388269,160.8767 117.833889,160.379614 C126.888901,151.016356 124.834402,114.702097 124.834402,113.183731 C124.880753,112.980816 124.79788,112.770278 124.625518,112.65306 C124.453156,112.535841 124.226445,112.535841 124.054083,112.65306 C123.881721,112.770278 123.798848,112.980816 123.845199,113.183731 C123.845199,113.563322 125.925062,150.611458 117.402698,159.974717 C117.086772,160.333002 116.603832,160.496825 116.134489,160.404921 L78.6969629,154.103701 L80.4470912,144.765748 L80.4470912,144.765748 L80.7260971,143.171464 L107.891131,147.346971 C109.005115,147.502235 110.071584,146.842538 110.427549,145.777993 C111.467481,142.665342 113.775621,133.479226 112.786418,116.068627 C112.780182,115.936281 112.719485,115.812367 112.618659,115.726142 C112.517833,115.639918 112.385813,115.599024 112.25377,115.613117 C112.12336,115.612311 111.998829,115.667185 111.911587,115.763898 C111.824346,115.860611 111.782722,115.989931 111.797215,116.119239 C112.786418,133.378002 110.503642,142.386975 109.489075,145.474319 C109.274263,146.109178 108.629767,146.49499 107.967224,146.385339 L88.6650847,143.399219 C88.41841,138.003182 87.8338942,132.627806 86.9149565,127.304537 C91.5819652,122.749438 95.9446038,117.966584 99.9267797,113.259649 C106.932959,108.25783 112.758902,101.788825 116.996871,94.3053774 C120.547856,96.5829267 148.676729,123.483315 145.658392,190.164899 C145.651427,190.296744 145.699109,190.425646 145.790252,190.521367 C145.881396,190.617088 146.00798,190.671021 146.140311,190.671021 L146.140311,190.671021 C146.39687,190.671021 146.608728,190.471127 146.622231,190.215511 C149.742025,122.926581 121.156596,95.7478253 117.529519,93.4449698 Z M66.0909666,180.396743 C66.0909666,180.396743 65.9387815,180.396743 65.8880531,180.396743 C65.4314979,179.991845 65.8880531,177.36001 66.3699725,175.183685 C66.4353661,174.932701 66.2894857,174.675196 66.0402382,174.601645 C65.7881181,174.518184 65.5158482,174.654007 65.4314979,174.905318 C63.3262712,180.751028 60.7644892,183.762454 58.7607192,184.521637 C59.1965448,181.060046 60.3450672,177.725757 62.1341548,174.728175 C62.2570116,174.488432 62.1807359,174.1949 61.9566056,174.04491 C61.7243881,173.9045 61.4225301,173.971426 61.2717728,174.196747 C59.3576853,177.403754 58.1634865,180.986782 57.7715163,184.69878 C57.6289808,184.72493 57.4828607,184.72493 57.3403252,184.69878 C56.8091226,184.554491 56.3490797,184.221498 56.0467522,183.762454 C56.3283971,180.184379 57.5727211,176.748466 59.6484654,173.817156 C59.8418129,173.620353 59.8418129,173.305387 59.6484654,173.108585 C59.4462719,172.928151 59.140462,172.928151 58.9382684,173.108585 C57.0281709,175.740689 55.7917332,178.798644 55.3365552,182.016333 C54.901,180.183563 54.8320463,178.283078 55.1336418,176.423684 C56.4018507,166.57961 69.2107604,164.529815 71.6457215,164.226142 L73.9284975,172.222871 C72.1276409,174.50042 67.7142739,179.814702 66.0909666,180.396743 Z M87.4476042,156.583699 C87.0910691,160.85138 86.3870029,165.083032 85.3423775,169.236751 L75.1967064,173.311033 L71.9247274,161.897981 L85.9764819,156.254719 L87.4476042,156.583699 Z M11.5326202,72.263761 C7.91789312,54.7446057 12.8924409,36.5557596 24.9249061,23.2964501 C26.3238041,21.7233842 27.8416581,20.2597667 29.4650939,18.9184942 C55.9960238,-3.32557109 90.0093862,9.75768458 90.3391205,9.8842151 C90.484769,9.98213716 90.6753914,9.98213716 90.8210399,9.8842151 C90.9504504,9.78082931 91.0175129,9.61833613 90.9985891,9.45401133 L90.0601145,1.86218019 C92.7560265,4.01776494 95.0193356,6.66226353 96.7308933,9.65646016 C96.8390162,9.85606989 97.0670746,9.95949548 97.2889052,9.9095212 C100.558957,8.92073649 104.065784,9.04537557 107.257027,10.2638067 L100.307242,14.4140077 C100.158641,14.5055473 100.071306,14.6701352 100.078965,14.8442114 C100.086559,15.020769 100.181625,15.18201 100.332607,15.2744152 C129.856509,30.4580775 126.838172,60.825402 126.153339,65.6082557 L125.899698,65.6082557 C125.27745,65.5880637 124.655176,65.6475971 124.048113,65.7853984 C118.366537,29.0409357 88.2592579,25.5739995 87.9548878,25.5486933 C87.8269333,25.5345398 87.6986221,25.572053 87.5985608,25.6528695 C87.4984995,25.733686 87.4350075,25.8510867 87.42224,25.9788971 C87.392044,26.2501035 87.5827763,26.4963684 87.8534311,26.5356314 C88.1578012,26.5356314 117.605612,29.850731 123.135002,66.1649899 C122.451879,66.4341006 121.830601,66.8387288 121.308781,67.3543768 C120.161634,68.578625 119.418056,70.1241987 119.178191,71.782945 C110.808012,49.2099004 80.6753688,37.1135828 80.3709986,36.9870523 C80.1456472,36.9016607 79.891187,36.9862865 79.7622584,37.1895011 C72.9257168,48.224484 63.3620432,57.321849 51.9884837,63.6090735 L53.307421,50.1462262 C53.3277203,49.9139303 53.1780361,49.7005854 52.9523225,49.6401042 C52.7284946,49.5728519 52.4875834,49.6669057 52.3689464,49.8678591 C38.1396427,76.3127376 19.3701512,79.6531433 19.1672377,79.6531433 C18.9173458,79.7033911 18.7436405,79.9308573 18.7614109,80.1845715 C19.0120103,83.2935091 19.4867028,86.3804033 20.1818049,89.4212993 C16.0220797,85.929057 13.2320202,80.1845715 11.5326202,72.263761 Z M19.775978,80.5894691 C22.6674943,79.9062043 39.0020247,75.2245751 52.0899404,52.4237756 L50.9231883,64.469481 C50.9189391,64.6439941 50.9934215,64.8111959 51.1261017,64.9249909 C51.28434,65.0104855 51.475147,65.0104855 51.6333852,64.9249909 C63.4044489,58.652374 73.3151078,49.4014953 80.3709986,38.1005208 C83.9473477,39.593581 111.366024,51.7405108 118.56945,73.1241685 C116.540316,75.4270239 97.7961887,96.4563962 79.4071599,109.666182 C79.0698614,108.551749 78.5835653,107.487752 77.9614017,106.502919 C77.0014108,104.697142 75.3113909,103.388763 73.3197572,102.909453 C68.9063903,101.973127 63.7574622,105.440063 60.0035639,107.970673 L57.9490655,109.337203 C55.3458685,110.939745 52.3800275,111.862273 49.3252451,112.01965 C48.6911406,111.867813 47.3722034,111.741283 44.5567797,111.462916 C42.998267,111.049139 41.3391617,111.54867 40.2702336,112.753527 C39.6478791,114.004672 39.6015921,115.46399 40.1434127,116.751891 C31.4181356,111.43761 21.5007421,100.859658 19.775978,80.5894691 Z M84.6321805,120.902092 C84.8350939,121.813112 85.3423775,123.938825 85.9003894,126.975557 C83.7021606,129.168753 81.4616583,131.218547 79.1788823,133.124941 C76.254583,130.618254 74.1663254,127.28116 73.1929363,123.559233 C77.0783386,123.018485 80.9069327,122.129168 84.6321805,120.902092 L84.6321805,120.902092 Z M72.9139304,122.67352 C72.7110169,121.7625 72.5841961,120.927399 72.4827393,120.142909 C73.9284975,120.320052 75.4757123,120.522501 77.0990197,120.775562 C76.8316648,121.248921 76.5351818,121.705304 76.2112735,122.142092 L72.9139304,122.67352 Z M72.4066468,119.130665 C72.3012687,117.909796 72.3012687,116.682149 72.4066468,115.46128 C74.5118736,114.246587 76.6424645,112.93067 78.7730554,111.386997 C79.2674072,114.256367 78.832048,117.208259 77.5302107,119.81393 C75.7293541,119.510257 74.1060467,119.257196 72.4066468,119.080053 L72.4066468,119.130665 Z M49.17306,120.39597 C49.0253406,120.575592 48.9134184,120.781744 48.8433257,121.003317 C46.4468257,120.204828 44.12894,119.18831 41.9189052,117.966584 L41.5130783,117.713523 C41.0818873,116.82781 40.2955978,114.626179 41.0818873,113.462098 C41.614535,112.702915 42.7305589,112.399242 44.455323,112.576384 L48.5643197,113.031894 C48.6714645,113.066691 48.7869093,113.066691 48.8940541,113.031894 L49.3506093,113.031894 C52.5851819,112.870568 55.7263011,111.895569 58.4817132,110.197611 L60.5615758,108.805775 C64.1632891,106.275164 69.1346679,102.909453 73.2436647,103.744554 C74.9735398,104.158875 76.436677,105.304531 77.2512048,106.882511 C77.8859625,107.905728 78.3726889,109.013264 78.6969629,110.172304 C74.3114693,113.370809 69.5812528,116.070027 64.5944801,118.219645 C55.9706596,117.738829 50.6695465,118.4474 49.17306,120.345358 L49.17306,120.39597 Z M62.1087907,119.23189 C61.3225011,119.484951 60.5362116,119.712706 59.7752863,119.889848 C59.7752863,119.889848 55.7931104,120.876786 50.745639,121.610663 L49.7818003,121.30699 C49.8145096,121.172131 49.8848674,121.049287 49.9847137,120.952705 C50.5680898,120.142909 52.9269583,118.801686 62.1087907,119.181277 L62.1087907,119.23189 Z M29.5411864,109.109448 C32.7086613,112.909664 36.531045,116.114829 40.8282455,118.573931 L40.8282455,118.573931 L41.3608933,118.90291 C43.6098151,120.13107 45.9604347,121.16399 48.3867705,121.990255 C40.9804306,122.875969 32.1029684,122.951887 28.907082,118.953522 C27.2330463,116.625361 27.4359597,113.284955 29.5411864,108.932305 L29.5411864,109.109448 Z M46.459093,147.068604 C41.031159,145.980441 33.7770041,143.348607 29.6680073,136.946162 C26.5735776,132.08739 25.7872881,125.684946 27.2837746,117.915972 C27.4962746,118.525801 27.8044822,119.098096 28.196885,119.611481 C30.5811177,122.597601 35.8061383,123.533927 41.0818873,123.533927 C47.4634165,123.390005 53.809334,122.541293 60.0035639,121.003317 C61.6055458,120.632916 63.1748064,120.133595 64.6959368,119.510257 L64.6959368,119.510257 C66.9747798,118.603478 69.1869154,117.537996 71.3159872,116.321688 C71.2411265,117.442349 71.2411265,118.566739 71.3159872,119.687399 L71.3159872,119.687399 C71.2908622,119.761249 71.2908622,119.841305 71.3159872,119.915154 C71.416588,121.082881 71.6030946,122.241649 71.8739991,123.382091 L71.8739991,123.533927 C72.8343419,127.589993 75.0427591,131.244563 78.1896793,133.985348 C75.330485,136.395211 72.3505916,138.658799 69.2614888,140.767384 C67.8776434,140.703051 66.4936712,140.891732 65.1778562,141.324118 C62.6125028,142.239583 60.4555814,144.032902 59.0904535,146.385339 C54.9928421,147.634636 50.6402003,147.800321 46.459093,146.866155 L46.459093,147.068604 Z M77.9360376,153.015538 L75.5264407,152.838395 C73.4993697,152.704191 71.5097408,153.430213 70.0477783,154.837578 L63.9603756,160.632675 C63.2936433,161.291326 62.487673,161.792823 61.6015071,162.100429 C61.0138399,162.274096 60.3883176,162.274096 59.8006505,162.100429 C61.50107,159.058335 63.6468194,156.286336 66.1670591,153.875946 C66.2665384,153.784881 66.3231697,153.656359 66.3231697,153.52166 C66.3231697,153.386962 66.2665384,153.25844 66.1670591,153.167375 C66.0765511,153.076194 65.9532654,153.024895 65.8246427,153.024895 C65.69602,153.024895 65.5727343,153.076194 65.4822263,153.167375 C62.9049652,155.637273 60.7006674,158.467317 58.9382684,161.569001 C58.3796645,161.022463 57.9694514,160.343243 57.7461521,159.595125 C59.6380251,156.610905 61.9054545,153.880911 64.4930234,151.471866 C64.6703577,151.278472 64.6703577,150.981995 64.4930234,150.788601 C64.4025153,150.69742 64.2792297,150.646121 64.150607,150.646121 C64.0219843,150.646121 63.8986986,150.69742 63.8081906,150.788601 C61.4682442,153.028843 59.3373334,155.476744 57.441782,158.102065 C57.4536614,158.026609 57.4536614,157.949766 57.441782,157.87431 C57.3204361,157.036481 57.2695304,156.189994 57.2895969,155.3437 C58.9786866,152.740955 61.0280996,150.389526 63.3769995,148.359215 C63.4683894,148.268914 63.5198064,148.145911 63.5198064,148.017583 C63.5198064,147.889254 63.4683894,147.766251 63.3769995,147.67595 C63.2857256,147.576699 63.1569087,147.520197 63.0219011,147.520197 C62.8868934,147.520197 62.7580765,147.576699 62.6668026,147.67595 C60.7732118,149.357556 59.033149,151.203728 57.4671461,153.192681 C57.5927491,152.411734 57.7793209,151.641772 58.025158,150.889825 C59.6484654,146.081666 62.2102474,143.070239 65.6344114,141.931465 C71.4174439,140.008201 78.0374943,143.930647 79.3817957,144.791054 L77.9360376,153.015538 Z M87.7266102,143.449831 L80.421727,142.336362 C80.149172,142.290182 79.88974,142.470243 79.8383509,142.74126 L79.6100733,144.057177 C76.9820537,142.421603 74.0479083,141.336733 70.9862529,140.868608 C73.8270408,138.894732 76.6171003,136.718407 79.3310673,134.440858 L79.5086166,134.440858 L79.5086166,134.440858 C81.7660284,132.5429 83.9473477,130.543718 86.1033028,128.493924 C86.9231886,133.377217 87.4651592,138.302926 87.7266102,143.247382 L87.7266102,143.449831 Z M86.7881356,126.140456 C86.280852,123.356785 85.8242968,121.408215 85.6213834,120.598419 C89.5830751,119.177839 93.3765813,117.32786 96.9338067,115.081689 C93.8140128,118.877604 90.3644847,122.67352 86.7881356,126.140456 Z M99.267311,112.551078 C92.7385472,117.060728 85.3611561,120.20293 77.5809391,121.787806 C79.6410437,118.492726 80.3919439,114.548244 79.6861658,110.729039 C97.4410902,98.0759868 115.424292,78.134777 118.949913,74.1870249 C119.030993,74.4199929 119.262059,74.5666987 119.507925,74.5413103 C119.753971,74.5025937 119.929903,74.2831824 119.913752,74.0351882 C119.857765,71.816643 120.584957,69.649017 121.96825,67.9111111 C123.016318,66.9222249 124.436788,66.4252782 125.874333,66.5445815 L126.127975,66.5445815 C126.189984,66.6731649 126.315252,66.7596907 126.45771,66.7723364 C126.61906,66.8150167 126.790147,66.7547713 126.888901,66.6204998 C127.870463,66.8251777 128.759847,67.3398394 129.425318,68.0882538 C130.892317,70.2408083 131.564708,72.8347696 131.327632,75.4270239 C131.245334,77.8569973 130.162615,80.145641 128.334659,81.7535499 C126.296548,82.8332944 123.854176,82.8332944 121.816065,81.7535499 L121.562423,81.7535499 L121.562423,81.7535499 L121.562423,81.7535499 L121.562423,81.7535499 L121.562423,81.7535499 L121.562423,81.7535499 C114.906766,92.5569929 107.454481,102.851265 99.267311,112.551078 L99.267311,112.551078 Z M102.742203,110.020468 C108.843986,102.40539 114.525522,94.4643824 119.761567,86.2327303 C116.164836,95.4535932 110.314285,103.630831 102.742203,110.020468 Z" id="_複合路徑_5" fill="#371608" fill-rule="nonzero"></path>
                </g>
            </g>
        </g>
    </g>
</svg>