<svg width="56" height="56" viewBox="0 0 56 56" fill="none" xmlns="http://www.w3.org/2000/svg">
<path d="M0 12.5459C0 5.617 5.617 0 12.5459 0H43.3329C50.2619 0 55.8789 5.617 55.8789 12.5459V43.3329C55.8789 50.2619 50.2619 55.8789 43.3329 55.8789H12.5459C5.617 55.8789 0 50.2619 0 43.3329V12.5459Z" fill="#25010F"/>
<g filter="url(#filter0_i_19_948)">
<path d="M17.8249 15.3525C21.3598 15.3525 24.0715 16.0305 25.96 17.3863C27.8727 18.7179 28.829 20.7154 28.829 23.3786C28.829 24.8313 28.5627 26.0782 28.03 27.1193C27.5216 28.1362 26.771 28.9715 25.7784 29.6252C24.8099 30.2547 23.6236 30.7147 22.2193 31.0052C20.815 31.2958 19.2292 31.441 17.4618 31.441H14.6653V40.7745H11.1426V15.9699C12.1352 15.7278 13.2369 15.5704 14.4474 15.4978C15.6822 15.401 16.8081 15.3525 17.8249 15.3525ZM18.1155 18.4395C16.6144 18.4395 15.4643 18.4758 14.6653 18.5484V28.4267H17.3165C18.5271 28.4267 19.6166 28.3541 20.585 28.2088C21.5535 28.0393 22.3646 27.773 23.0183 27.4098C23.6962 27.0224 24.2167 26.5019 24.5799 25.8482C24.9431 25.1945 25.1247 24.3592 25.1247 23.3423C25.1247 22.3739 24.931 21.5749 24.5436 20.9454C24.1804 20.3159 23.672 19.8195 23.0183 19.4564C22.3888 19.069 21.6503 18.8027 20.8029 18.6574C19.9555 18.5121 19.0597 18.4395 18.1155 18.4395Z" fill="url(#paint0_linear_19_948)"/>
<path d="M37.4143 38.3413C38.7944 38.3413 39.8113 38.1597 40.465 37.7965C41.1429 37.4334 41.4819 36.8523 41.4819 36.0533C41.4819 35.2301 41.155 34.5764 40.5013 34.0922C39.8476 33.6079 38.7702 33.0632 37.2691 32.4579C36.5427 32.1674 35.8406 31.8768 35.1627 31.5863C34.509 31.2715 33.94 30.9084 33.4558 30.4968C32.9715 30.0852 32.5842 29.5889 32.2936 29.0078C32.0031 28.4267 31.8578 27.7125 31.8578 26.8651C31.8578 25.1945 32.4752 23.875 33.71 22.9065C34.9448 21.9138 36.6275 21.4175 38.7581 21.4175C39.2907 21.4175 39.8234 21.4538 40.356 21.5265C40.8887 21.5749 41.385 21.6475 41.845 21.7444C42.305 21.817 42.7045 21.9017 43.0435 21.9986C43.4067 22.0954 43.6851 22.1802 43.8788 22.2528L43.2614 25.1582C42.8982 24.9645 42.3293 24.7708 41.5545 24.5771C40.7797 24.3592 39.8476 24.2502 38.7581 24.2502C37.8138 24.2502 36.9906 24.4439 36.2885 24.8313C35.5864 25.1945 35.2353 25.7756 35.2353 26.5745C35.2353 26.9861 35.3079 27.3493 35.4532 27.664C35.6227 27.9788 35.8648 28.2693 36.1795 28.5357C36.5185 28.7778 36.9301 29.0078 37.4143 29.2257C37.8986 29.4436 38.4796 29.6736 39.1576 29.9157C40.0534 30.2547 40.8524 30.5936 41.5545 30.9326C42.2566 31.2473 42.8498 31.6226 43.334 32.0584C43.8425 32.4942 44.2298 33.0269 44.4962 33.6564C44.7625 34.2617 44.8957 35.0122 44.8957 35.908C44.8957 37.6513 44.242 38.9708 42.9345 39.8666C41.6513 40.7624 39.8113 41.2103 37.4143 41.2103C35.7437 41.2103 34.4363 41.0651 33.4921 40.7745C32.5478 40.5082 31.9062 40.3024 31.5673 40.1571L32.1847 37.2518C32.572 37.397 33.1894 37.6149 34.0368 37.9055C34.8842 38.196 36.0101 38.3413 37.4143 38.3413Z" fill="url(#paint1_linear_19_948)"/>
</g>
<defs>
<filter id="filter0_i_19_948" x="11.1426" y="15.3525" width="40.7529" height="29.8574" filterUnits="userSpaceOnUse" color-interpolation-filters="sRGB">
<feFlood flood-opacity="0" result="BackgroundImageFix"/>
<feBlend mode="normal" in="SourceGraphic" in2="BackgroundImageFix" result="shape"/>
<feColorMatrix in="SourceAlpha" type="matrix" values="0 0 0 0 0 0 0 0 0 0 0 0 0 0 0 0 0 0 127 0" result="hardAlpha"/>
<feOffset dx="7" dy="4"/>
<feGaussianBlur stdDeviation="4.5"/>
<feComposite in2="hardAlpha" operator="arithmetic" k2="-1" k3="1"/>
<feColorMatrix type="matrix" values="0 0 0 0 1 0 0 0 0 1 0 0 0 0 1 0 0 0 0.15 0"/>
<feBlend mode="normal" in2="shape" result="effect1_innerShadow_19_948"/>
</filter>
<linearGradient id="paint0_linear_19_948" x1="11.1426" y1="15.3525" x2="36.1088" y2="47.9418" gradientUnits="userSpaceOnUse">
<stop stop-color="#00C2FF"/>
<stop offset="1" stop-color="#2F80ED"/>
</linearGradient>
<linearGradient id="paint1_linear_19_948" x1="11.1426" y1="15.3525" x2="36.1088" y2="47.9418" gradientUnits="userSpaceOnUse">
<stop stop-color="#00C2FF"/>
<stop offset="1" stop-color="#2F80ED"/>
</linearGradient>
</defs>
</svg>
