<?xml version="1.0" encoding="UTF-8"?>
<svg width="50px" height="49px" viewBox="0 0 50 49" version="1.1" xmlns="http://www.w3.org/2000/svg" xmlns:xlink="http://www.w3.org/1999/xlink">
    <!-- Generator: Sketch 63 (92445) - https://sketch.com -->
    <title>Group 26</title>
    <desc>Created with Sketch.</desc>
    <defs>
        <radialGradient cx="50%" cy="0%" fx="50%" fy="0%" r="100%" gradientTransform="translate(0.500000,0.000000),scale(0.980000,1.000000),rotate(90.000000),translate(-0.500000,-0.000000)" id="radialGradient-1">
            <stop stop-color="#DE5CB4" offset="0%"></stop>
            <stop stop-color="#A33683" offset="100%"></stop>
        </radialGradient>
    </defs>
    <g id="Page-1" stroke="none" stroke-width="1" fill="none" fill-rule="evenodd">
        <g id="Desktop-HD" transform="translate(-1509.000000, -1726.000000)">
            <g id="Group-26" transform="translate(1509.000000, 1726.000000)">
                <path d="M25.5,0 C39.0309764,-2.48560004e-15 50,10.9690236 50,24.5 C50,38.0309764 39.0309764,49 25.5,49 L24.5,49 C10.9690236,49 1.65706669e-15,38.0309764 0,24.5 C-1.65706669e-15,10.9690236 10.9690236,2.48560004e-15 24.5,0 L25.5,0 Z M26.1089045,19.8763433 C25.5660263,19.3988595 24.6053443,19.4361361 24.1260006,19.9739629 L24.1260006,19.9739629 L16.243219,28.8184938 L16.1850129,28.8896921 C15.8420827,29.348593 15.9861272,29.9515934 16.5321435,30.2712775 L16.5321435,30.2712775 L16.6199878,30.3184538 C17.1861796,30.5964002 17.9301611,30.4796515 18.3245873,30.0371029 L18.3245873,30.0371029 L25.2077666,22.3133984 L32.7055482,30.0695216 L32.7738347,30.134572 C33.2228957,30.528746 33.9776677,30.5835767 34.5078928,30.2468834 C35.0660244,29.8924694 35.1639974,29.2384433 34.7267217,28.7860751 L34.7267217,28.7860751 L26.1772714,19.9415442 Z" id="Combined-Shape" fill="url(#radialGradient-1)"></path>
                <g id="Path-11" transform="translate(15.000000, 19.000000)" fill="#151235" fill-rule="nonzero">
                    <polygon id="Path-10" points="10.0678481 0 21 10.7544047 18.7172898 13 10.1502368 4.57237026 2.36274281 12.8019286 0 10.6379272"></polygon>
                </g>
            </g>
        </g>
    </g>
</svg>