<?xml version="1.0" encoding="UTF-8"?>
<svg width="51px" height="50px" viewBox="0 0 51 50" version="1.1" xmlns="http://www.w3.org/2000/svg" xmlns:xlink="http://www.w3.org/1999/xlink">
    <!-- Generator: Sketch 63 (92445) - https://sketch.com -->
    <title>Group 38</title>
    <desc>Created with Sketch.</desc>
    <defs>
        <linearGradient x1="50%" y1="0%" x2="50%" y2="100%" id="linearGradient-1">
            <stop stop-color="#B1D08E" offset="0%"></stop>
            <stop stop-color="#7DB18D" offset="59.2160635%"></stop>
            <stop stop-color="#50968D" offset="100%"></stop>
        </linearGradient>
    </defs>
    <g id="Page-1" stroke="none" stroke-width="1" fill="none" fill-rule="evenodd">
        <g id="Desktop-HD" transform="translate(-1508.000000, -1664.000000)">
            <g id="Group-38" transform="translate(1508.000000, 1664.000000)">
                <g id="Group-17">
                    <circle id="Oval" fill="#151235" cx="25" cy="24" r="18"></circle>
                    <g id="Combined-Shape-2" fill="url(#linearGradient-1)">
                        <path d="M25.3424658,0 C39.3387231,0 50.6849315,11.1928813 50.6849315,25 C50.6849315,38.8071187 39.3387231,50 25.3424658,50 C11.3462084,50 9.73346213e-14,38.8071187 9.73346213e-14,25 C9.73346213e-14,11.1928813 11.3462084,0 25.3424658,0 Z M25.2876384,14.2093279 C18.2462403,14.2093279 12.512866,18.7989486 12.512866,24.4393915 C12.512866,29.4926103 17.0557035,33.7268058 23.1963667,34.5303757 C24.69237,34.8471677 24.5200555,35.3880321 24.1832589,37.3737771 C24.1284316,37.6905691 23.9247872,38.6177652 25.2876384,38.0537209 C26.6504897,37.4896766 32.6423357,33.7808922 35.3288758,30.7365984 C37.1773407,28.7276735 38.0624108,26.6955687 38.0624108,24.4393915 C38.0624108,18.7989486 32.3290365,14.2093279 25.2876384,14.2093279 Z M24.9508418,21.7196163 C25.0291666,21.7196163 25.1153239,21.7582495 25.1544863,21.8277892 L27.7078742,25.2275082 L27.7078742,21.9668686 C27.7078742,21.8277892 27.8175289,21.7196163 27.9585136,21.7196163 L28.8514161,21.7196163 C28.9924007,21.7118897 29.1098879,21.8277892 29.1098879,21.959142 L29.1098879,27.4527789 C29.1098879,27.5918583 29.0002332,27.7000311 28.8592486,27.7000311 L27.966346,27.7000311 C27.8801888,27.7000311 27.801864,27.6536713 27.7627016,27.5995849 L25.2093136,24.1998659 L25.2093136,27.4605055 C25.2093136,27.5995849 25.0996589,27.7077578 24.9586743,27.7077578 L24.0657718,27.7077578 C23.9247872,27.7077578 23.8151325,27.5995849 23.8151325,27.4605055 L23.8151325,21.9668686 C23.8151325,21.8277892 23.9247872,21.7196163 24.0657718,21.7196163 L24.9508418,21.7196163 Z M22.6872556,21.7118897 C22.8282402,21.7118897 22.9378949,21.8277892 22.9378949,21.959142 L22.9378949,21.959142 L22.9378949,27.4527789 C22.9378949,27.5918583 22.8282402,27.7000311 22.6872556,27.7000311 L22.6872556,27.7000311 L21.794353,27.7000311 C21.6533684,27.7000311 21.5437137,27.5918583 21.5437137,27.4527789 L21.5437137,27.4527789 L21.5437137,21.959142 C21.5437137,21.8200626 21.6533684,21.7118897 21.794353,21.7118897 L21.794353,21.7118897 Z M33.809375,21.7118897 C33.9425271,21.7118897 34.0521818,21.8277892 34.0600143,21.959142 L34.0600143,21.959142 L34.0600143,22.8399783 C34.0600143,22.9790577 33.9503596,23.0872306 33.809375,23.0872306 L33.809375,23.0872306 L31.3734742,23.0872306 L31.3734742,24.0144267 L33.809375,24.0144267 C33.9503596,24.0144267 34.0600143,24.1225995 34.0600143,24.2616789 L34.0600143,24.2616789 L34.0600143,25.1502419 C34.0600143,25.2893213 33.9503596,25.3974942 33.809375,25.3974942 L33.809375,25.3974942 L31.3734742,25.3974942 L31.3734742,26.3246903 L33.809375,26.3246903 C33.9503596,26.3246903 34.0600143,26.4328631 34.0600143,26.5719426 L34.0600143,26.5719426 L34.0600143,27.4527789 C34.0600143,27.5918583 33.9503596,27.7000311 33.809375,27.7000311 L33.809375,27.7000311 L30.2299323,27.7000311 C30.0889477,27.7000311 29.979293,27.5841316 29.979293,27.4527789 L29.979293,27.4527789 L29.979293,21.959142 C29.979293,21.8200626 30.0967802,21.7118897 30.2299323,21.7118897 L30.2299323,21.7118897 Z M17.8467839,21.7118897 C17.9877685,21.7118897 18.0974232,21.8200626 18.0974232,21.959142 L18.0974232,21.959142 L18.0974232,26.3169636 L20.533324,26.3169636 C20.6664761,26.3169636 20.7761308,26.4328631 20.7761308,26.5642159 L20.7761308,26.5642159 L20.7761308,27.4450522 C20.7761308,27.5841316 20.6664761,27.6923045 20.5254915,27.6923045 L20.5254915,27.6923045 L16.9460488,27.6923045 C16.8755565,27.6923045 16.8207292,27.661398 16.7737343,27.6227648 C16.7267394,27.576405 16.703242,27.5223186 16.703242,27.4527789 L16.703242,27.4527789 L16.703242,21.959142 C16.703242,21.8200626 16.8128967,21.7118897 16.9538813,21.7118897 L16.9538813,21.7118897 Z" id="Combined-Shape"></path>
                    </g>
                </g>
            </g>
        </g>
    </g>
</svg>