<?xml version="1.0" encoding="UTF-8"?>
<svg width="51px" height="51px" viewBox="0 0 51 51" version="1.1" xmlns="http://www.w3.org/2000/svg" xmlns:xlink="http://www.w3.org/1999/xlink">
    <!-- Generator: Sketch 63 (92445) - https://sketch.com -->
    <title>Group 40</title>
    <desc>Created with Sketch.</desc>
    <defs>
        <linearGradient x1="50%" y1="0%" x2="50%" y2="100%" id="linearGradient-1">
            <stop stop-color="#A7EFFF" offset="0%"></stop>
            <stop stop-color="#6497FB" offset="100%"></stop>
        </linearGradient>
    </defs>
    <g id="Page-1" stroke="none" stroke-width="1" fill="none" fill-rule="evenodd">
        <g id="Desktop-HD" transform="translate(-1508.000000, -1601.000000)">
            <g id="Group-40" transform="translate(1508.000000, 1601.000000)">
                <g id="Group-35">
                    <circle id="Oval" fill="url(#linearGradient-1)" cx="25.5" cy="25.5" r="25.5"></circle>
                    <g id="facebook-f-brands" transform="translate(16.000000, 11.000000)" fill="#151235" fill-rule="nonzero">
                        <path d="M16.8204361,17.4375 L17.7538473,11.8272266 L11.9177303,11.8272266 L11.9177303,8.18654297 C11.9177303,6.65167969 12.7329881,5.15556641 15.3468018,5.15556641 L18,5.15556641 L18,0.379023438 C18,0.379023438 15.5922982,0 13.2902779,0 C8.48406389,0 5.34249872,2.68707031 5.34249872,7.55140625 L5.34249872,11.8272266 L0,11.8272266 L0,17.4375 L5.34249872,17.4375 L5.34249872,31 L11.9177303,31 L11.9177303,17.4375 L16.8204361,17.4375 Z" id="Path"></path>
                    </g>
                </g>
            </g>
        </g>
    </g>
</svg>