<svg width="57" height="56" viewBox="0 0 57 56" fill="none" xmlns="http://www.w3.org/2000/svg">
<path d="M0.515625 12.5459C0.515625 5.617 6.13262 0 13.0615 0H43.8486C50.7775 0 56.3945 5.617 56.3945 12.5459V43.3329C56.3945 50.2619 50.7775 55.8789 43.8486 55.8789H13.0615C6.13262 55.8789 0.515625 50.2619 0.515625 43.3329V12.5459Z" fill="#25010F"/>
<path d="M43.9995 24.3398L28.4646 42.1762L12.9297 24.3398" fill="#EC6C00"/>
<path d="M37.2418 15.3262L43.9995 24.3276H37.7079L28.4646 42.1766L19.2213 24.3276H12.9297L19.6874 15.3262" fill="#FFAE00"/>
<path d="M28.4647 14.3672L37.2064 15.2949L37.6705 24.3402H19.2588L19.723 15.2949" fill="#FED305"/>
<path d="M28.4647 14.3672L37.6705 24.3402H19.2588" fill="#FFEFB4"/>
</svg>
