<?xml version="1.0" encoding="UTF-8"?>
<svg width="50px" height="50px" viewBox="0 0 50 50" version="1.1" xmlns="http://www.w3.org/2000/svg" xmlns:xlink="http://www.w3.org/1999/xlink">
    <!-- Generator: Sketch 63 (92445) - https://sketch.com -->
    <title>Combined Shape</title>
    <desc>Created with Sketch.</desc>
    <defs>
        <linearGradient x1="50%" y1="0%" x2="50%" y2="100%" id="linearGradient-1">
            <stop stop-color="#B1D08E" offset="0%"></stop>
            <stop stop-color="#50968D" offset="100%"></stop>
        </linearGradient>
    </defs>
    <g id="Page-1" stroke="none" stroke-width="1" fill="none" fill-rule="evenodd">
        <g id="Desktop-HD" transform="translate(-1508.000000, -1054.000000)" fill="url(#linearGradient-1)">
            <path d="M1533.33333,1054.32432 C1546.95636,1054.32432 1558,1065.36797 1558,1078.99099 C1558,1092.61401 1546.95636,1103.65766 1533.33333,1103.65766 L1532.66667,1103.65766 C1519.04364,1103.65766 1508,1092.61401 1508,1078.99099 C1508,1065.36797 1519.04364,1054.32432 1532.66667,1054.32432 L1533.33333,1054.32432 Z M1533.74778,1071.4999 C1533.08108,1070.77152 1531.9013,1070.82838 1531.31263,1071.64882 L1531.31263,1071.64882 L1521.63202,1085.14078 L1521.56054,1085.24939 C1521.1394,1085.94943 1521.3163,1086.86928 1521.98684,1087.35694 L1521.98684,1087.35694 L1522.09472,1087.42891 C1522.79005,1087.85291 1523.70371,1087.67481 1524.18809,1086.99972 L1524.18809,1086.99972 L1532.64112,1075.21753 L1541.84892,1087.04917 L1541.93278,1087.14841 C1542.48426,1087.7497 1543.41117,1087.83334 1544.06232,1087.31973 C1544.74775,1086.77909 1544.86807,1085.7814 1544.33106,1085.09133 L1544.33106,1085.09133 L1533.83174,1071.59936 Z" id="Combined-Shape"></path>
        </g>
    </g>
</svg>