<svg width="201" height="61" viewBox="0 0 201 61" fill="none" xmlns="http://www.w3.org/2000/svg">
<path fill-rule="evenodd" clip-rule="evenodd" d="M0 8.56934C0 8.01705 0.447715 7.56934 1 7.56934H191.175C191.727 7.56934 192.175 8.01705 192.175 8.56934C192.175 9.12162 191.727 9.56934 191.175 9.56934H1C0.447715 9.56934 0 9.12162 0 8.56934Z" fill="#BC0909"/>
<path fill-rule="evenodd" clip-rule="evenodd" d="M19.8691 5.73047C19.8691 5.17818 20.3169 4.73047 20.8691 4.73047H193.067C193.619 4.73047 194.067 5.17818 194.067 5.73047C194.067 6.28275 193.619 6.73047 193.067 6.73047H20.8691C20.3169 6.73047 19.8691 6.28275 19.8691 5.73047Z" fill="#BC0909"/>
<path fill-rule="evenodd" clip-rule="evenodd" d="M12.7725 44.1035C12.7725 43.5512 13.2202 43.1035 13.7725 43.1035H185.971C186.523 43.1035 186.971 43.5512 186.971 44.1035C186.971 44.6558 186.523 45.1035 185.971 45.1035H13.7725C13.2202 45.1035 12.7725 44.6558 12.7725 44.1035Z" fill="#BC0909"/>
<path fill-rule="evenodd" clip-rule="evenodd" d="M1.89258 47.834C1.89258 47.2817 2.34029 46.834 2.89258 46.834H199.663C200.215 46.834 200.663 47.2817 200.663 47.834C200.663 48.3863 200.215 48.834 199.663 48.834H2.89258C2.34029 48.834 1.89258 48.3863 1.89258 47.834Z" fill="#BC0909"/>
<path fill-rule="evenodd" clip-rule="evenodd" d="M1 0C1.55228 0 2 0.447715 2 1V54.9302C2 55.4824 1.55228 55.9302 1 55.9302C0.447715 55.9302 0 55.4824 0 54.9302V1C0 0.447715 0.447715 0 1 0Z" fill="#BC0909"/>
<path fill-rule="evenodd" clip-rule="evenodd" d="M3.36523 2.36523C3.91752 2.36523 4.36523 2.81295 4.36523 3.36523V59.6608C4.36523 60.213 3.91752 60.6608 3.36523 60.6608C2.81295 60.6608 2.36523 60.213 2.36523 59.6608V3.36523C2.36523 2.81295 2.81295 2.36523 3.36523 2.36523Z" fill="#BC0909"/>
<path fill-rule="evenodd" clip-rule="evenodd" d="M185.971 1.89258C186.523 1.89258 186.971 2.34029 186.971 2.89258V59.1881C186.971 59.7404 186.523 60.1881 185.971 60.1881C185.418 60.1881 184.971 59.7404 184.971 59.1881V2.89258C184.971 2.34029 185.418 1.89258 185.971 1.89258Z" fill="#BC0909"/>
<path fill-rule="evenodd" clip-rule="evenodd" d="M190.229 0.946289C190.781 0.946289 191.229 1.394 191.229 1.94629V54.4572C191.229 55.0095 190.781 55.4572 190.229 55.4572C189.676 55.4572 189.229 55.0095 189.229 54.4572V1.94629C189.229 1.394 189.676 0.946289 190.229 0.946289Z" fill="#BC0909"/>
<path fill-rule="evenodd" clip-rule="evenodd" d="M192.091 10.083C192.367 10.083 192.591 10.3069 192.591 10.583V46.742C192.591 47.0182 192.367 47.242 192.091 47.242C191.815 47.242 191.591 47.0182 191.591 46.742V10.583C191.591 10.3069 191.815 10.083 192.091 10.083Z" fill="#BC0909"/>
<path fill-rule="evenodd" clip-rule="evenodd" d="M185.614 9.81348C185.89 9.81348 186.114 10.0373 186.114 10.3135V47.0122C186.114 47.2883 185.89 47.5122 185.614 47.5122C185.338 47.5122 185.114 47.2883 185.114 47.0122V10.3135C185.114 10.0373 185.338 9.81348 185.614 9.81348Z" fill="#BC0909"/>
</svg>
