<?xml version="1.0" encoding="UTF-8"?>
<svg width="679px" height="168px" viewBox="0 0 679 168" version="1.1" xmlns="http://www.w3.org/2000/svg" xmlns:xlink="http://www.w3.org/1999/xlink">
    <!-- Generator: Sketch 63 (92445) - https://sketch.com -->
    <title>Group 42</title>
    <desc>Created with Sketch.</desc>
    <defs>
        <linearGradient x1="50%" y1="0%" x2="50%" y2="100%" id="linearGradient-1">
            <stop stop-color="#A7EFFF" offset="0%"></stop>
            <stop stop-color="#6497FB" offset="100%"></stop>
        </linearGradient>
    </defs>
    <g id="Page-1" stroke="none" stroke-width="1" fill="none" fill-rule="evenodd">
        <g id="Group-42" transform="translate(0.599012, 0.000000)" fill-rule="nonzero">
            <path d="M678.400988,0 L44.4009884,0 L44.4009884,59 L-1.13686838e-13,59 L44.4009884,103.748 L44.4009884,168 L678.400988,168 L678.400988,0 Z M676.400988,2 L676.400988,166 L46.4009884,166 L46.4009884,102.924064 L4.8019884,61 L46.4009884,61 L46.4009884,2 L676.400988,2 Z" id="Combined-Shape-Copy" fill="url(#linearGradient-1)" transform="translate(339.200494, 84.000000) scale(-1, 1) translate(-339.200494, -84.000000) "></path>
            <path d="M49.7529884,63.92 L49.7529884,55.952 L53.4729884,55.952 L53.4729884,53.552 L49.7529884,53.552 L49.7529884,51.704 L53.8569884,51.704 L53.8569884,49.352 L51.3609884,49.352 C51.7209884,48.608 52.0809884,47.672 52.4409884,46.76 L50.4969884,46.376 L53.4969884,46.376 L53.4969884,44.048 L50.0649884,44.048 C49.7769884,43.232 49.3449884,42.248 48.9849884,41.456 L46.1289884,42.152 C46.3689884,42.728 46.6329884,43.4 46.8489884,44.048 L42.7449884,44.048 L42.7449884,46.376 L45.9849884,46.376 L44.0169884,46.856 C44.3049884,47.6 44.5929884,48.632 44.7129884,49.352 L42.3849884,49.352 L42.3849884,51.704 L46.9929884,51.704 L46.9929884,53.552 L42.5289884,53.552 L42.5289884,55.952 L46.9929884,55.952 L46.9929884,63.92 L49.7529884,63.92 Z M54.9609884,64.04 C57.0009884,60.968 57.3129884,56.024 57.3129884,52.496 L57.3129884,52.208 L59.5449884,52.208 L59.5449884,63.992 L62.3289884,63.992 L62.3289884,52.208 L64.5609884,52.208 L64.5609884,49.568 L57.3129884,49.568 L57.3129884,45.8 C59.6649884,45.368 62.1609884,44.792 64.1289884,44 L61.9449884,41.912 C60.1929884,42.728 57.2889884,43.472 54.6729884,43.952 L54.6729884,52.496 C54.6729884,54.704 54.6009884,57.296 53.9289884,59.6 C53.5209884,58.688 52.7769884,57.416 52.1289884,56.456 L50.2569884,57.464 C50.9289884,58.568 51.7449884,60.104 52.1289884,61.064 L53.8329884,60.008 C53.5689884,60.848 53.2089884,61.64 52.7529884,62.336 C53.3529884,62.624 54.4809884,63.536 54.9609884,64.04 Z M48.8169884,49.352 L45.3609884,49.352 L47.0889884,48.872 C46.9689884,48.2 46.6569884,47.168 46.2969884,46.376 L49.8489884,46.376 C49.6089884,47.264 49.1769884,48.488 48.8169884,49.352 Z M43.9689884,62.264 C44.8089884,61.04 45.7929884,59.072 46.3929884,57.344 L44.2089884,56.72 C43.7049884,58.208 42.9129884,59.84 42.0969884,60.968 C42.6249884,61.28 43.5369884,61.904 43.9689884,62.264 Z M84.6729884,59.72 C85.5369884,59.312 85.7529884,58.64 85.7529884,57.392 L85.7529884,51.704 L88.2249884,51.704 L88.2249884,49.136 L85.7529884,49.136 L85.7529884,47.384 L87.7209884,47.384 L87.7209884,42.704 L67.1289884,42.704 L67.1289884,47.384 L68.2569884,47.384 L68.2569884,49.904 L76.8009884,49.904 L76.8009884,47.288 L69.9369884,47.288 L69.9369884,45.344 L84.7689884,45.344 L84.7689884,46.832 L83.0649884,46.832 L83.0649884,49.136 L77.6169884,49.136 L77.6169884,51.704 L83.0649884,51.704 L83.0649884,57.344 C83.0649884,57.632 82.9689884,57.728 82.6569884,57.728 L82.2359039,57.7274402 C81.7709476,57.7260408 81.0558455,57.7211429 80.3529884,57.704 C80.7129884,58.4 81.1209884,59.456 81.2169884,60.152 C82.7529884,60.176 83.8569884,60.128 84.6729884,59.72 Z M67.9209884,64.016 C70.8009884,61.736 71.4489884,58.256 71.4489884,55.64 L71.4489884,54.632 L73.2009884,54.632 L73.2009884,60.176 C73.2009884,62.936 74.2809884,63.704 78.0489884,63.704 L84.3129884,63.704 C87.5529884,63.704 88.3929884,62.768 88.8249884,59.096 C88.0569884,58.952 86.9289884,58.544 86.3049884,58.136 C86.0889884,60.8 85.8249884,61.232 84.1689884,61.232 L78.1689884,61.232 C76.2009884,61.232 75.8649884,61.064 75.8649884,60.152 L75.8649884,54.632 L77.7129884,54.632 L77.7129884,51.992 L66.5529884,51.992 L66.5529884,54.632 L68.8089884,54.632 L68.8089884,55.568 C68.8089884,57.536 68.4729884,60.128 65.9769884,62.048 C66.5049884,62.408 67.5849884,63.488 67.9209884,64.016 Z M79.8489884,57.032 L82.1769884,56 C81.8409884,54.944 81.0729884,53.456 80.2329884,52.352 L78.0249884,53.288 C78.8169884,54.392 79.5849884,56 79.8489884,57.032 Z M107.256988,64.064 L107.256988,51.728 L109.344988,51.728 L109.344988,57.608 C109.344988,57.848 109.272988,57.92 109.032988,57.92 L108.752399,57.9195131 C108.434178,57.9182149 107.948625,57.9134545 107.424988,57.896 C107.808988,58.688 108.120988,59.912 108.192988,60.728 C109.416988,60.728 110.352988,60.68 111.072988,60.2 C111.816988,59.72 111.984988,58.904 111.984988,57.704 L111.984988,49.112 L107.256988,49.112 L107.256988,47.12 L112.608988,47.12 L112.608988,44.456 L107.256988,44.456 L107.256988,41.984 L104.448988,41.984 L104.448988,44.456 L99.1449884,44.456 L99.1449884,47.12 L104.448988,47.12 L104.448988,49.112 L99.8889884,49.112 L99.8889884,60.488 L102.480988,60.488 L102.480988,51.728 L104.448988,51.728 L104.448988,64.064 L107.256988,64.064 Z M92.1369884,64.16 C93.1449884,61.784 93.5769884,58.52 93.7449884,55.472 L94.4649884,57.248 C94.9929884,56.912 95.5449884,56.576 96.1209884,56.216 L96.1209884,61.04 C96.1209884,61.376 96.0009884,61.472 95.7369884,61.472 C95.4249884,61.472 94.5129884,61.496 93.6249884,61.424 C93.9609884,62.12 94.2729884,63.272 94.3449884,63.968 C95.8569884,63.968 96.8889884,63.896 97.5849884,63.464 C98.3289884,63.056 98.5209884,62.312 98.5209884,61.088 L98.5209884,42.512 L91.3689884,42.512 L91.3689884,51.248 C91.3689884,54.752 91.2969884,59.576 89.8809884,62.864 C90.5049884,63.104 91.6329884,63.728 92.1369884,64.16 Z M96.1209884,49.16 C95.6169884,48.632 95.0649884,48.056 94.5609884,47.576 L93.8649884,48.08 L93.8649884,45.08 L96.1209884,45.08 L96.1209884,49.16 Z M93.7929884,54.512 C93.8409884,53.336 93.8649884,52.232 93.8649884,51.224 L93.8649884,49.856 C94.4169884,50.48 94.9689884,51.152 95.2569884,51.632 L96.1209884,50.912 L96.1209884,53.648 C95.2569884,53.984 94.4649884,54.272 93.7929884,54.512 Z M133.944988,53.432 L135.432988,50.888 C133.344988,49.472 129.216988,47.48 126.120988,46.088 C126.456988,44.792 126.648988,43.328 126.768988,41.696 L123.840988,41.696 C123.456988,46.832 122.832988,49.664 114.744988,50.984 C115.272988,51.584 115.920988,52.664 116.136988,53.336 C121.176988,52.4 123.744988,50.792 125.136988,48.488 C128.232988,50 132.024988,52.04 133.944988,53.432 Z M119.064988,48.344 L121.368988,46.688 C120.720988,45.68 119.376988,44.096 118.416988,42.944 L116.232988,44.384 C117.168988,45.632 118.440988,47.336 119.064988,48.344 Z M131.160988,47.84 C132.072988,46.88 133.176988,45.44 134.184988,44 L131.256988,43.208 C130.680988,44.408 129.648988,45.992 128.760988,47.048 L131.160988,47.84 Z M115.824988,64.064 C121.416988,62.864 124.056988,60.848 125.376988,58.04 C126.984988,61.52 129.768988,63.296 135.168988,63.968 C135.456988,63.152 136.152988,61.952 136.728988,61.328 C130.080988,60.872 127.584988,58.496 126.552988,53.48 C126.624988,52.832 126.696988,52.136 126.744988,51.416 L123.792988,51.416 C123.408988,56.72 122.784988,60.08 114.384988,61.64 C114.936988,62.24 115.584988,63.344 115.824988,64.064 Z M130.896988,58.352 C131.808988,57.368 132.936988,55.784 133.944988,54.272 L131.064988,53.384 C130.464988,54.68 129.408988,56.408 128.520988,57.536 L130.896988,58.352 Z M118.968988,58.904 L121.296988,57.344 C120.600988,56.312 119.136988,54.632 118.104988,53.408 L115.920988,54.8 C116.952988,56.096 118.320988,57.848 118.968988,58.904 Z M143.928988,64.064 L143.928988,47.912 C144.408988,49.064 144.816988,50.288 145.008988,51.152 L147.096988,50.168 C146.784988,48.992 145.968988,47.072 145.224988,45.632 L143.928988,46.184 L143.928988,41.672 L141.096988,41.672 L141.096988,64.064 L143.928988,64.064 Z M146.568988,64.208 C150.720988,61.832 152.520988,58.472 153.264988,55.04 L160.440988,55.04 L160.440988,52.328 L158.928988,52.328 L158.928988,45.296 L153.720988,45.296 L153.720988,41.672 L150.840988,41.672 L150.840988,45.296 L146.712988,45.296 L146.712988,47.936 L150.840988,47.936 L150.840988,50.12 C150.840988,50.84 150.840988,51.56 150.768988,52.328 L145.608988,52.328 L145.608988,55.04 L150.384988,55.04 C149.736988,57.68 148.200988,60.224 144.552988,62 C145.176988,62.528 146.184988,63.584 146.568988,64.208 Z M139.992988,53.408 C140.544988,51.56 140.976988,48.752 141.072988,46.664 L139.032988,46.4 C138.864988,48.392 138.432988,51.056 137.856988,52.664 L139.992988,53.408 Z M156.144988,52.328 L153.648988,52.328 C153.696988,51.584 153.720988,50.864 153.720988,50.144 L153.720988,47.936 L156.144988,47.936 L156.144988,52.328 Z M157.968988,63.992 L160.560988,62.528 C159.528988,60.632 157.320988,57.464 155.760988,55.136 L153.384988,56.336 C154.944988,58.76 157.056988,62.072 157.968988,63.992 Z M179.544988,64.064 L179.544988,54.44 L181.056988,54.44 L181.056988,59.288 C181.056988,59.504 181.008988,59.576 180.816988,59.576 L180.531655,59.5751111 C180.286322,59.5733333 179.944988,59.568 179.592988,59.552 C179.880988,60.248 180.168988,61.208 180.240988,61.952 C181.368988,61.952 182.256988,61.928 182.904988,61.52 C183.600988,61.112 183.768988,60.464 183.768988,59.336 L183.768988,52.064 L179.544988,52.064 L179.544988,50.624 L184.344988,50.624 L184.344988,48.296 L180.792988,48.296 L182.448988,46.856 C182.160988,46.424 181.584988,45.824 181.008988,45.296 L184.488988,45.296 L184.488988,43.184 L178.152988,43.184 C178.296988,42.824 178.440988,42.44 178.560988,42.08 L175.992988,41.432 C175.368988,43.208 174.288988,44.984 172.968988,46.136 C173.592988,46.52 174.624988,47.36 175.104988,47.816 C175.800988,47.144 176.448988,46.28 177.048988,45.296 L179.472988,45.296 L178.440988,46.136 C179.112988,46.76 179.928988,47.624 180.384988,48.296 L172.320988,48.296 L172.320988,50.624 L176.904988,50.624 L176.904988,52.064 L172.824988,52.064 L172.824988,61.952 L175.368988,61.952 L175.368988,54.44 L176.904988,54.44 L176.904988,64.064 L179.544988,64.064 Z M166.152988,63.968 L166.152988,62.648 L169.272988,62.648 L169.272988,63.512 L171.912988,63.512 L171.912988,56.456 L166.152988,56.456 L166.152988,55.184 L171.552988,55.184 L171.552988,49.136 L168.336988,49.136 C168.576988,48.728 168.816988,48.272 169.056988,47.816 C169.248988,48.032 169.416988,48.224 169.536988,48.392 L171.312988,46.736 C170.976988,46.328 170.376988,45.776 169.800988,45.296 L173.520988,45.296 L173.520988,43.184 L167.832988,43.184 L168.264988,42.176 L168.264988,42.176 L165.744988,41.456 C164.928988,43.52 163.560988,45.608 162.096988,46.928 C162.624988,47.384 163.584988,48.368 163.992988,48.896 C164.904988,47.96 165.888988,46.688 166.728988,45.296 L168.528988,45.296 L167.448988,46.256 C167.928988,46.688 168.504988,47.216 168.960988,47.72 L166.128988,47.216 C165.960988,47.744 165.696988,48.464 165.408988,49.136 L163.488988,49.136 L163.488988,63.968 L166.152988,63.968 Z M168.864988,52.976 L166.152988,52.976 L166.152988,51.344 L168.864988,51.344 L168.864988,52.976 Z M169.272988,60.44 L166.152988,60.44 L166.152988,58.688 L169.272988,58.688 L169.272988,60.44 Z M204.120988,63.8 C205.080988,63.632 205.752988,63.368 206.424988,62.48 C207.408988,61.208 207.672988,57.392 207.984988,46.664 C208.008988,46.328 208.008988,45.368 208.008988,45.368 L201.240988,45.368 C201.600988,44.36 201.936988,43.352 202.176988,42.32 L199.464988,41.696 C198.768988,44.504 197.616988,47.408 196.224988,49.424 L196.224988,45.536 L192.504988,45.536 C192.912988,44.504 193.344988,43.304 193.752988,42.104 L190.632988,41.672 C190.536988,42.8 190.248988,44.336 189.936988,45.536 L187.224988,45.536 L187.224988,63.368 L189.816988,63.368 L189.816988,61.616 L196.224988,61.616 L196.224988,50.408 C196.872988,50.84 197.688988,51.392 198.072988,51.752 C198.816988,50.72 199.560988,49.4 200.184988,47.96 L205.320988,47.96 C205.056988,56.432 204.744988,60.032 204.048988,60.8 C203.736988,61.112 203.472988,61.208 202.992988,61.208 L202.562887,61.2070508 C201.83377,61.2029375 200.664988,61.181 199.416988,61.064 C199.920988,61.856 200.304988,63.056 200.352988,63.848 C201.768988,63.896 203.208988,63.92 204.120988,63.8 Z M193.632988,51.92 L189.816988,51.92 L189.816988,48.032 L193.632988,48.032 L193.632988,51.92 Z M201.600988,57.8 L204.024988,56.312 C203.280988,54.92 201.696988,52.64 200.496988,50.984 L198.264988,52.256 C199.440988,54.008 200.928988,56.36 201.600988,57.8 Z M193.632988,59.096 L189.816988,59.096 L189.816988,54.392 L193.632988,54.392 L193.632988,59.096 Z M228.792988,63.632 C231.600988,63.632 232.416988,62.48 232.800988,59.12 C232.008988,58.976 230.928988,58.52 230.304988,58.088 C230.088988,60.536 229.848988,61.088 228.552988,61.088 L223.920988,61.088 C222.456988,61.088 222.240988,60.872 222.240988,59.48 L222.240988,52.064 L224.232988,51.2 L224.232988,58.52 L226.896988,58.52 L226.896988,50.048 L228.744988,49.232 C228.648988,52.064 228.456988,55.112 228.192988,57.056 L230.520988,57.704 C231.096988,54.824 231.432988,50.456 231.576988,47.12 L231.672988,46.688 L229.512988,45.992 L226.896988,47.12 L226.896988,41.648 L224.232988,41.648 L224.232988,48.272 L222.240988,49.112 L222.240988,43.976 L219.504988,43.976 L219.504988,50.288 L217.152988,51.296 L218.208988,53.816 L219.504988,53.264 L219.504988,59.456 C219.504988,62.744 220.440988,63.632 223.680988,63.632 L228.792988,63.632 Z M211.128988,60.32 C213.312988,59.336 216.000988,58.04 218.496988,56.816 L217.848988,54.272 L215.736988,55.16 L215.736988,49.904 L217.968988,49.904 L217.968988,47.192 L215.736988,47.192 L215.736988,41.984 L213.096988,41.984 L213.096988,47.192 L210.504988,47.192 L210.504988,49.904 L213.096988,49.904 L213.096988,56.264 C211.920988,56.744 210.864988,57.128 209.976988,57.44 L211.128988,60.32 Z M236.400988,64.208 C240.720988,61.712 242.496988,57.968 243.312988,53.96 L250.872988,53.96 C250.536988,58.256 250.104988,60.32 249.480988,60.848 C249.144988,61.112 248.832988,61.16 248.304988,61.16 C247.584988,61.16 245.904988,61.136 244.272988,60.968 C244.824988,61.76 245.232988,62.96 245.280988,63.776 C246.912988,63.848 248.496988,63.872 249.432988,63.776 C250.512988,63.656 251.280988,63.44 252.000988,62.648 C252.984988,61.616 253.488988,58.952 253.920988,52.448 C253.992988,52.064 254.016988,51.2 254.016988,51.2 L243.720988,51.2 C243.840988,50.24 243.888988,49.28 243.960988,48.32 L256.128988,48.32 L256.128988,45.512 L246.288988,45.512 L247.944988,44.792 C247.584988,43.88 246.864988,42.44 246.216988,41.36 L243.408988,42.416 C243.888988,43.376 244.464988,44.576 244.848988,45.512 L234.720988,45.512 L234.720988,48.32 L240.768988,48.32 L240.741174,48.8839128 C240.487935,53.7807737 239.859655,58.8968889 234.312988,61.832 C235.080988,62.432 235.968988,63.416 236.400988,64.208 Z M264.432988,64.064 L264.432988,52.448 C265.536988,50.984 266.448988,49.376 267.240988,47.72 L280.080988,47.72 L280.080988,44.984 L268.392988,44.984 C268.728988,44.12 269.040988,43.256 269.304988,42.368 L266.304988,41.648 C266.016988,42.752 265.656988,43.856 265.248988,44.984 L258.768988,44.984 L258.768988,47.72 L263.976988,47.72 C262.536988,50.48 260.520988,53 258.000988,54.632 C258.456988,55.328 259.104988,56.624 259.416988,57.392 C260.184988,56.864 260.856988,56.336 261.528988,55.712 L261.528988,64.064 L264.432988,64.064 Z M280.008988,63.488 L280.008988,60.848 L274.320988,60.848 L274.320988,55.376 L279.072988,55.376 L279.072988,52.736 L274.320988,52.736 L274.320988,48.752 L271.440988,48.752 L271.440988,52.736 L266.568988,52.736 L266.568988,55.376 L271.440988,55.376 L271.440988,60.848 L265.632988,60.848 L265.632988,63.488 L280.008988,63.488 Z M304.248988,46.544 L304.248988,44.336 L297.528988,44.336 L298.488988,44.024 C298.200988,43.328 297.576988,42.224 297.072988,41.432 L294.312988,42.296 C294.672988,42.896 295.056988,43.664 295.344988,44.336 L288.984988,44.336 L288.984988,46.544 L304.248988,46.544 Z M285.120988,46.616 L287.664988,45.512 C287.208988,44.48 286.416988,42.872 285.816988,41.552 L283.344988,42.464 C283.896988,43.76 284.712988,45.512 285.120988,46.616 Z M283.752988,64.112 C284.400988,62.816 285.288988,61.256 285.840988,61.256 C286.344988,61.256 287.160988,61.976 288.168988,62.504 C289.920988,63.464 291.960988,63.728 295.104988,63.728 C297.912988,63.728 302.160988,63.584 304.104988,63.44 C304.152988,62.624 304.632988,61.208 304.968988,60.416 C302.256988,60.824 297.912988,61.064 295.224988,61.064 C292.488988,61.064 290.208988,60.92 288.552988,59.984 C288.000988,59.672 287.568988,59.408 287.208988,59.192 C288.168988,57.416 288.840988,55.304 289.224988,53.168 L287.544988,52.472 L287.112988,52.544 L286.488988,52.544 C287.112988,50.888 287.808988,48.968 288.384988,47.264 L282.360988,47.264 L282.360988,49.808 L284.760988,49.808 C284.136988,51.68 283.416988,53.6 282.792988,55.016 L286.152988,55.016 C285.720988,56.552 285.024988,58.136 284.160988,59.336 C283.392988,59.792 282.600988,60.488 281.880988,61.352 L283.752988,64.112 Z M302.232988,49.496 L302.232988,47.48 L290.712988,47.48 L290.712988,49.496 L302.232988,49.496 Z M302.232988,52.592 L302.232988,50.576 L290.712988,50.576 L290.712988,52.592 L302.232988,52.592 Z M302.448988,59.768 L302.448988,53.696 L290.448988,53.696 L290.448988,59.768 L302.448988,59.768 Z M299.640988,57.728 L293.112988,57.728 L293.112988,55.712 L299.640988,55.712 L299.640988,57.728 Z M311.784988,64.064 L311.784988,55.256 C312.528988,56.216 313.248988,57.272 313.656988,57.944 L315.144988,55.712 C314.880988,55.424 314.184988,54.68 313.464988,53.912 C313.979274,53.4182857 314.581723,52.8187755 315.226994,52.2192653 L315.552988,51.92 L313.872988,50.36 C313.512988,51.008 312.816988,51.968 312.216988,52.664 L311.784988,52.256 L311.784988,52.112 C312.888988,50.432 313.800988,48.608 314.496988,46.76 L313.080988,45.608 L312.624988,45.728 L310.944988,45.728 L312.576988,44.576 C312.144988,43.76 311.280988,42.488 310.560988,41.552 L308.520988,42.8 C309.120988,43.688 309.840988,44.84 310.296988,45.728 L306.480988,45.728 L306.480988,48.296 L311.208988,48.296 C309.912988,50.888 307.824988,53.408 305.760988,54.896 C306.120988,55.424 306.768988,56.936 306.960988,57.728 C307.728988,57.104 308.472988,56.36 309.216988,55.496 L309.216988,64.064 L311.784988,64.064 Z M328.440988,63.56 L328.440988,61.04 L322.776988,61.04 L322.776988,58.592 L327.696988,58.592 L327.696988,56.096 L322.776988,56.096 L322.776988,54.224 L327.528988,54.224 L327.528988,42.776 L315.552988,42.776 L315.552988,51.92 L315.552988,54.224 L320.112988,54.224 L320.112988,56.096 L315.696988,56.096 L315.696988,58.592 L320.112988,58.592 L320.112988,61.04 L314.784988,61.04 L314.784988,63.56 L328.440988,63.56 Z M320.112988,47.36 L318.096988,47.36 L318.096988,45.176 L320.112988,45.176 L320.112988,47.36 Z M324.840988,47.36 L322.776988,47.36 L322.776988,45.176 L324.840988,45.176 L324.840988,47.36 Z M320.112988,51.824 L318.096988,51.824 L318.096988,49.592 L320.112988,49.592 L320.112988,51.824 Z M324.840988,51.824 L322.776988,51.824 L322.776988,49.592 L324.840988,49.592 L324.840988,51.824 Z M342.648988,55.832 L343.488988,47.624 L343.608988,44.048 L339.216988,44.048 L339.312988,47.624 L340.176988,55.832 L342.648988,55.832 Z M341.400988,62.216 C342.816988,62.216 343.896988,61.256 343.896988,59.864 C343.896988,58.496 342.816988,57.488 341.400988,57.488 C339.984988,57.488 338.904988,58.496 338.904988,59.864 C338.904988,61.256 339.984988,62.216 341.400988,62.216 Z" id="新冠肺炎快篩的地方在這裡！" fill="#84EDFF"></path>
            <path d="M55.9269884,92.72 L55.9269884,87.266 L50.5089884,87.266 C50.7609884,86.906 51.0309884,86.51 51.2829884,86.078 L49.7169884,85.862 C49.5909884,86.258 49.3389884,86.816 49.1049884,87.266 L44.7309884,87.266 L44.7309884,92.72 L55.9269884,92.72 Z M54.6129884,88.886 L46.0269884,88.886 L46.0269884,88.094 L54.6129884,88.094 L54.6129884,88.886 Z M54.6129884,90.362 L46.0269884,90.362 L46.0269884,89.57 L54.6129884,89.57 L54.6129884,90.362 Z M54.6129884,91.892 L46.0269884,91.892 L46.0269884,91.046 L54.6129884,91.046 L54.6129884,91.892 Z M57.1509884,97.382 L57.1509884,93.458 L43.5789884,93.458 L43.5789884,97.382 L57.1509884,97.382 Z M55.8369884,95.06 L51.0309884,95.06 L51.0309884,94.286 L55.8369884,94.286 L55.8369884,95.06 Z M49.7709884,95.06 L44.8569884,95.06 L44.8569884,94.286 L49.7709884,94.286 L49.7709884,95.06 Z M55.8369884,96.554 L51.0309884,96.554 L51.0309884,95.744 L55.8369884,95.744 L55.8369884,96.554 Z M49.7709884,96.554 L44.8569884,96.554 L44.8569884,95.744 L49.7709884,95.744 L49.7709884,96.554 Z M44.1009884,102.404 C47.2689884,101.54 47.8089884,100.28 47.8449884,99.308 L53.0649884,99.308 L53.0649884,102.35 L54.3789884,102.35 L54.3789884,99.308 L58.3929884,99.308 L58.3929884,98.192 L42.4809884,98.192 L42.4809884,99.308 L46.5849884,99.308 C46.5489884,99.974 46.1709884,100.946 43.2729884,101.504 C43.5609884,101.702 43.9209884,102.134 44.1009884,102.404 Z M67.5909884,102.404 L67.5909884,101.378 L74.8449884,101.378 L74.8449884,102.26 L76.1049884,102.26 L76.1049884,86.762 L66.3849884,86.762 L66.3849884,102.404 L67.5909884,102.404 Z M61.9749884,99.344 L61.9749884,97.634 L64.9809884,97.634 L64.9809884,87.644 L60.7869884,87.644 L60.7869884,99.344 L61.9749884,99.344 Z M74.8449884,100.154 L67.5909884,100.154 L67.5909884,87.986 L74.8449884,87.986 L74.8449884,100.154 Z M68.7069884,99.596 C70.1649884,98.228 70.9209884,96.662 71.3169884,95.096 C72.1809884,96.608 73.0449884,98.282 73.5129884,99.344 L74.4489884,98.804 C73.8549884,97.508 72.6489884,95.33 71.6049884,93.638 C71.6409884,93.332 71.6769884,93.062 71.6949884,92.756 L74.2149884,92.756 L74.2149884,91.64 L71.7489884,91.64 L71.7489884,88.58 L70.6689884,88.58 L70.6689884,91.64 L70.6689884,91.64 L68.2569884,91.64 L68.2569884,92.756 L70.5969884,92.756 C70.4349884,94.772 69.8409884,96.986 67.8609884,98.822 C68.1129884,99.002 68.5089884,99.344 68.7069884,99.596 Z M63.8109884,96.392 L61.9749884,96.392 L61.9749884,88.886 L63.8109884,88.886 L63.8109884,96.392 Z M78.3369884,101.504 C80.3169884,101.018 83.0709884,100.352 85.6629884,99.722 L85.5189884,98.516 C84.5829884,98.75 83.6469884,98.966 82.7289884,99.164 L82.7289884,95.96 L85.3569884,95.96 L85.3569884,94.772 L82.7289884,94.772 L82.7289884,92.18 L84.9969884,92.18 L84.9969884,86.69 L79.0569884,86.69 L79.0569884,92.18 L81.5229884,92.18 L81.5229884,99.452 L80.1909884,99.758 L80.1909884,93.872 L79.0569884,93.872 L79.0569884,99.992 L78.0669884,100.208 L78.3369884,101.504 Z M94.6629884,101.612 L94.6629884,100.298 L87.6069884,100.298 L87.6069884,97.238 L93.6549884,97.238 L93.6549884,90.902 L87.6069884,90.902 L87.6069884,88.292 L94.3749884,88.292 L94.3749884,86.996 L85.5009884,86.996 L85.5009884,88.292 L86.3109884,88.292 L86.3109884,100.298 L85.6269884,100.298 L85.6269884,101.612 L94.6629884,101.612 Z M83.7549884,91.01 L80.2449884,91.01 L80.2449884,87.86 L83.7549884,87.86 L83.7549884,91.01 Z M92.3409884,95.996 L87.6069884,95.996 L87.6069884,92.144 L92.3409884,92.144 L92.3409884,95.996 Z M104.760988,88.598 L104.760988,87.5 L101.394988,87.5 C101.214988,87.014 100.962988,86.366 100.728988,85.898 L99.5949884,86.15 C99.7749884,86.564 99.9729884,87.05 100.134988,87.5 L96.4269884,87.5 L96.4269884,88.598 L104.760988,88.598 Z M97.9569884,102.368 L97.9569884,96.374 L99.5409884,96.374 C99.3069884,97.346 99.0549884,98.282 98.8389884,99.038 L98.2809884,99.128 L98.6049884,100.082 C99.6489884,99.884 100.926988,99.632 102.168988,99.38 C102.312988,99.74 102.438988,100.082 102.528988,100.334 L103.374988,100.01 C103.086988,99.254 102.492988,97.94 101.970988,96.95 L101.160988,97.22 C101.376988,97.616 101.592988,98.084 101.808988,98.534 L99.9369884,98.858 C100.152988,98.138 100.350988,97.274 100.584988,96.374 L103.464988,96.374 L103.464988,101.072 C103.464988,101.27 103.410988,101.306 103.194988,101.324 C102.996988,101.342 102.312988,101.342 101.538988,101.306 C101.682988,101.612 101.826988,102.026 101.862988,102.314 L102.362988,102.313167 C103.145488,102.309 103.677988,102.284 104.022988,102.134 C104.472988,101.954 104.580988,101.666 104.580988,101.09 L104.580988,95.312 L100.836988,95.312 L101.124988,94.088 L104.076988,94.088 L104.076988,92.54 C104.364988,92.738 104.706988,93.044 104.850988,93.206 C105.048988,92.918 105.246988,92.63 105.426988,92.288 L105.426988,102.35 L106.614988,102.35 L106.614988,101.45 L112.626988,101.45 L112.626988,100.226 L109.980988,100.226 L109.980988,97.742 L112.302988,97.742 L112.302988,96.572 L109.980988,96.572 L109.980988,94.124 L112.266988,94.124 L112.266988,92.972 L109.980988,92.972 L109.980988,90.578 L112.518988,90.578 L112.518988,89.354 L106.776988,89.354 C107.154988,88.346 107.496988,87.284 107.748988,86.24 L106.560988,85.952 C106.020988,88.202 105.138988,90.488 104.076988,92.09 L104.076988,89.21 L102.996988,89.21 L102.996988,93.098 L98.2809884,93.098 L98.2809884,89.21 L97.2369884,89.21 L97.2369884,94.088 L100.062988,94.088 C99.9909884,94.484 99.8829884,94.88 99.7929884,95.312 L97.9569884,95.312 L97.9569884,94.7 L96.8229884,94.7 L96.8229884,95.312 L96.3549884,95.312 L96.3549884,96.374 L96.8229884,96.374 L96.8229884,102.368 L97.9569884,102.368 Z M109.296988,89.192 L110.502988,88.706 C110.250988,88.04 109.710988,86.96 109.242988,86.15 L108.090988,86.546 C108.522988,87.356 109.062988,88.49 109.296988,89.192 Z M99.3969884,92.702 C99.8649884,92.342 100.386988,91.874 100.908988,91.388 C101.412988,91.82 101.862988,92.252 102.186988,92.558 L102.780988,91.946 C102.474988,91.64 102.006988,91.226 101.502988,90.794 C101.916988,90.362 102.330988,89.912 102.672988,89.48 L101.826988,89.174 C101.538988,89.552 101.196988,89.912 100.836988,90.272 C100.368988,89.912 99.9009884,89.552 99.4689884,89.246 L98.8749884,89.786 C99.3069884,90.092 99.7749884,90.47 100.242988,90.83 C99.7209884,91.316 99.1809884,91.748 98.6589884,92.126 C98.8749884,92.27 99.2349884,92.558 99.3969884,92.702 Z M108.774988,92.972 L106.614988,92.972 L106.614988,90.578 L108.774988,90.578 L108.774988,92.972 Z M108.774988,96.572 L106.614988,96.572 L106.614988,94.124 L108.774988,94.124 L108.774988,96.572 Z M108.774988,100.226 L106.614988,100.226 L106.614988,97.742 L108.774988,97.742 L108.774988,100.226 Z M127.926988,92.72 L127.926988,87.266 L122.508988,87.266 C122.760988,86.906 123.030988,86.51 123.282988,86.078 L121.716988,85.862 C121.590988,86.258 121.338988,86.816 121.104988,87.266 L116.730988,87.266 L116.730988,92.72 L127.926988,92.72 Z M126.612988,88.886 L118.026988,88.886 L118.026988,88.094 L126.612988,88.094 L126.612988,88.886 Z M126.612988,90.362 L118.026988,90.362 L118.026988,89.57 L126.612988,89.57 L126.612988,90.362 Z M126.612988,91.892 L118.026988,91.892 L118.026988,91.046 L126.612988,91.046 L126.612988,91.892 Z M129.150988,97.382 L129.150988,93.458 L115.578988,93.458 L115.578988,97.382 L129.150988,97.382 Z M127.836988,95.06 L123.030988,95.06 L123.030988,94.286 L127.836988,94.286 L127.836988,95.06 Z M121.770988,95.06 L116.856988,95.06 L116.856988,94.286 L121.770988,94.286 L121.770988,95.06 Z M127.836988,96.554 L123.030988,96.554 L123.030988,95.744 L127.836988,95.744 L127.836988,96.554 Z M121.770988,96.554 L116.856988,96.554 L116.856988,95.744 L121.770988,95.744 L121.770988,96.554 Z M116.100988,102.404 C119.268988,101.54 119.808988,100.28 119.844988,99.308 L125.064988,99.308 L125.064988,102.35 L126.378988,102.35 L126.378988,99.308 L130.392988,99.308 L130.392988,98.192 L114.480988,98.192 L114.480988,99.308 L118.584988,99.308 C118.548988,99.974 118.170988,100.946 115.272988,101.504 C115.560988,101.702 115.920988,102.134 116.100988,102.404 Z M147.978988,98.984 L147.978988,89.66 L144.288988,89.66 C144.468988,89.138 144.630988,88.544 144.810988,87.95 L148.554988,87.95 L148.554988,86.798 L139.932988,86.798 L139.932988,87.95 L143.334988,87.95 C143.244988,88.508 143.100988,89.12 142.974988,89.66 L140.472988,89.66 L140.472988,98.984 L147.978988,98.984 Z M139.446988,88.148 L139.446988,86.924 L132.408988,86.924 L132.408988,88.148 L139.446988,88.148 Z M139.032988,94.664 L139.032988,89.858 L132.894988,89.858 L132.894988,94.664 L139.032988,94.664 Z M146.718988,92.45 L141.714988,92.45 L141.714988,90.704 L146.718988,90.704 L146.718988,92.45 Z M137.808988,93.566 L134.064988,93.566 L134.064988,90.956 L137.808988,90.956 L137.808988,93.566 Z M146.718988,95.168 L141.714988,95.168 L141.714988,93.404 L146.718988,93.404 L146.718988,95.168 Z M132.480988,101.378 C134.442988,100.964 137.142988,100.37 139.680988,99.758 L139.572988,98.624 L137.484988,99.056 C137.826988,98.12 138.186988,96.716 138.528988,95.51 L137.250988,95.186 C137.088988,96.266 136.746988,97.85 136.440988,98.822 L137.340988,99.092 C135.360988,99.506 133.488988,99.884 132.138988,100.136 L132.480988,101.378 Z M134.010988,98.948 L135.162988,98.66 C135.126988,97.778 134.838988,96.392 134.406988,95.348 L133.326988,95.618 C133.722988,96.68 133.992988,98.048 134.010988,98.948 Z M146.718988,97.94 L141.714988,97.94 L141.714988,96.158 L146.718988,96.158 L146.718988,97.94 Z M139.392988,102.386 C140.778988,101.882 142.380988,100.946 143.334988,100.028 L142.164988,99.362 C141.426988,100.118 139.878988,101.036 138.510988,101.504 C138.798988,101.738 139.194988,102.152 139.392988,102.386 Z M147.870988,102.386 L148.932988,101.666 C148.248988,101.018 146.898988,100.082 145.854988,99.452 L144.846988,100.1 C145.908988,100.766 147.222988,101.756 147.870988,102.386 Z M150.732988,96.662 C151.092988,96.446 151.722988,96.302 156.366988,95.6 C156.456988,95.96 156.528988,96.284 156.582988,96.572 L157.734988,96.23 C157.554988,95.312 157.014988,93.746 156.492988,92.576 L155.430988,92.846 C155.628988,93.368 155.844988,93.962 156.024988,94.52 L152.622988,95.024 C154.170988,93.458 155.736988,91.496 157.068988,89.498 L155.916988,88.778 C155.502988,89.516 154.980988,90.254 154.494988,90.956 L152.154988,91.172 C153.306988,89.84 154.440988,88.13 155.376988,86.438 L154.134988,85.898 C153.234988,87.878 151.776988,89.894 151.326988,90.434 C150.912988,90.956 150.552988,91.316 150.210988,91.406 C150.372988,91.748 150.570988,92.36 150.642988,92.63 C150.912988,92.504 151.344988,92.414 153.594988,92.144 C152.784988,93.152 152.100988,93.944 151.776988,94.268 C151.146988,94.898 150.696988,95.33 150.300988,95.384 C150.444988,95.744 150.660988,96.392 150.732988,96.662 Z M163.458988,102.26 C164.106988,102.188 164.502988,102.026 164.898988,101.522 C165.564988,100.658 165.762988,97.958 166.014988,89.966 L166.014988,89.264 L160.020988,89.264 C160.416988,88.292 160.758988,87.248 161.010988,86.204 L159.714988,85.952 C159.120988,88.382 158.148988,90.812 156.888988,92.378 C157.230988,92.558 157.788988,92.918 158.040988,93.134 C158.562988,92.396 159.066988,91.514 159.516988,90.524 L164.664988,90.524 C164.466988,97.472 164.214988,100.154 163.674988,100.73 C163.494988,100.964 163.296988,101 162.954988,101 L162.602355,100.999114 C162.085203,100.995867 161.271988,100.980714 160.380988,100.91 C160.632988,101.288 160.794988,101.846 160.812988,102.242 C161.802988,102.296 162.864988,102.314 163.458988,102.26 Z M162.036988,97.562 L163.026988,96.788 C162.450988,95.69 161.064988,94.07 159.858988,92.918 L158.922988,93.602 C160.128988,94.79 161.478988,96.464 162.036988,97.562 Z M156.816988,100.73 L157.878988,100.352 C157.662988,99.434 157.176988,98.012 156.708988,96.932 L155.700988,97.256 C156.150988,98.354 156.618988,99.794 156.816988,100.73 Z M154.062988,101.54 L155.196988,101.252 C155.124988,100.172 154.854988,98.588 154.602988,97.31 L153.522988,97.58 C153.756988,98.822 153.990988,100.478 154.062988,101.54 Z M151.344988,101.99 C151.794988,100.892 152.262988,99.2 152.568988,97.688 L151.362988,97.436 C151.092988,98.858 150.696988,100.478 150.192988,101.576 C150.516988,101.666 151.074988,101.846 151.344988,101.99 Z M171.612988,101.234 C174.096988,101.234 176.400988,99.182 176.400988,93.836 C176.400988,89.642 174.510988,87.554 171.972988,87.554 C169.920988,87.554 168.192988,89.282 168.192988,91.838 C168.192988,94.574 169.632988,95.996 171.828988,95.996 C172.944988,95.996 174.078988,95.348 174.870988,94.358 C174.744988,98.462 173.268988,99.866 171.558988,99.866 C170.712988,99.866 169.902988,99.488 169.344988,98.858 L168.444988,99.884 C169.182988,100.658 170.190988,101.234 171.612988,101.234 Z M172.098988,94.772 C170.532988,94.772 169.740988,93.62 169.740988,91.838 C169.740988,90.038 170.712988,88.85 171.972988,88.85 C173.664988,88.85 174.672988,90.29 174.852988,93.008 C173.970988,94.268 172.980988,94.772 172.098988,94.772 Z M193.734988,94.574 C193.986988,94.196 194.454988,93.602 194.778988,93.332 C192.672988,91.946 190.872988,89.246 190.008988,86.402 L185.652988,86.402 L185.652988,87.752 L189.000988,87.752 C189.972988,90.47 191.700988,93.062 193.734988,94.574 Z M179.298988,94.574 C181.296988,92.738 183.276988,89.876 184.572988,86.924 L183.114988,86.474 C181.998988,89.192 180.126988,91.82 178.110988,93.494 C178.470988,93.746 179.046988,94.304 179.298988,94.574 Z M192.330988,102.26 L193.662988,101.522 C192.798988,99.92 191.088988,97.4 189.630988,95.474 L188.352988,96.068 C189.072988,97.022 189.882988,98.192 190.584988,99.308 L182.268988,99.776 C184.122988,97.634 185.994988,94.844 187.542988,92.054 L186.048988,91.424 C184.554988,94.484 182.250988,97.688 181.512988,98.516 C180.828988,99.362 180.306988,99.956 179.820988,100.064 C180.018988,100.478 180.288988,101.198 180.342988,101.486 C181.044988,101.234 182.034988,101.18 191.358988,100.532 C191.736988,101.18 192.078988,101.756 192.330988,102.26 Z M211.824988,94.16 C212.058988,93.782 212.490988,93.242 212.778988,92.954 C210.492988,91.658 208.566988,89.084 207.666988,86.258 L203.526988,86.258 L203.526988,87.518 L206.712988,87.518 C207.738988,90.2 209.592988,92.72 211.824988,94.16 Z M197.208988,94.196 C199.314988,92.504 201.096988,89.948 202.104988,86.888 L200.718988,86.546 C199.854988,89.354 198.216988,91.73 196.092988,93.206 C196.416988,93.422 196.974988,93.926 197.208988,94.196 Z M197.676988,102.476 C202.248988,100.802 203.418988,97.562 203.886988,93.998 L208.530988,93.998 C208.314988,98.534 208.062988,100.334 207.594988,100.784 C207.414988,100.982 207.216988,101.018 206.838988,101.018 C206.406988,101.018 205.308988,101 204.138988,100.892 C204.390988,101.288 204.552988,101.828 204.570988,102.242 C205.686988,102.296 206.820988,102.332 207.396988,102.278 C208.044988,102.206 208.422988,102.08 208.800988,101.63 C209.412988,100.946 209.664988,98.876 209.916988,93.35 C209.934988,93.17 209.952988,92.702 209.952988,92.702 L198.792988,92.702 L198.792988,93.998 L202.464988,93.998 C202.050988,97.058 201.060988,99.884 196.812988,101.306 C197.136988,101.594 197.514988,102.116 197.676988,102.476 Z M220.914988,97.616 C222.804988,96.95 224.028988,95.474 224.028988,93.53 C224.028988,92.27 223.488988,91.46 222.498988,91.46 C221.760988,91.46 221.130988,91.91 221.130988,92.756 C221.130988,93.602 221.742988,94.034 222.480988,94.034 C222.588988,94.034 222.678988,94.034 222.786988,94.016 C222.696988,95.24 221.904988,96.086 220.518988,96.662 L220.914988,97.616 Z M246.330988,92.612 L246.330988,86.672 L234.378988,86.672 L234.378988,92.612 L246.330988,92.612 Z M244.998988,89.156 L235.692988,89.156 L235.692988,87.698 L244.998988,87.698 L244.998988,89.156 Z M244.998988,91.586 L235.692988,91.586 L235.692988,90.128 L244.998988,90.128 L244.998988,91.586 Z M233.100988,102.404 C234.270988,101.54 235.206988,100.424 235.908988,99.02 C237.366988,101.45 239.652988,102.026 243.270988,102.026 L248.166988,102.026 C248.238988,101.63 248.454988,101.054 248.634988,100.748 C247.716988,100.766 243.990988,100.766 243.324988,100.766 C242.568988,100.766 241.848988,100.73 241.200988,100.658 L241.200988,98.21 L247.140988,98.21 L247.140988,97.022 L241.200988,97.022 L241.200988,95.024 L248.310988,95.024 L248.310988,93.818 L232.506988,93.818 L232.506988,95.024 L239.886988,95.024 L239.886988,100.442 C238.338988,100.028 237.186988,99.2 236.484988,97.58 C236.664988,97.004 236.826988,96.41 236.952988,95.78 L235.602988,95.6 C235.116988,98.228 233.982988,100.244 232.110988,101.45 C232.398988,101.666 232.920988,102.17 233.100988,102.404 Z M263.916988,92.72 L263.916988,87.266 L258.498988,87.266 C258.750988,86.906 259.020988,86.51 259.272988,86.078 L257.706988,85.862 C257.580988,86.258 257.328988,86.816 257.094988,87.266 L252.720988,87.266 L252.720988,92.72 L263.916988,92.72 Z M262.602988,88.886 L254.016988,88.886 L254.016988,88.094 L262.602988,88.094 L262.602988,88.886 Z M262.602988,90.362 L254.016988,90.362 L254.016988,89.57 L262.602988,89.57 L262.602988,90.362 Z M262.602988,91.892 L254.016988,91.892 L254.016988,91.046 L262.602988,91.046 L262.602988,91.892 Z M265.140988,97.382 L265.140988,93.458 L251.568988,93.458 L251.568988,97.382 L265.140988,97.382 Z M263.826988,95.06 L259.020988,95.06 L259.020988,94.286 L263.826988,94.286 L263.826988,95.06 Z M257.760988,95.06 L252.846988,95.06 L252.846988,94.286 L257.760988,94.286 L257.760988,95.06 Z M263.826988,96.554 L259.020988,96.554 L259.020988,95.744 L263.826988,95.744 L263.826988,96.554 Z M257.760988,96.554 L252.846988,96.554 L252.846988,95.744 L257.760988,95.744 L257.760988,96.554 Z M252.090988,102.404 C255.258988,101.54 255.798988,100.28 255.834988,99.308 L261.054988,99.308 L261.054988,102.35 L262.368988,102.35 L262.368988,99.308 L266.382988,99.308 L266.382988,98.192 L250.470988,98.192 L250.470988,99.308 L254.574988,99.308 C254.538988,99.974 254.160988,100.946 251.262988,101.504 C251.550988,101.702 251.910988,102.134 252.090988,102.404 Z M276.228988,102.116 C276.912988,101.918 277.146988,101.504 277.146988,100.604 L277.146988,95.24 L284.490988,95.24 L284.490988,93.908 L277.146988,93.908 L277.146988,92 C279.198988,90.956 281.502988,89.354 283.032988,87.842 L282.024988,87.086 L281.736988,87.158 L270.144988,87.158 L270.144988,88.472 L280.278988,88.472 C279.018988,89.516 277.272988,90.632 275.778988,91.316 L275.778988,93.908 L268.362988,93.908 L268.362988,95.24 L275.778988,95.24 L275.778988,100.586 C275.778988,100.91 275.652988,101 275.292988,101.018 C274.896988,101.036 273.582988,101.054 272.124988,101 C272.358988,101.378 272.610988,101.972 272.700988,102.368 C274.428988,102.368 275.562988,102.35 276.228988,102.116 Z M289.908988,91.946 L289.908988,87.518 L298.908988,87.518 L298.908988,91.946 L300.222988,91.946 L300.222988,86.528 L288.630988,86.528 L288.630988,91.946 L289.908988,91.946 Z M297.972988,89.444 L297.972988,88.562 L290.700988,88.562 L290.700988,89.444 L297.972988,89.444 Z M297.972988,91.352 L297.972988,90.47 L290.718988,90.47 L290.718988,91.352 L297.972988,91.352 Z M293.832988,102.386 L293.832988,93.944 L302.238988,93.944 L302.238988,92.828 L286.506988,92.828 L286.506988,93.944 L288.054988,93.944 L288.054988,99.992 C287.442988,100.046 286.848988,100.1 286.344988,100.154 L286.470988,101.36 C288.162988,101.144 290.358988,100.892 292.572988,100.604 L292.572988,102.386 L293.832988,102.386 Z M292.572988,95.168 L289.260988,95.168 L289.260988,93.944 L292.572988,93.944 L292.572988,95.168 Z M294.588988,102.278 C295.866988,101.846 297.126988,101.198 298.242988,100.334 C299.268988,101.162 300.492988,101.828 301.860988,102.224 C302.040988,101.882 302.400988,101.414 302.652988,101.162 C301.338988,100.838 300.150988,100.28 299.160988,99.542 C300.294988,98.426 301.212988,97.058 301.752988,95.366 L300.924988,95.024 L300.690988,95.06 L294.516988,95.06 L294.516988,96.14 L295.542988,96.14 L295.236988,96.23 C295.740988,97.472 296.460988,98.57 297.342988,99.506 C296.280988,100.28 295.074988,100.892 293.868988,101.234 C294.120988,101.486 294.444988,101.954 294.588988,102.278 Z M298.224988,98.75 C297.468988,97.994 296.838988,97.13 296.406988,96.14 L300.114988,96.14 C299.664988,97.13 299.016988,98.012 298.224988,98.75 Z M292.572988,97.418 L289.260988,97.418 L289.260988,96.176 L292.572988,96.176 L292.572988,97.418 Z M289.260988,99.884 L289.260988,98.408 L292.572988,98.408 L292.572988,99.488 C291.438988,99.632 290.304988,99.758 289.260988,99.884 Z M307.980988,89.21 L308.790988,88.184 C308.142988,87.572 306.846988,86.744 305.838988,86.24 L305.046988,87.158 C306.054988,87.716 307.350988,88.598 307.980988,89.21 Z M310.590988,90.164 L310.590988,88.094 L318.618988,88.094 L318.618988,90.092 L319.896988,90.092 L319.896988,86.924 L309.348988,86.924 L309.348988,90.164 L310.590988,90.164 Z M320.418988,92.738 C320.382988,92.432 320.346988,91.91 320.328988,91.604 C320.040988,91.658 319.518988,91.694 319.212988,91.694 L316.944988,91.694 C316.584988,91.694 316.530988,91.532 316.530988,91.1 L316.530988,88.598 L315.306988,88.598 L315.306988,91.082 C315.306988,92.378 315.648988,92.828 316.962988,92.828 L319.248988,92.828 C319.716988,92.828 320.202988,92.81 320.418988,92.738 Z M309.294988,93.314 C312.624988,92.576 313.452988,91.226 313.686988,88.598 L312.462988,88.598 C312.282988,90.722 311.616988,91.73 308.610988,92.288 C308.862988,92.504 309.186988,93.008 309.294988,93.314 Z M307.026988,93.962 L307.800988,92.9 C307.170988,92.324 305.856988,91.532 304.866988,91.064 L304.110988,91.982 C305.118988,92.504 306.378988,93.368 307.026988,93.962 Z M315.180988,102.368 L315.180988,96.626 C316.350988,98.48 318.096988,100.172 319.806988,101.126 C320.004988,100.784 320.418988,100.316 320.706988,100.064 C318.978988,99.254 317.178988,97.688 316.080988,95.978 L320.184988,95.978 L320.184988,94.754 L315.180988,94.754 L315.180988,92.81 L313.866988,92.81 L313.866988,94.754 L309.042988,94.754 L309.042988,95.978 L312.930988,95.978 C311.850988,97.76 310.068988,99.326 308.160988,100.118 C308.466988,100.37 308.880988,100.856 309.078988,101.18 C310.950988,100.28 312.696988,98.642 313.866988,96.698 L313.866988,102.368 L315.180988,102.368 Z M305.694988,101.972 C306.612988,100.316 307.656988,98.12 308.466988,96.248 L307.458988,95.402 C306.576988,97.418 305.388988,99.758 304.578988,101.126 L305.694988,101.972 Z M335.376988,102.026 C335.988988,101.972 336.402988,101.81 336.798988,101.306 C337.518988,100.424 337.752988,97.652 338.040988,89.444 L338.040988,88.76 L332.658988,88.76 C332.964988,87.914 333.216988,87.05 333.432988,86.168 L332.154988,85.862 C331.578988,88.328 330.606988,90.812 329.400988,92.396 C329.688988,92.576 330.264988,92.936 330.498988,93.152 C331.128988,92.306 331.686988,91.208 332.190988,90.002 L336.762988,90.002 C336.528988,97.166 336.258988,99.902 335.664988,100.532 C335.484988,100.766 335.286988,100.802 334.926988,100.802 L334.603276,100.801136 C334.077388,100.79768 333.198988,100.7804 332.262988,100.694 C332.514988,101.072 332.676988,101.612 332.712988,102.008 C333.720988,102.062 334.746988,102.098 335.376988,102.026 Z M324.234988,101.918 L324.234988,100.496 L329.238988,100.496 L329.238988,88.814 L326.250988,88.814 C326.556988,88.04 326.880988,87.05 327.186988,86.168 L325.746988,85.898 C325.620988,86.744 325.296988,87.95 325.026988,88.814 L323.010988,88.814 L323.010988,101.918 L324.234988,101.918 Z M328.014988,93.782 L324.234988,93.782 L324.234988,90.02 L328.014988,90.02 L328.014988,93.782 Z M334.062988,97.562 L335.196988,96.86 C334.620988,95.798 333.378988,94.07 332.370988,92.792 L331.326988,93.404 C332.316988,94.7 333.522988,96.482 334.062988,97.562 Z M328.014988,99.29 L324.234988,99.29 L324.234988,94.97 L328.014988,94.97 L328.014988,99.29 Z M354.186988,101.972 C356.058988,101.972 356.472988,101.18 356.688988,98.714 C356.310988,98.66 355.806988,98.444 355.482988,98.21 C355.356988,100.28 355.176988,100.766 354.132988,100.766 L349.794988,100.766 C348.624988,100.766 348.390988,100.532 348.390988,99.56 L348.390988,93.35 L350.802988,92.324 L350.802988,98.39 L352.080988,98.39 L352.080988,91.784 L354.420988,90.794 C354.276988,93.062 354.042988,95.726 353.736988,97.364 L354.834988,97.688 C355.284988,95.654 355.590988,92.342 355.770988,89.804 L355.842988,89.588 L354.816988,89.246 L352.080988,90.398 L352.080988,85.934 L350.802988,85.934 L350.802988,90.938 L348.390988,91.946 L348.390988,87.608 L347.112988,87.608 L347.112988,92.504 L345.168988,93.314 L345.690988,94.484 L347.112988,93.89 L347.112988,99.542 C347.112988,101.486 347.724988,101.972 349.758988,101.972 L354.186988,101.972 Z M340.578988,99.38 C342.144988,98.678 344.160988,97.778 346.050988,96.896 L345.780988,95.708 C345.114988,95.996 344.448988,96.266 343.800988,96.554 L343.800988,91.514 L345.744988,91.514 L345.744988,90.236 L343.800988,90.236 L343.800988,86.15 L342.540988,86.15 L342.540988,90.236 L340.380988,90.236 L340.380988,91.514 L342.540988,91.514 L342.540988,97.058 C341.604988,97.454 340.740988,97.814 340.056988,98.048 L340.578988,99.38 Z M359.262988,102.44 C362.646988,100.64 363.996988,97.67 364.572988,94.502 L370.980988,94.502 C370.674988,98.552 370.332988,100.28 369.792988,100.748 C369.594988,100.91 369.360988,100.946 368.946988,100.946 C368.478988,100.946 367.218988,100.928 365.940988,100.82 C366.192988,101.18 366.372988,101.72 366.408988,102.116 C367.614988,102.206 368.784988,102.224 369.414988,102.188 C370.116988,102.134 370.530988,102.008 370.962988,101.558 C371.664988,100.856 372.024988,98.912 372.366988,93.854 C372.402988,93.656 372.420988,93.206 372.420988,93.206 L364.770988,93.206 C364.896988,92.252 364.968988,91.298 365.022988,90.362 L374.166988,90.362 L374.166988,89.048 L366.660988,89.048 L367.902988,88.508 C367.650988,87.77 367.092988,86.69 366.606988,85.844 L365.328988,86.348 C365.796988,87.176 366.318988,88.328 366.552988,89.048 L358.686988,89.048 L358.686988,90.362 L363.546988,90.362 C363.348988,94.466 362.880988,99.074 358.290988,101.36 C358.632988,101.612 359.046988,102.08 359.262988,102.44 Z M382.914988,97.616 C384.804988,96.95 386.028988,95.474 386.028988,93.53 C386.028988,92.27 385.488988,91.46 384.498988,91.46 C383.760988,91.46 383.130988,91.91 383.130988,92.756 C383.130988,93.602 383.742988,94.034 384.480988,94.034 C384.588988,94.034 384.678988,94.034 384.786988,94.016 C384.696988,95.24 383.904988,96.086 382.518988,96.662 L382.914988,97.616 Z M407.034988,102.062 C409.644988,102.062 410.184988,101.126 410.454988,98.21 C410.094988,98.12 409.536988,97.886 409.212988,97.67 C408.978988,100.244 408.690988,100.838 407.016988,100.838 L400.698988,100.838 C398.952988,100.838 398.592988,100.532 398.592988,99.254 L398.592988,93.188 L402.300988,92.018 L402.300988,98.552 L403.614988,98.552 L403.614988,91.604 L407.790988,90.308 C407.700988,92.54 407.556988,95.132 407.304988,96.752 L408.420988,97.04 C408.780988,95.042 409.014988,91.766 409.122988,89.282 L409.176988,89.048 L408.168988,88.742 L407.790988,89.03 L403.614988,90.326 L403.614988,85.97 L402.300988,85.97 L402.300988,90.722 L398.592988,91.874 L398.592988,87.176 L397.296988,87.176 L397.296988,92.27 L394.002988,93.296 L394.362988,94.484 L397.296988,93.566 L397.296988,99.218 C397.296988,101.504 398.088988,102.062 400.752988,102.062 L407.034988,102.062 Z M426.330988,92.612 L426.330988,86.672 L414.378988,86.672 L414.378988,92.612 L426.330988,92.612 Z M424.998988,89.156 L415.692988,89.156 L415.692988,87.698 L424.998988,87.698 L424.998988,89.156 Z M424.998988,91.586 L415.692988,91.586 L415.692988,90.128 L424.998988,90.128 L424.998988,91.586 Z M413.100988,102.404 C414.270988,101.54 415.206988,100.424 415.908988,99.02 C417.366988,101.45 419.652988,102.026 423.270988,102.026 L428.166988,102.026 C428.238988,101.63 428.454988,101.054 428.634988,100.748 C427.716988,100.766 423.990988,100.766 423.324988,100.766 C422.568988,100.766 421.848988,100.73 421.200988,100.658 L421.200988,98.21 L427.140988,98.21 L427.140988,97.022 L421.200988,97.022 L421.200988,95.024 L428.310988,95.024 L428.310988,93.818 L412.506988,93.818 L412.506988,95.024 L419.886988,95.024 L419.886988,100.442 C418.338988,100.028 417.186988,99.2 416.484988,97.58 C416.664988,97.004 416.826988,96.41 416.952988,95.78 L415.602988,95.6 C415.116988,98.228 413.982988,100.244 412.110988,101.45 C412.398988,101.666 412.920988,102.17 413.100988,102.404 Z M434.412988,102.332 L434.412988,94.592 C435.006988,95.33 435.708988,96.266 435.996988,96.77 L436.788988,95.708 C436.446988,95.312 434.970988,93.8 434.412988,93.26 L434.412988,92.162 L436.446988,92.162 L436.446988,91.532 L446.598988,91.532 L446.598988,90.614 L442.062988,90.614 L442.062988,89.642 L445.698988,89.642 L445.698988,88.778 L442.062988,88.778 L442.062988,87.842 L446.148988,87.842 L446.148988,86.942 L442.062988,86.942 L442.062988,85.952 L440.730988,85.952 L440.730988,86.942 L436.914988,86.942 L436.914988,87.842 L440.730988,87.842 L440.730988,88.778 L437.310988,88.778 L437.310988,89.642 L440.730988,89.642 L440.730988,90.614 L436.356988,90.614 L436.356988,90.902 L434.412988,90.902 L434.412988,87.896 C435.240988,87.698 436.032988,87.482 436.680988,87.212 L435.744988,86.204 C434.484988,86.762 432.198988,87.23 430.254988,87.536 C430.416988,87.824 430.614988,88.274 430.668988,88.562 C431.442988,88.472 432.288988,88.328 433.116988,88.184 L433.116988,90.902 L430.362988,90.902 L430.362988,92.162 L433.008988,92.162 C432.306988,94.232 431.046988,96.59 429.894988,97.868 C430.110988,98.192 430.434988,98.714 430.578988,99.092 C431.478988,98.012 432.396988,96.266 433.116988,94.466 L433.116988,102.332 L434.412988,102.332 Z M445.572988,99.506 L445.572988,92.45 L437.562988,92.45 L437.562988,99.506 L445.572988,99.506 Z M444.312988,94.484 L438.786988,94.484 L438.786988,93.35 L444.312988,93.35 L444.312988,94.484 Z M444.312988,96.536 L438.786988,96.536 L438.786988,95.366 L444.312988,95.366 L444.312988,96.536 Z M444.312988,98.606 L438.786988,98.606 L438.786988,97.4 L444.312988,97.4 L444.312988,98.606 Z M436.428988,102.44 C437.904988,101.99 439.632988,101.126 440.694988,100.262 L439.578988,99.596 C438.732988,100.334 437.040988,101.144 435.564988,101.576 C435.834988,101.792 436.230988,102.188 436.428988,102.44 Z M445.572988,102.386 L446.742988,101.738 C445.896988,101.162 444.510988,100.334 443.304988,99.65 L442.404988,100.316 C443.556988,101 444.852988,101.846 445.572988,102.386 Z M453.654988,89.624 L453.654988,88.346 L455.850988,88.346 L455.850988,87.194 L453.654988,87.194 L453.654988,85.934 L452.340988,85.934 L452.340988,87.194 L448.542988,87.194 L448.542988,88.346 L452.340988,88.346 L452.340988,89.624 L453.654988,89.624 Z M458.388988,102.422 C459.288988,101.684 460.080988,100.784 460.800988,99.794 C461.376988,101.504 462.150988,102.404 463.068988,102.404 C464.076988,102.404 464.490988,101.954 464.688988,99.56 C464.382988,99.47 464.004988,99.2 463.752988,98.984 C463.662988,100.73 463.482988,101.198 463.158988,101.216 C462.636988,101.216 462.060988,100.316 461.574988,98.498 C462.456988,96.86 463.140988,94.934 463.572988,92.756 L462.366988,92.558 C462.096988,94.016 461.700988,95.348 461.196988,96.572 C460.962988,95.168 460.782988,93.476 460.692988,91.424 L464.472988,91.424 L464.472988,90.272 L463.302988,90.272 L463.788988,89.894 C463.428988,89.444 462.654988,88.868 462.024988,88.526 L461.214988,89.138 C461.754988,89.444 462.312988,89.894 462.708988,90.272 L460.656988,90.272 C460.656988,89.894 460.638988,89.516 460.638988,89.102 L460.314988,89.102 L460.314988,88.346 L464.328988,88.346 L464.328988,87.194 L460.314988,87.194 L460.314988,85.934 L459.000988,85.934 L459.000988,87.194 L456.732988,87.194 L456.732988,88.346 L459.000988,88.346 L459.000988,89.534 L459.450988,89.534 L459.468988,90.272 L451.512988,90.272 L451.512988,93.44 L450.036988,93.44 L450.036988,90.362 L448.992988,90.362 L448.992988,94.538 L451.512988,94.538 L451.512988,96.014 L451.512988,96.014 L448.200988,96.014 L448.200988,97.148 L449.190988,97.148 L449.190988,97.94 C449.190988,99.038 449.028988,100.658 448.074988,101.81 C448.308988,101.936 448.704988,102.206 448.884988,102.386 C450.000988,101.108 450.198988,99.236 450.198988,97.976 L450.198988,97.148 L451.458988,97.148 C451.368988,98.75 451.098988,100.478 450.360988,101.828 C450.630988,101.936 451.170988,102.242 451.368988,102.422 C452.484988,100.406 452.664988,97.418 452.664988,95.204 L452.664988,91.424 L459.522988,91.424 C459.684988,94.196 459.972988,96.5 460.350988,98.246 C459.972988,98.912 459.540988,99.524 459.054988,100.064 L459.054988,99.362 L457.038988,99.362 L457.038988,98.084 L458.910988,98.084 L458.910988,94.718 L457.038988,94.718 L457.038988,93.476 L458.910988,93.476 L458.910988,92.558 L453.582988,92.558 L453.582988,100.298 L458.838988,100.298 C458.388988,100.766 457.902988,101.198 457.380988,101.594 C457.668988,101.792 458.172988,102.188 458.388988,102.422 Z M456.066988,94.718 L454.590988,94.718 L454.590988,93.476 L456.066988,93.476 L456.066988,94.718 Z M457.920988,97.202 L454.590988,97.202 L454.590988,95.618 L457.920988,95.618 L457.920988,97.202 Z M456.066988,99.362 L454.590988,99.362 L454.590988,98.084 L456.066988,98.084 L456.066988,99.362 Z M469.908988,91.946 L469.908988,87.518 L478.908988,87.518 L478.908988,91.946 L480.222988,91.946 L480.222988,86.528 L468.630988,86.528 L468.630988,91.946 L469.908988,91.946 Z M477.972988,89.444 L477.972988,88.562 L470.700988,88.562 L470.700988,89.444 L477.972988,89.444 Z M477.972988,91.352 L477.972988,90.47 L470.718988,90.47 L470.718988,91.352 L477.972988,91.352 Z M473.832988,102.386 L473.832988,93.944 L482.238988,93.944 L482.238988,92.828 L466.506988,92.828 L466.506988,93.944 L468.054988,93.944 L468.054988,99.992 C467.442988,100.046 466.848988,100.1 466.344988,100.154 L466.470988,101.36 C468.162988,101.144 470.358988,100.892 472.572988,100.604 L472.572988,102.386 L473.832988,102.386 Z M472.572988,95.168 L469.260988,95.168 L469.260988,93.944 L472.572988,93.944 L472.572988,95.168 Z M474.588988,102.278 C475.866988,101.846 477.126988,101.198 478.242988,100.334 C479.268988,101.162 480.492988,101.828 481.860988,102.224 C482.040988,101.882 482.400988,101.414 482.652988,101.162 C481.338988,100.838 480.150988,100.28 479.160988,99.542 C480.294988,98.426 481.212988,97.058 481.752988,95.366 L480.924988,95.024 L480.690988,95.06 L474.516988,95.06 L474.516988,96.14 L475.542988,96.14 L475.236988,96.23 C475.740988,97.472 476.460988,98.57 477.342988,99.506 C476.280988,100.28 475.074988,100.892 473.868988,101.234 C474.120988,101.486 474.444988,101.954 474.588988,102.278 Z M478.224988,98.75 C477.468988,97.994 476.838988,97.13 476.406988,96.14 L480.114988,96.14 C479.664988,97.13 479.016988,98.012 478.224988,98.75 Z M472.572988,97.418 L469.260988,97.418 L469.260988,96.176 L472.572988,96.176 L472.572988,97.418 Z M469.260988,99.884 L469.260988,98.408 L472.572988,98.408 L472.572988,99.488 C471.438988,99.632 470.304988,99.758 469.260988,99.884 Z M485.496988,95.348 C490.158988,94.376 495.396988,91.964 497.664988,87.986 L496.800988,87.446 L496.566988,87.5 L491.904988,87.5 C492.336988,87.068 492.732988,86.654 493.074988,86.222 L491.616988,85.916 C490.464988,87.392 488.322988,89.138 485.460988,90.344 C485.748988,90.56 486.162988,90.974 486.360988,91.28 C487.098988,90.92 487.818988,90.56 488.466988,90.164 C489.348988,90.794 490.284988,91.586 490.878988,92.216 C488.970988,93.134 486.864988,93.782 484.866988,94.142 C485.100988,94.43 485.388988,94.988 485.496988,95.348 Z M492.048988,91.622 C491.418988,90.938 490.410988,90.146 489.474988,89.516 C489.852988,89.246 490.212988,88.994 490.536988,88.706 L495.612988,88.706 C494.730988,89.822 493.470988,90.812 492.048988,91.622 Z M485.352988,102.422 C491.688988,101.666 497.826988,99.578 500.328988,94.286 L499.428988,93.728 L499.158988,93.8 L494.820988,93.8 C495.270988,93.368 495.648988,92.918 496.008988,92.468 L494.532988,92.144 C493.218988,93.908 490.662988,95.906 487.026988,97.22 C487.332988,97.436 487.710988,97.922 487.872988,98.21 C488.898988,97.814 489.834988,97.364 490.698988,96.896 C491.616988,97.598 492.588988,98.444 493.218988,99.128 C490.734988,100.226 487.800988,100.838 484.812988,101.126 C485.046988,101.45 485.262988,102.044 485.352988,102.422 Z M494.460988,98.516 C493.794988,97.832 492.750988,96.932 491.796988,96.248 C492.390988,95.852 492.966988,95.456 493.470988,95.024 L498.330988,95.024 C497.412988,96.464 496.080988,97.616 494.460988,98.516 Z M503.532988,102.386 C505.980988,99.92 506.358988,96.104 506.358988,93.314 L506.358988,89.192 L518.598988,89.192 L518.598988,87.986 L512.946988,87.986 C512.766988,87.374 512.460988,86.564 512.190988,85.898 L510.786988,86.186 C511.002988,86.726 511.218988,87.41 511.398988,87.986 L505.080988,87.986 L505.080988,93.296 C505.080988,93.818 505.062988,94.358 505.026988,94.934 C503.910988,95.51 502.866988,96.086 502.056988,96.41 L502.524988,97.634 C503.262988,97.22 504.090988,96.752 504.900988,96.266 C504.630988,98.102 504.018988,99.992 502.560988,101.486 C502.830988,101.666 503.334988,102.134 503.532988,102.386 Z M503.712988,93.26 L504.774988,92.72 C504.594988,91.838 503.964988,90.452 503.334988,89.444 L502.344988,89.912 C502.938988,90.974 503.532988,92.378 503.712988,93.26 Z M508.734988,102.386 L508.734988,94.934 L511.920988,94.934 C511.794988,96.338 511.236988,98.012 508.986988,99.074 C509.238988,99.308 509.616988,99.74 509.796988,99.992 C511.344988,99.164 512.208988,98.084 512.658988,97.004 C513.684988,97.958 514.746988,99.092 515.322988,99.848 L516.204988,99.092 C515.502988,98.228 514.134988,96.896 513.018988,95.906 C513.090988,95.582 513.144988,95.258 513.162988,94.934 L516.636988,94.934 L516.636988,100.838 C516.636988,101.072 516.564988,101.144 516.294988,101.144 C516.060988,101.162 515.214988,101.18 514.260988,101.144 C514.440988,101.468 514.638988,101.972 514.692988,102.332 L515.243164,102.331213 C516.195403,102.326888 516.843296,102.298769 517.284988,102.116 C517.770988,101.9 517.914988,101.54 517.914988,100.856 L517.914988,93.764 L513.198988,93.764 L513.198988,91.928 L518.418988,91.928 L518.418988,90.758 L507.114988,90.758 L507.114988,91.928 L511.956988,91.928 L511.956988,93.764 L507.510988,93.764 L507.510988,102.386 L508.734988,102.386 Z M525.708988,89.696 L525.708988,88.49 L527.724988,88.49 L527.724988,87.302 L525.708988,87.302 L525.708988,85.97 L524.466988,85.97 L524.466988,87.302 L520.578988,87.302 L520.578988,88.49 L524.466988,88.49 L524.466988,89.696 L525.708988,89.696 Z M532.152988,89.696 L532.152988,88.49 L536.256988,88.49 L536.256988,87.302 L532.152988,87.302 L532.152988,85.97 L530.910988,85.97 L530.910988,87.302 L529.002988,87.302 L529.002988,88.49 L530.910988,88.49 L530.910988,89.696 L532.152988,89.696 Z M522.864988,102.404 L522.864988,101.684 L533.934988,101.684 L533.934988,102.404 L535.248988,102.404 L535.248988,90.398 L521.604988,90.398 L521.604988,102.404 L522.864988,102.404 Z M533.934988,100.514 L522.864988,100.514 L522.864988,91.55 L533.934988,91.55 L533.934988,100.514 Z M528.948988,99.974 L528.948988,96.518 C530.244988,97.616 531.666988,98.966 532.404988,99.866 L533.178988,99.11 C532.476988,98.264 531.126988,97.04 529.866988,96.014 L533.160988,96.014 L533.160988,94.988 L528.948988,94.988 L528.948988,93.422 C530.172988,93.278 531.324988,93.08 532.224988,92.81 L531.324988,92.036 C529.758988,92.504 526.716988,92.81 524.196988,92.972 C524.322988,93.206 524.466988,93.566 524.502988,93.818 C525.528988,93.764 526.662988,93.692 527.760988,93.566 L527.760988,94.988 L523.638988,94.988 L523.638988,96.014 L527.184988,96.014 C526.194988,97.22 524.646988,98.336 523.278988,98.912 C523.530988,99.128 523.890988,99.506 524.070988,99.794 C525.312988,99.164 526.734988,98.048 527.760988,96.824 L527.760988,99.974 L528.948988,99.974 Z M551.376988,102.026 C551.988988,101.972 552.402988,101.81 552.798988,101.306 C553.518988,100.424 553.752988,97.652 554.040988,89.444 L554.040988,88.76 L548.658988,88.76 C548.964988,87.914 549.216988,87.05 549.432988,86.168 L548.154988,85.862 C547.578988,88.328 546.606988,90.812 545.400988,92.396 C545.688988,92.576 546.264988,92.936 546.498988,93.152 C547.128988,92.306 547.686988,91.208 548.190988,90.002 L552.762988,90.002 C552.528988,97.166 552.258988,99.902 551.664988,100.532 C551.484988,100.766 551.286988,100.802 550.926988,100.802 L550.603276,100.801136 C550.077388,100.79768 549.198988,100.7804 548.262988,100.694 C548.514988,101.072 548.676988,101.612 548.712988,102.008 C549.720988,102.062 550.746988,102.098 551.376988,102.026 Z M540.234988,101.918 L540.234988,100.496 L545.238988,100.496 L545.238988,88.814 L542.250988,88.814 C542.556988,88.04 542.880988,87.05 543.186988,86.168 L541.746988,85.898 C541.620988,86.744 541.296988,87.95 541.026988,88.814 L539.010988,88.814 L539.010988,101.918 L540.234988,101.918 Z M544.014988,93.782 L540.234988,93.782 L540.234988,90.02 L544.014988,90.02 L544.014988,93.782 Z M550.062988,97.562 L551.196988,96.86 C550.620988,95.798 549.378988,94.07 548.370988,92.792 L547.326988,93.404 C548.316988,94.7 549.522988,96.482 550.062988,97.562 Z M544.014988,99.29 L540.234988,99.29 L540.234988,94.97 L544.014988,94.97 L544.014988,99.29 Z M570.186988,101.972 C572.058988,101.972 572.472988,101.18 572.688988,98.714 C572.310988,98.66 571.806988,98.444 571.482988,98.21 C571.356988,100.28 571.176988,100.766 570.132988,100.766 L565.794988,100.766 C564.624988,100.766 564.390988,100.532 564.390988,99.56 L564.390988,93.35 L566.802988,92.324 L566.802988,98.39 L568.080988,98.39 L568.080988,91.784 L570.420988,90.794 C570.276988,93.062 570.042988,95.726 569.736988,97.364 L570.834988,97.688 C571.284988,95.654 571.590988,92.342 571.770988,89.804 L571.842988,89.588 L570.816988,89.246 L568.080988,90.398 L568.080988,85.934 L566.802988,85.934 L566.802988,90.938 L564.390988,91.946 L564.390988,87.608 L563.112988,87.608 L563.112988,92.504 L561.168988,93.314 L561.690988,94.484 L563.112988,93.89 L563.112988,99.542 C563.112988,101.486 563.724988,101.972 565.758988,101.972 L570.186988,101.972 Z M556.578988,99.38 C558.144988,98.678 560.160988,97.778 562.050988,96.896 L561.780988,95.708 C561.114988,95.996 560.448988,96.266 559.800988,96.554 L559.800988,91.514 L561.744988,91.514 L561.744988,90.236 L559.800988,90.236 L559.800988,86.15 L558.540988,86.15 L558.540988,90.236 L556.380988,90.236 L556.380988,91.514 L558.540988,91.514 L558.540988,97.058 C557.604988,97.454 556.740988,97.814 556.056988,98.048 L556.578988,99.38 Z M43.2729884,132.44 C46.6569884,130.64 48.0069884,127.67 48.5829884,124.502 L54.9909884,124.502 C54.6849884,128.552 54.3429884,130.28 53.8029884,130.748 C53.6049884,130.91 53.3709884,130.946 52.9569884,130.946 C52.4889884,130.946 51.2289884,130.928 49.9509884,130.82 C50.2029884,131.18 50.3829884,131.72 50.4189884,132.116 C51.6249884,132.206 52.7949884,132.224 53.4249884,132.188 C54.1269884,132.134 54.5409884,132.008 54.9729884,131.558 C55.6749884,130.856 56.0349884,128.912 56.3769884,123.854 C56.4129884,123.656 56.4309884,123.206 56.4309884,123.206 L48.7809884,123.206 C48.9069884,122.252 48.9789884,121.298 49.0329884,120.362 L58.1769884,120.362 L58.1769884,119.048 L50.6709884,119.048 L51.9129884,118.508 C51.6609884,117.77 51.1029884,116.69 50.6169884,115.844 L49.3389884,116.348 C49.8069884,117.176 50.3289884,118.328 50.5629884,119.048 L42.6969884,119.048 L42.6969884,120.362 L47.5569884,120.362 C47.3589884,124.466 46.8909884,129.074 42.3009884,131.36 C42.6429884,131.612 43.0569884,132.08 43.2729884,132.44 Z M66.9249884,127.616 C68.8149884,126.95 70.0389884,125.474 70.0389884,123.53 C70.0389884,122.27 69.4989884,121.46 68.5089884,121.46 C67.7709884,121.46 67.1409884,121.91 67.1409884,122.756 C67.1409884,123.602 67.7529884,124.034 68.4909884,124.034 C68.5989884,124.034 68.6889884,124.034 68.7969884,124.016 C68.7069884,125.24 67.9149884,126.086 66.5289884,126.662 L66.9249884,127.616 Z M80.1909884,132.368 L80.1909884,131.486 L92.6109884,131.486 L92.6109884,132.368 L93.9069884,132.368 L93.9069884,116.672 L78.9489884,116.672 L78.9489884,132.368 L80.1909884,132.368 Z M92.6109884,130.334 L80.1909884,130.334 L80.1909884,117.896 L92.6109884,117.896 L92.6109884,130.334 Z M82.0989884,129.776 C84.4929884,128.678 85.7169884,127.004 86.4009884,124.916 C88.0209884,126.446 89.7309884,128.336 90.5949884,129.596 L91.5489884,128.804 C90.5589884,127.418 88.5609884,125.294 86.7069884,123.728 C86.7789884,123.422 86.8329884,123.134 86.8869884,122.81 L91.5489884,122.81 L91.5489884,121.586 L87.0489884,121.586 C87.1389884,120.65 87.1929884,119.678 87.2289884,118.652 L85.9149884,118.652 C85.8789884,119.678 85.8249884,120.668 85.7349884,121.586 L81.2529884,121.586 L81.2529884,122.81 L85.5729884,122.81 C85.1409884,125.438 84.0609884,127.49 81.2709884,128.714 C81.5409884,128.966 81.9369884,129.452 82.0989884,129.776 Z M96.4989884,132.152 C98.7489884,131.72 102.006988,131.126 105.066988,130.55 L104.958988,129.2 L102.420988,129.668 L102.420988,122.756 L104.958988,122.756 L104.958988,121.46 L102.420988,121.46 L102.420988,115.952 L101.052988,115.952 L101.052988,129.92 L99.0369884,130.262 L99.0369884,119.57 L97.7229884,119.57 L97.7229884,130.496 C97.2009884,130.586 96.7149884,130.658 96.2829884,130.73 L96.4989884,132.152 Z M110.700988,131.792 C112.302988,131.792 112.662988,130.784 112.842988,127.904 C112.446988,127.796 111.906988,127.544 111.546988,127.292 C111.456988,129.83 111.330988,130.478 110.592988,130.478 L108.144988,130.478 C107.388988,130.478 107.262988,130.298 107.262988,129.362 L107.262988,122.756 L111.636988,122.756 L111.636988,121.478 L107.262988,121.478 L107.262988,115.952 L105.858988,115.952 L105.858988,129.326 C105.858988,131.27 106.308988,131.792 107.982988,131.792 L110.700988,131.792 Z M122.454988,118.94 L122.454988,117.824 L119.610988,117.824 C119.376988,117.23 118.980988,116.456 118.602988,115.844 L117.306988,116.186 C117.558988,116.672 117.864988,117.284 118.098988,117.824 L114.570988,117.824 L114.570988,118.94 L122.454988,118.94 Z M128.610988,132.296 L128.610988,123.224 L130.590988,123.224 L130.590988,121.964 L124.848988,121.964 L124.848988,118.544 C126.738988,118.256 128.808988,117.806 130.284988,117.248 L129.204988,116.258 C127.926988,116.798 125.622988,117.338 123.606988,117.662 L123.606988,123.854 C123.606988,126.248 123.462988,129.326 121.950988,131.486 C122.238988,131.63 122.760988,132.044 122.976988,132.296 C124.614988,129.956 124.848988,126.428 124.848988,123.854 L124.848988,123.224 L127.314988,123.224 L127.314988,132.296 L128.610988,132.296 Z M119.268988,132.314 L119.268988,126.068 L122.526988,126.068 L122.526988,124.916 L119.268988,124.916 L119.268988,123.026 L122.724988,123.026 L122.724988,121.892 L120.438988,121.892 C120.780988,121.136 121.122988,120.164 121.446988,119.3 L120.222988,119.048 C120.006988,119.876 119.592988,121.064 119.250988,121.892 L114.282988,121.892 L114.282988,123.026 L117.954988,123.026 L117.954988,124.916 L114.372988,124.916 L114.372988,126.068 L117.954988,126.068 L117.954988,132.314 L119.268988,132.314 Z M116.424988,121.82 L117.540988,121.514 C117.468988,120.848 117.162988,119.84 116.802988,119.066 L115.740988,119.318 C116.046988,120.11 116.334988,121.154 116.424988,121.82 Z M121.554988,130.28 L122.508988,129.74 C122.202988,128.966 121.572988,127.796 120.996988,126.914 L120.078988,127.4 C120.618988,128.264 121.266988,129.506 121.554988,130.28 Z M115.200988,130.91 C115.866988,130.01 116.622988,128.606 117.054988,127.328 L115.956988,127.022 C115.596988,128.192 114.966988,129.416 114.264988,130.262 C114.534988,130.406 114.984988,130.748 115.200988,130.91 Z M134.190988,119.894 L134.190988,118.058 L146.610988,118.058 L146.610988,119.894 L147.942988,119.894 L147.942988,116.816 L132.876988,116.816 L132.876988,119.894 L134.190988,119.894 Z M145.782988,129.668 C146.250988,129.452 146.412988,129.11 146.412988,128.426 L146.412988,122.972 L148.410988,122.972 L148.410988,121.766 L146.412988,121.766 L146.412988,119.516 L145.134988,119.516 L145.134988,121.766 L140.580988,121.766 L140.580988,122.972 L145.134988,122.972 L145.134988,128.408 C145.134988,128.642 145.062988,128.696 144.828988,128.714 L144.472724,128.713476 C144.11016,128.712296 143.555142,128.708462 142.956988,128.696 C143.136988,129.038 143.316988,129.524 143.370988,129.866 C144.540988,129.884 145.278988,129.848 145.782988,129.668 Z M139.932988,121.442 L139.932988,120.2 L133.650988,120.2 L133.650988,121.442 L139.932988,121.442 Z M133.002988,132.386 C135.234988,130.64 135.720988,128.12 135.720988,126.194 L135.720988,124.97 L137.646988,124.97 L137.646988,130.118 C137.646988,131.738 138.312988,132.152 140.670988,132.152 L145.908988,132.152 C148.032988,132.152 148.464988,131.504 148.698988,129.002 C148.320988,128.93 147.798988,128.732 147.474988,128.516 C147.348988,130.604 147.150988,130.946 145.872988,130.946 L140.670988,130.946 C139.176988,130.946 138.906988,130.784 138.906988,130.118 L138.906988,124.97 L140.616988,124.97 L140.616988,123.728 L132.408988,123.728 L132.408988,124.97 L134.478988,124.97 L134.478988,126.176 C134.478988,127.796 134.118988,129.884 132.084988,131.45 C132.354988,131.612 132.822988,132.116 133.002988,132.386 Z M142.722988,127.454 L143.856988,126.95 C143.586988,126.104 142.938988,124.862 142.236988,123.944 L141.192988,124.358 C141.858988,125.312 142.488988,126.608 142.722988,127.454 Z M151.542988,132.386 C153.990988,129.92 154.368988,126.104 154.368988,123.314 L154.368988,119.192 L166.608988,119.192 L166.608988,117.986 L160.956988,117.986 C160.776988,117.374 160.470988,116.564 160.200988,115.898 L158.796988,116.186 C159.012988,116.726 159.228988,117.41 159.408988,117.986 L153.090988,117.986 L153.090988,123.296 C153.090988,123.818 153.072988,124.358 153.036988,124.934 C151.920988,125.51 150.876988,126.086 150.066988,126.41 L150.534988,127.634 C151.272988,127.22 152.100988,126.752 152.910988,126.266 C152.640988,128.102 152.028988,129.992 150.570988,131.486 C150.840988,131.666 151.344988,132.134 151.542988,132.386 Z M151.722988,123.26 L152.784988,122.72 C152.604988,121.838 151.974988,120.452 151.344988,119.444 L150.354988,119.912 C150.948988,120.974 151.542988,122.378 151.722988,123.26 Z M156.744988,132.386 L156.744988,124.934 L159.930988,124.934 C159.804988,126.338 159.246988,128.012 156.996988,129.074 C157.248988,129.308 157.626988,129.74 157.806988,129.992 C159.354988,129.164 160.218988,128.084 160.668988,127.004 C161.694988,127.958 162.756988,129.092 163.332988,129.848 L164.214988,129.092 C163.512988,128.228 162.144988,126.896 161.028988,125.906 C161.100988,125.582 161.154988,125.258 161.172988,124.934 L164.646988,124.934 L164.646988,130.838 C164.646988,131.072 164.574988,131.144 164.304988,131.144 C164.070988,131.162 163.224988,131.18 162.270988,131.144 C162.450988,131.468 162.648988,131.972 162.702988,132.332 L163.253164,132.331213 C164.205403,132.326888 164.853296,132.298769 165.294988,132.116 C165.780988,131.9 165.924988,131.54 165.924988,130.856 L165.924988,123.764 L161.208988,123.764 L161.208988,121.928 L166.428988,121.928 L166.428988,120.758 L155.124988,120.758 L155.124988,121.928 L159.966988,121.928 L159.966988,123.764 L155.520988,123.764 L155.520988,132.386 L156.744988,132.386 Z M184.140988,122.684 L184.140988,121.658 L177.012988,121.658 L177.012988,120.452 L182.484988,120.452 L182.484988,119.462 L177.012988,119.462 L177.012988,118.382 L183.600988,118.382 L183.600988,117.374 L177.012988,117.374 L177.012988,115.952 L175.698988,115.952 L175.698988,117.374 L169.452988,117.374 L169.452988,118.382 L175.698988,118.382 L175.698988,119.462 L170.478988,119.462 L170.478988,120.452 L175.698988,120.452 L175.698988,121.658 L168.696988,121.658 L168.696988,122.684 L184.140988,122.684 Z M173.412988,132.548 C174.600988,131.684 175.410988,130.73 175.950988,129.722 L180.162988,129.722 C180.018988,130.46 179.856988,130.856 179.676988,131.036 C179.514988,131.234 179.334988,131.27 179.028988,131.252 C178.704988,131.27 177.876988,131.252 176.976988,131.18 C177.138988,131.45 177.246988,131.864 177.264988,132.152 C178.200988,132.224 179.100988,132.224 179.586988,132.188 C180.090988,132.152 180.468988,132.044 180.792988,131.666 C181.062988,131.36 181.278988,130.802 181.458988,129.722 L183.348988,129.722 L183.348988,128.678 L181.602988,128.678 C181.656988,128.228 181.710988,127.706 181.764988,127.112 L184.608988,127.112 L184.608988,126.068 L181.854988,126.068 C181.890988,125.51 181.944988,124.88 181.980988,124.178 C181.980988,124.016 181.998988,123.62 181.998988,123.62 L171.396988,123.62 C171.342988,124.376 171.252988,125.222 171.144988,126.068 L168.210988,126.068 L168.210988,127.112 L171.018988,127.112 C170.892988,128.084 170.748988,129.002 170.622988,129.722 L174.510988,129.722 C174.006988,130.46 173.340988,131.162 172.404988,131.81 C172.710988,131.99 173.196988,132.332 173.412988,132.548 Z M175.806988,126.068 L172.440988,126.068 C172.494988,125.582 172.548988,125.096 172.602988,124.628 L175.860988,124.628 L175.860988,124.916 C175.860988,125.258 175.842988,125.654 175.806988,126.068 Z M180.576988,126.068 L177.048988,126.068 C177.084988,125.672 177.102988,125.294 177.102988,124.952 L177.102988,124.628 L180.666988,124.628 C180.648988,125.132 180.612988,125.636 180.576988,126.068 Z M180.306988,128.678 L176.454988,128.678 C176.670988,128.156 176.796988,127.616 176.904988,127.112 L180.486988,127.112 C180.432988,127.706 180.378988,128.246 180.306988,128.678 Z M175.104988,128.678 L172.098988,128.678 C172.170988,128.192 172.242988,127.652 172.314988,127.112 L175.644988,127.112 C175.518988,127.616 175.338988,128.156 175.104988,128.678 Z M199.260988,132.098 C199.944988,131.9 200.178988,131.432 200.178988,130.46 L200.178988,118.544 L202.392988,118.544 L202.392988,117.212 L186.462988,117.212 L186.462988,118.544 L198.810988,118.544 L198.810988,130.442 C198.810988,130.82 198.684988,130.946 198.288988,130.964 C197.874988,130.982 196.398988,131 194.958988,130.928 C195.174988,131.306 195.444988,131.972 195.534988,132.35 L196.212748,132.349403 C197.620908,132.34552 198.636988,132.3164 199.260988,132.098 Z M189.594988,129.29 L189.594988,127.85 L195.606988,127.85 L195.606988,121.172 L188.298988,121.172 L188.298988,129.29 L189.594988,129.29 Z M194.292988,126.572 L189.594988,126.572 L189.594988,122.468 L194.292988,122.468 L194.292988,126.572 Z M211.734988,121.748 L212.886988,121.226 C212.436988,120.164 211.410988,118.472 210.528988,117.248 L209.448988,117.662 C209.826988,118.22 210.204988,118.832 210.564988,119.444 L206.874988,119.696 C207.756988,118.76 208.620988,117.554 209.376988,116.384 L208.044988,115.934 C207.288988,117.392 206.100988,118.85 205.758988,119.228 C205.398988,119.606 205.092988,119.876 204.804988,119.93 C204.966988,120.254 205.164988,120.92 205.236988,121.19 C205.650988,120.992 206.280988,120.92 211.158988,120.524 C211.392988,120.974 211.590988,121.388 211.734988,121.748 Z M218.700988,123.692 C219.348988,123.692 219.996988,123.656 220.302988,123.584 C220.248988,123.278 220.194988,122.774 220.158988,122.414 C219.859738,122.49275 219.271082,122.516375 218.839188,122.521051 L215.352988,122.522 C214.776988,122.522 214.632988,122.306 214.632988,121.658 L214.632988,119.624 L219.474988,119.624 L219.474988,118.436 L214.632988,118.436 L214.632988,115.952 L213.318988,115.952 L213.318988,121.622 C213.318988,123.134 213.750988,123.692 215.334988,123.692 L218.700988,123.692 Z M205.218988,132.422 C205.974988,131.486 206.334988,130.244 206.514988,129.056 L206.982988,130.136 C207.990988,129.56 209.214988,128.858 210.402988,128.156 L210.402988,130.928 C210.402988,131.162 210.348988,131.234 210.096988,131.234 C209.862988,131.234 209.124988,131.252 208.260988,131.216 C208.440988,131.54 208.620988,131.99 208.692988,132.332 C209.808988,132.332 210.600988,132.314 211.050988,132.116 C211.536988,131.918 211.680988,131.612 211.680988,130.928 L211.680988,122.306 L205.434988,122.306 L205.434988,126.698 C205.434988,128.228 205.326988,130.118 204.300988,131.486 C204.570988,131.666 205.038988,132.134 205.218988,132.422 Z M206.532988,128.984 C206.640988,128.192 206.676988,127.4 206.676988,126.716 L206.676988,123.458 L210.402988,123.458 L210.402988,127.094 C208.962988,127.814 207.540988,128.534 206.532988,128.984 Z M218.700988,132.224 C220.194988,132.224 220.590988,131.612 220.752988,129.272 C220.392988,129.182 219.870988,128.984 219.564988,128.768 C219.474988,130.694 219.348988,131.036 218.592988,131.036 L215.640988,131.036 C214.794988,131.036 214.632988,130.928 214.632988,130.334 L214.632988,127.634 L219.672988,127.634 L219.672988,126.428 L214.632988,126.428 L214.632988,124.286 L213.318988,124.286 L213.318988,130.334 C213.318988,131.81 213.768988,132.224 215.514988,132.224 L218.700988,132.224 Z M209.664988,127.094 L210.384988,126.356 C209.736988,125.852 208.476988,125.042 207.522988,124.484 L206.820988,125.15 C207.792988,125.744 209.034988,126.572 209.664988,127.094 Z M225.540988,119.138 L226.404988,118.13 C225.810988,117.536 224.604988,116.708 223.686988,116.168 L222.840988,117.05 C223.758988,117.626 224.964988,118.526 225.540988,119.138 Z M226.836988,124.916 C228.618988,123.782 229.536988,122.468 230.004988,121.244 L230.004988,122.666 C230.004988,123.458 229.608988,123.89 229.374988,124.07 C229.554988,124.232 229.806988,124.61 229.914988,124.844 C230.130988,124.61 230.508988,124.376 232.632988,123.314 C232.542988,123.134 232.398988,122.756 232.326988,122.468 L230.940988,123.098 L230.940988,121.082 L232.236988,121.082 L232.236988,120.02 L230.346988,120.02 C230.454988,119.444 230.490988,118.94 230.490988,118.472 L230.490988,117.608 L232.020988,117.608 L232.020988,116.618 L226.692988,116.618 L226.692988,117.608 L227.160988,117.608 C227.070988,118.76 226.926988,120.164 226.746988,121.082 L228.978988,121.082 C228.564988,122.126 227.736988,123.206 226.116988,124.142 C226.350988,124.322 226.692988,124.664 226.836988,124.916 Z M232.938988,124.934 C234.162988,124.106 234.954988,123.188 235.440988,122.27 L235.440988,123.332 C235.440988,124.322 235.674988,124.574 236.592988,124.574 L237.618988,124.574 C238.338988,124.574 238.608988,124.196 238.698988,122.63 C238.410988,122.558 238.032988,122.396 237.834988,122.252 C237.798988,123.548 237.744988,123.638 237.456988,123.638 L236.700988,123.638 C236.448988,123.638 236.412988,123.62 236.412988,123.332 L236.412988,121.658 L235.728988,121.658 C235.800988,121.496 235.872988,121.298 235.926988,121.118 L238.410988,121.118 L238.410988,120.056 L236.160988,120.056 C236.250988,119.552 236.268988,119.084 236.268988,118.67 L236.268988,117.608 L238.266988,117.608 L238.266988,116.618 L232.578988,116.618 L232.578988,117.608 L233.028988,117.608 C232.920988,118.778 232.758988,120.182 232.596988,121.118 L234.864988,121.118 C234.486988,122.18 233.748988,123.296 232.218988,124.196 C232.470988,124.358 232.794988,124.7 232.938988,124.934 Z M229.284988,120.02 L227.862988,120.02 C227.970988,119.264 228.096988,118.382 228.168988,117.608 L229.410988,117.608 L229.410988,118.472 C229.410988,118.94 229.392988,119.462 229.284988,120.02 Z M235.116988,120.056 L233.676988,120.056 C233.784988,119.282 233.910988,118.4 234.000988,117.608 L235.206988,117.608 L235.206988,118.652 C235.206988,119.066 235.188988,119.534 235.116988,120.056 Z M225.018988,123.854 L225.864988,122.828 C225.234988,122.27 223.956988,121.496 222.966988,121.01 L222.156988,121.91 C223.146988,122.45 224.406988,123.278 225.018988,123.854 Z M228.942988,132.35 L228.942988,131.558 L235.998988,131.558 L235.998988,132.296 L237.312988,132.296 L237.312988,125.168 L227.700988,125.168 L227.700988,132.35 L228.942988,132.35 Z M223.740988,132.134 C224.532988,130.496 225.432988,128.282 226.098988,126.428 L225.018988,125.708 C224.298988,127.724 223.272988,130.046 222.552988,131.432 L223.740988,132.134 Z M235.998988,127.796 L228.942988,127.796 L228.942988,126.248 L235.998988,126.248 L235.998988,127.796 Z M235.998988,130.478 L228.942988,130.478 L228.942988,128.768 L235.998988,128.768 L235.998988,130.478 Z M244.242988,132.314 L244.242988,123.674 C245.088988,122.522 245.790988,121.298 246.420988,120.002 L256.230988,120.002 L256.230988,118.724 L246.960988,118.724 C247.284988,117.914 247.590988,117.086 247.824988,116.276 L246.456988,115.934 C246.204988,116.852 245.880988,117.806 245.502988,118.724 L240.588988,118.724 L240.588988,120.002 L244.908988,120.002 C243.792988,122.288 242.208988,124.412 240.156988,125.87 C240.372988,126.158 240.714988,126.716 240.840988,127.076 C241.596988,126.536 242.298988,125.942 242.928988,125.258 L242.928988,132.314 L244.242988,132.314 Z M256.230988,131.954 L256.230988,130.694 L251.478988,130.694 L251.478988,125.636 L255.528988,125.636 L255.528988,124.376 L251.478988,124.376 L251.478988,120.938 L250.146988,120.938 L250.146988,124.376 L246.114988,124.376 L246.114988,125.636 L250.146988,125.636 L250.146988,130.694 L245.412988,130.694 L245.412988,131.954 L256.230988,131.954 Z M262.242988,132.314 L262.242988,123.674 C263.088988,122.522 263.790988,121.298 264.420988,120.002 L274.230988,120.002 L274.230988,118.724 L264.960988,118.724 C265.284988,117.914 265.590988,117.086 265.824988,116.276 L264.456988,115.934 C264.204988,116.852 263.880988,117.806 263.502988,118.724 L258.588988,118.724 L258.588988,120.002 L262.908988,120.002 C261.792988,122.288 260.208988,124.412 258.156988,125.87 C258.372988,126.158 258.714988,126.716 258.840988,127.076 C259.596988,126.536 260.298988,125.942 260.928988,125.258 L260.928988,132.314 L262.242988,132.314 Z M274.230988,131.954 L274.230988,130.694 L269.478988,130.694 L269.478988,125.636 L273.528988,125.636 L273.528988,124.376 L269.478988,124.376 L269.478988,120.938 L268.146988,120.938 L268.146988,124.376 L264.114988,124.376 L264.114988,125.636 L268.146988,125.636 L268.146988,130.694 L263.412988,130.694 L263.412988,131.954 L274.230988,131.954 Z M276.498988,132.152 C278.748988,131.72 282.006988,131.126 285.066988,130.55 L284.958988,129.2 L282.420988,129.668 L282.420988,122.756 L284.958988,122.756 L284.958988,121.46 L282.420988,121.46 L282.420988,115.952 L281.052988,115.952 L281.052988,129.92 L279.036988,130.262 L279.036988,119.57 L277.722988,119.57 L277.722988,130.496 C277.200988,130.586 276.714988,130.658 276.282988,130.73 L276.498988,132.152 Z M290.700988,131.792 C292.302988,131.792 292.662988,130.784 292.842988,127.904 C292.446988,127.796 291.906988,127.544 291.546988,127.292 C291.456988,129.83 291.330988,130.478 290.592988,130.478 L288.144988,130.478 C287.388988,130.478 287.262988,130.298 287.262988,129.362 L287.262988,122.756 L291.636988,122.756 L291.636988,121.478 L287.262988,121.478 L287.262988,115.952 L285.858988,115.952 L285.858988,129.326 C285.858988,131.27 286.308988,131.792 287.982988,131.792 L290.700988,131.792 Z M302.994988,126.644 L303.444988,119.66 L303.480988,117.536 L301.320988,117.536 L301.374988,119.66 L301.806988,126.644 L302.994988,126.644 Z M302.400988,131.09 C303.192988,131.09 303.840988,130.55 303.840988,129.668 C303.840988,128.822 303.192988,128.264 302.400988,128.264 C301.608988,128.264 300.960988,128.822 300.960988,129.668 C300.960988,130.55 301.608988,131.09 302.400988,131.09 Z" id="鼻咽距離鼻頭約9公分，是鼻子最深的地方，也是積藏最多病菌的地方，因此新冠病毒可能潛在在此！" fill="#FFFFFF"></path>
        </g>
    </g>
</svg>